%TF.GenerationSoftware,KiCad,Pcbnew,8.0.7*%
%TF.CreationDate,2025-02-24T23:51:06-05:00*%
%TF.ProjectId,pcb2,70636232-2e6b-4696-9361-645f70636258,rev?*%
%TF.SameCoordinates,Original*%
%TF.FileFunction,Copper,L1,Top*%
%TF.FilePolarity,Positive*%
%FSLAX46Y46*%
G04 Gerber Fmt 4.6, Leading zero omitted, Abs format (unit mm)*
G04 Created by KiCad (PCBNEW 8.0.7) date 2025-02-24 23:51:06*
%MOMM*%
%LPD*%
G01*
G04 APERTURE LIST*
G04 Aperture macros list*
%AMRoundRect*
0 Rectangle with rounded corners*
0 $1 Rounding radius*
0 $2 $3 $4 $5 $6 $7 $8 $9 X,Y pos of 4 corners*
0 Add a 4 corners polygon primitive as box body*
4,1,4,$2,$3,$4,$5,$6,$7,$8,$9,$2,$3,0*
0 Add four circle primitives for the rounded corners*
1,1,$1+$1,$2,$3*
1,1,$1+$1,$4,$5*
1,1,$1+$1,$6,$7*
1,1,$1+$1,$8,$9*
0 Add four rect primitives between the rounded corners*
20,1,$1+$1,$2,$3,$4,$5,0*
20,1,$1+$1,$4,$5,$6,$7,0*
20,1,$1+$1,$6,$7,$8,$9,0*
20,1,$1+$1,$8,$9,$2,$3,0*%
G04 Aperture macros list end*
%TA.AperFunction,SMDPad,CuDef*%
%ADD10R,1.244600X0.863600*%
%TD*%
%TA.AperFunction,SMDPad,CuDef*%
%ADD11RoundRect,0.090000X-0.660000X-0.360000X0.660000X-0.360000X0.660000X0.360000X-0.660000X0.360000X0*%
%TD*%
%TA.AperFunction,ComponentPad*%
%ADD12C,1.803400*%
%TD*%
%TA.AperFunction,ViaPad*%
%ADD13C,1.016000*%
%TD*%
%TA.AperFunction,Conductor*%
%ADD14C,1.016000*%
%TD*%
%TA.AperFunction,Conductor*%
%ADD15C,0.254000*%
%TD*%
G04 APERTURE END LIST*
D10*
%TO.P,C5,1*%
%TO.N,+5V*%
X147320000Y-100672900D03*
%TO.P,C5,2*%
%TO.N,GND*%
X147320000Y-102527100D03*
%TD*%
%TO.P,C2,1*%
%TO.N,+5V*%
X147320000Y-85432900D03*
%TO.P,C2,2*%
%TO.N,GND*%
X147320000Y-87287100D03*
%TD*%
D11*
%TO.P,LED6,1,VDD*%
%TO.N,+5V*%
X165100000Y-99700000D03*
%TO.P,LED6,2,DOUT*%
%TO.N,Net-(LED6-DOUT)*%
X165100000Y-103000000D03*
%TO.P,LED6,3,VSS*%
%TO.N,GND*%
X170000000Y-103000000D03*
%TO.P,LED6,4,DIN*%
%TO.N,Net-(LED5-DOUT)*%
X170000000Y-99700000D03*
%TD*%
%TO.P,LED3,1,VDD*%
%TO.N,+5V*%
X165100000Y-84850000D03*
%TO.P,LED3,2,DOUT*%
%TO.N,Net-(LED3-DOUT)*%
X165100000Y-88150000D03*
%TO.P,LED3,3,VSS*%
%TO.N,GND*%
X170000000Y-88150000D03*
%TO.P,LED3,4,DIN*%
%TO.N,Net-(LED2-DOUT)*%
X170000000Y-84850000D03*
%TD*%
D10*
%TO.P,C6,1*%
%TO.N,+5V*%
X162332000Y-100572900D03*
%TO.P,C6,2*%
%TO.N,GND*%
X162332000Y-102427100D03*
%TD*%
D11*
%TO.P,LED5,1,VDD*%
%TO.N,+5V*%
X150050000Y-99700000D03*
%TO.P,LED5,2,DOUT*%
%TO.N,Net-(LED5-DOUT)*%
X150050000Y-103000000D03*
%TO.P,LED5,3,VSS*%
%TO.N,GND*%
X154950000Y-103000000D03*
%TO.P,LED5,4,DIN*%
%TO.N,Net-(LED4-DOUT)*%
X154950000Y-99700000D03*
%TD*%
%TO.P,LED7,1,VDD*%
%TO.N,+5V*%
X135050000Y-114350000D03*
%TO.P,LED7,2,DOUT*%
%TO.N,Net-(LED7-DOUT)*%
X135050000Y-117650000D03*
%TO.P,LED7,3,VSS*%
%TO.N,GND*%
X139950000Y-117650000D03*
%TO.P,LED7,4,DIN*%
%TO.N,Net-(LED6-DOUT)*%
X139950000Y-114350000D03*
%TD*%
%TO.P,LED9,1,VDD*%
%TO.N,+5V*%
X165100000Y-114350000D03*
%TO.P,LED9,2,DOUT*%
%TO.N,unconnected-(LED9-DOUT-Pad2)*%
X165100000Y-117650000D03*
%TO.P,LED9,3,VSS*%
%TO.N,GND*%
X170000000Y-117650000D03*
%TO.P,LED9,4,DIN*%
%TO.N,Net-(LED8-DOUT)*%
X170000000Y-114350000D03*
%TD*%
D10*
%TO.P,C3,1*%
%TO.N,+5V*%
X162052000Y-85772900D03*
%TO.P,C3,2*%
%TO.N,GND*%
X162052000Y-87627100D03*
%TD*%
D11*
%TO.P,LED1,1,VDD*%
%TO.N,+5V*%
X135075000Y-84850000D03*
%TO.P,LED1,2,DOUT*%
%TO.N,Net-(LED1-DOUT)*%
X135075000Y-88150000D03*
%TO.P,LED1,3,VSS*%
%TO.N,GND*%
X139975000Y-88150000D03*
%TO.P,LED1,4,DIN*%
%TO.N,Net-(J1-Pin_2)*%
X139975000Y-84850000D03*
%TD*%
%TO.P,LED4,1,VDD*%
%TO.N,+5V*%
X135100000Y-99700000D03*
%TO.P,LED4,2,DOUT*%
%TO.N,Net-(LED4-DOUT)*%
X135100000Y-103000000D03*
%TO.P,LED4,3,VSS*%
%TO.N,GND*%
X140000000Y-103000000D03*
%TO.P,LED4,4,DIN*%
%TO.N,Net-(LED3-DOUT)*%
X140000000Y-99700000D03*
%TD*%
%TO.P,LED8,1,VDD*%
%TO.N,+5V*%
X150100000Y-114350000D03*
%TO.P,LED8,2,DOUT*%
%TO.N,Net-(LED8-DOUT)*%
X150100000Y-117650000D03*
%TO.P,LED8,3,VSS*%
%TO.N,GND*%
X155000000Y-117650000D03*
%TO.P,LED8,4,DIN*%
%TO.N,Net-(LED7-DOUT)*%
X155000000Y-114350000D03*
%TD*%
%TO.P,LED2,1,VDD*%
%TO.N,+5V*%
X150050000Y-84850000D03*
%TO.P,LED2,2,DOUT*%
%TO.N,Net-(LED2-DOUT)*%
X150050000Y-88150000D03*
%TO.P,LED2,3,VSS*%
%TO.N,GND*%
X154950000Y-88150000D03*
%TO.P,LED2,4,DIN*%
%TO.N,Net-(LED1-DOUT)*%
X154950000Y-84850000D03*
%TD*%
D10*
%TO.P,C9,1*%
%TO.N,+5V*%
X162052000Y-115912900D03*
%TO.P,C9,2*%
%TO.N,GND*%
X162052000Y-117767100D03*
%TD*%
%TO.P,C7,1*%
%TO.N,+5V*%
X132080000Y-115912900D03*
%TO.P,C7,2*%
%TO.N,GND*%
X132080000Y-117767100D03*
%TD*%
%TO.P,C4,1*%
%TO.N,+5V*%
X132080000Y-100672900D03*
%TO.P,C4,2*%
%TO.N,GND*%
X132080000Y-102527100D03*
%TD*%
%TO.P,C1,1*%
%TO.N,+5V*%
X132080000Y-85432900D03*
%TO.P,C1,2*%
%TO.N,GND*%
X132080000Y-87287100D03*
%TD*%
%TO.P,C8,1*%
%TO.N,+5V*%
X147320000Y-115912900D03*
%TO.P,C8,2*%
%TO.N,GND*%
X147320000Y-117767100D03*
%TD*%
D12*
%TO.P,J1,1,Pin_1*%
%TO.N,+5V*%
X147500000Y-78500000D03*
%TO.P,J1,2,Pin_2*%
%TO.N,Net-(J1-Pin_2)*%
X152500000Y-78500000D03*
%TO.P,J1,3,Pin_3*%
%TO.N,GND*%
X157500000Y-78500000D03*
%TD*%
D13*
%TO.N,GND*%
X159258000Y-94488000D03*
%TO.N,+5V*%
X163322000Y-114681000D03*
X148336000Y-114808000D03*
X163703000Y-84836000D03*
X133223000Y-84836000D03*
X148590000Y-84850000D03*
X148717000Y-99695000D03*
X133350000Y-114554000D03*
X133604000Y-99695000D03*
X163703000Y-99695000D03*
%TD*%
D14*
%TO.N,+5V*%
X150100000Y-114350000D02*
X148857500Y-114350000D01*
X150050000Y-99700000D02*
X148267500Y-99700000D01*
X165100000Y-84850000D02*
X162949500Y-84850000D01*
X133027500Y-99700000D02*
X132080000Y-100647500D01*
X162949500Y-84850000D02*
X162052000Y-85747500D01*
X135050000Y-114350000D02*
X133617500Y-114350000D01*
X165100000Y-114350000D02*
X163589500Y-114350000D01*
X132637500Y-84850000D02*
X132080000Y-85407500D01*
X165100000Y-99700000D02*
X162397578Y-99700000D01*
X162397578Y-99700000D02*
X162332000Y-99765578D01*
X133617500Y-114350000D02*
X132080000Y-115887500D01*
X150050000Y-84850000D02*
X148590000Y-84850000D01*
X148267500Y-99700000D02*
X147320000Y-100647500D01*
X135100000Y-99700000D02*
X133027500Y-99700000D01*
X162332000Y-99765578D02*
X162332000Y-100547500D01*
X135075000Y-84850000D02*
X132637500Y-84850000D01*
X163589500Y-114350000D02*
X162052000Y-115887500D01*
X148857500Y-114350000D02*
X147320000Y-115887500D01*
X148590000Y-84850000D02*
X147877500Y-84850000D01*
X147877500Y-84850000D02*
X147320000Y-85407500D01*
D15*
%TO.N,Net-(J1-Pin_2)*%
X141513000Y-83312000D02*
X147688000Y-83312000D01*
X139975000Y-84850000D02*
X141513000Y-83312000D01*
X147688000Y-83312000D02*
X152500000Y-78500000D01*
%TO.N,Net-(LED1-DOUT)*%
X145923000Y-83820000D02*
X153920000Y-83820000D01*
X135956800Y-87268200D02*
X142474800Y-87268200D01*
X142474800Y-87268200D02*
X145923000Y-83820000D01*
X153920000Y-83820000D02*
X154950000Y-84850000D01*
X135075000Y-88150000D02*
X135956800Y-87268200D01*
%TO.N,Net-(LED2-DOUT)*%
X168970000Y-83820000D02*
X170000000Y-84850000D01*
X160226200Y-85681000D02*
X162087200Y-83820000D01*
X150050000Y-88150000D02*
X152519000Y-85681000D01*
X152519000Y-85681000D02*
X160226200Y-85681000D01*
X162087200Y-83820000D02*
X168970000Y-83820000D01*
%TO.N,Net-(LED3-DOUT)*%
X154245922Y-98171000D02*
X141529000Y-98171000D01*
X165100000Y-88150000D02*
X164266922Y-88150000D01*
X164266922Y-88150000D02*
X154245922Y-98171000D01*
X141529000Y-98171000D02*
X140000000Y-99700000D01*
%TO.N,Net-(LED4-DOUT)*%
X154005200Y-98755200D02*
X154950000Y-99700000D01*
X135981800Y-102118200D02*
X143626800Y-102118200D01*
X143626800Y-102118200D02*
X146989800Y-98755200D01*
X135100000Y-103000000D02*
X135981800Y-102118200D01*
X146989800Y-98755200D02*
X154005200Y-98755200D01*
%TO.N,Net-(LED5-DOUT)*%
X150931800Y-102118200D02*
X158485800Y-102118200D01*
X169055200Y-98755200D02*
X170000000Y-99700000D01*
X150050000Y-103000000D02*
X150931800Y-102118200D01*
X158485800Y-102118200D02*
X161848800Y-98755200D01*
X161848800Y-98755200D02*
X169055200Y-98755200D01*
%TO.N,Net-(LED6-DOUT)*%
X141397800Y-112902200D02*
X139950000Y-114350000D01*
X155197800Y-112902200D02*
X141397800Y-112902200D01*
X165100000Y-103000000D02*
X155197800Y-112902200D01*
%TO.N,Net-(LED7-DOUT)*%
X144724800Y-116768200D02*
X148082800Y-113410200D01*
X135931800Y-116768200D02*
X144724800Y-116768200D01*
X148082800Y-113410200D02*
X154060200Y-113410200D01*
X135050000Y-117650000D02*
X135931800Y-116768200D01*
X154060200Y-113410200D02*
X155000000Y-114350000D01*
%TO.N,Net-(LED8-DOUT)*%
X150100000Y-117650000D02*
X150998900Y-116751100D01*
X168934000Y-113284000D02*
X170000000Y-114350000D01*
X162763200Y-113284000D02*
X168934000Y-113284000D01*
X159296100Y-116751100D02*
X162763200Y-113284000D01*
X150998900Y-116751100D02*
X159296100Y-116751100D01*
%TD*%
%TA.AperFunction,Conductor*%
%TO.N,GND*%
G36*
X181942539Y-71520185D02*
G01*
X181988294Y-71572989D01*
X181999500Y-71624500D01*
X181999500Y-130375500D01*
X181979815Y-130442539D01*
X181927011Y-130488294D01*
X181875500Y-130499500D01*
X123124500Y-130499500D01*
X123057461Y-130479815D01*
X123011706Y-130427011D01*
X123000500Y-130375500D01*
X123000500Y-128393713D01*
X123649500Y-128393713D01*
X123649500Y-128606286D01*
X123682753Y-128816239D01*
X123748444Y-129018414D01*
X123844951Y-129207820D01*
X123969890Y-129379786D01*
X124120213Y-129530109D01*
X124292179Y-129655048D01*
X124292181Y-129655049D01*
X124292184Y-129655051D01*
X124481588Y-129751557D01*
X124683757Y-129817246D01*
X124893713Y-129850500D01*
X124893714Y-129850500D01*
X125106286Y-129850500D01*
X125106287Y-129850500D01*
X125316243Y-129817246D01*
X125518412Y-129751557D01*
X125707816Y-129655051D01*
X125729789Y-129639086D01*
X125879786Y-129530109D01*
X125879788Y-129530106D01*
X125879792Y-129530104D01*
X126030104Y-129379792D01*
X126030106Y-129379788D01*
X126030109Y-129379786D01*
X126155048Y-129207820D01*
X126155047Y-129207820D01*
X126155051Y-129207816D01*
X126251557Y-129018412D01*
X126317246Y-128816243D01*
X126350500Y-128606287D01*
X126350500Y-128393713D01*
X178649500Y-128393713D01*
X178649500Y-128606286D01*
X178682753Y-128816239D01*
X178748444Y-129018414D01*
X178844951Y-129207820D01*
X178969890Y-129379786D01*
X179120213Y-129530109D01*
X179292179Y-129655048D01*
X179292181Y-129655049D01*
X179292184Y-129655051D01*
X179481588Y-129751557D01*
X179683757Y-129817246D01*
X179893713Y-129850500D01*
X179893714Y-129850500D01*
X180106286Y-129850500D01*
X180106287Y-129850500D01*
X180316243Y-129817246D01*
X180518412Y-129751557D01*
X180707816Y-129655051D01*
X180729789Y-129639086D01*
X180879786Y-129530109D01*
X180879788Y-129530106D01*
X180879792Y-129530104D01*
X181030104Y-129379792D01*
X181030106Y-129379788D01*
X181030109Y-129379786D01*
X181155048Y-129207820D01*
X181155047Y-129207820D01*
X181155051Y-129207816D01*
X181251557Y-129018412D01*
X181317246Y-128816243D01*
X181350500Y-128606287D01*
X181350500Y-128393713D01*
X181317246Y-128183757D01*
X181251557Y-127981588D01*
X181155051Y-127792184D01*
X181155049Y-127792181D01*
X181155048Y-127792179D01*
X181030109Y-127620213D01*
X180879786Y-127469890D01*
X180707820Y-127344951D01*
X180518414Y-127248444D01*
X180518413Y-127248443D01*
X180518412Y-127248443D01*
X180316243Y-127182754D01*
X180316241Y-127182753D01*
X180316240Y-127182753D01*
X180154957Y-127157208D01*
X180106287Y-127149500D01*
X179893713Y-127149500D01*
X179845042Y-127157208D01*
X179683760Y-127182753D01*
X179481585Y-127248444D01*
X179292179Y-127344951D01*
X179120213Y-127469890D01*
X178969890Y-127620213D01*
X178844951Y-127792179D01*
X178748444Y-127981585D01*
X178682753Y-128183760D01*
X178649500Y-128393713D01*
X126350500Y-128393713D01*
X126317246Y-128183757D01*
X126251557Y-127981588D01*
X126155051Y-127792184D01*
X126155049Y-127792181D01*
X126155048Y-127792179D01*
X126030109Y-127620213D01*
X125879786Y-127469890D01*
X125707820Y-127344951D01*
X125518414Y-127248444D01*
X125518413Y-127248443D01*
X125518412Y-127248443D01*
X125316243Y-127182754D01*
X125316241Y-127182753D01*
X125316240Y-127182753D01*
X125154957Y-127157208D01*
X125106287Y-127149500D01*
X124893713Y-127149500D01*
X124845042Y-127157208D01*
X124683760Y-127182753D01*
X124481585Y-127248444D01*
X124292179Y-127344951D01*
X124120213Y-127469890D01*
X123969890Y-127620213D01*
X123844951Y-127792179D01*
X123748444Y-127981585D01*
X123682753Y-128183760D01*
X123649500Y-128393713D01*
X123000500Y-128393713D01*
X123000500Y-118246744D01*
X130957700Y-118246744D01*
X130964101Y-118306272D01*
X130964103Y-118306279D01*
X131014345Y-118440986D01*
X131014349Y-118440993D01*
X131100509Y-118556087D01*
X131100512Y-118556090D01*
X131215606Y-118642250D01*
X131215613Y-118642254D01*
X131350320Y-118692496D01*
X131350327Y-118692498D01*
X131409855Y-118698899D01*
X131409872Y-118698900D01*
X131830000Y-118698900D01*
X132330000Y-118698900D01*
X132750128Y-118698900D01*
X132750144Y-118698899D01*
X132809672Y-118692498D01*
X132809679Y-118692496D01*
X132944386Y-118642254D01*
X132944393Y-118642250D01*
X133059487Y-118556090D01*
X133059490Y-118556087D01*
X133145650Y-118440993D01*
X133145654Y-118440986D01*
X133195896Y-118306279D01*
X133195898Y-118306272D01*
X133202299Y-118246744D01*
X133202300Y-118246727D01*
X133202300Y-118017100D01*
X132330000Y-118017100D01*
X132330000Y-118698900D01*
X131830000Y-118698900D01*
X131830000Y-118017100D01*
X130957700Y-118017100D01*
X130957700Y-118246744D01*
X123000500Y-118246744D01*
X123000500Y-115433235D01*
X130957200Y-115433235D01*
X130957200Y-116392570D01*
X130957201Y-116392576D01*
X130963608Y-116452183D01*
X131013902Y-116587028D01*
X131013906Y-116587035D01*
X131100152Y-116702244D01*
X131100153Y-116702244D01*
X131100154Y-116702246D01*
X131117441Y-116715187D01*
X131151984Y-116741046D01*
X131193854Y-116796980D01*
X131198838Y-116866671D01*
X131165352Y-116927994D01*
X131151984Y-116939578D01*
X131100509Y-116978112D01*
X131014349Y-117093206D01*
X131014345Y-117093213D01*
X130964103Y-117227920D01*
X130964101Y-117227927D01*
X130957700Y-117287455D01*
X130957700Y-117517100D01*
X133202300Y-117517100D01*
X133202300Y-117287472D01*
X133202299Y-117287455D01*
X133198411Y-117251298D01*
X133799500Y-117251298D01*
X133799500Y-118048703D01*
X133814696Y-118164142D01*
X133814699Y-118164151D01*
X133874093Y-118307541D01*
X133874200Y-118307798D01*
X133968851Y-118431149D01*
X134092202Y-118525800D01*
X134235849Y-118585301D01*
X134351299Y-118600500D01*
X135748700Y-118600499D01*
X135748703Y-118600499D01*
X135864142Y-118585303D01*
X135864146Y-118585301D01*
X135864151Y-118585301D01*
X136007798Y-118525800D01*
X136131149Y-118431149D01*
X136225800Y-118307798D01*
X136285301Y-118164151D01*
X136300500Y-118048701D01*
X136300500Y-118048670D01*
X138700000Y-118048670D01*
X138715185Y-118164019D01*
X138715187Y-118164024D01*
X138774633Y-118307541D01*
X138774633Y-118307542D01*
X138869207Y-118430792D01*
X138992458Y-118525366D01*
X139135975Y-118584812D01*
X139135980Y-118584814D01*
X139251329Y-118600000D01*
X139700000Y-118600000D01*
X140200000Y-118600000D01*
X140648671Y-118600000D01*
X140764019Y-118584814D01*
X140764024Y-118584812D01*
X140907541Y-118525366D01*
X140907542Y-118525366D01*
X141030792Y-118430792D01*
X141125366Y-118307542D01*
X141125366Y-118307541D01*
X141150549Y-118246744D01*
X146197700Y-118246744D01*
X146204101Y-118306272D01*
X146204103Y-118306279D01*
X146254345Y-118440986D01*
X146254349Y-118440993D01*
X146340509Y-118556087D01*
X146340512Y-118556090D01*
X146455606Y-118642250D01*
X146455613Y-118642254D01*
X146590320Y-118692496D01*
X146590327Y-118692498D01*
X146649855Y-118698899D01*
X146649872Y-118698900D01*
X147070000Y-118698900D01*
X147570000Y-118698900D01*
X147990128Y-118698900D01*
X147990144Y-118698899D01*
X148049672Y-118692498D01*
X148049679Y-118692496D01*
X148184386Y-118642254D01*
X148184393Y-118642250D01*
X148299487Y-118556090D01*
X148299490Y-118556087D01*
X148385650Y-118440993D01*
X148385654Y-118440986D01*
X148435896Y-118306279D01*
X148435898Y-118306272D01*
X148442299Y-118246744D01*
X148442300Y-118246727D01*
X148442300Y-118017100D01*
X147570000Y-118017100D01*
X147570000Y-118698900D01*
X147070000Y-118698900D01*
X147070000Y-118017100D01*
X146197700Y-118017100D01*
X146197700Y-118246744D01*
X141150549Y-118246744D01*
X141184812Y-118164024D01*
X141184814Y-118164019D01*
X141200000Y-118048670D01*
X141200000Y-117900000D01*
X140200000Y-117900000D01*
X140200000Y-118600000D01*
X139700000Y-118600000D01*
X139700000Y-117900000D01*
X138700000Y-117900000D01*
X138700000Y-118048670D01*
X136300500Y-118048670D01*
X136300499Y-117519699D01*
X136320183Y-117452661D01*
X136372987Y-117406906D01*
X136424499Y-117395700D01*
X138644338Y-117395700D01*
X138658982Y-117400000D01*
X141226619Y-117400000D01*
X141229304Y-117398534D01*
X141255662Y-117395700D01*
X144786604Y-117395700D01*
X144786605Y-117395699D01*
X144907835Y-117371586D01*
X144988584Y-117338137D01*
X145022033Y-117324283D01*
X145124808Y-117255611D01*
X145212211Y-117168208D01*
X145993752Y-116386665D01*
X146055073Y-116353182D01*
X146124764Y-116358166D01*
X146180698Y-116400037D01*
X146202107Y-116445829D01*
X146203608Y-116452182D01*
X146253902Y-116587028D01*
X146253906Y-116587035D01*
X146340152Y-116702244D01*
X146340153Y-116702244D01*
X146340154Y-116702246D01*
X146357441Y-116715187D01*
X146391984Y-116741046D01*
X146433854Y-116796980D01*
X146438838Y-116866671D01*
X146405352Y-116927994D01*
X146391984Y-116939578D01*
X146340509Y-116978112D01*
X146254349Y-117093206D01*
X146254345Y-117093213D01*
X146204103Y-117227920D01*
X146204101Y-117227927D01*
X146197700Y-117287455D01*
X146197700Y-117517100D01*
X148442300Y-117517100D01*
X148442300Y-117287472D01*
X148442299Y-117287455D01*
X148438411Y-117251298D01*
X148849500Y-117251298D01*
X148849500Y-118048703D01*
X148864696Y-118164142D01*
X148864699Y-118164151D01*
X148924093Y-118307541D01*
X148924200Y-118307798D01*
X149018851Y-118431149D01*
X149142202Y-118525800D01*
X149285849Y-118585301D01*
X149401299Y-118600500D01*
X150798700Y-118600499D01*
X150798703Y-118600499D01*
X150914142Y-118585303D01*
X150914146Y-118585301D01*
X150914151Y-118585301D01*
X151057798Y-118525800D01*
X151181149Y-118431149D01*
X151275800Y-118307798D01*
X151335301Y-118164151D01*
X151350500Y-118048701D01*
X151350500Y-118048670D01*
X153750000Y-118048670D01*
X153765185Y-118164019D01*
X153765187Y-118164024D01*
X153824633Y-118307541D01*
X153824633Y-118307542D01*
X153919207Y-118430792D01*
X154042458Y-118525366D01*
X154185975Y-118584812D01*
X154185980Y-118584814D01*
X154301329Y-118600000D01*
X154750000Y-118600000D01*
X155250000Y-118600000D01*
X155698671Y-118600000D01*
X155814019Y-118584814D01*
X155814024Y-118584812D01*
X155957541Y-118525366D01*
X155957542Y-118525366D01*
X156080792Y-118430792D01*
X156175366Y-118307542D01*
X156175366Y-118307541D01*
X156200549Y-118246744D01*
X160929700Y-118246744D01*
X160936101Y-118306272D01*
X160936103Y-118306279D01*
X160986345Y-118440986D01*
X160986349Y-118440993D01*
X161072509Y-118556087D01*
X161072512Y-118556090D01*
X161187606Y-118642250D01*
X161187613Y-118642254D01*
X161322320Y-118692496D01*
X161322327Y-118692498D01*
X161381855Y-118698899D01*
X161381872Y-118698900D01*
X161802000Y-118698900D01*
X162302000Y-118698900D01*
X162722128Y-118698900D01*
X162722144Y-118698899D01*
X162781672Y-118692498D01*
X162781679Y-118692496D01*
X162916386Y-118642254D01*
X162916393Y-118642250D01*
X163031487Y-118556090D01*
X163031490Y-118556087D01*
X163117650Y-118440993D01*
X163117654Y-118440986D01*
X163167896Y-118306279D01*
X163167898Y-118306272D01*
X163174299Y-118246744D01*
X163174300Y-118246727D01*
X163174300Y-118017100D01*
X162302000Y-118017100D01*
X162302000Y-118698900D01*
X161802000Y-118698900D01*
X161802000Y-118017100D01*
X160929700Y-118017100D01*
X160929700Y-118246744D01*
X156200549Y-118246744D01*
X156234812Y-118164024D01*
X156234814Y-118164019D01*
X156250000Y-118048670D01*
X156250000Y-117900000D01*
X155250000Y-117900000D01*
X155250000Y-118600000D01*
X154750000Y-118600000D01*
X154750000Y-117900000D01*
X153750000Y-117900000D01*
X153750000Y-118048670D01*
X151350500Y-118048670D01*
X151350499Y-117502599D01*
X151370183Y-117435561D01*
X151422987Y-117389806D01*
X151474499Y-117378600D01*
X153677238Y-117378600D01*
X153744277Y-117398285D01*
X153746405Y-117400000D01*
X156262403Y-117400000D01*
X156296404Y-117381434D01*
X156322762Y-117378600D01*
X159357904Y-117378600D01*
X159357905Y-117378599D01*
X159479135Y-117354486D01*
X159559884Y-117321037D01*
X159593333Y-117307183D01*
X159696108Y-117238511D01*
X159783511Y-117151108D01*
X160717521Y-116217096D01*
X160778842Y-116183613D01*
X160848533Y-116188597D01*
X160904467Y-116230468D01*
X160928884Y-116295933D01*
X160929200Y-116304778D01*
X160929200Y-116392569D01*
X160929201Y-116392576D01*
X160935608Y-116452183D01*
X160985902Y-116587028D01*
X160985906Y-116587035D01*
X161072152Y-116702244D01*
X161072153Y-116702244D01*
X161072154Y-116702246D01*
X161089441Y-116715187D01*
X161123984Y-116741046D01*
X161165854Y-116796980D01*
X161170838Y-116866671D01*
X161137352Y-116927994D01*
X161123984Y-116939578D01*
X161072509Y-116978112D01*
X160986349Y-117093206D01*
X160986345Y-117093213D01*
X160936103Y-117227920D01*
X160936101Y-117227927D01*
X160929700Y-117287455D01*
X160929700Y-117517100D01*
X163174300Y-117517100D01*
X163174300Y-117287472D01*
X163174299Y-117287455D01*
X163170411Y-117251298D01*
X163849500Y-117251298D01*
X163849500Y-118048703D01*
X163864696Y-118164142D01*
X163864699Y-118164151D01*
X163924093Y-118307541D01*
X163924200Y-118307798D01*
X164018851Y-118431149D01*
X164142202Y-118525800D01*
X164285849Y-118585301D01*
X164401299Y-118600500D01*
X165798700Y-118600499D01*
X165798703Y-118600499D01*
X165914142Y-118585303D01*
X165914146Y-118585301D01*
X165914151Y-118585301D01*
X166057798Y-118525800D01*
X166181149Y-118431149D01*
X166275800Y-118307798D01*
X166335301Y-118164151D01*
X166350500Y-118048701D01*
X166350500Y-118048670D01*
X168750000Y-118048670D01*
X168765185Y-118164019D01*
X168765187Y-118164024D01*
X168824633Y-118307541D01*
X168824633Y-118307542D01*
X168919207Y-118430792D01*
X169042458Y-118525366D01*
X169185975Y-118584812D01*
X169185980Y-118584814D01*
X169301329Y-118600000D01*
X169750000Y-118600000D01*
X170250000Y-118600000D01*
X170698671Y-118600000D01*
X170814019Y-118584814D01*
X170814024Y-118584812D01*
X170957541Y-118525366D01*
X170957542Y-118525366D01*
X171080792Y-118430792D01*
X171175366Y-118307542D01*
X171175366Y-118307541D01*
X171234812Y-118164024D01*
X171234814Y-118164019D01*
X171250000Y-118048670D01*
X171250000Y-117900000D01*
X170250000Y-117900000D01*
X170250000Y-118600000D01*
X169750000Y-118600000D01*
X169750000Y-117900000D01*
X168750000Y-117900000D01*
X168750000Y-118048670D01*
X166350500Y-118048670D01*
X166350499Y-117251329D01*
X168750000Y-117251329D01*
X168750000Y-117400000D01*
X169750000Y-117400000D01*
X170250000Y-117400000D01*
X171250000Y-117400000D01*
X171250000Y-117251329D01*
X171234814Y-117135980D01*
X171234812Y-117135975D01*
X171175366Y-116992458D01*
X171175366Y-116992457D01*
X171080792Y-116869207D01*
X170957541Y-116774633D01*
X170814024Y-116715187D01*
X170814019Y-116715185D01*
X170698671Y-116700000D01*
X170250000Y-116700000D01*
X170250000Y-117400000D01*
X169750000Y-117400000D01*
X169750000Y-116700000D01*
X169301329Y-116700000D01*
X169185980Y-116715185D01*
X169185975Y-116715187D01*
X169042458Y-116774633D01*
X169042457Y-116774633D01*
X168919207Y-116869207D01*
X168824633Y-116992457D01*
X168824633Y-116992458D01*
X168765187Y-117135975D01*
X168765185Y-117135980D01*
X168750000Y-117251329D01*
X166350499Y-117251329D01*
X166350499Y-117251300D01*
X166350499Y-117251298D01*
X166350499Y-117251296D01*
X166335303Y-117135857D01*
X166335301Y-117135850D01*
X166335301Y-117135849D01*
X166275800Y-116992202D01*
X166181149Y-116868851D01*
X166057798Y-116774200D01*
X166057794Y-116774198D01*
X165914151Y-116714699D01*
X165914149Y-116714698D01*
X165798701Y-116699500D01*
X164401296Y-116699500D01*
X164285857Y-116714696D01*
X164285848Y-116714699D01*
X164142205Y-116774198D01*
X164142202Y-116774199D01*
X164142202Y-116774200D01*
X164021692Y-116866671D01*
X164018851Y-116868851D01*
X163924198Y-116992205D01*
X163864699Y-117135848D01*
X163864698Y-117135850D01*
X163849500Y-117251298D01*
X163170411Y-117251298D01*
X163167898Y-117227927D01*
X163167896Y-117227920D01*
X163117654Y-117093213D01*
X163117650Y-117093206D01*
X163031490Y-116978113D01*
X162980016Y-116939579D01*
X162938145Y-116883645D01*
X162933161Y-116813953D01*
X162966646Y-116752630D01*
X162980007Y-116741052D01*
X163031846Y-116702246D01*
X163118096Y-116587031D01*
X163168391Y-116452183D01*
X163174800Y-116392573D01*
X163174799Y-116242295D01*
X163194483Y-116175256D01*
X163211113Y-116154619D01*
X163779913Y-115585819D01*
X163809134Y-115564147D01*
X163885004Y-115523595D01*
X164038568Y-115397568D01*
X164038572Y-115397562D01*
X164041311Y-115394825D01*
X164043104Y-115393845D01*
X164043277Y-115393704D01*
X164043303Y-115393736D01*
X164102631Y-115361336D01*
X164128998Y-115358500D01*
X165199330Y-115358500D01*
X165199331Y-115358499D01*
X165394169Y-115319744D01*
X165409438Y-115313418D01*
X165417843Y-115309938D01*
X165465296Y-115300499D01*
X165798703Y-115300499D01*
X165914142Y-115285303D01*
X165914146Y-115285301D01*
X165914151Y-115285301D01*
X166057798Y-115225800D01*
X166181149Y-115131149D01*
X166275800Y-115007798D01*
X166335301Y-114864151D01*
X166350500Y-114748701D01*
X166350499Y-114035499D01*
X166370183Y-113968461D01*
X166422987Y-113922706D01*
X166474499Y-113911500D01*
X168622719Y-113911500D01*
X168689758Y-113931185D01*
X168710400Y-113947819D01*
X168713181Y-113950600D01*
X168746666Y-114011923D01*
X168749500Y-114038281D01*
X168749500Y-114748703D01*
X168764696Y-114864142D01*
X168764699Y-114864151D01*
X168812934Y-114980601D01*
X168824200Y-115007798D01*
X168918851Y-115131149D01*
X169042202Y-115225800D01*
X169185849Y-115285301D01*
X169301299Y-115300500D01*
X170698700Y-115300499D01*
X170698703Y-115300499D01*
X170814142Y-115285303D01*
X170814146Y-115285301D01*
X170814151Y-115285301D01*
X170957798Y-115225800D01*
X171081149Y-115131149D01*
X171175800Y-115007798D01*
X171235301Y-114864151D01*
X171250500Y-114748701D01*
X171250499Y-113951300D01*
X171250499Y-113951298D01*
X171250499Y-113951296D01*
X171235303Y-113835857D01*
X171235301Y-113835850D01*
X171235301Y-113835849D01*
X171175800Y-113692202D01*
X171081149Y-113568851D01*
X170957798Y-113474200D01*
X170957794Y-113474198D01*
X170814151Y-113414699D01*
X170814149Y-113414698D01*
X170698702Y-113399500D01*
X170698701Y-113399500D01*
X169988281Y-113399500D01*
X169921242Y-113379815D01*
X169900600Y-113363181D01*
X169334011Y-112796591D01*
X169334007Y-112796588D01*
X169231239Y-112727920D01*
X169231226Y-112727913D01*
X169197785Y-112714062D01*
X169117035Y-112680614D01*
X169117027Y-112680612D01*
X168995807Y-112656500D01*
X168995803Y-112656500D01*
X162825003Y-112656500D01*
X162701397Y-112656500D01*
X162701392Y-112656500D01*
X162580173Y-112680611D01*
X162580173Y-112680612D01*
X162580170Y-112680613D01*
X162580166Y-112680614D01*
X162513270Y-112708323D01*
X162513268Y-112708323D01*
X162465970Y-112727915D01*
X162363189Y-112796590D01*
X162363188Y-112796591D01*
X159072500Y-116087281D01*
X159011177Y-116120766D01*
X158984819Y-116123600D01*
X150937092Y-116123600D01*
X150815873Y-116147711D01*
X150815873Y-116147712D01*
X150815870Y-116147713D01*
X150815866Y-116147714D01*
X150748970Y-116175423D01*
X150748968Y-116175423D01*
X150701670Y-116195015D01*
X150598888Y-116263691D01*
X150199398Y-116663181D01*
X150138075Y-116696666D01*
X150111717Y-116699500D01*
X149401296Y-116699500D01*
X149285857Y-116714696D01*
X149285848Y-116714699D01*
X149142205Y-116774198D01*
X149142202Y-116774199D01*
X149142202Y-116774200D01*
X149021692Y-116866671D01*
X149018851Y-116868851D01*
X148924198Y-116992205D01*
X148864699Y-117135848D01*
X148864698Y-117135850D01*
X148849500Y-117251298D01*
X148438411Y-117251298D01*
X148435898Y-117227927D01*
X148435896Y-117227920D01*
X148385654Y-117093213D01*
X148385650Y-117093206D01*
X148299490Y-116978113D01*
X148248016Y-116939579D01*
X148206145Y-116883645D01*
X148201161Y-116813953D01*
X148234646Y-116752630D01*
X148248007Y-116741052D01*
X148299846Y-116702246D01*
X148386096Y-116587031D01*
X148436391Y-116452183D01*
X148442800Y-116392573D01*
X148442799Y-116242295D01*
X148462483Y-116175256D01*
X148479113Y-116154619D01*
X149238915Y-115394819D01*
X149300238Y-115361334D01*
X149326596Y-115358500D01*
X150199330Y-115358500D01*
X150199331Y-115358499D01*
X150394169Y-115319744D01*
X150409438Y-115313418D01*
X150417843Y-115309938D01*
X150465296Y-115300499D01*
X150798703Y-115300499D01*
X150914142Y-115285303D01*
X150914146Y-115285301D01*
X150914151Y-115285301D01*
X151057798Y-115225800D01*
X151181149Y-115131149D01*
X151275800Y-115007798D01*
X151335301Y-114864151D01*
X151350500Y-114748701D01*
X151350499Y-114161699D01*
X151370183Y-114094661D01*
X151422987Y-114048906D01*
X151474499Y-114037700D01*
X153625500Y-114037700D01*
X153692539Y-114057385D01*
X153738294Y-114110189D01*
X153749500Y-114161700D01*
X153749500Y-114748703D01*
X153764696Y-114864142D01*
X153764699Y-114864151D01*
X153812934Y-114980601D01*
X153824200Y-115007798D01*
X153918851Y-115131149D01*
X154042202Y-115225800D01*
X154185849Y-115285301D01*
X154301299Y-115300500D01*
X155698700Y-115300499D01*
X155698703Y-115300499D01*
X155814142Y-115285303D01*
X155814146Y-115285301D01*
X155814151Y-115285301D01*
X155957798Y-115225800D01*
X156081149Y-115131149D01*
X156175800Y-115007798D01*
X156235301Y-114864151D01*
X156250500Y-114748701D01*
X156250499Y-113951300D01*
X156250499Y-113951298D01*
X156250499Y-113951296D01*
X156235303Y-113835857D01*
X156235301Y-113835850D01*
X156235301Y-113835849D01*
X156175800Y-113692202D01*
X156081149Y-113568851D01*
X155957798Y-113474200D01*
X155957794Y-113474198D01*
X155814885Y-113415003D01*
X155760482Y-113371162D01*
X155738417Y-113304868D01*
X155755696Y-113237168D01*
X155774653Y-113212765D01*
X165000600Y-103986817D01*
X165061923Y-103953333D01*
X165088281Y-103950499D01*
X165798703Y-103950499D01*
X165914142Y-103935303D01*
X165914146Y-103935301D01*
X165914151Y-103935301D01*
X166057798Y-103875800D01*
X166181149Y-103781149D01*
X166275800Y-103657798D01*
X166335301Y-103514151D01*
X166350500Y-103398701D01*
X166350500Y-103398670D01*
X168750000Y-103398670D01*
X168765185Y-103514019D01*
X168765187Y-103514024D01*
X168824633Y-103657541D01*
X168824633Y-103657542D01*
X168919207Y-103780792D01*
X169042458Y-103875366D01*
X169185975Y-103934812D01*
X169185980Y-103934814D01*
X169301329Y-103950000D01*
X169750000Y-103950000D01*
X170250000Y-103950000D01*
X170698671Y-103950000D01*
X170814019Y-103934814D01*
X170814024Y-103934812D01*
X170957541Y-103875366D01*
X170957542Y-103875366D01*
X171080792Y-103780792D01*
X171175366Y-103657542D01*
X171175366Y-103657541D01*
X171234812Y-103514024D01*
X171234814Y-103514019D01*
X171250000Y-103398670D01*
X171250000Y-103250000D01*
X170250000Y-103250000D01*
X170250000Y-103950000D01*
X169750000Y-103950000D01*
X169750000Y-103250000D01*
X168750000Y-103250000D01*
X168750000Y-103398670D01*
X166350500Y-103398670D01*
X166350499Y-102601329D01*
X168750000Y-102601329D01*
X168750000Y-102750000D01*
X169750000Y-102750000D01*
X170250000Y-102750000D01*
X171250000Y-102750000D01*
X171250000Y-102601329D01*
X171234814Y-102485980D01*
X171234812Y-102485975D01*
X171175366Y-102342458D01*
X171175366Y-102342457D01*
X171080792Y-102219207D01*
X170957541Y-102124633D01*
X170814024Y-102065187D01*
X170814019Y-102065185D01*
X170698671Y-102050000D01*
X170250000Y-102050000D01*
X170250000Y-102750000D01*
X169750000Y-102750000D01*
X169750000Y-102050000D01*
X169301329Y-102050000D01*
X169185980Y-102065185D01*
X169185975Y-102065187D01*
X169042458Y-102124633D01*
X169042457Y-102124633D01*
X168919207Y-102219207D01*
X168824633Y-102342457D01*
X168824633Y-102342458D01*
X168765187Y-102485975D01*
X168765185Y-102485980D01*
X168750000Y-102601329D01*
X166350499Y-102601329D01*
X166350499Y-102601300D01*
X166350499Y-102601298D01*
X166350499Y-102601296D01*
X166335303Y-102485857D01*
X166335301Y-102485850D01*
X166335301Y-102485849D01*
X166275800Y-102342202D01*
X166181149Y-102218851D01*
X166057798Y-102124200D01*
X166057794Y-102124198D01*
X165914151Y-102064699D01*
X165914149Y-102064698D01*
X165798701Y-102049500D01*
X164401296Y-102049500D01*
X164285857Y-102064696D01*
X164285848Y-102064699D01*
X164142205Y-102124198D01*
X164018851Y-102218851D01*
X163924198Y-102342205D01*
X163864699Y-102485848D01*
X163864698Y-102485850D01*
X163849500Y-102601298D01*
X163849500Y-103311718D01*
X163829815Y-103378757D01*
X163813181Y-103399399D01*
X154974200Y-112238381D01*
X154912877Y-112271866D01*
X154886519Y-112274700D01*
X141335994Y-112274700D01*
X141214770Y-112298813D01*
X141214760Y-112298816D01*
X141100573Y-112346113D01*
X141100560Y-112346120D01*
X140997792Y-112414788D01*
X140997788Y-112414791D01*
X140049398Y-113363181D01*
X139988075Y-113396666D01*
X139961717Y-113399500D01*
X139251296Y-113399500D01*
X139135857Y-113414696D01*
X139135848Y-113414699D01*
X138992205Y-113474198D01*
X138992202Y-113474199D01*
X138992202Y-113474200D01*
X138872542Y-113566019D01*
X138868851Y-113568851D01*
X138774198Y-113692205D01*
X138714699Y-113835848D01*
X138714698Y-113835850D01*
X138699500Y-113951298D01*
X138699500Y-114748703D01*
X138714696Y-114864142D01*
X138714699Y-114864151D01*
X138762934Y-114980601D01*
X138774200Y-115007798D01*
X138868851Y-115131149D01*
X138992202Y-115225800D01*
X139135849Y-115285301D01*
X139251299Y-115300500D01*
X140648700Y-115300499D01*
X140648703Y-115300499D01*
X140764142Y-115285303D01*
X140764146Y-115285301D01*
X140764151Y-115285301D01*
X140907798Y-115225800D01*
X141031149Y-115131149D01*
X141125800Y-115007798D01*
X141185301Y-114864151D01*
X141200500Y-114748701D01*
X141200499Y-114038280D01*
X141220183Y-113971242D01*
X141236818Y-113950600D01*
X141621400Y-113566019D01*
X141682723Y-113532534D01*
X141709081Y-113529700D01*
X146776519Y-113529700D01*
X146843558Y-113549385D01*
X146889313Y-113602189D01*
X146899257Y-113671347D01*
X146870232Y-113734903D01*
X146864200Y-113741381D01*
X144501200Y-116104381D01*
X144439877Y-116137866D01*
X144413519Y-116140700D01*
X135869992Y-116140700D01*
X135748773Y-116164811D01*
X135748773Y-116164812D01*
X135748770Y-116164813D01*
X135748766Y-116164814D01*
X135681870Y-116192523D01*
X135681868Y-116192523D01*
X135634568Y-116212116D01*
X135634564Y-116212118D01*
X135557383Y-116263689D01*
X135551027Y-116267936D01*
X135531789Y-116280790D01*
X135149398Y-116663181D01*
X135088075Y-116696666D01*
X135061717Y-116699500D01*
X134351296Y-116699500D01*
X134235857Y-116714696D01*
X134235848Y-116714699D01*
X134092205Y-116774198D01*
X134092202Y-116774199D01*
X134092202Y-116774200D01*
X133971692Y-116866671D01*
X133968851Y-116868851D01*
X133874198Y-116992205D01*
X133814699Y-117135848D01*
X133814698Y-117135850D01*
X133799500Y-117251298D01*
X133198411Y-117251298D01*
X133195898Y-117227927D01*
X133195896Y-117227920D01*
X133145654Y-117093213D01*
X133145650Y-117093206D01*
X133059490Y-116978113D01*
X133008016Y-116939579D01*
X132966145Y-116883645D01*
X132961161Y-116813953D01*
X132994646Y-116752630D01*
X133008007Y-116741052D01*
X133059846Y-116702246D01*
X133146096Y-116587031D01*
X133196391Y-116452183D01*
X133202800Y-116392573D01*
X133202799Y-116242295D01*
X133222483Y-116175256D01*
X133239113Y-116154619D01*
X133998915Y-115394819D01*
X134060238Y-115361334D01*
X134086596Y-115358500D01*
X135149330Y-115358500D01*
X135149331Y-115358499D01*
X135344169Y-115319744D01*
X135359438Y-115313418D01*
X135367843Y-115309938D01*
X135415296Y-115300499D01*
X135748703Y-115300499D01*
X135864142Y-115285303D01*
X135864146Y-115285301D01*
X135864151Y-115285301D01*
X136007798Y-115225800D01*
X136131149Y-115131149D01*
X136225800Y-115007798D01*
X136285301Y-114864151D01*
X136300500Y-114748701D01*
X136300499Y-113951300D01*
X136300499Y-113951298D01*
X136300499Y-113951296D01*
X136285303Y-113835857D01*
X136285301Y-113835850D01*
X136285301Y-113835849D01*
X136225800Y-113692202D01*
X136131149Y-113568851D01*
X136007798Y-113474200D01*
X136007794Y-113474198D01*
X135864151Y-113414699D01*
X135864149Y-113414698D01*
X135748702Y-113399500D01*
X135748701Y-113399500D01*
X135415293Y-113399500D01*
X135367840Y-113390061D01*
X135344169Y-113380256D01*
X135344161Y-113380254D01*
X135149333Y-113341500D01*
X135149329Y-113341500D01*
X133518171Y-113341500D01*
X133518166Y-113341500D01*
X133323338Y-113380254D01*
X133323330Y-113380256D01*
X133139798Y-113456277D01*
X133139789Y-113456282D01*
X132974622Y-113566644D01*
X132892085Y-113649179D01*
X132862860Y-113670853D01*
X132786994Y-113711405D01*
X132633431Y-113837431D01*
X132507405Y-113990994D01*
X132466852Y-114066862D01*
X132445176Y-114096088D01*
X131596983Y-114944281D01*
X131535660Y-114977766D01*
X131509303Y-114980600D01*
X131409830Y-114980600D01*
X131409823Y-114980601D01*
X131350216Y-114987008D01*
X131215371Y-115037302D01*
X131215364Y-115037306D01*
X131100155Y-115123552D01*
X131100152Y-115123555D01*
X131013906Y-115238764D01*
X131013902Y-115238771D01*
X130963608Y-115373617D01*
X130957201Y-115433216D01*
X130957200Y-115433235D01*
X123000500Y-115433235D01*
X123000500Y-103006744D01*
X130957700Y-103006744D01*
X130964101Y-103066272D01*
X130964103Y-103066279D01*
X131014345Y-103200986D01*
X131014349Y-103200993D01*
X131100509Y-103316087D01*
X131100512Y-103316090D01*
X131215606Y-103402250D01*
X131215613Y-103402254D01*
X131350320Y-103452496D01*
X131350327Y-103452498D01*
X131409855Y-103458899D01*
X131409872Y-103458900D01*
X131830000Y-103458900D01*
X132330000Y-103458900D01*
X132750128Y-103458900D01*
X132750144Y-103458899D01*
X132809672Y-103452498D01*
X132809679Y-103452496D01*
X132944386Y-103402254D01*
X132944393Y-103402250D01*
X133059487Y-103316090D01*
X133059490Y-103316087D01*
X133145650Y-103200993D01*
X133145654Y-103200986D01*
X133195896Y-103066279D01*
X133195898Y-103066272D01*
X133202299Y-103006744D01*
X133202300Y-103006727D01*
X133202300Y-102777100D01*
X132330000Y-102777100D01*
X132330000Y-103458900D01*
X131830000Y-103458900D01*
X131830000Y-102777100D01*
X130957700Y-102777100D01*
X130957700Y-103006744D01*
X123000500Y-103006744D01*
X123000500Y-102601298D01*
X133849500Y-102601298D01*
X133849500Y-103398703D01*
X133864696Y-103514142D01*
X133864699Y-103514151D01*
X133924093Y-103657541D01*
X133924200Y-103657798D01*
X134018851Y-103781149D01*
X134142202Y-103875800D01*
X134285849Y-103935301D01*
X134401299Y-103950500D01*
X135798700Y-103950499D01*
X135798703Y-103950499D01*
X135914142Y-103935303D01*
X135914146Y-103935301D01*
X135914151Y-103935301D01*
X136057798Y-103875800D01*
X136181149Y-103781149D01*
X136275800Y-103657798D01*
X136335301Y-103514151D01*
X136350500Y-103398701D01*
X136350500Y-103398670D01*
X138750000Y-103398670D01*
X138765185Y-103514019D01*
X138765187Y-103514024D01*
X138824633Y-103657541D01*
X138824633Y-103657542D01*
X138919207Y-103780792D01*
X139042458Y-103875366D01*
X139185975Y-103934812D01*
X139185980Y-103934814D01*
X139301329Y-103950000D01*
X139750000Y-103950000D01*
X140250000Y-103950000D01*
X140698671Y-103950000D01*
X140814019Y-103934814D01*
X140814024Y-103934812D01*
X140957541Y-103875366D01*
X140957542Y-103875366D01*
X141080792Y-103780792D01*
X141175366Y-103657542D01*
X141175366Y-103657541D01*
X141234812Y-103514024D01*
X141234814Y-103514019D01*
X141250000Y-103398670D01*
X141250000Y-103250000D01*
X140250000Y-103250000D01*
X140250000Y-103950000D01*
X139750000Y-103950000D01*
X139750000Y-103250000D01*
X138750000Y-103250000D01*
X138750000Y-103398670D01*
X136350500Y-103398670D01*
X136350499Y-103006744D01*
X146197700Y-103006744D01*
X146204101Y-103066272D01*
X146204103Y-103066279D01*
X146254345Y-103200986D01*
X146254349Y-103200993D01*
X146340509Y-103316087D01*
X146340512Y-103316090D01*
X146455606Y-103402250D01*
X146455613Y-103402254D01*
X146590320Y-103452496D01*
X146590327Y-103452498D01*
X146649855Y-103458899D01*
X146649872Y-103458900D01*
X147070000Y-103458900D01*
X147570000Y-103458900D01*
X147990128Y-103458900D01*
X147990144Y-103458899D01*
X148049672Y-103452498D01*
X148049679Y-103452496D01*
X148184386Y-103402254D01*
X148184393Y-103402250D01*
X148299487Y-103316090D01*
X148299490Y-103316087D01*
X148385650Y-103200993D01*
X148385654Y-103200986D01*
X148435896Y-103066279D01*
X148435898Y-103066272D01*
X148442299Y-103006744D01*
X148442300Y-103006727D01*
X148442300Y-102777100D01*
X147570000Y-102777100D01*
X147570000Y-103458900D01*
X147070000Y-103458900D01*
X147070000Y-102777100D01*
X146197700Y-102777100D01*
X146197700Y-103006744D01*
X136350499Y-103006744D01*
X136350499Y-102869699D01*
X136370183Y-102802661D01*
X136422987Y-102756906D01*
X136474499Y-102745700D01*
X138694338Y-102745700D01*
X138708982Y-102750000D01*
X141276619Y-102750000D01*
X141279304Y-102748534D01*
X141305662Y-102745700D01*
X143688604Y-102745700D01*
X143688605Y-102745699D01*
X143809835Y-102721586D01*
X143890584Y-102688137D01*
X143924033Y-102674283D01*
X144026808Y-102605611D01*
X144031121Y-102601298D01*
X148799500Y-102601298D01*
X148799500Y-103398703D01*
X148814696Y-103514142D01*
X148814699Y-103514151D01*
X148874093Y-103657541D01*
X148874200Y-103657798D01*
X148968851Y-103781149D01*
X149092202Y-103875800D01*
X149235849Y-103935301D01*
X149351299Y-103950500D01*
X150748700Y-103950499D01*
X150748703Y-103950499D01*
X150864142Y-103935303D01*
X150864146Y-103935301D01*
X150864151Y-103935301D01*
X151007798Y-103875800D01*
X151131149Y-103781149D01*
X151225800Y-103657798D01*
X151285301Y-103514151D01*
X151300500Y-103398701D01*
X151300500Y-103398670D01*
X153700000Y-103398670D01*
X153715185Y-103514019D01*
X153715187Y-103514024D01*
X153774633Y-103657541D01*
X153774633Y-103657542D01*
X153869207Y-103780792D01*
X153992458Y-103875366D01*
X154135975Y-103934812D01*
X154135980Y-103934814D01*
X154251329Y-103950000D01*
X154700000Y-103950000D01*
X155200000Y-103950000D01*
X155648671Y-103950000D01*
X155764019Y-103934814D01*
X155764024Y-103934812D01*
X155907541Y-103875366D01*
X155907542Y-103875366D01*
X156030792Y-103780792D01*
X156125366Y-103657542D01*
X156125366Y-103657541D01*
X156184812Y-103514024D01*
X156184814Y-103514019D01*
X156200000Y-103398670D01*
X156200000Y-103250000D01*
X155200000Y-103250000D01*
X155200000Y-103950000D01*
X154700000Y-103950000D01*
X154700000Y-103250000D01*
X153700000Y-103250000D01*
X153700000Y-103398670D01*
X151300500Y-103398670D01*
X151300499Y-102906744D01*
X161209700Y-102906744D01*
X161216101Y-102966272D01*
X161216103Y-102966279D01*
X161266345Y-103100986D01*
X161266349Y-103100993D01*
X161352509Y-103216087D01*
X161352512Y-103216090D01*
X161467606Y-103302250D01*
X161467613Y-103302254D01*
X161602320Y-103352496D01*
X161602327Y-103352498D01*
X161661855Y-103358899D01*
X161661872Y-103358900D01*
X162082000Y-103358900D01*
X162582000Y-103358900D01*
X163002128Y-103358900D01*
X163002144Y-103358899D01*
X163061672Y-103352498D01*
X163061679Y-103352496D01*
X163196386Y-103302254D01*
X163196393Y-103302250D01*
X163311487Y-103216090D01*
X163311490Y-103216087D01*
X163397650Y-103100993D01*
X163397654Y-103100986D01*
X163447896Y-102966279D01*
X163447898Y-102966272D01*
X163454299Y-102906744D01*
X163454300Y-102906727D01*
X163454300Y-102677100D01*
X162582000Y-102677100D01*
X162582000Y-103358900D01*
X162082000Y-103358900D01*
X162082000Y-102677100D01*
X161209700Y-102677100D01*
X161209700Y-102906744D01*
X151300499Y-102906744D01*
X151300499Y-102869699D01*
X151320183Y-102802661D01*
X151372987Y-102756906D01*
X151424499Y-102745700D01*
X153644338Y-102745700D01*
X153658982Y-102750000D01*
X156226619Y-102750000D01*
X156229304Y-102748534D01*
X156255662Y-102745700D01*
X158547604Y-102745700D01*
X158547605Y-102745699D01*
X158668835Y-102721586D01*
X158749584Y-102688137D01*
X158783033Y-102674283D01*
X158885808Y-102605611D01*
X158973211Y-102518208D01*
X160997521Y-100493896D01*
X161058842Y-100460413D01*
X161128534Y-100465397D01*
X161184467Y-100507269D01*
X161208884Y-100572733D01*
X161209200Y-100581579D01*
X161209200Y-101052570D01*
X161209201Y-101052576D01*
X161215608Y-101112183D01*
X161265902Y-101247028D01*
X161265906Y-101247035D01*
X161352152Y-101362244D01*
X161352153Y-101362244D01*
X161352154Y-101362246D01*
X161400247Y-101398249D01*
X161403984Y-101401046D01*
X161445854Y-101456980D01*
X161450838Y-101526671D01*
X161417352Y-101587994D01*
X161403984Y-101599578D01*
X161352509Y-101638112D01*
X161266349Y-101753206D01*
X161266345Y-101753213D01*
X161216103Y-101887920D01*
X161216101Y-101887927D01*
X161209700Y-101947455D01*
X161209700Y-102177100D01*
X163454300Y-102177100D01*
X163454300Y-101947472D01*
X163454299Y-101947455D01*
X163447898Y-101887927D01*
X163447896Y-101887920D01*
X163397654Y-101753213D01*
X163397650Y-101753206D01*
X163311490Y-101638113D01*
X163260016Y-101599579D01*
X163218145Y-101543645D01*
X163213161Y-101473953D01*
X163246646Y-101412630D01*
X163260007Y-101401052D01*
X163311846Y-101362246D01*
X163398096Y-101247031D01*
X163448391Y-101112183D01*
X163454800Y-101052573D01*
X163454800Y-100832500D01*
X163474485Y-100765461D01*
X163527289Y-100719706D01*
X163578800Y-100708500D01*
X165199330Y-100708500D01*
X165199331Y-100708499D01*
X165394169Y-100669744D01*
X165409438Y-100663418D01*
X165417843Y-100659938D01*
X165465296Y-100650499D01*
X165798703Y-100650499D01*
X165914142Y-100635303D01*
X165914146Y-100635301D01*
X165914151Y-100635301D01*
X166057798Y-100575800D01*
X166181149Y-100481149D01*
X166275800Y-100357798D01*
X166335301Y-100214151D01*
X166350500Y-100098701D01*
X166350499Y-99506699D01*
X166370183Y-99439661D01*
X166422987Y-99393906D01*
X166474499Y-99382700D01*
X168625500Y-99382700D01*
X168692539Y-99402385D01*
X168738294Y-99455189D01*
X168749500Y-99506700D01*
X168749500Y-100098703D01*
X168764696Y-100214142D01*
X168764699Y-100214151D01*
X168824200Y-100357798D01*
X168918851Y-100481149D01*
X169042202Y-100575800D01*
X169185849Y-100635301D01*
X169301299Y-100650500D01*
X170698700Y-100650499D01*
X170698703Y-100650499D01*
X170814142Y-100635303D01*
X170814146Y-100635301D01*
X170814151Y-100635301D01*
X170957798Y-100575800D01*
X171081149Y-100481149D01*
X171175800Y-100357798D01*
X171235301Y-100214151D01*
X171250500Y-100098701D01*
X171250499Y-99301300D01*
X171250499Y-99301298D01*
X171250499Y-99301296D01*
X171235303Y-99185857D01*
X171235301Y-99185850D01*
X171235301Y-99185849D01*
X171175800Y-99042202D01*
X171081149Y-98918851D01*
X170957798Y-98824200D01*
X170957794Y-98824198D01*
X170814151Y-98764699D01*
X170814149Y-98764698D01*
X170698702Y-98749500D01*
X170698701Y-98749500D01*
X169988281Y-98749500D01*
X169921242Y-98729815D01*
X169900600Y-98713181D01*
X169455211Y-98267791D01*
X169455207Y-98267788D01*
X169352439Y-98199120D01*
X169352426Y-98199113D01*
X169318985Y-98185262D01*
X169238235Y-98151814D01*
X169238227Y-98151812D01*
X169117007Y-98127700D01*
X169117003Y-98127700D01*
X161786997Y-98127700D01*
X161786995Y-98127700D01*
X161665770Y-98151813D01*
X161665760Y-98151816D01*
X161551573Y-98199113D01*
X161551560Y-98199120D01*
X161448792Y-98267788D01*
X161448788Y-98267791D01*
X158262200Y-101454381D01*
X158200877Y-101487866D01*
X158174519Y-101490700D01*
X150869992Y-101490700D01*
X150748773Y-101514812D01*
X150748765Y-101514814D01*
X150685015Y-101541221D01*
X150634563Y-101562118D01*
X150570090Y-101605199D01*
X150531789Y-101630790D01*
X150149398Y-102013181D01*
X150088075Y-102046666D01*
X150061717Y-102049500D01*
X149351296Y-102049500D01*
X149235857Y-102064696D01*
X149235848Y-102064699D01*
X149092205Y-102124198D01*
X148968851Y-102218851D01*
X148874198Y-102342205D01*
X148814699Y-102485848D01*
X148814698Y-102485850D01*
X148799500Y-102601298D01*
X144031121Y-102601298D01*
X144114211Y-102518208D01*
X145985521Y-100646896D01*
X146046842Y-100613413D01*
X146116533Y-100618397D01*
X146172467Y-100660269D01*
X146196884Y-100725733D01*
X146197200Y-100734579D01*
X146197200Y-101152570D01*
X146197201Y-101152576D01*
X146203608Y-101212183D01*
X146253902Y-101347028D01*
X146253906Y-101347035D01*
X146340152Y-101462244D01*
X146340153Y-101462244D01*
X146340154Y-101462246D01*
X146355793Y-101473953D01*
X146391984Y-101501046D01*
X146433854Y-101556980D01*
X146438838Y-101626671D01*
X146405352Y-101687994D01*
X146391984Y-101699578D01*
X146340509Y-101738112D01*
X146254349Y-101853206D01*
X146254345Y-101853213D01*
X146204103Y-101987920D01*
X146204101Y-101987927D01*
X146197700Y-102047455D01*
X146197700Y-102277100D01*
X148442300Y-102277100D01*
X148442300Y-102047472D01*
X148442299Y-102047455D01*
X148435898Y-101987927D01*
X148435896Y-101987920D01*
X148385654Y-101853213D01*
X148385650Y-101853206D01*
X148299490Y-101738113D01*
X148248016Y-101699579D01*
X148206145Y-101643645D01*
X148201161Y-101573953D01*
X148234646Y-101512630D01*
X148248007Y-101501052D01*
X148299846Y-101462246D01*
X148386096Y-101347031D01*
X148436391Y-101212183D01*
X148442800Y-101152573D01*
X148442799Y-101002295D01*
X148462483Y-100935256D01*
X148479109Y-100914624D01*
X148648916Y-100744816D01*
X148710239Y-100711334D01*
X148736596Y-100708500D01*
X150149330Y-100708500D01*
X150149331Y-100708499D01*
X150344169Y-100669744D01*
X150359438Y-100663418D01*
X150367843Y-100659938D01*
X150415296Y-100650499D01*
X150748703Y-100650499D01*
X150864142Y-100635303D01*
X150864146Y-100635301D01*
X150864151Y-100635301D01*
X151007798Y-100575800D01*
X151131149Y-100481149D01*
X151225800Y-100357798D01*
X151285301Y-100214151D01*
X151300500Y-100098701D01*
X151300499Y-99506699D01*
X151320183Y-99439661D01*
X151372987Y-99393906D01*
X151424499Y-99382700D01*
X153575500Y-99382700D01*
X153642539Y-99402385D01*
X153688294Y-99455189D01*
X153699500Y-99506700D01*
X153699500Y-100098703D01*
X153714696Y-100214142D01*
X153714699Y-100214151D01*
X153774200Y-100357798D01*
X153868851Y-100481149D01*
X153992202Y-100575800D01*
X154135849Y-100635301D01*
X154251299Y-100650500D01*
X155648700Y-100650499D01*
X155648703Y-100650499D01*
X155764142Y-100635303D01*
X155764146Y-100635301D01*
X155764151Y-100635301D01*
X155907798Y-100575800D01*
X156031149Y-100481149D01*
X156125800Y-100357798D01*
X156185301Y-100214151D01*
X156200500Y-100098701D01*
X156200499Y-99301300D01*
X156200499Y-99301298D01*
X156200499Y-99301296D01*
X156185303Y-99185857D01*
X156185301Y-99185850D01*
X156185301Y-99185849D01*
X156125800Y-99042202D01*
X156031149Y-98918851D01*
X155907798Y-98824200D01*
X155907794Y-98824198D01*
X155764151Y-98764699D01*
X155764149Y-98764698D01*
X155648702Y-98749500D01*
X155648701Y-98749500D01*
X154938281Y-98749500D01*
X154871242Y-98729815D01*
X154850600Y-98713181D01*
X154808560Y-98671141D01*
X154775075Y-98609818D01*
X154780059Y-98540126D01*
X154808556Y-98495784D01*
X164183573Y-89120766D01*
X164244894Y-89087283D01*
X164287437Y-89085510D01*
X164401299Y-89100500D01*
X165798700Y-89100499D01*
X165798703Y-89100499D01*
X165914142Y-89085303D01*
X165914146Y-89085301D01*
X165914151Y-89085301D01*
X166057798Y-89025800D01*
X166181149Y-88931149D01*
X166275800Y-88807798D01*
X166335301Y-88664151D01*
X166350500Y-88548701D01*
X166350500Y-88548670D01*
X168750000Y-88548670D01*
X168765185Y-88664019D01*
X168765187Y-88664024D01*
X168824633Y-88807541D01*
X168824633Y-88807542D01*
X168919207Y-88930792D01*
X169042458Y-89025366D01*
X169185975Y-89084812D01*
X169185980Y-89084814D01*
X169301329Y-89100000D01*
X169750000Y-89100000D01*
X170250000Y-89100000D01*
X170698671Y-89100000D01*
X170814019Y-89084814D01*
X170814024Y-89084812D01*
X170957541Y-89025366D01*
X170957542Y-89025366D01*
X171080792Y-88930792D01*
X171175366Y-88807542D01*
X171175366Y-88807541D01*
X171234812Y-88664024D01*
X171234814Y-88664019D01*
X171250000Y-88548670D01*
X171250000Y-88400000D01*
X170250000Y-88400000D01*
X170250000Y-89100000D01*
X169750000Y-89100000D01*
X169750000Y-88400000D01*
X168750000Y-88400000D01*
X168750000Y-88548670D01*
X166350500Y-88548670D01*
X166350499Y-87751329D01*
X168750000Y-87751329D01*
X168750000Y-87900000D01*
X169750000Y-87900000D01*
X170250000Y-87900000D01*
X171250000Y-87900000D01*
X171250000Y-87751329D01*
X171234814Y-87635980D01*
X171234812Y-87635975D01*
X171175366Y-87492458D01*
X171175366Y-87492457D01*
X171080792Y-87369207D01*
X170957541Y-87274633D01*
X170814024Y-87215187D01*
X170814019Y-87215185D01*
X170698671Y-87200000D01*
X170250000Y-87200000D01*
X170250000Y-87900000D01*
X169750000Y-87900000D01*
X169750000Y-87200000D01*
X169301329Y-87200000D01*
X169185980Y-87215185D01*
X169185975Y-87215187D01*
X169042458Y-87274633D01*
X169042457Y-87274633D01*
X168919207Y-87369207D01*
X168824633Y-87492457D01*
X168824633Y-87492458D01*
X168765187Y-87635975D01*
X168765185Y-87635980D01*
X168750000Y-87751329D01*
X166350499Y-87751329D01*
X166350499Y-87751300D01*
X166350499Y-87751298D01*
X166350499Y-87751296D01*
X166335303Y-87635857D01*
X166335301Y-87635850D01*
X166335301Y-87635849D01*
X166275800Y-87492202D01*
X166181149Y-87368851D01*
X166057798Y-87274200D01*
X166057794Y-87274198D01*
X165914151Y-87214699D01*
X165914149Y-87214698D01*
X165798701Y-87199500D01*
X164401296Y-87199500D01*
X164285857Y-87214696D01*
X164285848Y-87214699D01*
X164142205Y-87274198D01*
X164018851Y-87368851D01*
X163924198Y-87492205D01*
X163864698Y-87635851D01*
X163862698Y-87643315D01*
X163830606Y-87698895D01*
X163385981Y-88143521D01*
X163324658Y-88177006D01*
X163254967Y-88172022D01*
X163199033Y-88130151D01*
X163174616Y-88064686D01*
X163174300Y-88055840D01*
X163174300Y-87877100D01*
X162302000Y-87877100D01*
X162302000Y-88558900D01*
X162671240Y-88558900D01*
X162738279Y-88578585D01*
X162784034Y-88631389D01*
X162793978Y-88700547D01*
X162764953Y-88764103D01*
X162758921Y-88770581D01*
X154022322Y-97507181D01*
X153960999Y-97540666D01*
X153934641Y-97543500D01*
X141467192Y-97543500D01*
X141345973Y-97567611D01*
X141345973Y-97567612D01*
X141345970Y-97567613D01*
X141345966Y-97567614D01*
X141279070Y-97595323D01*
X141279068Y-97595323D01*
X141231770Y-97614915D01*
X141128989Y-97683590D01*
X140099398Y-98713181D01*
X140038075Y-98746666D01*
X140011717Y-98749500D01*
X139301296Y-98749500D01*
X139185857Y-98764696D01*
X139185848Y-98764699D01*
X139042205Y-98824198D01*
X139042202Y-98824199D01*
X139042202Y-98824200D01*
X138918851Y-98918851D01*
X138853742Y-99003703D01*
X138824198Y-99042205D01*
X138764699Y-99185848D01*
X138764698Y-99185850D01*
X138749500Y-99301298D01*
X138749500Y-100098703D01*
X138764696Y-100214142D01*
X138764699Y-100214151D01*
X138824200Y-100357798D01*
X138918851Y-100481149D01*
X139042202Y-100575800D01*
X139185849Y-100635301D01*
X139301299Y-100650500D01*
X140698700Y-100650499D01*
X140698703Y-100650499D01*
X140814142Y-100635303D01*
X140814146Y-100635301D01*
X140814151Y-100635301D01*
X140957798Y-100575800D01*
X141081149Y-100481149D01*
X141175800Y-100357798D01*
X141235301Y-100214151D01*
X141250500Y-100098701D01*
X141250499Y-99388280D01*
X141270183Y-99321242D01*
X141286818Y-99300600D01*
X141752600Y-98834819D01*
X141813923Y-98801334D01*
X141840281Y-98798500D01*
X145759719Y-98798500D01*
X145826758Y-98818185D01*
X145872513Y-98870989D01*
X145882457Y-98940147D01*
X145853432Y-99003703D01*
X145847400Y-99010181D01*
X143403200Y-101454381D01*
X143341877Y-101487866D01*
X143315519Y-101490700D01*
X135919992Y-101490700D01*
X135798773Y-101514812D01*
X135798765Y-101514814D01*
X135735015Y-101541221D01*
X135684563Y-101562118D01*
X135620090Y-101605199D01*
X135581789Y-101630790D01*
X135199398Y-102013181D01*
X135138075Y-102046666D01*
X135111717Y-102049500D01*
X134401296Y-102049500D01*
X134285857Y-102064696D01*
X134285848Y-102064699D01*
X134142205Y-102124198D01*
X134018851Y-102218851D01*
X133924198Y-102342205D01*
X133864699Y-102485848D01*
X133864698Y-102485850D01*
X133849500Y-102601298D01*
X123000500Y-102601298D01*
X123000500Y-100193235D01*
X130957200Y-100193235D01*
X130957200Y-101152570D01*
X130957201Y-101152576D01*
X130963608Y-101212183D01*
X131013902Y-101347028D01*
X131013906Y-101347035D01*
X131100152Y-101462244D01*
X131100153Y-101462244D01*
X131100154Y-101462246D01*
X131115793Y-101473953D01*
X131151984Y-101501046D01*
X131193854Y-101556980D01*
X131198838Y-101626671D01*
X131165352Y-101687994D01*
X131151984Y-101699578D01*
X131100509Y-101738112D01*
X131014349Y-101853206D01*
X131014345Y-101853213D01*
X130964103Y-101987920D01*
X130964101Y-101987927D01*
X130957700Y-102047455D01*
X130957700Y-102277100D01*
X133202300Y-102277100D01*
X133202300Y-102047472D01*
X133202299Y-102047455D01*
X133195898Y-101987927D01*
X133195896Y-101987920D01*
X133145654Y-101853213D01*
X133145650Y-101853206D01*
X133059490Y-101738113D01*
X133008016Y-101699579D01*
X132966145Y-101643645D01*
X132961161Y-101573953D01*
X132994646Y-101512630D01*
X133008007Y-101501052D01*
X133059846Y-101462246D01*
X133146096Y-101347031D01*
X133196391Y-101212183D01*
X133202800Y-101152573D01*
X133202799Y-101002295D01*
X133222483Y-100935256D01*
X133239109Y-100914624D01*
X133408916Y-100744816D01*
X133470239Y-100711334D01*
X133496596Y-100708500D01*
X135199330Y-100708500D01*
X135199331Y-100708499D01*
X135394169Y-100669744D01*
X135409438Y-100663418D01*
X135417843Y-100659938D01*
X135465296Y-100650499D01*
X135798703Y-100650499D01*
X135914142Y-100635303D01*
X135914146Y-100635301D01*
X135914151Y-100635301D01*
X136057798Y-100575800D01*
X136181149Y-100481149D01*
X136275800Y-100357798D01*
X136335301Y-100214151D01*
X136350500Y-100098701D01*
X136350499Y-99301300D01*
X136350499Y-99301298D01*
X136350499Y-99301296D01*
X136335303Y-99185857D01*
X136335301Y-99185850D01*
X136335301Y-99185849D01*
X136275800Y-99042202D01*
X136181149Y-98918851D01*
X136057798Y-98824200D01*
X136057794Y-98824198D01*
X135914151Y-98764699D01*
X135914149Y-98764698D01*
X135798702Y-98749500D01*
X135798701Y-98749500D01*
X135465293Y-98749500D01*
X135417840Y-98740061D01*
X135394169Y-98730256D01*
X135394161Y-98730254D01*
X135199333Y-98691500D01*
X135199329Y-98691500D01*
X133710406Y-98691500D01*
X133698252Y-98690903D01*
X133604000Y-98681620D01*
X133509748Y-98690903D01*
X133497594Y-98691500D01*
X132928169Y-98691500D01*
X132819173Y-98713181D01*
X132749283Y-98727083D01*
X132743939Y-98728145D01*
X132733332Y-98730255D01*
X132733330Y-98730256D01*
X132549798Y-98806277D01*
X132549789Y-98806282D01*
X132384619Y-98916646D01*
X132384615Y-98916649D01*
X131596983Y-99704281D01*
X131535660Y-99737766D01*
X131509303Y-99740600D01*
X131409830Y-99740600D01*
X131409823Y-99740601D01*
X131350216Y-99747008D01*
X131215371Y-99797302D01*
X131215364Y-99797306D01*
X131100155Y-99883552D01*
X131100152Y-99883555D01*
X131013906Y-99998764D01*
X131013902Y-99998771D01*
X130963608Y-100133617D01*
X130957201Y-100193216D01*
X130957200Y-100193235D01*
X123000500Y-100193235D01*
X123000500Y-87766744D01*
X130957700Y-87766744D01*
X130964101Y-87826272D01*
X130964103Y-87826279D01*
X131014345Y-87960986D01*
X131014349Y-87960993D01*
X131100509Y-88076087D01*
X131100512Y-88076090D01*
X131215606Y-88162250D01*
X131215613Y-88162254D01*
X131350320Y-88212496D01*
X131350327Y-88212498D01*
X131409855Y-88218899D01*
X131409872Y-88218900D01*
X131830000Y-88218900D01*
X132330000Y-88218900D01*
X132750128Y-88218900D01*
X132750144Y-88218899D01*
X132809672Y-88212498D01*
X132809679Y-88212496D01*
X132944386Y-88162254D01*
X132944393Y-88162250D01*
X133059487Y-88076090D01*
X133059490Y-88076087D01*
X133145650Y-87960993D01*
X133145654Y-87960986D01*
X133195896Y-87826279D01*
X133195898Y-87826272D01*
X133202299Y-87766744D01*
X133202300Y-87766727D01*
X133202300Y-87751298D01*
X133824500Y-87751298D01*
X133824500Y-88548703D01*
X133839696Y-88664142D01*
X133839699Y-88664151D01*
X133899093Y-88807541D01*
X133899200Y-88807798D01*
X133993851Y-88931149D01*
X134117202Y-89025800D01*
X134260849Y-89085301D01*
X134376299Y-89100500D01*
X135773700Y-89100499D01*
X135773703Y-89100499D01*
X135889142Y-89085303D01*
X135889146Y-89085301D01*
X135889151Y-89085301D01*
X136032798Y-89025800D01*
X136156149Y-88931149D01*
X136250800Y-88807798D01*
X136310301Y-88664151D01*
X136325500Y-88548701D01*
X136325500Y-88548670D01*
X138725000Y-88548670D01*
X138740185Y-88664019D01*
X138740187Y-88664024D01*
X138799633Y-88807541D01*
X138799633Y-88807542D01*
X138894207Y-88930792D01*
X139017458Y-89025366D01*
X139160975Y-89084812D01*
X139160980Y-89084814D01*
X139276329Y-89100000D01*
X139725000Y-89100000D01*
X140225000Y-89100000D01*
X140673671Y-89100000D01*
X140789019Y-89084814D01*
X140789024Y-89084812D01*
X140932541Y-89025366D01*
X140932542Y-89025366D01*
X141055792Y-88930792D01*
X141150366Y-88807542D01*
X141150366Y-88807541D01*
X141209812Y-88664024D01*
X141209814Y-88664019D01*
X141225000Y-88548670D01*
X141225000Y-88400000D01*
X140225000Y-88400000D01*
X140225000Y-89100000D01*
X139725000Y-89100000D01*
X139725000Y-88400000D01*
X138725000Y-88400000D01*
X138725000Y-88548670D01*
X136325500Y-88548670D01*
X136325499Y-88019699D01*
X136345183Y-87952661D01*
X136397987Y-87906906D01*
X136449499Y-87895700D01*
X138669338Y-87895700D01*
X138683982Y-87900000D01*
X141251619Y-87900000D01*
X141254304Y-87898534D01*
X141280662Y-87895700D01*
X142536604Y-87895700D01*
X142536605Y-87895699D01*
X142657835Y-87871586D01*
X142738584Y-87838137D01*
X142772033Y-87824283D01*
X142858146Y-87766744D01*
X146197700Y-87766744D01*
X146204101Y-87826272D01*
X146204103Y-87826279D01*
X146254345Y-87960986D01*
X146254349Y-87960993D01*
X146340509Y-88076087D01*
X146340512Y-88076090D01*
X146455606Y-88162250D01*
X146455613Y-88162254D01*
X146590320Y-88212496D01*
X146590327Y-88212498D01*
X146649855Y-88218899D01*
X146649872Y-88218900D01*
X147070000Y-88218900D01*
X147570000Y-88218900D01*
X147990128Y-88218900D01*
X147990144Y-88218899D01*
X148049672Y-88212498D01*
X148049679Y-88212496D01*
X148184386Y-88162254D01*
X148184393Y-88162250D01*
X148299487Y-88076090D01*
X148299490Y-88076087D01*
X148385650Y-87960993D01*
X148385654Y-87960986D01*
X148435896Y-87826279D01*
X148435898Y-87826272D01*
X148442299Y-87766744D01*
X148442300Y-87766727D01*
X148442300Y-87537100D01*
X147570000Y-87537100D01*
X147570000Y-88218900D01*
X147070000Y-88218900D01*
X147070000Y-87537100D01*
X146197700Y-87537100D01*
X146197700Y-87766744D01*
X142858146Y-87766744D01*
X142874808Y-87755611D01*
X142962211Y-87668208D01*
X146146600Y-84483819D01*
X146207923Y-84450334D01*
X146234281Y-84447500D01*
X146239198Y-84447500D01*
X146306237Y-84467185D01*
X146351992Y-84519989D01*
X146361936Y-84589147D01*
X146338464Y-84645811D01*
X146253906Y-84758764D01*
X146253902Y-84758771D01*
X146203608Y-84893617D01*
X146197201Y-84953216D01*
X146197200Y-84953235D01*
X146197200Y-85912570D01*
X146197201Y-85912576D01*
X146203608Y-85972183D01*
X146253902Y-86107028D01*
X146253906Y-86107035D01*
X146340152Y-86222244D01*
X146340153Y-86222244D01*
X146340154Y-86222246D01*
X146359974Y-86237083D01*
X146391984Y-86261046D01*
X146433854Y-86316980D01*
X146438838Y-86386671D01*
X146405352Y-86447994D01*
X146391984Y-86459578D01*
X146340509Y-86498112D01*
X146254349Y-86613206D01*
X146254345Y-86613213D01*
X146204103Y-86747920D01*
X146204101Y-86747927D01*
X146197700Y-86807455D01*
X146197700Y-87037100D01*
X148442300Y-87037100D01*
X148442300Y-86807472D01*
X148442299Y-86807455D01*
X148435898Y-86747927D01*
X148435896Y-86747920D01*
X148385654Y-86613213D01*
X148385650Y-86613206D01*
X148299490Y-86498113D01*
X148248016Y-86459579D01*
X148206145Y-86403645D01*
X148201161Y-86333953D01*
X148234646Y-86272630D01*
X148248007Y-86261052D01*
X148299846Y-86222246D01*
X148386096Y-86107031D01*
X148436391Y-85972183D01*
X148436437Y-85971749D01*
X148436568Y-85971433D01*
X148438174Y-85964638D01*
X148439274Y-85964898D01*
X148463170Y-85907198D01*
X148520560Y-85867346D01*
X148571880Y-85861595D01*
X148590000Y-85863380D01*
X148633486Y-85859097D01*
X148645640Y-85858500D01*
X150149330Y-85858500D01*
X150149331Y-85858499D01*
X150344169Y-85819744D01*
X150359438Y-85813418D01*
X150367843Y-85809938D01*
X150415296Y-85800499D01*
X150748703Y-85800499D01*
X150864142Y-85785303D01*
X150864146Y-85785301D01*
X150864151Y-85785301D01*
X151007798Y-85725800D01*
X151131149Y-85631149D01*
X151225800Y-85507798D01*
X151285301Y-85364151D01*
X151300500Y-85248701D01*
X151300499Y-84571499D01*
X151320183Y-84504461D01*
X151372987Y-84458706D01*
X151424499Y-84447500D01*
X153575500Y-84447500D01*
X153642539Y-84467185D01*
X153688294Y-84519989D01*
X153699500Y-84571500D01*
X153699500Y-84758771D01*
X153699501Y-84929500D01*
X153679817Y-84996539D01*
X153627013Y-85042294D01*
X153575501Y-85053500D01*
X152457195Y-85053500D01*
X152335970Y-85077613D01*
X152335960Y-85077616D01*
X152221773Y-85124913D01*
X152221760Y-85124920D01*
X152118992Y-85193588D01*
X152118988Y-85193591D01*
X150149398Y-87163181D01*
X150088075Y-87196666D01*
X150061717Y-87199500D01*
X149351296Y-87199500D01*
X149235857Y-87214696D01*
X149235848Y-87214699D01*
X149092205Y-87274198D01*
X148968851Y-87368851D01*
X148874198Y-87492205D01*
X148814699Y-87635848D01*
X148814698Y-87635850D01*
X148799500Y-87751298D01*
X148799500Y-88548703D01*
X148814696Y-88664142D01*
X148814699Y-88664151D01*
X148874093Y-88807541D01*
X148874200Y-88807798D01*
X148968851Y-88931149D01*
X149092202Y-89025800D01*
X149235849Y-89085301D01*
X149351299Y-89100500D01*
X150748700Y-89100499D01*
X150748703Y-89100499D01*
X150864142Y-89085303D01*
X150864146Y-89085301D01*
X150864151Y-89085301D01*
X151007798Y-89025800D01*
X151131149Y-88931149D01*
X151225800Y-88807798D01*
X151285301Y-88664151D01*
X151300500Y-88548701D01*
X151300500Y-88548670D01*
X153700000Y-88548670D01*
X153715185Y-88664019D01*
X153715187Y-88664024D01*
X153774633Y-88807541D01*
X153774633Y-88807542D01*
X153869207Y-88930792D01*
X153992458Y-89025366D01*
X154135975Y-89084812D01*
X154135980Y-89084814D01*
X154251329Y-89100000D01*
X154700000Y-89100000D01*
X155200000Y-89100000D01*
X155648671Y-89100000D01*
X155764019Y-89084814D01*
X155764024Y-89084812D01*
X155907541Y-89025366D01*
X155907542Y-89025366D01*
X156030792Y-88930792D01*
X156125366Y-88807542D01*
X156125366Y-88807541D01*
X156184812Y-88664024D01*
X156184814Y-88664019D01*
X156200000Y-88548670D01*
X156200000Y-88400000D01*
X155200000Y-88400000D01*
X155200000Y-89100000D01*
X154700000Y-89100000D01*
X154700000Y-88400000D01*
X153700000Y-88400000D01*
X153700000Y-88548670D01*
X151300500Y-88548670D01*
X151300499Y-88106744D01*
X160929700Y-88106744D01*
X160936101Y-88166272D01*
X160936103Y-88166279D01*
X160986345Y-88300986D01*
X160986349Y-88300993D01*
X161072509Y-88416087D01*
X161072512Y-88416090D01*
X161187606Y-88502250D01*
X161187613Y-88502254D01*
X161322320Y-88552496D01*
X161322327Y-88552498D01*
X161381855Y-88558899D01*
X161381872Y-88558900D01*
X161802000Y-88558900D01*
X161802000Y-87877100D01*
X160929700Y-87877100D01*
X160929700Y-88106744D01*
X151300499Y-88106744D01*
X151300499Y-87838279D01*
X151320183Y-87771241D01*
X151336229Y-87751329D01*
X153700000Y-87751329D01*
X153700000Y-87900000D01*
X154700000Y-87900000D01*
X155200000Y-87900000D01*
X156200000Y-87900000D01*
X156200000Y-87751329D01*
X156184814Y-87635980D01*
X156184812Y-87635975D01*
X156125366Y-87492458D01*
X156125366Y-87492457D01*
X156030792Y-87369207D01*
X155907541Y-87274633D01*
X155764024Y-87215187D01*
X155764019Y-87215185D01*
X155648671Y-87200000D01*
X155200000Y-87200000D01*
X155200000Y-87900000D01*
X154700000Y-87900000D01*
X154700000Y-87200000D01*
X154251329Y-87200000D01*
X154135980Y-87215185D01*
X154135975Y-87215187D01*
X153992458Y-87274633D01*
X153992457Y-87274633D01*
X153869207Y-87369207D01*
X153774633Y-87492457D01*
X153774633Y-87492458D01*
X153715187Y-87635975D01*
X153715185Y-87635980D01*
X153700000Y-87751329D01*
X151336229Y-87751329D01*
X151336813Y-87750604D01*
X152742600Y-86344819D01*
X152803923Y-86311334D01*
X152830281Y-86308500D01*
X160288004Y-86308500D01*
X160288005Y-86308499D01*
X160409235Y-86284386D01*
X160489984Y-86250937D01*
X160523433Y-86237083D01*
X160626208Y-86168411D01*
X160713611Y-86081008D01*
X160717510Y-86077108D01*
X160778826Y-86043617D01*
X160848519Y-86048593D01*
X160904458Y-86090457D01*
X160928883Y-86155918D01*
X160929200Y-86164779D01*
X160929200Y-86252569D01*
X160929201Y-86252576D01*
X160935608Y-86312183D01*
X160985902Y-86447028D01*
X160985906Y-86447035D01*
X161072152Y-86562244D01*
X161072153Y-86562244D01*
X161072154Y-86562246D01*
X161120247Y-86598249D01*
X161123984Y-86601046D01*
X161165854Y-86656980D01*
X161170838Y-86726671D01*
X161137352Y-86787994D01*
X161123984Y-86799578D01*
X161072509Y-86838112D01*
X160986349Y-86953206D01*
X160986345Y-86953213D01*
X160936103Y-87087920D01*
X160936101Y-87087927D01*
X160929700Y-87147455D01*
X160929700Y-87377100D01*
X163174300Y-87377100D01*
X163174300Y-87147472D01*
X163174299Y-87147455D01*
X163167898Y-87087927D01*
X163167896Y-87087920D01*
X163117654Y-86953213D01*
X163117650Y-86953206D01*
X163031490Y-86838113D01*
X162980016Y-86799579D01*
X162938145Y-86743645D01*
X162933161Y-86673953D01*
X162966646Y-86612630D01*
X162980007Y-86601052D01*
X163031846Y-86562246D01*
X163118096Y-86447031D01*
X163168391Y-86312183D01*
X163174800Y-86252573D01*
X163174799Y-86102297D01*
X163194483Y-86035258D01*
X163211118Y-86014615D01*
X163330917Y-85894818D01*
X163392241Y-85861334D01*
X163418598Y-85858500D01*
X165199330Y-85858500D01*
X165199331Y-85858499D01*
X165394169Y-85819744D01*
X165409438Y-85813418D01*
X165417843Y-85809938D01*
X165465296Y-85800499D01*
X165798703Y-85800499D01*
X165914142Y-85785303D01*
X165914146Y-85785301D01*
X165914151Y-85785301D01*
X166057798Y-85725800D01*
X166181149Y-85631149D01*
X166275800Y-85507798D01*
X166335301Y-85364151D01*
X166350500Y-85248701D01*
X166350499Y-84571499D01*
X166370183Y-84504461D01*
X166422987Y-84458706D01*
X166474499Y-84447500D01*
X168625500Y-84447500D01*
X168692539Y-84467185D01*
X168738294Y-84519989D01*
X168749500Y-84571500D01*
X168749500Y-85248703D01*
X168764696Y-85364142D01*
X168764699Y-85364151D01*
X168824200Y-85507798D01*
X168918851Y-85631149D01*
X169042202Y-85725800D01*
X169185849Y-85785301D01*
X169301299Y-85800500D01*
X170698700Y-85800499D01*
X170698703Y-85800499D01*
X170814142Y-85785303D01*
X170814146Y-85785301D01*
X170814151Y-85785301D01*
X170957798Y-85725800D01*
X171081149Y-85631149D01*
X171175800Y-85507798D01*
X171235301Y-85364151D01*
X171250500Y-85248701D01*
X171250499Y-84451300D01*
X171250499Y-84451298D01*
X171250499Y-84451296D01*
X171235303Y-84335857D01*
X171235301Y-84335850D01*
X171235301Y-84335849D01*
X171175800Y-84192202D01*
X171081149Y-84068851D01*
X170957798Y-83974200D01*
X170957794Y-83974198D01*
X170814151Y-83914699D01*
X170814149Y-83914698D01*
X170698702Y-83899500D01*
X170698701Y-83899500D01*
X169988281Y-83899500D01*
X169921242Y-83879815D01*
X169900600Y-83863181D01*
X169370011Y-83332591D01*
X169370007Y-83332588D01*
X169267239Y-83263920D01*
X169267226Y-83263913D01*
X169233785Y-83250062D01*
X169153035Y-83216614D01*
X169153027Y-83216612D01*
X169031807Y-83192500D01*
X169031803Y-83192500D01*
X162149003Y-83192500D01*
X162025396Y-83192500D01*
X162025394Y-83192500D01*
X161904170Y-83216613D01*
X161904160Y-83216616D01*
X161789973Y-83263913D01*
X161789960Y-83263920D01*
X161687192Y-83332588D01*
X161687188Y-83332591D01*
X160002600Y-85017181D01*
X159941277Y-85050666D01*
X159914919Y-85053500D01*
X156324500Y-85053500D01*
X156257461Y-85033815D01*
X156211706Y-84981011D01*
X156200500Y-84929500D01*
X156200499Y-84451296D01*
X156185303Y-84335857D01*
X156185301Y-84335850D01*
X156185301Y-84335849D01*
X156125800Y-84192202D01*
X156031149Y-84068851D01*
X155907798Y-83974200D01*
X155907794Y-83974198D01*
X155764151Y-83914699D01*
X155764149Y-83914698D01*
X155648702Y-83899500D01*
X155648701Y-83899500D01*
X154938281Y-83899500D01*
X154871242Y-83879815D01*
X154850600Y-83863181D01*
X154320011Y-83332591D01*
X154320007Y-83332588D01*
X154217239Y-83263920D01*
X154217226Y-83263913D01*
X154183785Y-83250062D01*
X154103035Y-83216614D01*
X154103027Y-83216612D01*
X153981807Y-83192500D01*
X153981803Y-83192500D01*
X148994281Y-83192500D01*
X148927242Y-83172815D01*
X148881487Y-83120011D01*
X148871543Y-83050853D01*
X148900568Y-82987297D01*
X148906600Y-82980819D01*
X149239238Y-82648181D01*
X152002247Y-79885170D01*
X152063568Y-79851687D01*
X152130190Y-79855572D01*
X152154599Y-79863952D01*
X152383810Y-79902200D01*
X152616190Y-79902200D01*
X152845400Y-79863952D01*
X153065188Y-79788499D01*
X153269559Y-79677898D01*
X153270098Y-79677479D01*
X153331138Y-79629969D01*
X153452939Y-79535168D01*
X153610325Y-79364201D01*
X153737425Y-79169661D01*
X153830771Y-78956854D01*
X153887816Y-78731586D01*
X153907006Y-78500000D01*
X153907006Y-78499994D01*
X156093496Y-78499994D01*
X156093496Y-78500005D01*
X156112678Y-78731499D01*
X156169704Y-78956691D01*
X156263016Y-79169421D01*
X156347584Y-79298862D01*
X156900718Y-78745727D01*
X156926016Y-78806801D01*
X156996899Y-78912885D01*
X157087115Y-79003101D01*
X157193199Y-79073984D01*
X157254271Y-79099281D01*
X156699989Y-79653562D01*
X156699989Y-79653563D01*
X156730712Y-79677476D01*
X156730717Y-79677479D01*
X156935007Y-79788035D01*
X156935017Y-79788040D01*
X157154721Y-79863464D01*
X157383853Y-79901700D01*
X157616147Y-79901700D01*
X157845278Y-79863464D01*
X158064982Y-79788040D01*
X158064992Y-79788035D01*
X158269281Y-79677480D01*
X158269287Y-79677475D01*
X158300009Y-79653563D01*
X158300010Y-79653562D01*
X157745728Y-79099281D01*
X157806801Y-79073984D01*
X157912885Y-79003101D01*
X158003101Y-78912885D01*
X158073984Y-78806801D01*
X158099280Y-78745728D01*
X158652414Y-79298862D01*
X158736982Y-79169423D01*
X158830295Y-78956691D01*
X158887321Y-78731499D01*
X158906504Y-78500005D01*
X158906504Y-78499994D01*
X158887321Y-78268500D01*
X158830295Y-78043308D01*
X158736984Y-77830581D01*
X158652414Y-77701136D01*
X158099280Y-78254270D01*
X158073984Y-78193199D01*
X158003101Y-78087115D01*
X157912885Y-77996899D01*
X157806801Y-77926016D01*
X157745726Y-77900718D01*
X158300009Y-77346436D01*
X158300009Y-77346434D01*
X158269293Y-77322527D01*
X158269282Y-77322520D01*
X158064992Y-77211964D01*
X158064982Y-77211959D01*
X157845278Y-77136535D01*
X157616147Y-77098300D01*
X157383853Y-77098300D01*
X157154721Y-77136535D01*
X156935017Y-77211959D01*
X156935012Y-77211961D01*
X156730707Y-77322527D01*
X156699989Y-77346434D01*
X156699988Y-77346436D01*
X157254271Y-77900718D01*
X157193199Y-77926016D01*
X157087115Y-77996899D01*
X156996899Y-78087115D01*
X156926016Y-78193199D01*
X156900718Y-78254272D01*
X156347583Y-77701137D01*
X156263016Y-77830578D01*
X156169704Y-78043308D01*
X156112678Y-78268500D01*
X156093496Y-78499994D01*
X153907006Y-78499994D01*
X153887816Y-78268414D01*
X153830771Y-78043146D01*
X153737425Y-77830339D01*
X153610325Y-77635799D01*
X153452939Y-77464832D01*
X153452934Y-77464828D01*
X153452932Y-77464826D01*
X153269567Y-77322107D01*
X153269561Y-77322103D01*
X153065188Y-77211501D01*
X153065180Y-77211498D01*
X152845402Y-77136048D01*
X152616190Y-77097800D01*
X152383810Y-77097800D01*
X152154597Y-77136048D01*
X151934819Y-77211498D01*
X151934811Y-77211501D01*
X151730438Y-77322103D01*
X151730432Y-77322107D01*
X151547067Y-77464826D01*
X151547064Y-77464829D01*
X151389676Y-77635797D01*
X151389673Y-77635801D01*
X151262575Y-77830337D01*
X151169229Y-78043145D01*
X151112183Y-78268417D01*
X151092994Y-78499994D01*
X151092994Y-78500005D01*
X151112183Y-78731584D01*
X151149204Y-78877780D01*
X151146578Y-78947600D01*
X151116679Y-78995900D01*
X147464400Y-82648181D01*
X147403077Y-82681666D01*
X147376719Y-82684500D01*
X141451194Y-82684500D01*
X141329970Y-82708613D01*
X141329960Y-82708616D01*
X141215774Y-82755913D01*
X141215756Y-82755923D01*
X141112992Y-82824587D01*
X141112985Y-82824593D01*
X140074398Y-83863181D01*
X140013075Y-83896666D01*
X139986717Y-83899500D01*
X139276296Y-83899500D01*
X139160857Y-83914696D01*
X139160848Y-83914699D01*
X139017205Y-83974198D01*
X139017202Y-83974199D01*
X139017202Y-83974200D01*
X138893851Y-84068851D01*
X138835648Y-84144703D01*
X138799198Y-84192205D01*
X138739699Y-84335848D01*
X138739698Y-84335850D01*
X138724500Y-84451298D01*
X138724500Y-85248703D01*
X138739696Y-85364142D01*
X138739699Y-85364151D01*
X138799200Y-85507798D01*
X138893851Y-85631149D01*
X139017202Y-85725800D01*
X139160849Y-85785301D01*
X139276299Y-85800500D01*
X140673700Y-85800499D01*
X140673703Y-85800499D01*
X140789142Y-85785303D01*
X140789146Y-85785301D01*
X140789151Y-85785301D01*
X140932798Y-85725800D01*
X141056149Y-85631149D01*
X141150800Y-85507798D01*
X141210301Y-85364151D01*
X141225500Y-85248701D01*
X141225499Y-84538280D01*
X141245183Y-84471242D01*
X141261813Y-84450605D01*
X141736601Y-83975819D01*
X141797924Y-83942334D01*
X141824282Y-83939500D01*
X144616719Y-83939500D01*
X144683758Y-83959185D01*
X144729513Y-84011989D01*
X144739457Y-84081147D01*
X144710432Y-84144703D01*
X144704400Y-84151181D01*
X142251200Y-86604381D01*
X142189877Y-86637866D01*
X142163519Y-86640700D01*
X135894992Y-86640700D01*
X135773773Y-86664811D01*
X135773773Y-86664812D01*
X135773770Y-86664813D01*
X135773766Y-86664814D01*
X135706870Y-86692523D01*
X135706868Y-86692523D01*
X135659570Y-86712115D01*
X135556789Y-86780790D01*
X135174398Y-87163181D01*
X135113075Y-87196666D01*
X135086717Y-87199500D01*
X134376296Y-87199500D01*
X134260857Y-87214696D01*
X134260848Y-87214699D01*
X134117205Y-87274198D01*
X133993851Y-87368851D01*
X133899198Y-87492205D01*
X133839699Y-87635848D01*
X133839698Y-87635850D01*
X133824500Y-87751298D01*
X133202300Y-87751298D01*
X133202300Y-87537100D01*
X132330000Y-87537100D01*
X132330000Y-88218900D01*
X131830000Y-88218900D01*
X131830000Y-87537100D01*
X130957700Y-87537100D01*
X130957700Y-87766744D01*
X123000500Y-87766744D01*
X123000500Y-84953235D01*
X130957200Y-84953235D01*
X130957200Y-85912570D01*
X130957201Y-85912576D01*
X130963608Y-85972183D01*
X131013902Y-86107028D01*
X131013906Y-86107035D01*
X131100152Y-86222244D01*
X131100153Y-86222244D01*
X131100154Y-86222246D01*
X131119974Y-86237083D01*
X131151984Y-86261046D01*
X131193854Y-86316980D01*
X131198838Y-86386671D01*
X131165352Y-86447994D01*
X131151984Y-86459578D01*
X131100509Y-86498112D01*
X131014349Y-86613206D01*
X131014345Y-86613213D01*
X130964103Y-86747920D01*
X130964101Y-86747927D01*
X130957700Y-86807455D01*
X130957700Y-87037100D01*
X133202300Y-87037100D01*
X133202300Y-86807472D01*
X133202299Y-86807455D01*
X133195898Y-86747927D01*
X133195896Y-86747920D01*
X133145654Y-86613213D01*
X133145650Y-86613206D01*
X133059490Y-86498113D01*
X133008016Y-86459579D01*
X132966145Y-86403645D01*
X132961161Y-86333953D01*
X132994646Y-86272630D01*
X133008007Y-86261052D01*
X133059846Y-86222246D01*
X133146096Y-86107031D01*
X133196391Y-85972183D01*
X133196707Y-85969243D01*
X133197588Y-85967114D01*
X133198174Y-85964638D01*
X133198575Y-85964732D01*
X133223444Y-85904695D01*
X133280836Y-85864846D01*
X133319996Y-85858500D01*
X135174330Y-85858500D01*
X135174331Y-85858499D01*
X135369169Y-85819744D01*
X135384438Y-85813418D01*
X135392843Y-85809938D01*
X135440296Y-85800499D01*
X135773703Y-85800499D01*
X135889142Y-85785303D01*
X135889146Y-85785301D01*
X135889151Y-85785301D01*
X136032798Y-85725800D01*
X136156149Y-85631149D01*
X136250800Y-85507798D01*
X136310301Y-85364151D01*
X136325500Y-85248701D01*
X136325499Y-84451300D01*
X136325499Y-84451298D01*
X136325499Y-84451296D01*
X136310303Y-84335857D01*
X136310301Y-84335850D01*
X136310301Y-84335849D01*
X136250800Y-84192202D01*
X136156149Y-84068851D01*
X136032798Y-83974200D01*
X136032794Y-83974198D01*
X135889151Y-83914699D01*
X135889149Y-83914698D01*
X135773702Y-83899500D01*
X135773701Y-83899500D01*
X135440293Y-83899500D01*
X135392840Y-83890061D01*
X135369169Y-83880256D01*
X135369161Y-83880254D01*
X135174333Y-83841500D01*
X135174329Y-83841500D01*
X133420783Y-83841500D01*
X133408629Y-83840903D01*
X133223000Y-83822620D01*
X133037371Y-83840903D01*
X133025217Y-83841500D01*
X132538166Y-83841500D01*
X132343338Y-83880254D01*
X132343330Y-83880256D01*
X132200304Y-83939500D01*
X132200303Y-83939500D01*
X132159802Y-83956275D01*
X132159789Y-83956282D01*
X131994619Y-84066646D01*
X131994615Y-84066649D01*
X131596983Y-84464281D01*
X131535660Y-84497766D01*
X131509303Y-84500600D01*
X131409830Y-84500600D01*
X131409823Y-84500601D01*
X131350216Y-84507008D01*
X131215371Y-84557302D01*
X131215364Y-84557306D01*
X131100155Y-84643552D01*
X131100152Y-84643555D01*
X131013906Y-84758764D01*
X131013902Y-84758771D01*
X130963608Y-84893617D01*
X130957201Y-84953216D01*
X130957200Y-84953235D01*
X123000500Y-84953235D01*
X123000500Y-78499994D01*
X146092994Y-78499994D01*
X146092994Y-78500005D01*
X146112183Y-78731582D01*
X146169229Y-78956854D01*
X146262575Y-79169662D01*
X146389673Y-79364198D01*
X146389675Y-79364201D01*
X146547061Y-79535168D01*
X146547064Y-79535170D01*
X146547067Y-79535173D01*
X146730432Y-79677892D01*
X146730438Y-79677896D01*
X146730441Y-79677898D01*
X146934812Y-79788499D01*
X147154600Y-79863952D01*
X147383810Y-79902200D01*
X147616190Y-79902200D01*
X147845400Y-79863952D01*
X148065188Y-79788499D01*
X148269559Y-79677898D01*
X148270098Y-79677479D01*
X148331138Y-79629969D01*
X148452939Y-79535168D01*
X148610325Y-79364201D01*
X148737425Y-79169661D01*
X148830771Y-78956854D01*
X148887816Y-78731586D01*
X148907006Y-78500000D01*
X148887816Y-78268414D01*
X148830771Y-78043146D01*
X148737425Y-77830339D01*
X148610325Y-77635799D01*
X148452939Y-77464832D01*
X148452934Y-77464828D01*
X148452932Y-77464826D01*
X148269567Y-77322107D01*
X148269561Y-77322103D01*
X148065188Y-77211501D01*
X148065180Y-77211498D01*
X147845402Y-77136048D01*
X147616190Y-77097800D01*
X147383810Y-77097800D01*
X147154597Y-77136048D01*
X146934819Y-77211498D01*
X146934811Y-77211501D01*
X146730438Y-77322103D01*
X146730432Y-77322107D01*
X146547067Y-77464826D01*
X146547064Y-77464829D01*
X146389676Y-77635797D01*
X146389673Y-77635801D01*
X146262575Y-77830337D01*
X146169229Y-78043145D01*
X146112183Y-78268417D01*
X146092994Y-78499994D01*
X123000500Y-78499994D01*
X123000500Y-73393713D01*
X123649500Y-73393713D01*
X123649500Y-73606286D01*
X123682753Y-73816239D01*
X123748444Y-74018414D01*
X123844951Y-74207820D01*
X123969890Y-74379786D01*
X124120213Y-74530109D01*
X124292179Y-74655048D01*
X124292181Y-74655049D01*
X124292184Y-74655051D01*
X124481588Y-74751557D01*
X124683757Y-74817246D01*
X124893713Y-74850500D01*
X124893714Y-74850500D01*
X125106286Y-74850500D01*
X125106287Y-74850500D01*
X125316243Y-74817246D01*
X125518412Y-74751557D01*
X125707816Y-74655051D01*
X125729789Y-74639086D01*
X125879786Y-74530109D01*
X125879788Y-74530106D01*
X125879792Y-74530104D01*
X126030104Y-74379792D01*
X126030106Y-74379788D01*
X126030109Y-74379786D01*
X126155048Y-74207820D01*
X126155047Y-74207820D01*
X126155051Y-74207816D01*
X126251557Y-74018412D01*
X126317246Y-73816243D01*
X126350500Y-73606287D01*
X126350500Y-73393713D01*
X178649500Y-73393713D01*
X178649500Y-73606286D01*
X178682753Y-73816239D01*
X178748444Y-74018414D01*
X178844951Y-74207820D01*
X178969890Y-74379786D01*
X179120213Y-74530109D01*
X179292179Y-74655048D01*
X179292181Y-74655049D01*
X179292184Y-74655051D01*
X179481588Y-74751557D01*
X179683757Y-74817246D01*
X179893713Y-74850500D01*
X179893714Y-74850500D01*
X180106286Y-74850500D01*
X180106287Y-74850500D01*
X180316243Y-74817246D01*
X180518412Y-74751557D01*
X180707816Y-74655051D01*
X180729789Y-74639086D01*
X180879786Y-74530109D01*
X180879788Y-74530106D01*
X180879792Y-74530104D01*
X181030104Y-74379792D01*
X181030106Y-74379788D01*
X181030109Y-74379786D01*
X181155048Y-74207820D01*
X181155047Y-74207820D01*
X181155051Y-74207816D01*
X181251557Y-74018412D01*
X181317246Y-73816243D01*
X181350500Y-73606287D01*
X181350500Y-73393713D01*
X181317246Y-73183757D01*
X181251557Y-72981588D01*
X181155051Y-72792184D01*
X181155049Y-72792181D01*
X181155048Y-72792179D01*
X181030109Y-72620213D01*
X180879786Y-72469890D01*
X180707820Y-72344951D01*
X180518414Y-72248444D01*
X180518413Y-72248443D01*
X180518412Y-72248443D01*
X180316243Y-72182754D01*
X180316241Y-72182753D01*
X180316240Y-72182753D01*
X180154957Y-72157208D01*
X180106287Y-72149500D01*
X179893713Y-72149500D01*
X179845042Y-72157208D01*
X179683760Y-72182753D01*
X179481585Y-72248444D01*
X179292179Y-72344951D01*
X179120213Y-72469890D01*
X178969890Y-72620213D01*
X178844951Y-72792179D01*
X178748444Y-72981585D01*
X178682753Y-73183760D01*
X178649500Y-73393713D01*
X126350500Y-73393713D01*
X126317246Y-73183757D01*
X126251557Y-72981588D01*
X126155051Y-72792184D01*
X126155049Y-72792181D01*
X126155048Y-72792179D01*
X126030109Y-72620213D01*
X125879786Y-72469890D01*
X125707820Y-72344951D01*
X125518414Y-72248444D01*
X125518413Y-72248443D01*
X125518412Y-72248443D01*
X125316243Y-72182754D01*
X125316241Y-72182753D01*
X125316240Y-72182753D01*
X125154957Y-72157208D01*
X125106287Y-72149500D01*
X124893713Y-72149500D01*
X124845042Y-72157208D01*
X124683760Y-72182753D01*
X124481585Y-72248444D01*
X124292179Y-72344951D01*
X124120213Y-72469890D01*
X123969890Y-72620213D01*
X123844951Y-72792179D01*
X123748444Y-72981585D01*
X123682753Y-73183760D01*
X123649500Y-73393713D01*
X123000500Y-73393713D01*
X123000500Y-71624500D01*
X123020185Y-71557461D01*
X123072989Y-71511706D01*
X123124500Y-71500500D01*
X181875500Y-71500500D01*
X181942539Y-71520185D01*
G37*
%TD.AperFunction*%
%TD*%
M02*
