%TF.GenerationSoftware,KiCad,Pcbnew,8.0.7*%
%TF.CreationDate,2025-02-24T23:51:06-05:00*%
%TF.ProjectId,pcb2,70636232-2e6b-4696-9361-645f70636258,rev?*%
%TF.SameCoordinates,Original*%
%TF.FileFunction,Legend,Top*%
%TF.FilePolarity,Positive*%
%FSLAX46Y46*%
G04 Gerber Fmt 4.6, Leading zero omitted, Abs format (unit mm)*
G04 Created by KiCad (PCBNEW 8.0.7) date 2025-02-24 23:51:06*
%MOMM*%
%LPD*%
G01*
G04 APERTURE LIST*
%ADD10C,0.150000*%
%ADD11C,0.152400*%
%ADD12C,0.120000*%
%ADD13C,0.508000*%
G04 APERTURE END LIST*
D10*
X147280333Y-104753580D02*
X147232714Y-104801200D01*
X147232714Y-104801200D02*
X147089857Y-104848819D01*
X147089857Y-104848819D02*
X146994619Y-104848819D01*
X146994619Y-104848819D02*
X146851762Y-104801200D01*
X146851762Y-104801200D02*
X146756524Y-104705961D01*
X146756524Y-104705961D02*
X146708905Y-104610723D01*
X146708905Y-104610723D02*
X146661286Y-104420247D01*
X146661286Y-104420247D02*
X146661286Y-104277390D01*
X146661286Y-104277390D02*
X146708905Y-104086914D01*
X146708905Y-104086914D02*
X146756524Y-103991676D01*
X146756524Y-103991676D02*
X146851762Y-103896438D01*
X146851762Y-103896438D02*
X146994619Y-103848819D01*
X146994619Y-103848819D02*
X147089857Y-103848819D01*
X147089857Y-103848819D02*
X147232714Y-103896438D01*
X147232714Y-103896438D02*
X147280333Y-103944057D01*
X148185095Y-103848819D02*
X147708905Y-103848819D01*
X147708905Y-103848819D02*
X147661286Y-104325009D01*
X147661286Y-104325009D02*
X147708905Y-104277390D01*
X147708905Y-104277390D02*
X147804143Y-104229771D01*
X147804143Y-104229771D02*
X148042238Y-104229771D01*
X148042238Y-104229771D02*
X148137476Y-104277390D01*
X148137476Y-104277390D02*
X148185095Y-104325009D01*
X148185095Y-104325009D02*
X148232714Y-104420247D01*
X148232714Y-104420247D02*
X148232714Y-104658342D01*
X148232714Y-104658342D02*
X148185095Y-104753580D01*
X148185095Y-104753580D02*
X148137476Y-104801200D01*
X148137476Y-104801200D02*
X148042238Y-104848819D01*
X148042238Y-104848819D02*
X147804143Y-104848819D01*
X147804143Y-104848819D02*
X147708905Y-104801200D01*
X147708905Y-104801200D02*
X147661286Y-104753580D01*
X147026333Y-89259580D02*
X146978714Y-89307200D01*
X146978714Y-89307200D02*
X146835857Y-89354819D01*
X146835857Y-89354819D02*
X146740619Y-89354819D01*
X146740619Y-89354819D02*
X146597762Y-89307200D01*
X146597762Y-89307200D02*
X146502524Y-89211961D01*
X146502524Y-89211961D02*
X146454905Y-89116723D01*
X146454905Y-89116723D02*
X146407286Y-88926247D01*
X146407286Y-88926247D02*
X146407286Y-88783390D01*
X146407286Y-88783390D02*
X146454905Y-88592914D01*
X146454905Y-88592914D02*
X146502524Y-88497676D01*
X146502524Y-88497676D02*
X146597762Y-88402438D01*
X146597762Y-88402438D02*
X146740619Y-88354819D01*
X146740619Y-88354819D02*
X146835857Y-88354819D01*
X146835857Y-88354819D02*
X146978714Y-88402438D01*
X146978714Y-88402438D02*
X147026333Y-88450057D01*
X147407286Y-88450057D02*
X147454905Y-88402438D01*
X147454905Y-88402438D02*
X147550143Y-88354819D01*
X147550143Y-88354819D02*
X147788238Y-88354819D01*
X147788238Y-88354819D02*
X147883476Y-88402438D01*
X147883476Y-88402438D02*
X147931095Y-88450057D01*
X147931095Y-88450057D02*
X147978714Y-88545295D01*
X147978714Y-88545295D02*
X147978714Y-88640533D01*
X147978714Y-88640533D02*
X147931095Y-88783390D01*
X147931095Y-88783390D02*
X147359667Y-89354819D01*
X147359667Y-89354819D02*
X147978714Y-89354819D01*
X166355952Y-98079819D02*
X165879762Y-98079819D01*
X165879762Y-98079819D02*
X165879762Y-97079819D01*
X166689286Y-97556009D02*
X167022619Y-97556009D01*
X167165476Y-98079819D02*
X166689286Y-98079819D01*
X166689286Y-98079819D02*
X166689286Y-97079819D01*
X166689286Y-97079819D02*
X167165476Y-97079819D01*
X167594048Y-98079819D02*
X167594048Y-97079819D01*
X167594048Y-97079819D02*
X167832143Y-97079819D01*
X167832143Y-97079819D02*
X167975000Y-97127438D01*
X167975000Y-97127438D02*
X168070238Y-97222676D01*
X168070238Y-97222676D02*
X168117857Y-97317914D01*
X168117857Y-97317914D02*
X168165476Y-97508390D01*
X168165476Y-97508390D02*
X168165476Y-97651247D01*
X168165476Y-97651247D02*
X168117857Y-97841723D01*
X168117857Y-97841723D02*
X168070238Y-97936961D01*
X168070238Y-97936961D02*
X167975000Y-98032200D01*
X167975000Y-98032200D02*
X167832143Y-98079819D01*
X167832143Y-98079819D02*
X167594048Y-98079819D01*
X169022619Y-97079819D02*
X168832143Y-97079819D01*
X168832143Y-97079819D02*
X168736905Y-97127438D01*
X168736905Y-97127438D02*
X168689286Y-97175057D01*
X168689286Y-97175057D02*
X168594048Y-97317914D01*
X168594048Y-97317914D02*
X168546429Y-97508390D01*
X168546429Y-97508390D02*
X168546429Y-97889342D01*
X168546429Y-97889342D02*
X168594048Y-97984580D01*
X168594048Y-97984580D02*
X168641667Y-98032200D01*
X168641667Y-98032200D02*
X168736905Y-98079819D01*
X168736905Y-98079819D02*
X168927381Y-98079819D01*
X168927381Y-98079819D02*
X169022619Y-98032200D01*
X169022619Y-98032200D02*
X169070238Y-97984580D01*
X169070238Y-97984580D02*
X169117857Y-97889342D01*
X169117857Y-97889342D02*
X169117857Y-97651247D01*
X169117857Y-97651247D02*
X169070238Y-97556009D01*
X169070238Y-97556009D02*
X169022619Y-97508390D01*
X169022619Y-97508390D02*
X168927381Y-97460771D01*
X168927381Y-97460771D02*
X168736905Y-97460771D01*
X168736905Y-97460771D02*
X168641667Y-97508390D01*
X168641667Y-97508390D02*
X168594048Y-97556009D01*
X168594048Y-97556009D02*
X168546429Y-97651247D01*
X164693571Y-98244819D02*
X164236428Y-98244819D01*
X164465000Y-98244819D02*
X164465000Y-97244819D01*
X164465000Y-97244819D02*
X164388809Y-97387676D01*
X164388809Y-97387676D02*
X164312619Y-97482914D01*
X164312619Y-97482914D02*
X164236428Y-97530533D01*
X166430952Y-83454819D02*
X165954762Y-83454819D01*
X165954762Y-83454819D02*
X165954762Y-82454819D01*
X166764286Y-82931009D02*
X167097619Y-82931009D01*
X167240476Y-83454819D02*
X166764286Y-83454819D01*
X166764286Y-83454819D02*
X166764286Y-82454819D01*
X166764286Y-82454819D02*
X167240476Y-82454819D01*
X167669048Y-83454819D02*
X167669048Y-82454819D01*
X167669048Y-82454819D02*
X167907143Y-82454819D01*
X167907143Y-82454819D02*
X168050000Y-82502438D01*
X168050000Y-82502438D02*
X168145238Y-82597676D01*
X168145238Y-82597676D02*
X168192857Y-82692914D01*
X168192857Y-82692914D02*
X168240476Y-82883390D01*
X168240476Y-82883390D02*
X168240476Y-83026247D01*
X168240476Y-83026247D02*
X168192857Y-83216723D01*
X168192857Y-83216723D02*
X168145238Y-83311961D01*
X168145238Y-83311961D02*
X168050000Y-83407200D01*
X168050000Y-83407200D02*
X167907143Y-83454819D01*
X167907143Y-83454819D02*
X167669048Y-83454819D01*
X168573810Y-82454819D02*
X169192857Y-82454819D01*
X169192857Y-82454819D02*
X168859524Y-82835771D01*
X168859524Y-82835771D02*
X169002381Y-82835771D01*
X169002381Y-82835771D02*
X169097619Y-82883390D01*
X169097619Y-82883390D02*
X169145238Y-82931009D01*
X169145238Y-82931009D02*
X169192857Y-83026247D01*
X169192857Y-83026247D02*
X169192857Y-83264342D01*
X169192857Y-83264342D02*
X169145238Y-83359580D01*
X169145238Y-83359580D02*
X169097619Y-83407200D01*
X169097619Y-83407200D02*
X169002381Y-83454819D01*
X169002381Y-83454819D02*
X168716667Y-83454819D01*
X168716667Y-83454819D02*
X168621429Y-83407200D01*
X168621429Y-83407200D02*
X168573810Y-83359580D01*
X164693571Y-83354819D02*
X164236428Y-83354819D01*
X164465000Y-83354819D02*
X164465000Y-82354819D01*
X164465000Y-82354819D02*
X164388809Y-82497676D01*
X164388809Y-82497676D02*
X164312619Y-82592914D01*
X164312619Y-82592914D02*
X164236428Y-82640533D01*
X162266333Y-104499580D02*
X162218714Y-104547200D01*
X162218714Y-104547200D02*
X162075857Y-104594819D01*
X162075857Y-104594819D02*
X161980619Y-104594819D01*
X161980619Y-104594819D02*
X161837762Y-104547200D01*
X161837762Y-104547200D02*
X161742524Y-104451961D01*
X161742524Y-104451961D02*
X161694905Y-104356723D01*
X161694905Y-104356723D02*
X161647286Y-104166247D01*
X161647286Y-104166247D02*
X161647286Y-104023390D01*
X161647286Y-104023390D02*
X161694905Y-103832914D01*
X161694905Y-103832914D02*
X161742524Y-103737676D01*
X161742524Y-103737676D02*
X161837762Y-103642438D01*
X161837762Y-103642438D02*
X161980619Y-103594819D01*
X161980619Y-103594819D02*
X162075857Y-103594819D01*
X162075857Y-103594819D02*
X162218714Y-103642438D01*
X162218714Y-103642438D02*
X162266333Y-103690057D01*
X163123476Y-103594819D02*
X162933000Y-103594819D01*
X162933000Y-103594819D02*
X162837762Y-103642438D01*
X162837762Y-103642438D02*
X162790143Y-103690057D01*
X162790143Y-103690057D02*
X162694905Y-103832914D01*
X162694905Y-103832914D02*
X162647286Y-104023390D01*
X162647286Y-104023390D02*
X162647286Y-104404342D01*
X162647286Y-104404342D02*
X162694905Y-104499580D01*
X162694905Y-104499580D02*
X162742524Y-104547200D01*
X162742524Y-104547200D02*
X162837762Y-104594819D01*
X162837762Y-104594819D02*
X163028238Y-104594819D01*
X163028238Y-104594819D02*
X163123476Y-104547200D01*
X163123476Y-104547200D02*
X163171095Y-104499580D01*
X163171095Y-104499580D02*
X163218714Y-104404342D01*
X163218714Y-104404342D02*
X163218714Y-104166247D01*
X163218714Y-104166247D02*
X163171095Y-104071009D01*
X163171095Y-104071009D02*
X163123476Y-104023390D01*
X163123476Y-104023390D02*
X163028238Y-103975771D01*
X163028238Y-103975771D02*
X162837762Y-103975771D01*
X162837762Y-103975771D02*
X162742524Y-104023390D01*
X162742524Y-104023390D02*
X162694905Y-104071009D01*
X162694905Y-104071009D02*
X162647286Y-104166247D01*
X151330952Y-98029819D02*
X150854762Y-98029819D01*
X150854762Y-98029819D02*
X150854762Y-97029819D01*
X151664286Y-97506009D02*
X151997619Y-97506009D01*
X152140476Y-98029819D02*
X151664286Y-98029819D01*
X151664286Y-98029819D02*
X151664286Y-97029819D01*
X151664286Y-97029819D02*
X152140476Y-97029819D01*
X152569048Y-98029819D02*
X152569048Y-97029819D01*
X152569048Y-97029819D02*
X152807143Y-97029819D01*
X152807143Y-97029819D02*
X152950000Y-97077438D01*
X152950000Y-97077438D02*
X153045238Y-97172676D01*
X153045238Y-97172676D02*
X153092857Y-97267914D01*
X153092857Y-97267914D02*
X153140476Y-97458390D01*
X153140476Y-97458390D02*
X153140476Y-97601247D01*
X153140476Y-97601247D02*
X153092857Y-97791723D01*
X153092857Y-97791723D02*
X153045238Y-97886961D01*
X153045238Y-97886961D02*
X152950000Y-97982200D01*
X152950000Y-97982200D02*
X152807143Y-98029819D01*
X152807143Y-98029819D02*
X152569048Y-98029819D01*
X154045238Y-97029819D02*
X153569048Y-97029819D01*
X153569048Y-97029819D02*
X153521429Y-97506009D01*
X153521429Y-97506009D02*
X153569048Y-97458390D01*
X153569048Y-97458390D02*
X153664286Y-97410771D01*
X153664286Y-97410771D02*
X153902381Y-97410771D01*
X153902381Y-97410771D02*
X153997619Y-97458390D01*
X153997619Y-97458390D02*
X154045238Y-97506009D01*
X154045238Y-97506009D02*
X154092857Y-97601247D01*
X154092857Y-97601247D02*
X154092857Y-97839342D01*
X154092857Y-97839342D02*
X154045238Y-97934580D01*
X154045238Y-97934580D02*
X153997619Y-97982200D01*
X153997619Y-97982200D02*
X153902381Y-98029819D01*
X153902381Y-98029819D02*
X153664286Y-98029819D01*
X153664286Y-98029819D02*
X153569048Y-97982200D01*
X153569048Y-97982200D02*
X153521429Y-97934580D01*
X136380952Y-112954819D02*
X135904762Y-112954819D01*
X135904762Y-112954819D02*
X135904762Y-111954819D01*
X136714286Y-112431009D02*
X137047619Y-112431009D01*
X137190476Y-112954819D02*
X136714286Y-112954819D01*
X136714286Y-112954819D02*
X136714286Y-111954819D01*
X136714286Y-111954819D02*
X137190476Y-111954819D01*
X137619048Y-112954819D02*
X137619048Y-111954819D01*
X137619048Y-111954819D02*
X137857143Y-111954819D01*
X137857143Y-111954819D02*
X138000000Y-112002438D01*
X138000000Y-112002438D02*
X138095238Y-112097676D01*
X138095238Y-112097676D02*
X138142857Y-112192914D01*
X138142857Y-112192914D02*
X138190476Y-112383390D01*
X138190476Y-112383390D02*
X138190476Y-112526247D01*
X138190476Y-112526247D02*
X138142857Y-112716723D01*
X138142857Y-112716723D02*
X138095238Y-112811961D01*
X138095238Y-112811961D02*
X138000000Y-112907200D01*
X138000000Y-112907200D02*
X137857143Y-112954819D01*
X137857143Y-112954819D02*
X137619048Y-112954819D01*
X138523810Y-111954819D02*
X139190476Y-111954819D01*
X139190476Y-111954819D02*
X138761905Y-112954819D01*
X134848571Y-112849819D02*
X134391428Y-112849819D01*
X134620000Y-112849819D02*
X134620000Y-111849819D01*
X134620000Y-111849819D02*
X134543809Y-111992676D01*
X134543809Y-111992676D02*
X134467619Y-112087914D01*
X134467619Y-112087914D02*
X134391428Y-112135533D01*
X166430952Y-112954819D02*
X165954762Y-112954819D01*
X165954762Y-112954819D02*
X165954762Y-111954819D01*
X166764286Y-112431009D02*
X167097619Y-112431009D01*
X167240476Y-112954819D02*
X166764286Y-112954819D01*
X166764286Y-112954819D02*
X166764286Y-111954819D01*
X166764286Y-111954819D02*
X167240476Y-111954819D01*
X167669048Y-112954819D02*
X167669048Y-111954819D01*
X167669048Y-111954819D02*
X167907143Y-111954819D01*
X167907143Y-111954819D02*
X168050000Y-112002438D01*
X168050000Y-112002438D02*
X168145238Y-112097676D01*
X168145238Y-112097676D02*
X168192857Y-112192914D01*
X168192857Y-112192914D02*
X168240476Y-112383390D01*
X168240476Y-112383390D02*
X168240476Y-112526247D01*
X168240476Y-112526247D02*
X168192857Y-112716723D01*
X168192857Y-112716723D02*
X168145238Y-112811961D01*
X168145238Y-112811961D02*
X168050000Y-112907200D01*
X168050000Y-112907200D02*
X167907143Y-112954819D01*
X167907143Y-112954819D02*
X167669048Y-112954819D01*
X168716667Y-112954819D02*
X168907143Y-112954819D01*
X168907143Y-112954819D02*
X169002381Y-112907200D01*
X169002381Y-112907200D02*
X169050000Y-112859580D01*
X169050000Y-112859580D02*
X169145238Y-112716723D01*
X169145238Y-112716723D02*
X169192857Y-112526247D01*
X169192857Y-112526247D02*
X169192857Y-112145295D01*
X169192857Y-112145295D02*
X169145238Y-112050057D01*
X169145238Y-112050057D02*
X169097619Y-112002438D01*
X169097619Y-112002438D02*
X169002381Y-111954819D01*
X169002381Y-111954819D02*
X168811905Y-111954819D01*
X168811905Y-111954819D02*
X168716667Y-112002438D01*
X168716667Y-112002438D02*
X168669048Y-112050057D01*
X168669048Y-112050057D02*
X168621429Y-112145295D01*
X168621429Y-112145295D02*
X168621429Y-112383390D01*
X168621429Y-112383390D02*
X168669048Y-112478628D01*
X168669048Y-112478628D02*
X168716667Y-112526247D01*
X168716667Y-112526247D02*
X168811905Y-112573866D01*
X168811905Y-112573866D02*
X169002381Y-112573866D01*
X169002381Y-112573866D02*
X169097619Y-112526247D01*
X169097619Y-112526247D02*
X169145238Y-112478628D01*
X169145238Y-112478628D02*
X169192857Y-112383390D01*
X164693571Y-112849819D02*
X164236428Y-112849819D01*
X164465000Y-112849819D02*
X164465000Y-111849819D01*
X164465000Y-111849819D02*
X164388809Y-111992676D01*
X164388809Y-111992676D02*
X164312619Y-112087914D01*
X164312619Y-112087914D02*
X164236428Y-112135533D01*
X161885333Y-89894580D02*
X161837714Y-89942200D01*
X161837714Y-89942200D02*
X161694857Y-89989819D01*
X161694857Y-89989819D02*
X161599619Y-89989819D01*
X161599619Y-89989819D02*
X161456762Y-89942200D01*
X161456762Y-89942200D02*
X161361524Y-89846961D01*
X161361524Y-89846961D02*
X161313905Y-89751723D01*
X161313905Y-89751723D02*
X161266286Y-89561247D01*
X161266286Y-89561247D02*
X161266286Y-89418390D01*
X161266286Y-89418390D02*
X161313905Y-89227914D01*
X161313905Y-89227914D02*
X161361524Y-89132676D01*
X161361524Y-89132676D02*
X161456762Y-89037438D01*
X161456762Y-89037438D02*
X161599619Y-88989819D01*
X161599619Y-88989819D02*
X161694857Y-88989819D01*
X161694857Y-88989819D02*
X161837714Y-89037438D01*
X161837714Y-89037438D02*
X161885333Y-89085057D01*
X162218667Y-88989819D02*
X162837714Y-88989819D01*
X162837714Y-88989819D02*
X162504381Y-89370771D01*
X162504381Y-89370771D02*
X162647238Y-89370771D01*
X162647238Y-89370771D02*
X162742476Y-89418390D01*
X162742476Y-89418390D02*
X162790095Y-89466009D01*
X162790095Y-89466009D02*
X162837714Y-89561247D01*
X162837714Y-89561247D02*
X162837714Y-89799342D01*
X162837714Y-89799342D02*
X162790095Y-89894580D01*
X162790095Y-89894580D02*
X162742476Y-89942200D01*
X162742476Y-89942200D02*
X162647238Y-89989819D01*
X162647238Y-89989819D02*
X162361524Y-89989819D01*
X162361524Y-89989819D02*
X162266286Y-89942200D01*
X162266286Y-89942200D02*
X162218667Y-89894580D01*
X136405952Y-83454819D02*
X135929762Y-83454819D01*
X135929762Y-83454819D02*
X135929762Y-82454819D01*
X136739286Y-82931009D02*
X137072619Y-82931009D01*
X137215476Y-83454819D02*
X136739286Y-83454819D01*
X136739286Y-83454819D02*
X136739286Y-82454819D01*
X136739286Y-82454819D02*
X137215476Y-82454819D01*
X137644048Y-83454819D02*
X137644048Y-82454819D01*
X137644048Y-82454819D02*
X137882143Y-82454819D01*
X137882143Y-82454819D02*
X138025000Y-82502438D01*
X138025000Y-82502438D02*
X138120238Y-82597676D01*
X138120238Y-82597676D02*
X138167857Y-82692914D01*
X138167857Y-82692914D02*
X138215476Y-82883390D01*
X138215476Y-82883390D02*
X138215476Y-83026247D01*
X138215476Y-83026247D02*
X138167857Y-83216723D01*
X138167857Y-83216723D02*
X138120238Y-83311961D01*
X138120238Y-83311961D02*
X138025000Y-83407200D01*
X138025000Y-83407200D02*
X137882143Y-83454819D01*
X137882143Y-83454819D02*
X137644048Y-83454819D01*
X139167857Y-83454819D02*
X138596429Y-83454819D01*
X138882143Y-83454819D02*
X138882143Y-82454819D01*
X138882143Y-82454819D02*
X138786905Y-82597676D01*
X138786905Y-82597676D02*
X138691667Y-82692914D01*
X138691667Y-82692914D02*
X138596429Y-82740533D01*
X134753571Y-83454819D02*
X134296428Y-83454819D01*
X134525000Y-83454819D02*
X134525000Y-82454819D01*
X134525000Y-82454819D02*
X134448809Y-82597676D01*
X134448809Y-82597676D02*
X134372619Y-82692914D01*
X134372619Y-82692914D02*
X134296428Y-82740533D01*
X137183952Y-97990819D02*
X136707762Y-97990819D01*
X136707762Y-97990819D02*
X136707762Y-96990819D01*
X137517286Y-97467009D02*
X137850619Y-97467009D01*
X137993476Y-97990819D02*
X137517286Y-97990819D01*
X137517286Y-97990819D02*
X137517286Y-96990819D01*
X137517286Y-96990819D02*
X137993476Y-96990819D01*
X138422048Y-97990819D02*
X138422048Y-96990819D01*
X138422048Y-96990819D02*
X138660143Y-96990819D01*
X138660143Y-96990819D02*
X138803000Y-97038438D01*
X138803000Y-97038438D02*
X138898238Y-97133676D01*
X138898238Y-97133676D02*
X138945857Y-97228914D01*
X138945857Y-97228914D02*
X138993476Y-97419390D01*
X138993476Y-97419390D02*
X138993476Y-97562247D01*
X138993476Y-97562247D02*
X138945857Y-97752723D01*
X138945857Y-97752723D02*
X138898238Y-97847961D01*
X138898238Y-97847961D02*
X138803000Y-97943200D01*
X138803000Y-97943200D02*
X138660143Y-97990819D01*
X138660143Y-97990819D02*
X138422048Y-97990819D01*
X139850619Y-97324152D02*
X139850619Y-97990819D01*
X139612524Y-96943200D02*
X139374429Y-97657485D01*
X139374429Y-97657485D02*
X139993476Y-97657485D01*
X134848571Y-98244819D02*
X134391428Y-98244819D01*
X134620000Y-98244819D02*
X134620000Y-97244819D01*
X134620000Y-97244819D02*
X134543809Y-97387676D01*
X134543809Y-97387676D02*
X134467619Y-97482914D01*
X134467619Y-97482914D02*
X134391428Y-97530533D01*
X151788952Y-112468819D02*
X151312762Y-112468819D01*
X151312762Y-112468819D02*
X151312762Y-111468819D01*
X152122286Y-111945009D02*
X152455619Y-111945009D01*
X152598476Y-112468819D02*
X152122286Y-112468819D01*
X152122286Y-112468819D02*
X152122286Y-111468819D01*
X152122286Y-111468819D02*
X152598476Y-111468819D01*
X153027048Y-112468819D02*
X153027048Y-111468819D01*
X153027048Y-111468819D02*
X153265143Y-111468819D01*
X153265143Y-111468819D02*
X153408000Y-111516438D01*
X153408000Y-111516438D02*
X153503238Y-111611676D01*
X153503238Y-111611676D02*
X153550857Y-111706914D01*
X153550857Y-111706914D02*
X153598476Y-111897390D01*
X153598476Y-111897390D02*
X153598476Y-112040247D01*
X153598476Y-112040247D02*
X153550857Y-112230723D01*
X153550857Y-112230723D02*
X153503238Y-112325961D01*
X153503238Y-112325961D02*
X153408000Y-112421200D01*
X153408000Y-112421200D02*
X153265143Y-112468819D01*
X153265143Y-112468819D02*
X153027048Y-112468819D01*
X154169905Y-111897390D02*
X154074667Y-111849771D01*
X154074667Y-111849771D02*
X154027048Y-111802152D01*
X154027048Y-111802152D02*
X153979429Y-111706914D01*
X153979429Y-111706914D02*
X153979429Y-111659295D01*
X153979429Y-111659295D02*
X154027048Y-111564057D01*
X154027048Y-111564057D02*
X154074667Y-111516438D01*
X154074667Y-111516438D02*
X154169905Y-111468819D01*
X154169905Y-111468819D02*
X154360381Y-111468819D01*
X154360381Y-111468819D02*
X154455619Y-111516438D01*
X154455619Y-111516438D02*
X154503238Y-111564057D01*
X154503238Y-111564057D02*
X154550857Y-111659295D01*
X154550857Y-111659295D02*
X154550857Y-111706914D01*
X154550857Y-111706914D02*
X154503238Y-111802152D01*
X154503238Y-111802152D02*
X154455619Y-111849771D01*
X154455619Y-111849771D02*
X154360381Y-111897390D01*
X154360381Y-111897390D02*
X154169905Y-111897390D01*
X154169905Y-111897390D02*
X154074667Y-111945009D01*
X154074667Y-111945009D02*
X154027048Y-111992628D01*
X154027048Y-111992628D02*
X153979429Y-112087866D01*
X153979429Y-112087866D02*
X153979429Y-112278342D01*
X153979429Y-112278342D02*
X154027048Y-112373580D01*
X154027048Y-112373580D02*
X154074667Y-112421200D01*
X154074667Y-112421200D02*
X154169905Y-112468819D01*
X154169905Y-112468819D02*
X154360381Y-112468819D01*
X154360381Y-112468819D02*
X154455619Y-112421200D01*
X154455619Y-112421200D02*
X154503238Y-112373580D01*
X154503238Y-112373580D02*
X154550857Y-112278342D01*
X154550857Y-112278342D02*
X154550857Y-112087866D01*
X154550857Y-112087866D02*
X154503238Y-111992628D01*
X154503238Y-111992628D02*
X154455619Y-111945009D01*
X154455619Y-111945009D02*
X154360381Y-111897390D01*
X150088571Y-112849819D02*
X149631428Y-112849819D01*
X149860000Y-112849819D02*
X149860000Y-111849819D01*
X149860000Y-111849819D02*
X149783809Y-111992676D01*
X149783809Y-111992676D02*
X149707619Y-112087914D01*
X149707619Y-112087914D02*
X149631428Y-112135533D01*
X151534952Y-83258819D02*
X151058762Y-83258819D01*
X151058762Y-83258819D02*
X151058762Y-82258819D01*
X151868286Y-82735009D02*
X152201619Y-82735009D01*
X152344476Y-83258819D02*
X151868286Y-83258819D01*
X151868286Y-83258819D02*
X151868286Y-82258819D01*
X151868286Y-82258819D02*
X152344476Y-82258819D01*
X152773048Y-83258819D02*
X152773048Y-82258819D01*
X152773048Y-82258819D02*
X153011143Y-82258819D01*
X153011143Y-82258819D02*
X153154000Y-82306438D01*
X153154000Y-82306438D02*
X153249238Y-82401676D01*
X153249238Y-82401676D02*
X153296857Y-82496914D01*
X153296857Y-82496914D02*
X153344476Y-82687390D01*
X153344476Y-82687390D02*
X153344476Y-82830247D01*
X153344476Y-82830247D02*
X153296857Y-83020723D01*
X153296857Y-83020723D02*
X153249238Y-83115961D01*
X153249238Y-83115961D02*
X153154000Y-83211200D01*
X153154000Y-83211200D02*
X153011143Y-83258819D01*
X153011143Y-83258819D02*
X152773048Y-83258819D01*
X153725429Y-82354057D02*
X153773048Y-82306438D01*
X153773048Y-82306438D02*
X153868286Y-82258819D01*
X153868286Y-82258819D02*
X154106381Y-82258819D01*
X154106381Y-82258819D02*
X154201619Y-82306438D01*
X154201619Y-82306438D02*
X154249238Y-82354057D01*
X154249238Y-82354057D02*
X154296857Y-82449295D01*
X154296857Y-82449295D02*
X154296857Y-82544533D01*
X154296857Y-82544533D02*
X154249238Y-82687390D01*
X154249238Y-82687390D02*
X153677810Y-83258819D01*
X153677810Y-83258819D02*
X154296857Y-83258819D01*
X149728571Y-83454819D02*
X149271428Y-83454819D01*
X149500000Y-83454819D02*
X149500000Y-82454819D01*
X149500000Y-82454819D02*
X149423809Y-82597676D01*
X149423809Y-82597676D02*
X149347619Y-82692914D01*
X149347619Y-82692914D02*
X149271428Y-82740533D01*
X161885333Y-119612580D02*
X161837714Y-119660200D01*
X161837714Y-119660200D02*
X161694857Y-119707819D01*
X161694857Y-119707819D02*
X161599619Y-119707819D01*
X161599619Y-119707819D02*
X161456762Y-119660200D01*
X161456762Y-119660200D02*
X161361524Y-119564961D01*
X161361524Y-119564961D02*
X161313905Y-119469723D01*
X161313905Y-119469723D02*
X161266286Y-119279247D01*
X161266286Y-119279247D02*
X161266286Y-119136390D01*
X161266286Y-119136390D02*
X161313905Y-118945914D01*
X161313905Y-118945914D02*
X161361524Y-118850676D01*
X161361524Y-118850676D02*
X161456762Y-118755438D01*
X161456762Y-118755438D02*
X161599619Y-118707819D01*
X161599619Y-118707819D02*
X161694857Y-118707819D01*
X161694857Y-118707819D02*
X161837714Y-118755438D01*
X161837714Y-118755438D02*
X161885333Y-118803057D01*
X162361524Y-119707819D02*
X162552000Y-119707819D01*
X162552000Y-119707819D02*
X162647238Y-119660200D01*
X162647238Y-119660200D02*
X162694857Y-119612580D01*
X162694857Y-119612580D02*
X162790095Y-119469723D01*
X162790095Y-119469723D02*
X162837714Y-119279247D01*
X162837714Y-119279247D02*
X162837714Y-118898295D01*
X162837714Y-118898295D02*
X162790095Y-118803057D01*
X162790095Y-118803057D02*
X162742476Y-118755438D01*
X162742476Y-118755438D02*
X162647238Y-118707819D01*
X162647238Y-118707819D02*
X162456762Y-118707819D01*
X162456762Y-118707819D02*
X162361524Y-118755438D01*
X162361524Y-118755438D02*
X162313905Y-118803057D01*
X162313905Y-118803057D02*
X162266286Y-118898295D01*
X162266286Y-118898295D02*
X162266286Y-119136390D01*
X162266286Y-119136390D02*
X162313905Y-119231628D01*
X162313905Y-119231628D02*
X162361524Y-119279247D01*
X162361524Y-119279247D02*
X162456762Y-119326866D01*
X162456762Y-119326866D02*
X162647238Y-119326866D01*
X162647238Y-119326866D02*
X162742476Y-119279247D01*
X162742476Y-119279247D02*
X162790095Y-119231628D01*
X162790095Y-119231628D02*
X162837714Y-119136390D01*
X132138333Y-120199580D02*
X132090714Y-120247200D01*
X132090714Y-120247200D02*
X131947857Y-120294819D01*
X131947857Y-120294819D02*
X131852619Y-120294819D01*
X131852619Y-120294819D02*
X131709762Y-120247200D01*
X131709762Y-120247200D02*
X131614524Y-120151961D01*
X131614524Y-120151961D02*
X131566905Y-120056723D01*
X131566905Y-120056723D02*
X131519286Y-119866247D01*
X131519286Y-119866247D02*
X131519286Y-119723390D01*
X131519286Y-119723390D02*
X131566905Y-119532914D01*
X131566905Y-119532914D02*
X131614524Y-119437676D01*
X131614524Y-119437676D02*
X131709762Y-119342438D01*
X131709762Y-119342438D02*
X131852619Y-119294819D01*
X131852619Y-119294819D02*
X131947857Y-119294819D01*
X131947857Y-119294819D02*
X132090714Y-119342438D01*
X132090714Y-119342438D02*
X132138333Y-119390057D01*
X132471667Y-119294819D02*
X133138333Y-119294819D01*
X133138333Y-119294819D02*
X132709762Y-120294819D01*
X131913333Y-104626580D02*
X131865714Y-104674200D01*
X131865714Y-104674200D02*
X131722857Y-104721819D01*
X131722857Y-104721819D02*
X131627619Y-104721819D01*
X131627619Y-104721819D02*
X131484762Y-104674200D01*
X131484762Y-104674200D02*
X131389524Y-104578961D01*
X131389524Y-104578961D02*
X131341905Y-104483723D01*
X131341905Y-104483723D02*
X131294286Y-104293247D01*
X131294286Y-104293247D02*
X131294286Y-104150390D01*
X131294286Y-104150390D02*
X131341905Y-103959914D01*
X131341905Y-103959914D02*
X131389524Y-103864676D01*
X131389524Y-103864676D02*
X131484762Y-103769438D01*
X131484762Y-103769438D02*
X131627619Y-103721819D01*
X131627619Y-103721819D02*
X131722857Y-103721819D01*
X131722857Y-103721819D02*
X131865714Y-103769438D01*
X131865714Y-103769438D02*
X131913333Y-103817057D01*
X132770476Y-104055152D02*
X132770476Y-104721819D01*
X132532381Y-103674200D02*
X132294286Y-104388485D01*
X132294286Y-104388485D02*
X132913333Y-104388485D01*
X131918333Y-90144580D02*
X131870714Y-90192200D01*
X131870714Y-90192200D02*
X131727857Y-90239819D01*
X131727857Y-90239819D02*
X131632619Y-90239819D01*
X131632619Y-90239819D02*
X131489762Y-90192200D01*
X131489762Y-90192200D02*
X131394524Y-90096961D01*
X131394524Y-90096961D02*
X131346905Y-90001723D01*
X131346905Y-90001723D02*
X131299286Y-89811247D01*
X131299286Y-89811247D02*
X131299286Y-89668390D01*
X131299286Y-89668390D02*
X131346905Y-89477914D01*
X131346905Y-89477914D02*
X131394524Y-89382676D01*
X131394524Y-89382676D02*
X131489762Y-89287438D01*
X131489762Y-89287438D02*
X131632619Y-89239819D01*
X131632619Y-89239819D02*
X131727857Y-89239819D01*
X131727857Y-89239819D02*
X131870714Y-89287438D01*
X131870714Y-89287438D02*
X131918333Y-89335057D01*
X132870714Y-90239819D02*
X132299286Y-90239819D01*
X132585000Y-90239819D02*
X132585000Y-89239819D01*
X132585000Y-89239819D02*
X132489762Y-89382676D01*
X132489762Y-89382676D02*
X132394524Y-89477914D01*
X132394524Y-89477914D02*
X132299286Y-89525533D01*
X147478333Y-119599580D02*
X147430714Y-119647200D01*
X147430714Y-119647200D02*
X147287857Y-119694819D01*
X147287857Y-119694819D02*
X147192619Y-119694819D01*
X147192619Y-119694819D02*
X147049762Y-119647200D01*
X147049762Y-119647200D02*
X146954524Y-119551961D01*
X146954524Y-119551961D02*
X146906905Y-119456723D01*
X146906905Y-119456723D02*
X146859286Y-119266247D01*
X146859286Y-119266247D02*
X146859286Y-119123390D01*
X146859286Y-119123390D02*
X146906905Y-118932914D01*
X146906905Y-118932914D02*
X146954524Y-118837676D01*
X146954524Y-118837676D02*
X147049762Y-118742438D01*
X147049762Y-118742438D02*
X147192619Y-118694819D01*
X147192619Y-118694819D02*
X147287857Y-118694819D01*
X147287857Y-118694819D02*
X147430714Y-118742438D01*
X147430714Y-118742438D02*
X147478333Y-118790057D01*
X148049762Y-119123390D02*
X147954524Y-119075771D01*
X147954524Y-119075771D02*
X147906905Y-119028152D01*
X147906905Y-119028152D02*
X147859286Y-118932914D01*
X147859286Y-118932914D02*
X147859286Y-118885295D01*
X147859286Y-118885295D02*
X147906905Y-118790057D01*
X147906905Y-118790057D02*
X147954524Y-118742438D01*
X147954524Y-118742438D02*
X148049762Y-118694819D01*
X148049762Y-118694819D02*
X148240238Y-118694819D01*
X148240238Y-118694819D02*
X148335476Y-118742438D01*
X148335476Y-118742438D02*
X148383095Y-118790057D01*
X148383095Y-118790057D02*
X148430714Y-118885295D01*
X148430714Y-118885295D02*
X148430714Y-118932914D01*
X148430714Y-118932914D02*
X148383095Y-119028152D01*
X148383095Y-119028152D02*
X148335476Y-119075771D01*
X148335476Y-119075771D02*
X148240238Y-119123390D01*
X148240238Y-119123390D02*
X148049762Y-119123390D01*
X148049762Y-119123390D02*
X147954524Y-119171009D01*
X147954524Y-119171009D02*
X147906905Y-119218628D01*
X147906905Y-119218628D02*
X147859286Y-119313866D01*
X147859286Y-119313866D02*
X147859286Y-119504342D01*
X147859286Y-119504342D02*
X147906905Y-119599580D01*
X147906905Y-119599580D02*
X147954524Y-119647200D01*
X147954524Y-119647200D02*
X148049762Y-119694819D01*
X148049762Y-119694819D02*
X148240238Y-119694819D01*
X148240238Y-119694819D02*
X148335476Y-119647200D01*
X148335476Y-119647200D02*
X148383095Y-119599580D01*
X148383095Y-119599580D02*
X148430714Y-119504342D01*
X148430714Y-119504342D02*
X148430714Y-119313866D01*
X148430714Y-119313866D02*
X148383095Y-119218628D01*
X148383095Y-119218628D02*
X148335476Y-119171009D01*
X148335476Y-119171009D02*
X148240238Y-119123390D01*
D11*
%TO.C,C5*%
X146570700Y-101412250D02*
X146570700Y-101787750D01*
X148069300Y-101787750D02*
X148069300Y-101412250D01*
%TO.C,C2*%
X146570700Y-86172250D02*
X146570700Y-86547750D01*
X148069300Y-86547750D02*
X148069300Y-86172250D01*
D12*
%TO.C,LED6*%
X164050000Y-98600000D02*
X164050000Y-104100000D01*
X164050000Y-98600000D02*
X171050000Y-98600000D01*
X164050000Y-104100000D02*
X170600000Y-104100000D01*
X164850000Y-102250000D02*
X164850000Y-100450000D01*
X170250000Y-102250000D02*
X170250000Y-100450000D01*
X170600000Y-104100000D02*
X171050000Y-103650000D01*
X171050000Y-103650000D02*
X171050000Y-98600000D01*
%TO.C,LED3*%
X164050000Y-83750000D02*
X164050000Y-89250000D01*
X164050000Y-83750000D02*
X171050000Y-83750000D01*
X164050000Y-89250000D02*
X170600000Y-89250000D01*
X164850000Y-87400000D02*
X164850000Y-85600000D01*
X170250000Y-87400000D02*
X170250000Y-85600000D01*
X170600000Y-89250000D02*
X171050000Y-88800000D01*
X171050000Y-88800000D02*
X171050000Y-83750000D01*
D11*
%TO.C,C6*%
X161582700Y-101312250D02*
X161582700Y-101687750D01*
X163081300Y-101687750D02*
X163081300Y-101312250D01*
D12*
%TO.C,LED5*%
X149000000Y-98600000D02*
X149000000Y-104100000D01*
X149000000Y-98600000D02*
X156000000Y-98600000D01*
X149000000Y-104100000D02*
X155550000Y-104100000D01*
X149800000Y-102250000D02*
X149800000Y-100450000D01*
X155200000Y-102250000D02*
X155200000Y-100450000D01*
X155550000Y-104100000D02*
X156000000Y-103650000D01*
X156000000Y-103650000D02*
X156000000Y-98600000D01*
%TO.C,LED7*%
X134000000Y-113250000D02*
X134000000Y-118750000D01*
X134000000Y-113250000D02*
X141000000Y-113250000D01*
X134000000Y-118750000D02*
X140550000Y-118750000D01*
X134800000Y-116900000D02*
X134800000Y-115100000D01*
X140200000Y-116900000D02*
X140200000Y-115100000D01*
X140550000Y-118750000D02*
X141000000Y-118300000D01*
X141000000Y-118300000D02*
X141000000Y-113250000D01*
%TO.C,LED9*%
X164050000Y-113250000D02*
X164050000Y-118750000D01*
X164050000Y-113250000D02*
X171050000Y-113250000D01*
X164050000Y-118750000D02*
X170600000Y-118750000D01*
X164850000Y-116900000D02*
X164850000Y-115100000D01*
X170250000Y-116900000D02*
X170250000Y-115100000D01*
X170600000Y-118750000D02*
X171050000Y-118300000D01*
X171050000Y-118300000D02*
X171050000Y-113250000D01*
D11*
%TO.C,C3*%
X161302700Y-86512250D02*
X161302700Y-86887750D01*
X162801300Y-86887750D02*
X162801300Y-86512250D01*
D12*
%TO.C,LED1*%
X134025000Y-83750000D02*
X134025000Y-89250000D01*
X134025000Y-83750000D02*
X141025000Y-83750000D01*
X134025000Y-89250000D02*
X140575000Y-89250000D01*
X134825000Y-87400000D02*
X134825000Y-85600000D01*
X140225000Y-87400000D02*
X140225000Y-85600000D01*
X140575000Y-89250000D02*
X141025000Y-88800000D01*
X141025000Y-88800000D02*
X141025000Y-83750000D01*
%TO.C,LED4*%
X134050000Y-98600000D02*
X134050000Y-104100000D01*
X134050000Y-98600000D02*
X141050000Y-98600000D01*
X134050000Y-104100000D02*
X140600000Y-104100000D01*
X134850000Y-102250000D02*
X134850000Y-100450000D01*
X140250000Y-102250000D02*
X140250000Y-100450000D01*
X140600000Y-104100000D02*
X141050000Y-103650000D01*
X141050000Y-103650000D02*
X141050000Y-98600000D01*
%TO.C,LED8*%
X149050000Y-113250000D02*
X149050000Y-118750000D01*
X149050000Y-113250000D02*
X156050000Y-113250000D01*
X149050000Y-118750000D02*
X155600000Y-118750000D01*
X149850000Y-116900000D02*
X149850000Y-115100000D01*
X155250000Y-116900000D02*
X155250000Y-115100000D01*
X155600000Y-118750000D02*
X156050000Y-118300000D01*
X156050000Y-118300000D02*
X156050000Y-113250000D01*
%TO.C,LED2*%
X149000000Y-83750000D02*
X149000000Y-89250000D01*
X149000000Y-83750000D02*
X156000000Y-83750000D01*
X149000000Y-89250000D02*
X155550000Y-89250000D01*
X149800000Y-87400000D02*
X149800000Y-85600000D01*
X155200000Y-87400000D02*
X155200000Y-85600000D01*
X155550000Y-89250000D02*
X156000000Y-88800000D01*
X156000000Y-88800000D02*
X156000000Y-83750000D01*
D11*
%TO.C,C9*%
X161302700Y-116652250D02*
X161302700Y-117027750D01*
X162801300Y-117027750D02*
X162801300Y-116652250D01*
%TO.C,C7*%
X131330700Y-116652250D02*
X131330700Y-117027750D01*
X132829300Y-117027750D02*
X132829300Y-116652250D01*
%TO.C,C4*%
X131330700Y-101412250D02*
X131330700Y-101787750D01*
X132829300Y-101787750D02*
X132829300Y-101412250D01*
%TO.C,C1*%
X131330700Y-86172250D02*
X131330700Y-86547750D01*
X132829300Y-86547750D02*
X132829300Y-86172250D01*
%TO.C,C8*%
X146570700Y-116652250D02*
X146570700Y-117027750D01*
X148069300Y-117027750D02*
X148069300Y-116652250D01*
D13*
%TO.C,J1*%
X143381000Y-75500000D02*
G75*
G02*
X142619000Y-75500000I-381000J0D01*
G01*
X142619000Y-75500000D02*
G75*
G02*
X143381000Y-75500000I381000J0D01*
G01*
%TD*%
M02*
