%TF.GenerationSoftware,KiCad,Pcbnew,8.0.7*%
%TF.CreationDate,2025-02-24T23:51:06-05:00*%
%TF.ProjectId,pcb2,70636232-2e6b-4696-9361-645f70636258,rev?*%
%TF.SameCoordinates,Original*%
%TF.FileFunction,Copper,L2,Bot*%
%TF.FilePolarity,Positive*%
%FSLAX46Y46*%
G04 Gerber Fmt 4.6, Leading zero omitted, Abs format (unit mm)*
G04 Created by KiCad (PCBNEW 8.0.7) date 2025-02-24 23:51:06*
%MOMM*%
%LPD*%
G01*
G04 APERTURE LIST*
%TA.AperFunction,SMDPad,CuDef*%
%ADD10R,3.505200X1.498600*%
%TD*%
%TA.AperFunction,ComponentPad*%
%ADD11C,1.803400*%
%TD*%
%TA.AperFunction,ViaPad*%
%ADD12C,1.016000*%
%TD*%
%TA.AperFunction,Conductor*%
%ADD13C,1.016000*%
%TD*%
G04 APERTURE END LIST*
D10*
%TO.P,C10,1*%
%TO.N,+5V*%
X149096400Y-94500000D03*
%TO.P,C10,2*%
%TO.N,GND*%
X155903600Y-94500000D03*
%TD*%
D11*
%TO.P,J1,1,Pin_1*%
%TO.N,+5V*%
X147500000Y-78500000D03*
%TO.P,J1,2,Pin_2*%
%TO.N,Net-(J1-Pin_2)*%
X152500000Y-78500000D03*
%TO.P,J1,3,Pin_3*%
%TO.N,GND*%
X157500000Y-78500000D03*
%TD*%
D12*
%TO.N,GND*%
X159258000Y-94488000D03*
%TO.N,+5V*%
X163322000Y-114681000D03*
X148336000Y-114808000D03*
X163703000Y-84836000D03*
X133223000Y-84836000D03*
X148590000Y-84850000D03*
X148717000Y-99695000D03*
X133350000Y-114554000D03*
X133604000Y-99695000D03*
X163703000Y-99695000D03*
%TD*%
D13*
%TO.N,GND*%
X159246000Y-94500000D02*
X159258000Y-94488000D01*
X155903600Y-94500000D02*
X159246000Y-94500000D01*
%TD*%
%TA.AperFunction,Conductor*%
%TO.N,+5V*%
G36*
X181942539Y-71520185D02*
G01*
X181988294Y-71572989D01*
X181999500Y-71624500D01*
X181999500Y-130375500D01*
X181979815Y-130442539D01*
X181927011Y-130488294D01*
X181875500Y-130499500D01*
X123124500Y-130499500D01*
X123057461Y-130479815D01*
X123011706Y-130427011D01*
X123000500Y-130375500D01*
X123000500Y-128393713D01*
X123649500Y-128393713D01*
X123649500Y-128606286D01*
X123682753Y-128816239D01*
X123748444Y-129018414D01*
X123844951Y-129207820D01*
X123969890Y-129379786D01*
X124120213Y-129530109D01*
X124292179Y-129655048D01*
X124292181Y-129655049D01*
X124292184Y-129655051D01*
X124481588Y-129751557D01*
X124683757Y-129817246D01*
X124893713Y-129850500D01*
X124893714Y-129850500D01*
X125106286Y-129850500D01*
X125106287Y-129850500D01*
X125316243Y-129817246D01*
X125518412Y-129751557D01*
X125707816Y-129655051D01*
X125729789Y-129639086D01*
X125879786Y-129530109D01*
X125879788Y-129530106D01*
X125879792Y-129530104D01*
X126030104Y-129379792D01*
X126030106Y-129379788D01*
X126030109Y-129379786D01*
X126155048Y-129207820D01*
X126155047Y-129207820D01*
X126155051Y-129207816D01*
X126251557Y-129018412D01*
X126317246Y-128816243D01*
X126350500Y-128606287D01*
X126350500Y-128393713D01*
X178649500Y-128393713D01*
X178649500Y-128606286D01*
X178682753Y-128816239D01*
X178748444Y-129018414D01*
X178844951Y-129207820D01*
X178969890Y-129379786D01*
X179120213Y-129530109D01*
X179292179Y-129655048D01*
X179292181Y-129655049D01*
X179292184Y-129655051D01*
X179481588Y-129751557D01*
X179683757Y-129817246D01*
X179893713Y-129850500D01*
X179893714Y-129850500D01*
X180106286Y-129850500D01*
X180106287Y-129850500D01*
X180316243Y-129817246D01*
X180518412Y-129751557D01*
X180707816Y-129655051D01*
X180729789Y-129639086D01*
X180879786Y-129530109D01*
X180879788Y-129530106D01*
X180879792Y-129530104D01*
X181030104Y-129379792D01*
X181030106Y-129379788D01*
X181030109Y-129379786D01*
X181155048Y-129207820D01*
X181155047Y-129207820D01*
X181155051Y-129207816D01*
X181251557Y-129018412D01*
X181317246Y-128816243D01*
X181350500Y-128606287D01*
X181350500Y-128393713D01*
X181317246Y-128183757D01*
X181251557Y-127981588D01*
X181155051Y-127792184D01*
X181155049Y-127792181D01*
X181155048Y-127792179D01*
X181030109Y-127620213D01*
X180879786Y-127469890D01*
X180707820Y-127344951D01*
X180518414Y-127248444D01*
X180518413Y-127248443D01*
X180518412Y-127248443D01*
X180316243Y-127182754D01*
X180316241Y-127182753D01*
X180316240Y-127182753D01*
X180154957Y-127157208D01*
X180106287Y-127149500D01*
X179893713Y-127149500D01*
X179845042Y-127157208D01*
X179683760Y-127182753D01*
X179481585Y-127248444D01*
X179292179Y-127344951D01*
X179120213Y-127469890D01*
X178969890Y-127620213D01*
X178844951Y-127792179D01*
X178748444Y-127981585D01*
X178682753Y-128183760D01*
X178649500Y-128393713D01*
X126350500Y-128393713D01*
X126317246Y-128183757D01*
X126251557Y-127981588D01*
X126155051Y-127792184D01*
X126155049Y-127792181D01*
X126155048Y-127792179D01*
X126030109Y-127620213D01*
X125879786Y-127469890D01*
X125707820Y-127344951D01*
X125518414Y-127248444D01*
X125518413Y-127248443D01*
X125518412Y-127248443D01*
X125316243Y-127182754D01*
X125316241Y-127182753D01*
X125316240Y-127182753D01*
X125154957Y-127157208D01*
X125106287Y-127149500D01*
X124893713Y-127149500D01*
X124845042Y-127157208D01*
X124683760Y-127182753D01*
X124481585Y-127248444D01*
X124292179Y-127344951D01*
X124120213Y-127469890D01*
X123969890Y-127620213D01*
X123844951Y-127792179D01*
X123748444Y-127981585D01*
X123682753Y-128183760D01*
X123649500Y-128393713D01*
X123000500Y-128393713D01*
X123000500Y-93702855D01*
X146843800Y-93702855D01*
X146843800Y-95297144D01*
X146850201Y-95356672D01*
X146850203Y-95356679D01*
X146900445Y-95491386D01*
X146900449Y-95491393D01*
X146986609Y-95606487D01*
X146986612Y-95606490D01*
X147101706Y-95692650D01*
X147101713Y-95692654D01*
X147236420Y-95742896D01*
X147236427Y-95742898D01*
X147295955Y-95749299D01*
X147295972Y-95749300D01*
X147587101Y-95749300D01*
X147595111Y-95729961D01*
X147594521Y-95728881D01*
X147599505Y-95659189D01*
X147628006Y-95614842D01*
X148742848Y-94500000D01*
X148742848Y-94499999D01*
X147628005Y-93385157D01*
X147594520Y-93323834D01*
X147597887Y-93276744D01*
X147587100Y-93250700D01*
X147295955Y-93250700D01*
X147236427Y-93257101D01*
X147236420Y-93257103D01*
X147101713Y-93307345D01*
X147101706Y-93307349D01*
X146986612Y-93393509D01*
X146986609Y-93393512D01*
X146900449Y-93508606D01*
X146900445Y-93508613D01*
X146850203Y-93643320D01*
X146850201Y-93643327D01*
X146843800Y-93702855D01*
X123000500Y-93702855D01*
X123000500Y-93250699D01*
X148200652Y-93250699D01*
X148259981Y-93310028D01*
X148293466Y-93371351D01*
X148296300Y-93397710D01*
X148296300Y-93699900D01*
X148598490Y-93699900D01*
X148665529Y-93719585D01*
X148686171Y-93736219D01*
X149185495Y-94235543D01*
X149218980Y-94296866D01*
X149213996Y-94366558D01*
X149185495Y-94410905D01*
X149096400Y-94500000D01*
X149185495Y-94589095D01*
X149218980Y-94650418D01*
X149213996Y-94720110D01*
X149185495Y-94764457D01*
X148686171Y-95263781D01*
X148624848Y-95297266D01*
X148598490Y-95300100D01*
X148296300Y-95300100D01*
X148296300Y-95602289D01*
X148276615Y-95669328D01*
X148259982Y-95689969D01*
X148200652Y-95749299D01*
X148204579Y-95758778D01*
X148239339Y-95768985D01*
X148285094Y-95821789D01*
X148296300Y-95873300D01*
X148296300Y-98703700D01*
X156703700Y-98703700D01*
X156703700Y-95873799D01*
X156723385Y-95806760D01*
X156776189Y-95761005D01*
X156827700Y-95749799D01*
X157704071Y-95749799D01*
X157704072Y-95749799D01*
X157763683Y-95743391D01*
X157898531Y-95693096D01*
X158013746Y-95606846D01*
X158050171Y-95558187D01*
X158106104Y-95516318D01*
X158149437Y-95508500D01*
X159345330Y-95508500D01*
X159345331Y-95508499D01*
X159540169Y-95469744D01*
X159723704Y-95393721D01*
X159801820Y-95341524D01*
X159812246Y-95335275D01*
X159821004Y-95330595D01*
X159828674Y-95324299D01*
X159838449Y-95317050D01*
X159868241Y-95297144D01*
X159888881Y-95283353D01*
X159931776Y-95240456D01*
X159940787Y-95232290D01*
X159974563Y-95204572D01*
X159974562Y-95204572D01*
X159974568Y-95204568D01*
X160002300Y-95170774D01*
X160010442Y-95161791D01*
X160041354Y-95130881D01*
X160065643Y-95094528D01*
X160072858Y-95084800D01*
X160100595Y-95051004D01*
X160121198Y-95012456D01*
X160127436Y-95002047D01*
X160151722Y-94965703D01*
X160168443Y-94925331D01*
X160173637Y-94914350D01*
X160194241Y-94875804D01*
X160206926Y-94833982D01*
X160211024Y-94822533D01*
X160227741Y-94782175D01*
X160227740Y-94782175D01*
X160227744Y-94782168D01*
X160236267Y-94739312D01*
X160239225Y-94727508D01*
X160241470Y-94720110D01*
X160251908Y-94685701D01*
X160256191Y-94642207D01*
X160257974Y-94630188D01*
X160266500Y-94587328D01*
X160266500Y-94543639D01*
X160267097Y-94531485D01*
X160271380Y-94488000D01*
X160267097Y-94444513D01*
X160266500Y-94432359D01*
X160266500Y-94388671D01*
X160262101Y-94366558D01*
X160257972Y-94345801D01*
X160256190Y-94333787D01*
X160251908Y-94290299D01*
X160239220Y-94248472D01*
X160236269Y-94236691D01*
X160227744Y-94193831D01*
X160211020Y-94153457D01*
X160206926Y-94142012D01*
X160194241Y-94100197D01*
X160194241Y-94100196D01*
X160173638Y-94061650D01*
X160168445Y-94050670D01*
X160151722Y-94010296D01*
X160151720Y-94010293D01*
X160151718Y-94010289D01*
X160127445Y-93973962D01*
X160121189Y-93963524D01*
X160100596Y-93924997D01*
X160100594Y-93924994D01*
X160072877Y-93891221D01*
X160065628Y-93881447D01*
X160041354Y-93845119D01*
X160041351Y-93845115D01*
X160010461Y-93814226D01*
X160002287Y-93805208D01*
X159974569Y-93771433D01*
X159940789Y-93743710D01*
X159931774Y-93735538D01*
X159900885Y-93704649D01*
X159898200Y-93702855D01*
X159864547Y-93680368D01*
X159854779Y-93673123D01*
X159821007Y-93645407D01*
X159821005Y-93645406D01*
X159821004Y-93645405D01*
X159800812Y-93634612D01*
X159782469Y-93624807D01*
X159772036Y-93618553D01*
X159735704Y-93594277D01*
X159735700Y-93594275D01*
X159695330Y-93577553D01*
X159684333Y-93572352D01*
X159645807Y-93551760D01*
X159645804Y-93551759D01*
X159603993Y-93539075D01*
X159592540Y-93534977D01*
X159552167Y-93518255D01*
X159552168Y-93518255D01*
X159509315Y-93509731D01*
X159497513Y-93506775D01*
X159455701Y-93494092D01*
X159448316Y-93493364D01*
X159412211Y-93489808D01*
X159400177Y-93488023D01*
X159357329Y-93479500D01*
X159357328Y-93479500D01*
X159313640Y-93479500D01*
X159301486Y-93478903D01*
X159258000Y-93474620D01*
X159214514Y-93478903D01*
X159202360Y-93479500D01*
X159158668Y-93479500D01*
X159115810Y-93488024D01*
X159103789Y-93489807D01*
X159092679Y-93490902D01*
X159080525Y-93491500D01*
X158149437Y-93491500D01*
X158082398Y-93471815D01*
X158050172Y-93441813D01*
X158013746Y-93393154D01*
X157984621Y-93371351D01*
X157898535Y-93306906D01*
X157898528Y-93306902D01*
X157763682Y-93256608D01*
X157763683Y-93256608D01*
X157704083Y-93250201D01*
X157704081Y-93250200D01*
X157704073Y-93250200D01*
X157704065Y-93250200D01*
X156827700Y-93250200D01*
X156760661Y-93230515D01*
X156714906Y-93177711D01*
X156703700Y-93126200D01*
X156703700Y-90296300D01*
X148296300Y-90296300D01*
X148296300Y-93126700D01*
X148276615Y-93193739D01*
X148223811Y-93239494D01*
X148203460Y-93243921D01*
X148200652Y-93250699D01*
X123000500Y-93250699D01*
X123000500Y-78499994D01*
X146093496Y-78499994D01*
X146093496Y-78500005D01*
X146112678Y-78731499D01*
X146169704Y-78956691D01*
X146263016Y-79169421D01*
X146347584Y-79298862D01*
X146900718Y-78745727D01*
X146926016Y-78806801D01*
X146996899Y-78912885D01*
X147087115Y-79003101D01*
X147193199Y-79073984D01*
X147254271Y-79099281D01*
X146699989Y-79653562D01*
X146699989Y-79653563D01*
X146730712Y-79677476D01*
X146730717Y-79677479D01*
X146935007Y-79788035D01*
X146935017Y-79788040D01*
X147154721Y-79863464D01*
X147383853Y-79901700D01*
X147616147Y-79901700D01*
X147845278Y-79863464D01*
X148064982Y-79788040D01*
X148064992Y-79788035D01*
X148269281Y-79677480D01*
X148269287Y-79677475D01*
X148300009Y-79653563D01*
X148300010Y-79653562D01*
X147745728Y-79099281D01*
X147806801Y-79073984D01*
X147912885Y-79003101D01*
X148003101Y-78912885D01*
X148073984Y-78806801D01*
X148099280Y-78745728D01*
X148652414Y-79298862D01*
X148736982Y-79169423D01*
X148830295Y-78956691D01*
X148887321Y-78731499D01*
X148906504Y-78500005D01*
X148906504Y-78499994D01*
X151092994Y-78499994D01*
X151092994Y-78500005D01*
X151112183Y-78731582D01*
X151169229Y-78956854D01*
X151262575Y-79169662D01*
X151389673Y-79364198D01*
X151389675Y-79364201D01*
X151547061Y-79535168D01*
X151547064Y-79535170D01*
X151547067Y-79535173D01*
X151730432Y-79677892D01*
X151730438Y-79677896D01*
X151730441Y-79677898D01*
X151934812Y-79788499D01*
X152154600Y-79863952D01*
X152383810Y-79902200D01*
X152616190Y-79902200D01*
X152845400Y-79863952D01*
X153065188Y-79788499D01*
X153269559Y-79677898D01*
X153270098Y-79677479D01*
X153331138Y-79629969D01*
X153452939Y-79535168D01*
X153610325Y-79364201D01*
X153737425Y-79169661D01*
X153830771Y-78956854D01*
X153887816Y-78731586D01*
X153907006Y-78500000D01*
X153907006Y-78499994D01*
X156092994Y-78499994D01*
X156092994Y-78500005D01*
X156112183Y-78731582D01*
X156169229Y-78956854D01*
X156262575Y-79169662D01*
X156389673Y-79364198D01*
X156389675Y-79364201D01*
X156547061Y-79535168D01*
X156547064Y-79535170D01*
X156547067Y-79535173D01*
X156730432Y-79677892D01*
X156730438Y-79677896D01*
X156730441Y-79677898D01*
X156934812Y-79788499D01*
X157154600Y-79863952D01*
X157383810Y-79902200D01*
X157616190Y-79902200D01*
X157845400Y-79863952D01*
X158065188Y-79788499D01*
X158269559Y-79677898D01*
X158270098Y-79677479D01*
X158331138Y-79629969D01*
X158452939Y-79535168D01*
X158610325Y-79364201D01*
X158737425Y-79169661D01*
X158830771Y-78956854D01*
X158887816Y-78731586D01*
X158907006Y-78500000D01*
X158887816Y-78268414D01*
X158830771Y-78043146D01*
X158737425Y-77830339D01*
X158610325Y-77635799D01*
X158452939Y-77464832D01*
X158452934Y-77464828D01*
X158452932Y-77464826D01*
X158269567Y-77322107D01*
X158269561Y-77322103D01*
X158065188Y-77211501D01*
X158065180Y-77211498D01*
X157845402Y-77136048D01*
X157616190Y-77097800D01*
X157383810Y-77097800D01*
X157154597Y-77136048D01*
X156934819Y-77211498D01*
X156934811Y-77211501D01*
X156730438Y-77322103D01*
X156730432Y-77322107D01*
X156547067Y-77464826D01*
X156547064Y-77464829D01*
X156389676Y-77635797D01*
X156389673Y-77635801D01*
X156262575Y-77830337D01*
X156169229Y-78043145D01*
X156112183Y-78268417D01*
X156092994Y-78499994D01*
X153907006Y-78499994D01*
X153887816Y-78268414D01*
X153830771Y-78043146D01*
X153737425Y-77830339D01*
X153610325Y-77635799D01*
X153452939Y-77464832D01*
X153452934Y-77464828D01*
X153452932Y-77464826D01*
X153269567Y-77322107D01*
X153269561Y-77322103D01*
X153065188Y-77211501D01*
X153065180Y-77211498D01*
X152845402Y-77136048D01*
X152616190Y-77097800D01*
X152383810Y-77097800D01*
X152154597Y-77136048D01*
X151934819Y-77211498D01*
X151934811Y-77211501D01*
X151730438Y-77322103D01*
X151730432Y-77322107D01*
X151547067Y-77464826D01*
X151547064Y-77464829D01*
X151389676Y-77635797D01*
X151389673Y-77635801D01*
X151262575Y-77830337D01*
X151169229Y-78043145D01*
X151112183Y-78268417D01*
X151092994Y-78499994D01*
X148906504Y-78499994D01*
X148887321Y-78268500D01*
X148830295Y-78043308D01*
X148736984Y-77830581D01*
X148652414Y-77701136D01*
X148099280Y-78254270D01*
X148073984Y-78193199D01*
X148003101Y-78087115D01*
X147912885Y-77996899D01*
X147806801Y-77926016D01*
X147745726Y-77900718D01*
X148300009Y-77346436D01*
X148300009Y-77346434D01*
X148269293Y-77322527D01*
X148269282Y-77322520D01*
X148064992Y-77211964D01*
X148064982Y-77211959D01*
X147845278Y-77136535D01*
X147616147Y-77098300D01*
X147383853Y-77098300D01*
X147154721Y-77136535D01*
X146935017Y-77211959D01*
X146935012Y-77211961D01*
X146730707Y-77322527D01*
X146699989Y-77346434D01*
X146699988Y-77346436D01*
X147254271Y-77900718D01*
X147193199Y-77926016D01*
X147087115Y-77996899D01*
X146996899Y-78087115D01*
X146926016Y-78193199D01*
X146900718Y-78254272D01*
X146347583Y-77701137D01*
X146263016Y-77830578D01*
X146169704Y-78043308D01*
X146112678Y-78268500D01*
X146093496Y-78499994D01*
X123000500Y-78499994D01*
X123000500Y-73393713D01*
X123649500Y-73393713D01*
X123649500Y-73606286D01*
X123682753Y-73816239D01*
X123748444Y-74018414D01*
X123844951Y-74207820D01*
X123969890Y-74379786D01*
X124120213Y-74530109D01*
X124292179Y-74655048D01*
X124292181Y-74655049D01*
X124292184Y-74655051D01*
X124481588Y-74751557D01*
X124683757Y-74817246D01*
X124893713Y-74850500D01*
X124893714Y-74850500D01*
X125106286Y-74850500D01*
X125106287Y-74850500D01*
X125316243Y-74817246D01*
X125518412Y-74751557D01*
X125707816Y-74655051D01*
X125729789Y-74639086D01*
X125879786Y-74530109D01*
X125879788Y-74530106D01*
X125879792Y-74530104D01*
X126030104Y-74379792D01*
X126030106Y-74379788D01*
X126030109Y-74379786D01*
X126155048Y-74207820D01*
X126155047Y-74207820D01*
X126155051Y-74207816D01*
X126251557Y-74018412D01*
X126317246Y-73816243D01*
X126350500Y-73606287D01*
X126350500Y-73393713D01*
X178649500Y-73393713D01*
X178649500Y-73606286D01*
X178682753Y-73816239D01*
X178748444Y-74018414D01*
X178844951Y-74207820D01*
X178969890Y-74379786D01*
X179120213Y-74530109D01*
X179292179Y-74655048D01*
X179292181Y-74655049D01*
X179292184Y-74655051D01*
X179481588Y-74751557D01*
X179683757Y-74817246D01*
X179893713Y-74850500D01*
X179893714Y-74850500D01*
X180106286Y-74850500D01*
X180106287Y-74850500D01*
X180316243Y-74817246D01*
X180518412Y-74751557D01*
X180707816Y-74655051D01*
X180729789Y-74639086D01*
X180879786Y-74530109D01*
X180879788Y-74530106D01*
X180879792Y-74530104D01*
X181030104Y-74379792D01*
X181030106Y-74379788D01*
X181030109Y-74379786D01*
X181155048Y-74207820D01*
X181155047Y-74207820D01*
X181155051Y-74207816D01*
X181251557Y-74018412D01*
X181317246Y-73816243D01*
X181350500Y-73606287D01*
X181350500Y-73393713D01*
X181317246Y-73183757D01*
X181251557Y-72981588D01*
X181155051Y-72792184D01*
X181155049Y-72792181D01*
X181155048Y-72792179D01*
X181030109Y-72620213D01*
X180879786Y-72469890D01*
X180707820Y-72344951D01*
X180518414Y-72248444D01*
X180518413Y-72248443D01*
X180518412Y-72248443D01*
X180316243Y-72182754D01*
X180316241Y-72182753D01*
X180316240Y-72182753D01*
X180154957Y-72157208D01*
X180106287Y-72149500D01*
X179893713Y-72149500D01*
X179845042Y-72157208D01*
X179683760Y-72182753D01*
X179481585Y-72248444D01*
X179292179Y-72344951D01*
X179120213Y-72469890D01*
X178969890Y-72620213D01*
X178844951Y-72792179D01*
X178748444Y-72981585D01*
X178682753Y-73183760D01*
X178649500Y-73393713D01*
X126350500Y-73393713D01*
X126317246Y-73183757D01*
X126251557Y-72981588D01*
X126155051Y-72792184D01*
X126155049Y-72792181D01*
X126155048Y-72792179D01*
X126030109Y-72620213D01*
X125879786Y-72469890D01*
X125707820Y-72344951D01*
X125518414Y-72248444D01*
X125518413Y-72248443D01*
X125518412Y-72248443D01*
X125316243Y-72182754D01*
X125316241Y-72182753D01*
X125316240Y-72182753D01*
X125154957Y-72157208D01*
X125106287Y-72149500D01*
X124893713Y-72149500D01*
X124845042Y-72157208D01*
X124683760Y-72182753D01*
X124481585Y-72248444D01*
X124292179Y-72344951D01*
X124120213Y-72469890D01*
X123969890Y-72620213D01*
X123844951Y-72792179D01*
X123748444Y-72981585D01*
X123682753Y-73183760D01*
X123649500Y-73393713D01*
X123000500Y-73393713D01*
X123000500Y-71624500D01*
X123020185Y-71557461D01*
X123072989Y-71511706D01*
X123124500Y-71500500D01*
X181875500Y-71500500D01*
X181942539Y-71520185D01*
G37*
%TD.AperFunction*%
%TD*%
M02*
