M48
; DRILL file {KiCad 8.0.7} date 2025-02-24T23:57:49-0500
; FORMAT={-:-/ absolute / inch / decimal}
; #@! TF.CreationDate,2025-02-24T23:57:49-05:00
; #@! TF.GenerationSoftware,Kicad,Pcbnew,8.0.7
; #@! TF.FileFunction,Plated,1,2,PTH
FMAT,2
INCH
; #@! TA.AperFunction,Plated,PTH,ViaDrill
T1C0.0118
; #@! TA.AperFunction,Plated,PTH,ComponentDrill
T2C0.0276
; #@! TA.AperFunction,Plated,PTH,ComponentDrill
T3C0.0295
; #@! TA.AperFunction,Plated,PTH,ComponentDrill
T4C0.0315
; #@! TA.AperFunction,Plated,PTH,ComponentDrill
T5C0.0433
; #@! TA.AperFunction,Plated,PTH,ComponentDrill
T6C0.0510
%
G90
G05
T1
X5.2488Y-3.8988
X5.373Y-3.9163
X6.0244Y-4.0228
T2
X5.4925Y-4.0228
X5.7925Y-4.0228
T3
X5.4646Y-3.689
X5.5146Y-3.639
X5.5646Y-3.689
T4
X5.0547Y-4.0236
X5.3547Y-4.0236
X5.6996Y-3.6175
X5.6996Y-3.9175
X5.7996Y-3.6175
X5.7996Y-3.9175
X5.8996Y-3.6175
X5.8996Y-3.9175
X5.9996Y-3.6175
X5.9996Y-3.9175
T5
X5.1209Y-3.4291
X5.1209Y-3.8291
T6
X5.315Y-3.3465
X5.5118Y-3.3465
X5.7087Y-3.3465
M30
