%TF.GenerationSoftware,KiCad,Pcbnew,8.0.7*%
%TF.CreationDate,2025-02-24T23:57:51-05:00*%
%TF.ProjectId,pcb3,70636233-2e6b-4696-9361-645f70636258,rev?*%
%TF.SameCoordinates,Original*%
%TF.FileFunction,Copper,L2,Bot*%
%TF.FilePolarity,Positive*%
%FSLAX46Y46*%
G04 Gerber Fmt 4.6, Leading zero omitted, Abs format (unit mm)*
G04 Created by KiCad (PCBNEW 8.0.7) date 2025-02-24 23:57:51*
%MOMM*%
%LPD*%
G01*
G04 APERTURE LIST*
G04 Aperture macros list*
%AMRoundRect*
0 Rectangle with rounded corners*
0 $1 Rounding radius*
0 $2 $3 $4 $5 $6 $7 $8 $9 X,Y pos of 4 corners*
0 Add a 4 corners polygon primitive as box body*
4,1,4,$2,$3,$4,$5,$6,$7,$8,$9,$2,$3,0*
0 Add four circle primitives for the rounded corners*
1,1,$1+$1,$2,$3*
1,1,$1+$1,$4,$5*
1,1,$1+$1,$6,$7*
1,1,$1+$1,$8,$9*
0 Add four rect primitives between the rounded corners*
20,1,$1+$1,$2,$3,$4,$5,0*
20,1,$1+$1,$4,$5,$6,$7,0*
20,1,$1+$1,$6,$7,$8,$9,0*
20,1,$1+$1,$8,$9,$2,$3,0*%
G04 Aperture macros list end*
%TA.AperFunction,ComponentPad*%
%ADD10C,1.400000*%
%TD*%
%TA.AperFunction,ComponentPad*%
%ADD11O,1.400000X1.400000*%
%TD*%
%TA.AperFunction,ComponentPad*%
%ADD12R,1.600000X1.600000*%
%TD*%
%TA.AperFunction,ComponentPad*%
%ADD13O,1.600000X1.600000*%
%TD*%
%TA.AperFunction,ComponentPad*%
%ADD14R,2.200000X2.200000*%
%TD*%
%TA.AperFunction,ComponentPad*%
%ADD15O,2.200000X2.200000*%
%TD*%
%TA.AperFunction,ComponentPad*%
%ADD16R,1.100000X1.800000*%
%TD*%
%TA.AperFunction,ComponentPad*%
%ADD17RoundRect,0.275000X-0.275000X-0.625000X0.275000X-0.625000X0.275000X0.625000X-0.275000X0.625000X0*%
%TD*%
%TA.AperFunction,ComponentPad*%
%ADD18R,1.600000X2.400000*%
%TD*%
%TA.AperFunction,ComponentPad*%
%ADD19O,1.600000X2.400000*%
%TD*%
%TA.AperFunction,ComponentPad*%
%ADD20C,1.803400*%
%TD*%
%TA.AperFunction,ViaPad*%
%ADD21C,0.600000*%
%TD*%
%TA.AperFunction,Conductor*%
%ADD22C,0.508000*%
%TD*%
G04 APERTURE END LIST*
D10*
%TO.P,R4,1*%
%TO.N,Net-(U2A--)*%
X147130000Y-102180000D03*
D11*
%TO.P,R4,2*%
%TO.N,GND*%
X139510000Y-102180000D03*
%TD*%
D12*
%TO.P,D1,1,K*%
%TO.N,Net-(D1-K)*%
X136010000Y-102200000D03*
D13*
%TO.P,D1,2,A*%
%TO.N,GND*%
X128390000Y-102200000D03*
%TD*%
D14*
%TO.P,D2,1,K*%
%TO.N,Net-(D2-K)*%
X130070000Y-97260000D03*
D15*
%TO.P,D2,2,A*%
%TO.N,+5V*%
X130070000Y-87100000D03*
%TD*%
D16*
%TO.P,U1,1,VDD*%
%TO.N,Net-(D1-K)*%
X138800000Y-94100000D03*
D17*
%TO.P,U1,2,GND*%
%TO.N,GND*%
X140070000Y-92030000D03*
%TO.P,U1,3,OUT*%
%TO.N,Net-(U1-OUT)*%
X141340000Y-94100000D03*
%TD*%
D18*
%TO.P,U2,1*%
%TO.N,/OUT_5V*%
X144770000Y-99505000D03*
D19*
%TO.P,U2,2,-*%
%TO.N,Net-(U2A--)*%
X147310000Y-99505000D03*
%TO.P,U2,3,+*%
%TO.N,Net-(U2A-+)*%
X149850000Y-99505000D03*
%TO.P,U2,4,V-*%
%TO.N,GND*%
X152390000Y-99505000D03*
%TO.P,U2,5,+*%
%TO.N,unconnected-(U2B-+-Pad5)*%
X152390000Y-91885000D03*
%TO.P,U2,6,-*%
%TO.N,unconnected-(U2B---Pad6)*%
X149850000Y-91885000D03*
%TO.P,U2,7*%
%TO.N,unconnected-(U2-Pad7)*%
X147310000Y-91885000D03*
%TO.P,U2,8,V+*%
%TO.N,+5V*%
X144770000Y-91885000D03*
%TD*%
D20*
%TO.P,J1,1,Pin_1*%
%TO.N,+5V*%
X145000000Y-85000000D03*
%TO.P,J1,2,Pin_2*%
%TO.N,/OUT_5V*%
X140000000Y-85000000D03*
%TO.P,J1,3,Pin_3*%
%TO.N,GND*%
X135000000Y-85000000D03*
%TD*%
D21*
%TO.N,Net-(U2A-+)*%
X133320000Y-99030000D03*
%TO.N,+5V*%
X153020000Y-102180000D03*
X136475000Y-99475000D03*
%TD*%
D22*
%TO.N,Net-(U2A-+)*%
X133320000Y-99030000D02*
X133820000Y-99030000D01*
X136470000Y-96380000D02*
X148820000Y-96380000D01*
X148820000Y-96380000D02*
X149850000Y-97410000D01*
X133820000Y-99030000D02*
X136470000Y-96380000D01*
X149850000Y-97410000D02*
X149850000Y-99505000D01*
%TD*%
%TA.AperFunction,Conductor*%
%TO.N,+5V*%
G36*
X154442539Y-80520185D02*
G01*
X154488294Y-80572989D01*
X154499500Y-80624500D01*
X154499500Y-104375500D01*
X154479815Y-104442539D01*
X154427011Y-104488294D01*
X154375500Y-104499500D01*
X125624500Y-104499500D01*
X125557461Y-104479815D01*
X125511706Y-104427011D01*
X125500500Y-104375500D01*
X125500500Y-102199998D01*
X127084532Y-102199998D01*
X127084532Y-102200001D01*
X127104364Y-102426686D01*
X127104366Y-102426697D01*
X127163258Y-102646488D01*
X127163261Y-102646497D01*
X127259431Y-102852732D01*
X127259432Y-102852734D01*
X127389954Y-103039141D01*
X127550858Y-103200045D01*
X127550861Y-103200047D01*
X127737266Y-103330568D01*
X127943504Y-103426739D01*
X128163308Y-103485635D01*
X128325230Y-103499801D01*
X128389998Y-103505468D01*
X128390000Y-103505468D01*
X128390002Y-103505468D01*
X128446807Y-103500498D01*
X128616692Y-103485635D01*
X128836496Y-103426739D01*
X129042734Y-103330568D01*
X129229139Y-103200047D01*
X129390047Y-103039139D01*
X129520568Y-102852734D01*
X129616739Y-102646496D01*
X129675635Y-102426692D01*
X129695468Y-102200000D01*
X129675635Y-101973308D01*
X129616739Y-101753504D01*
X129520568Y-101547266D01*
X129422839Y-101407693D01*
X129390045Y-101360858D01*
X129381322Y-101352135D01*
X134709500Y-101352135D01*
X134709500Y-103047870D01*
X134709501Y-103047876D01*
X134715908Y-103107483D01*
X134766202Y-103242328D01*
X134766206Y-103242335D01*
X134852452Y-103357544D01*
X134852455Y-103357547D01*
X134967664Y-103443793D01*
X134967671Y-103443797D01*
X135102517Y-103494091D01*
X135102516Y-103494091D01*
X135109444Y-103494835D01*
X135162127Y-103500500D01*
X136857872Y-103500499D01*
X136917483Y-103494091D01*
X137052331Y-103443796D01*
X137167546Y-103357546D01*
X137253796Y-103242331D01*
X137304091Y-103107483D01*
X137310500Y-103047873D01*
X137310499Y-102179999D01*
X138304357Y-102179999D01*
X138304357Y-102180000D01*
X138324884Y-102401535D01*
X138324885Y-102401537D01*
X138385769Y-102615523D01*
X138385775Y-102615538D01*
X138484938Y-102814683D01*
X138484943Y-102814691D01*
X138619020Y-102992238D01*
X138783437Y-103142123D01*
X138783439Y-103142125D01*
X138972595Y-103259245D01*
X138972596Y-103259245D01*
X138972599Y-103259247D01*
X139180060Y-103339618D01*
X139398757Y-103380500D01*
X139398759Y-103380500D01*
X139621241Y-103380500D01*
X139621243Y-103380500D01*
X139839940Y-103339618D01*
X140047401Y-103259247D01*
X140236562Y-103142124D01*
X140400981Y-102992236D01*
X140535058Y-102814689D01*
X140634229Y-102615528D01*
X140695115Y-102401536D01*
X140715643Y-102180000D01*
X140695115Y-101958464D01*
X140634229Y-101744472D01*
X140536032Y-101547267D01*
X140535061Y-101545316D01*
X140535056Y-101545308D01*
X140400979Y-101367761D01*
X140236562Y-101217876D01*
X140236560Y-101217874D01*
X140047404Y-101100754D01*
X140047398Y-101100752D01*
X139839940Y-101020382D01*
X139621243Y-100979500D01*
X139398757Y-100979500D01*
X139180060Y-101020382D01*
X139060265Y-101066791D01*
X138972601Y-101100752D01*
X138972595Y-101100754D01*
X138783439Y-101217874D01*
X138783437Y-101217876D01*
X138619020Y-101367761D01*
X138484943Y-101545308D01*
X138484938Y-101545316D01*
X138385775Y-101744461D01*
X138385769Y-101744476D01*
X138324885Y-101958462D01*
X138324884Y-101958464D01*
X138304357Y-102179999D01*
X137310499Y-102179999D01*
X137310499Y-101352128D01*
X137304091Y-101292517D01*
X137289760Y-101254094D01*
X137253797Y-101157671D01*
X137253793Y-101157664D01*
X137167547Y-101042455D01*
X137167544Y-101042452D01*
X137052335Y-100956206D01*
X137052328Y-100956202D01*
X136917482Y-100905908D01*
X136917483Y-100905908D01*
X136857883Y-100899501D01*
X136857881Y-100899500D01*
X136857873Y-100899500D01*
X136857864Y-100899500D01*
X135162129Y-100899500D01*
X135162123Y-100899501D01*
X135102516Y-100905908D01*
X134967671Y-100956202D01*
X134967664Y-100956206D01*
X134852455Y-101042452D01*
X134852452Y-101042455D01*
X134766206Y-101157664D01*
X134766202Y-101157671D01*
X134715908Y-101292517D01*
X134709501Y-101352116D01*
X134709501Y-101352123D01*
X134709500Y-101352135D01*
X129381322Y-101352135D01*
X129229141Y-101199954D01*
X129042734Y-101069432D01*
X129042732Y-101069431D01*
X128836497Y-100973261D01*
X128836488Y-100973258D01*
X128616697Y-100914366D01*
X128616693Y-100914365D01*
X128616692Y-100914365D01*
X128616691Y-100914364D01*
X128616686Y-100914364D01*
X128390002Y-100894532D01*
X128389998Y-100894532D01*
X128163313Y-100914364D01*
X128163302Y-100914366D01*
X127943511Y-100973258D01*
X127943502Y-100973261D01*
X127737267Y-101069431D01*
X127737265Y-101069432D01*
X127550858Y-101199954D01*
X127389954Y-101360858D01*
X127259432Y-101547265D01*
X127259431Y-101547267D01*
X127163261Y-101753502D01*
X127163258Y-101753511D01*
X127104366Y-101973302D01*
X127104364Y-101973313D01*
X127084532Y-102199998D01*
X125500500Y-102199998D01*
X125500500Y-99029996D01*
X132514435Y-99029996D01*
X132514435Y-99030003D01*
X132534630Y-99209249D01*
X132534631Y-99209254D01*
X132594211Y-99379523D01*
X132690184Y-99532262D01*
X132817738Y-99659816D01*
X132879505Y-99698627D01*
X132970027Y-99755506D01*
X132970478Y-99755789D01*
X133072417Y-99791459D01*
X133140745Y-99815368D01*
X133140750Y-99815369D01*
X133319996Y-99835565D01*
X133320000Y-99835565D01*
X133320004Y-99835565D01*
X133499249Y-99815369D01*
X133499251Y-99815368D01*
X133499255Y-99815368D01*
X133499258Y-99815366D01*
X133499262Y-99815366D01*
X133567585Y-99791459D01*
X133608540Y-99784500D01*
X133739554Y-99784500D01*
X133739574Y-99784501D01*
X133745688Y-99784501D01*
X133894314Y-99784501D01*
X134015894Y-99760315D01*
X134015894Y-99760316D01*
X134015900Y-99760313D01*
X134040080Y-99755505D01*
X134113532Y-99725080D01*
X134177389Y-99698630D01*
X134300966Y-99616059D01*
X136746206Y-97170819D01*
X136807529Y-97137334D01*
X136833887Y-97134500D01*
X148456113Y-97134500D01*
X148523152Y-97154185D01*
X148543794Y-97170819D01*
X149059181Y-97686206D01*
X149092666Y-97747529D01*
X149095500Y-97773887D01*
X149095500Y-97982488D01*
X149075815Y-98049527D01*
X149044385Y-98082806D01*
X149002787Y-98113028D01*
X149002782Y-98113032D01*
X148858028Y-98257786D01*
X148737715Y-98423386D01*
X148690485Y-98516080D01*
X148642510Y-98566876D01*
X148574689Y-98583671D01*
X148508554Y-98561134D01*
X148469515Y-98516080D01*
X148468883Y-98514840D01*
X148422287Y-98423390D01*
X148405427Y-98400184D01*
X148301971Y-98257786D01*
X148157213Y-98113028D01*
X147991613Y-97992715D01*
X147991612Y-97992714D01*
X147991610Y-97992713D01*
X147934653Y-97963691D01*
X147809223Y-97899781D01*
X147614534Y-97836522D01*
X147439995Y-97808878D01*
X147412352Y-97804500D01*
X147207648Y-97804500D01*
X147183329Y-97808351D01*
X147005465Y-97836522D01*
X146810776Y-97899781D01*
X146628386Y-97992715D01*
X146462786Y-98113028D01*
X146318032Y-98257782D01*
X146291668Y-98294070D01*
X146236338Y-98336735D01*
X146166724Y-98342714D01*
X146104929Y-98310108D01*
X146070572Y-98249269D01*
X146068060Y-98234438D01*
X146067640Y-98230533D01*
X146064091Y-98197517D01*
X146013796Y-98062669D01*
X146013795Y-98062668D01*
X146013793Y-98062664D01*
X145927547Y-97947455D01*
X145927544Y-97947452D01*
X145812335Y-97861206D01*
X145812328Y-97861202D01*
X145677482Y-97810908D01*
X145677483Y-97810908D01*
X145617883Y-97804501D01*
X145617881Y-97804500D01*
X145617873Y-97804500D01*
X145617864Y-97804500D01*
X143922129Y-97804500D01*
X143922123Y-97804501D01*
X143862516Y-97810908D01*
X143727671Y-97861202D01*
X143727664Y-97861206D01*
X143612455Y-97947452D01*
X143612452Y-97947455D01*
X143526206Y-98062664D01*
X143526202Y-98062671D01*
X143475908Y-98197517D01*
X143469501Y-98257116D01*
X143469500Y-98257135D01*
X143469500Y-100752870D01*
X143469501Y-100752876D01*
X143475908Y-100812483D01*
X143526202Y-100947328D01*
X143526206Y-100947335D01*
X143612452Y-101062544D01*
X143612455Y-101062547D01*
X143727664Y-101148793D01*
X143727671Y-101148797D01*
X143862517Y-101199091D01*
X143862516Y-101199091D01*
X143869444Y-101199835D01*
X143922127Y-101205500D01*
X145617872Y-101205499D01*
X145677483Y-101199091D01*
X145812331Y-101148796D01*
X145927546Y-101062546D01*
X146013796Y-100947331D01*
X146064091Y-100812483D01*
X146068061Y-100775556D01*
X146094796Y-100711011D01*
X146152188Y-100671161D01*
X146222013Y-100668666D01*
X146282102Y-100704317D01*
X146291667Y-100715929D01*
X146318032Y-100752217D01*
X146462786Y-100896971D01*
X146524555Y-100941848D01*
X146567221Y-100997177D01*
X146573200Y-101066791D01*
X146540595Y-101128586D01*
X146516948Y-101147593D01*
X146403436Y-101217877D01*
X146239020Y-101367761D01*
X146104943Y-101545308D01*
X146104938Y-101545316D01*
X146005775Y-101744461D01*
X146005769Y-101744476D01*
X145944885Y-101958462D01*
X145944884Y-101958464D01*
X145924357Y-102179999D01*
X145924357Y-102180000D01*
X145944884Y-102401535D01*
X145944885Y-102401537D01*
X146005769Y-102615523D01*
X146005775Y-102615538D01*
X146104938Y-102814683D01*
X146104943Y-102814691D01*
X146239020Y-102992238D01*
X146403437Y-103142123D01*
X146403439Y-103142125D01*
X146592595Y-103259245D01*
X146592596Y-103259245D01*
X146592599Y-103259247D01*
X146800060Y-103339618D01*
X147018757Y-103380500D01*
X147018759Y-103380500D01*
X147241241Y-103380500D01*
X147241243Y-103380500D01*
X147459940Y-103339618D01*
X147667401Y-103259247D01*
X147856562Y-103142124D01*
X148020981Y-102992236D01*
X148155058Y-102814689D01*
X148254229Y-102615528D01*
X148315115Y-102401536D01*
X148335643Y-102180000D01*
X148315115Y-101958464D01*
X148254229Y-101744472D01*
X148156032Y-101547267D01*
X148155061Y-101545316D01*
X148155056Y-101545308D01*
X148020979Y-101367761D01*
X147896292Y-101254094D01*
X147860010Y-101194383D01*
X147861771Y-101124535D01*
X147901015Y-101066728D01*
X147923532Y-101051974D01*
X147991610Y-101017287D01*
X148052211Y-100973258D01*
X148157213Y-100896971D01*
X148157215Y-100896968D01*
X148157219Y-100896966D01*
X148301966Y-100752219D01*
X148301968Y-100752215D01*
X148301971Y-100752213D01*
X148422284Y-100586614D01*
X148422285Y-100586613D01*
X148422287Y-100586610D01*
X148469516Y-100493917D01*
X148517489Y-100443123D01*
X148585310Y-100426328D01*
X148651445Y-100448865D01*
X148690485Y-100493919D01*
X148737715Y-100586614D01*
X148858028Y-100752213D01*
X149002786Y-100896971D01*
X149116380Y-100979500D01*
X149168390Y-101017287D01*
X149265547Y-101066791D01*
X149350776Y-101110218D01*
X149350778Y-101110218D01*
X149350781Y-101110220D01*
X149455137Y-101144127D01*
X149545465Y-101173477D01*
X149646557Y-101189488D01*
X149747648Y-101205500D01*
X149747649Y-101205500D01*
X149952351Y-101205500D01*
X149952352Y-101205500D01*
X150154534Y-101173477D01*
X150349219Y-101110220D01*
X150531610Y-101017287D01*
X150673270Y-100914366D01*
X150697213Y-100896971D01*
X150697215Y-100896968D01*
X150697219Y-100896966D01*
X150841966Y-100752219D01*
X150841968Y-100752215D01*
X150841971Y-100752213D01*
X150962284Y-100586614D01*
X150962285Y-100586613D01*
X150962287Y-100586610D01*
X151009516Y-100493917D01*
X151057489Y-100443123D01*
X151125310Y-100426328D01*
X151191445Y-100448865D01*
X151230485Y-100493919D01*
X151277715Y-100586614D01*
X151398028Y-100752213D01*
X151542786Y-100896971D01*
X151656380Y-100979500D01*
X151708390Y-101017287D01*
X151805547Y-101066791D01*
X151890776Y-101110218D01*
X151890778Y-101110218D01*
X151890781Y-101110220D01*
X151995137Y-101144127D01*
X152085465Y-101173477D01*
X152186557Y-101189488D01*
X152287648Y-101205500D01*
X152287649Y-101205500D01*
X152492351Y-101205500D01*
X152492352Y-101205500D01*
X152694534Y-101173477D01*
X152889219Y-101110220D01*
X153071610Y-101017287D01*
X153213270Y-100914366D01*
X153237213Y-100896971D01*
X153237215Y-100896968D01*
X153237219Y-100896966D01*
X153381966Y-100752219D01*
X153381968Y-100752215D01*
X153381971Y-100752213D01*
X153442670Y-100668666D01*
X153502287Y-100586610D01*
X153595220Y-100404219D01*
X153658477Y-100209534D01*
X153690500Y-100007352D01*
X153690500Y-99002648D01*
X153667986Y-98860500D01*
X153658477Y-98800465D01*
X153629127Y-98710137D01*
X153595220Y-98605781D01*
X153595218Y-98605778D01*
X153595218Y-98605776D01*
X153555455Y-98527738D01*
X153502287Y-98423390D01*
X153485427Y-98400184D01*
X153381971Y-98257786D01*
X153237213Y-98113028D01*
X153071613Y-97992715D01*
X153071612Y-97992714D01*
X153071610Y-97992713D01*
X153014653Y-97963691D01*
X152889223Y-97899781D01*
X152694534Y-97836522D01*
X152519995Y-97808878D01*
X152492352Y-97804500D01*
X152287648Y-97804500D01*
X152263329Y-97808351D01*
X152085465Y-97836522D01*
X151890776Y-97899781D01*
X151708386Y-97992715D01*
X151542786Y-98113028D01*
X151398028Y-98257786D01*
X151277715Y-98423386D01*
X151230485Y-98516080D01*
X151182510Y-98566876D01*
X151114689Y-98583671D01*
X151048554Y-98561134D01*
X151009515Y-98516080D01*
X151008883Y-98514840D01*
X150962287Y-98423390D01*
X150945427Y-98400184D01*
X150841971Y-98257786D01*
X150697217Y-98113032D01*
X150697212Y-98113028D01*
X150655615Y-98082806D01*
X150612949Y-98027476D01*
X150604500Y-97982488D01*
X150604500Y-97490446D01*
X150604501Y-97490425D01*
X150604501Y-97335685D01*
X150575506Y-97189926D01*
X150575505Y-97189925D01*
X150575505Y-97189921D01*
X150518630Y-97052611D01*
X150436059Y-96929034D01*
X150436057Y-96929031D01*
X149300968Y-95793942D01*
X149259773Y-95766417D01*
X149177389Y-95711370D01*
X149177386Y-95711368D01*
X149177385Y-95711368D01*
X149096955Y-95678053D01*
X149040080Y-95654495D01*
X149015894Y-95649684D01*
X148894314Y-95625499D01*
X148894312Y-95625499D01*
X148745688Y-95625499D01*
X148739574Y-95625499D01*
X148739554Y-95625500D01*
X142069894Y-95625500D01*
X142002855Y-95605815D01*
X141957100Y-95553011D01*
X141947156Y-95483853D01*
X141976181Y-95420297D01*
X142003923Y-95396506D01*
X142101573Y-95335149D01*
X142101573Y-95335148D01*
X142101576Y-95335147D01*
X142225147Y-95211576D01*
X142318122Y-95063606D01*
X142375841Y-94898657D01*
X142390500Y-94768552D01*
X142390500Y-93431448D01*
X142375841Y-93301343D01*
X142318122Y-93136394D01*
X142225147Y-92988424D01*
X142101576Y-92864853D01*
X141953606Y-92771878D01*
X141953605Y-92771877D01*
X141953604Y-92771877D01*
X141788658Y-92714159D01*
X141788648Y-92714157D01*
X141658558Y-92699500D01*
X141658552Y-92699500D01*
X141244500Y-92699500D01*
X141177461Y-92679815D01*
X141131706Y-92627011D01*
X141120500Y-92575500D01*
X141120500Y-91382682D01*
X143470000Y-91382682D01*
X143470000Y-91635000D01*
X144454314Y-91635000D01*
X144449920Y-91639394D01*
X144397259Y-91730606D01*
X144370000Y-91832339D01*
X144370000Y-91937661D01*
X144397259Y-92039394D01*
X144449920Y-92130606D01*
X144454314Y-92135000D01*
X143470000Y-92135000D01*
X143470000Y-92387317D01*
X143502009Y-92589417D01*
X143565244Y-92784031D01*
X143658140Y-92966349D01*
X143778417Y-93131894D01*
X143778417Y-93131895D01*
X143923104Y-93276582D01*
X144088650Y-93396859D01*
X144270968Y-93489754D01*
X144465578Y-93552988D01*
X144520000Y-93561607D01*
X144520000Y-92200686D01*
X144524394Y-92205080D01*
X144615606Y-92257741D01*
X144717339Y-92285000D01*
X144822661Y-92285000D01*
X144924394Y-92257741D01*
X145015606Y-92205080D01*
X145020000Y-92200686D01*
X145020000Y-93561606D01*
X145074421Y-93552988D01*
X145269031Y-93489754D01*
X145451349Y-93396859D01*
X145616894Y-93276582D01*
X145616895Y-93276582D01*
X145761582Y-93131895D01*
X145761582Y-93131894D01*
X145881861Y-92966347D01*
X145929234Y-92873371D01*
X145977208Y-92822575D01*
X146045028Y-92805779D01*
X146111164Y-92828316D01*
X146150203Y-92873369D01*
X146197713Y-92966611D01*
X146318028Y-93132213D01*
X146462786Y-93276971D01*
X146617749Y-93389556D01*
X146628390Y-93397287D01*
X146732208Y-93450185D01*
X146810776Y-93490218D01*
X146810778Y-93490218D01*
X146810781Y-93490220D01*
X146915137Y-93524127D01*
X147005465Y-93553477D01*
X147106557Y-93569488D01*
X147207648Y-93585500D01*
X147207649Y-93585500D01*
X147412351Y-93585500D01*
X147412352Y-93585500D01*
X147614534Y-93553477D01*
X147809219Y-93490220D01*
X147991610Y-93397287D01*
X148123667Y-93301343D01*
X148157213Y-93276971D01*
X148157215Y-93276968D01*
X148157219Y-93276966D01*
X148301966Y-93132219D01*
X148301968Y-93132215D01*
X148301971Y-93132213D01*
X148422284Y-92966614D01*
X148422286Y-92966611D01*
X148422287Y-92966610D01*
X148469516Y-92873917D01*
X148517489Y-92823123D01*
X148585310Y-92806328D01*
X148651445Y-92828865D01*
X148690485Y-92873919D01*
X148737715Y-92966614D01*
X148858028Y-93132213D01*
X149002786Y-93276971D01*
X149157749Y-93389556D01*
X149168390Y-93397287D01*
X149272208Y-93450185D01*
X149350776Y-93490218D01*
X149350778Y-93490218D01*
X149350781Y-93490220D01*
X149455137Y-93524127D01*
X149545465Y-93553477D01*
X149646557Y-93569488D01*
X149747648Y-93585500D01*
X149747649Y-93585500D01*
X149952351Y-93585500D01*
X149952352Y-93585500D01*
X150154534Y-93553477D01*
X150349219Y-93490220D01*
X150531610Y-93397287D01*
X150663667Y-93301343D01*
X150697213Y-93276971D01*
X150697215Y-93276968D01*
X150697219Y-93276966D01*
X150841966Y-93132219D01*
X150841968Y-93132215D01*
X150841971Y-93132213D01*
X150962284Y-92966614D01*
X150962286Y-92966611D01*
X150962287Y-92966610D01*
X151009516Y-92873917D01*
X151057489Y-92823123D01*
X151125310Y-92806328D01*
X151191445Y-92828865D01*
X151230485Y-92873919D01*
X151277715Y-92966614D01*
X151398028Y-93132213D01*
X151542786Y-93276971D01*
X151697749Y-93389556D01*
X151708390Y-93397287D01*
X151812208Y-93450185D01*
X151890776Y-93490218D01*
X151890778Y-93490218D01*
X151890781Y-93490220D01*
X151995137Y-93524127D01*
X152085465Y-93553477D01*
X152186557Y-93569488D01*
X152287648Y-93585500D01*
X152287649Y-93585500D01*
X152492351Y-93585500D01*
X152492352Y-93585500D01*
X152694534Y-93553477D01*
X152889219Y-93490220D01*
X153071610Y-93397287D01*
X153203667Y-93301343D01*
X153237213Y-93276971D01*
X153237215Y-93276968D01*
X153237219Y-93276966D01*
X153381966Y-93132219D01*
X153381968Y-93132215D01*
X153381971Y-93132213D01*
X153486438Y-92988424D01*
X153502287Y-92966610D01*
X153595220Y-92784219D01*
X153658477Y-92589534D01*
X153690500Y-92387352D01*
X153690500Y-91382648D01*
X153660000Y-91190081D01*
X153658477Y-91180465D01*
X153621413Y-91066394D01*
X153595220Y-90985781D01*
X153595218Y-90985778D01*
X153595218Y-90985776D01*
X153502419Y-90803650D01*
X153502287Y-90803390D01*
X153494556Y-90792749D01*
X153381971Y-90637786D01*
X153237213Y-90493028D01*
X153071613Y-90372715D01*
X153071612Y-90372714D01*
X153071610Y-90372713D01*
X153014653Y-90343691D01*
X152889223Y-90279781D01*
X152694534Y-90216522D01*
X152519995Y-90188878D01*
X152492352Y-90184500D01*
X152287648Y-90184500D01*
X152263329Y-90188351D01*
X152085465Y-90216522D01*
X151890776Y-90279781D01*
X151708386Y-90372715D01*
X151542786Y-90493028D01*
X151398028Y-90637786D01*
X151277715Y-90803386D01*
X151230485Y-90896080D01*
X151182510Y-90946876D01*
X151114689Y-90963671D01*
X151048554Y-90941134D01*
X151009515Y-90896080D01*
X150962419Y-90803650D01*
X150962287Y-90803390D01*
X150954556Y-90792749D01*
X150841971Y-90637786D01*
X150697213Y-90493028D01*
X150531613Y-90372715D01*
X150531612Y-90372714D01*
X150531610Y-90372713D01*
X150474653Y-90343691D01*
X150349223Y-90279781D01*
X150154534Y-90216522D01*
X149979995Y-90188878D01*
X149952352Y-90184500D01*
X149747648Y-90184500D01*
X149723329Y-90188351D01*
X149545465Y-90216522D01*
X149350776Y-90279781D01*
X149168386Y-90372715D01*
X149002786Y-90493028D01*
X148858028Y-90637786D01*
X148737715Y-90803386D01*
X148690485Y-90896080D01*
X148642510Y-90946876D01*
X148574689Y-90963671D01*
X148508554Y-90941134D01*
X148469515Y-90896080D01*
X148422419Y-90803650D01*
X148422287Y-90803390D01*
X148414556Y-90792749D01*
X148301971Y-90637786D01*
X148157213Y-90493028D01*
X147991613Y-90372715D01*
X147991612Y-90372714D01*
X147991610Y-90372713D01*
X147934653Y-90343691D01*
X147809223Y-90279781D01*
X147614534Y-90216522D01*
X147439995Y-90188878D01*
X147412352Y-90184500D01*
X147207648Y-90184500D01*
X147183329Y-90188351D01*
X147005465Y-90216522D01*
X146810776Y-90279781D01*
X146628386Y-90372715D01*
X146462786Y-90493028D01*
X146318028Y-90637786D01*
X146197713Y-90803388D01*
X146150203Y-90896630D01*
X146102228Y-90947426D01*
X146034407Y-90964220D01*
X145968272Y-90941682D01*
X145929234Y-90896628D01*
X145881861Y-90803652D01*
X145761582Y-90638105D01*
X145761582Y-90638104D01*
X145616895Y-90493417D01*
X145451349Y-90373140D01*
X145269029Y-90280244D01*
X145074413Y-90217009D01*
X145020000Y-90208390D01*
X145020000Y-91569314D01*
X145015606Y-91564920D01*
X144924394Y-91512259D01*
X144822661Y-91485000D01*
X144717339Y-91485000D01*
X144615606Y-91512259D01*
X144524394Y-91564920D01*
X144520000Y-91569314D01*
X144520000Y-90208390D01*
X144465586Y-90217009D01*
X144270970Y-90280244D01*
X144088650Y-90373140D01*
X143923105Y-90493417D01*
X143923104Y-90493417D01*
X143778417Y-90638104D01*
X143778417Y-90638105D01*
X143658140Y-90803650D01*
X143565244Y-90985968D01*
X143502009Y-91180582D01*
X143470000Y-91382682D01*
X141120500Y-91382682D01*
X141120500Y-91361445D01*
X141120499Y-91361441D01*
X141105842Y-91231351D01*
X141105841Y-91231349D01*
X141105841Y-91231343D01*
X141048122Y-91066394D01*
X140955147Y-90918424D01*
X140831576Y-90794853D01*
X140683606Y-90701878D01*
X140683605Y-90701877D01*
X140683604Y-90701877D01*
X140518658Y-90644159D01*
X140518648Y-90644157D01*
X140388558Y-90629500D01*
X140388552Y-90629500D01*
X139751448Y-90629500D01*
X139751441Y-90629500D01*
X139621351Y-90644157D01*
X139621341Y-90644159D01*
X139456395Y-90701877D01*
X139308423Y-90794853D01*
X139184853Y-90918423D01*
X139091877Y-91066395D01*
X139034159Y-91231341D01*
X139034157Y-91231351D01*
X139019500Y-91361441D01*
X139019500Y-92575500D01*
X138999815Y-92642539D01*
X138947011Y-92688294D01*
X138895500Y-92699500D01*
X138202129Y-92699500D01*
X138202123Y-92699501D01*
X138142516Y-92705908D01*
X138007671Y-92756202D01*
X138007664Y-92756206D01*
X137892455Y-92842452D01*
X137892452Y-92842455D01*
X137806206Y-92957664D01*
X137806202Y-92957671D01*
X137755908Y-93092517D01*
X137749501Y-93152116D01*
X137749500Y-93152135D01*
X137749500Y-95047870D01*
X137749501Y-95047876D01*
X137755908Y-95107483D01*
X137806202Y-95242328D01*
X137806206Y-95242335D01*
X137875358Y-95334709D01*
X137892454Y-95357546D01*
X137952150Y-95402234D01*
X137994020Y-95458167D01*
X137999004Y-95527859D01*
X137965519Y-95589182D01*
X137904195Y-95622666D01*
X137877838Y-95625500D01*
X136550446Y-95625500D01*
X136550426Y-95625499D01*
X136544312Y-95625499D01*
X136395688Y-95625499D01*
X136395686Y-95625499D01*
X136274105Y-95649684D01*
X136259540Y-95652581D01*
X136249918Y-95654495D01*
X136249917Y-95654495D01*
X136193045Y-95678053D01*
X136112614Y-95711368D01*
X135989031Y-95793942D01*
X133576609Y-98206364D01*
X133515286Y-98239849D01*
X133475045Y-98241903D01*
X133320004Y-98224435D01*
X133319996Y-98224435D01*
X133140750Y-98244630D01*
X133140745Y-98244631D01*
X132970476Y-98304211D01*
X132817737Y-98400184D01*
X132690184Y-98527737D01*
X132594211Y-98680476D01*
X132534631Y-98850745D01*
X132534630Y-98850750D01*
X132514435Y-99029996D01*
X125500500Y-99029996D01*
X125500500Y-96112135D01*
X128469500Y-96112135D01*
X128469500Y-98407870D01*
X128469501Y-98407876D01*
X128475908Y-98467483D01*
X128526202Y-98602328D01*
X128526206Y-98602335D01*
X128612452Y-98717544D01*
X128612455Y-98717547D01*
X128727664Y-98803793D01*
X128727671Y-98803797D01*
X128862517Y-98854091D01*
X128862516Y-98854091D01*
X128869444Y-98854835D01*
X128922127Y-98860500D01*
X131217872Y-98860499D01*
X131277483Y-98854091D01*
X131412331Y-98803796D01*
X131527546Y-98717546D01*
X131613796Y-98602331D01*
X131664091Y-98467483D01*
X131670500Y-98407873D01*
X131670499Y-96112128D01*
X131664091Y-96052517D01*
X131613796Y-95917669D01*
X131613795Y-95917668D01*
X131613793Y-95917664D01*
X131527547Y-95802455D01*
X131527544Y-95802452D01*
X131412335Y-95716206D01*
X131412328Y-95716202D01*
X131277482Y-95665908D01*
X131277483Y-95665908D01*
X131217883Y-95659501D01*
X131217881Y-95659500D01*
X131217873Y-95659500D01*
X131217864Y-95659500D01*
X128922129Y-95659500D01*
X128922123Y-95659501D01*
X128862516Y-95665908D01*
X128727671Y-95716202D01*
X128727664Y-95716206D01*
X128612455Y-95802452D01*
X128612452Y-95802455D01*
X128526206Y-95917664D01*
X128526202Y-95917671D01*
X128475908Y-96052517D01*
X128469501Y-96112116D01*
X128469501Y-96112123D01*
X128469500Y-96112135D01*
X125500500Y-96112135D01*
X125500500Y-86849999D01*
X128484728Y-86849999D01*
X128484729Y-86850000D01*
X129579252Y-86850000D01*
X129557482Y-86887708D01*
X129520000Y-87027591D01*
X129520000Y-87172409D01*
X129557482Y-87312292D01*
X129579252Y-87350000D01*
X128484728Y-87350000D01*
X128484811Y-87351067D01*
X128543603Y-87595956D01*
X128639980Y-87828631D01*
X128771568Y-88043362D01*
X128771571Y-88043367D01*
X128935130Y-88234869D01*
X129126632Y-88398428D01*
X129126637Y-88398431D01*
X129341368Y-88530019D01*
X129574043Y-88626396D01*
X129818932Y-88685188D01*
X129819999Y-88685271D01*
X129820000Y-88685271D01*
X129820000Y-87590747D01*
X129857708Y-87612518D01*
X129997591Y-87650000D01*
X130142409Y-87650000D01*
X130282292Y-87612518D01*
X130320000Y-87590747D01*
X130320000Y-88685271D01*
X130321067Y-88685188D01*
X130565956Y-88626396D01*
X130798631Y-88530019D01*
X131013362Y-88398431D01*
X131013367Y-88398428D01*
X131204869Y-88234869D01*
X131368428Y-88043367D01*
X131368431Y-88043362D01*
X131500019Y-87828631D01*
X131596396Y-87595956D01*
X131655188Y-87351067D01*
X131655272Y-87350000D01*
X130560748Y-87350000D01*
X130582518Y-87312292D01*
X130620000Y-87172409D01*
X130620000Y-87027591D01*
X130582518Y-86887708D01*
X130560748Y-86850000D01*
X131655271Y-86850000D01*
X131655271Y-86849999D01*
X131655188Y-86848932D01*
X131596396Y-86604043D01*
X131500019Y-86371368D01*
X131368431Y-86156637D01*
X131368428Y-86156632D01*
X131204869Y-85965130D01*
X131013367Y-85801571D01*
X131013362Y-85801568D01*
X130798631Y-85669980D01*
X130565956Y-85573603D01*
X130321064Y-85514811D01*
X130320000Y-85514726D01*
X130320000Y-86609252D01*
X130282292Y-86587482D01*
X130142409Y-86550000D01*
X129997591Y-86550000D01*
X129857708Y-86587482D01*
X129820000Y-86609252D01*
X129820000Y-85514726D01*
X129818935Y-85514811D01*
X129574043Y-85573603D01*
X129341368Y-85669980D01*
X129126637Y-85801568D01*
X129126632Y-85801571D01*
X128935130Y-85965130D01*
X128771571Y-86156632D01*
X128771568Y-86156637D01*
X128639980Y-86371368D01*
X128543603Y-86604043D01*
X128484811Y-86848932D01*
X128484728Y-86849999D01*
X125500500Y-86849999D01*
X125500500Y-84999994D01*
X133592994Y-84999994D01*
X133592994Y-85000005D01*
X133612183Y-85231582D01*
X133669229Y-85456854D01*
X133762575Y-85669662D01*
X133889673Y-85864198D01*
X133889675Y-85864201D01*
X134047061Y-86035168D01*
X134047064Y-86035170D01*
X134047067Y-86035173D01*
X134230432Y-86177892D01*
X134230438Y-86177896D01*
X134230441Y-86177898D01*
X134434812Y-86288499D01*
X134654600Y-86363952D01*
X134883810Y-86402200D01*
X135116190Y-86402200D01*
X135345400Y-86363952D01*
X135565188Y-86288499D01*
X135769559Y-86177898D01*
X135770098Y-86177479D01*
X135831138Y-86129969D01*
X135952939Y-86035168D01*
X136110325Y-85864201D01*
X136237425Y-85669661D01*
X136330771Y-85456854D01*
X136387816Y-85231586D01*
X136407006Y-85000000D01*
X136407006Y-84999994D01*
X138592994Y-84999994D01*
X138592994Y-85000005D01*
X138612183Y-85231582D01*
X138669229Y-85456854D01*
X138762575Y-85669662D01*
X138889673Y-85864198D01*
X138889675Y-85864201D01*
X139047061Y-86035168D01*
X139047064Y-86035170D01*
X139047067Y-86035173D01*
X139230432Y-86177892D01*
X139230438Y-86177896D01*
X139230441Y-86177898D01*
X139434812Y-86288499D01*
X139654600Y-86363952D01*
X139883810Y-86402200D01*
X140116190Y-86402200D01*
X140345400Y-86363952D01*
X140565188Y-86288499D01*
X140769559Y-86177898D01*
X140770098Y-86177479D01*
X140831138Y-86129969D01*
X140952939Y-86035168D01*
X141110325Y-85864201D01*
X141237425Y-85669661D01*
X141330771Y-85456854D01*
X141387816Y-85231586D01*
X141407006Y-85000000D01*
X141407006Y-84999994D01*
X143593496Y-84999994D01*
X143593496Y-85000005D01*
X143612678Y-85231499D01*
X143669704Y-85456691D01*
X143763016Y-85669421D01*
X143847584Y-85798862D01*
X144400718Y-85245727D01*
X144426016Y-85306801D01*
X144496899Y-85412885D01*
X144587115Y-85503101D01*
X144693199Y-85573984D01*
X144754271Y-85599281D01*
X144199989Y-86153562D01*
X144199989Y-86153563D01*
X144230712Y-86177476D01*
X144230717Y-86177479D01*
X144435007Y-86288035D01*
X144435017Y-86288040D01*
X144654721Y-86363464D01*
X144883853Y-86401700D01*
X145116147Y-86401700D01*
X145345278Y-86363464D01*
X145564982Y-86288040D01*
X145564992Y-86288035D01*
X145769281Y-86177480D01*
X145769287Y-86177475D01*
X145800009Y-86153563D01*
X145800010Y-86153562D01*
X145245728Y-85599281D01*
X145306801Y-85573984D01*
X145412885Y-85503101D01*
X145503101Y-85412885D01*
X145573984Y-85306801D01*
X145599280Y-85245728D01*
X146152414Y-85798862D01*
X146236982Y-85669423D01*
X146330295Y-85456691D01*
X146387321Y-85231499D01*
X146406504Y-85000005D01*
X146406504Y-84999994D01*
X146387321Y-84768500D01*
X146330295Y-84543308D01*
X146236984Y-84330581D01*
X146152414Y-84201136D01*
X145599280Y-84754270D01*
X145573984Y-84693199D01*
X145503101Y-84587115D01*
X145412885Y-84496899D01*
X145306801Y-84426016D01*
X145245726Y-84400718D01*
X145800009Y-83846436D01*
X145800009Y-83846434D01*
X145769293Y-83822527D01*
X145769282Y-83822520D01*
X145564992Y-83711964D01*
X145564982Y-83711959D01*
X145345278Y-83636535D01*
X145116147Y-83598300D01*
X144883853Y-83598300D01*
X144654721Y-83636535D01*
X144435017Y-83711959D01*
X144435012Y-83711961D01*
X144230707Y-83822527D01*
X144199989Y-83846434D01*
X144199988Y-83846436D01*
X144754271Y-84400718D01*
X144693199Y-84426016D01*
X144587115Y-84496899D01*
X144496899Y-84587115D01*
X144426016Y-84693199D01*
X144400718Y-84754272D01*
X143847583Y-84201137D01*
X143763016Y-84330578D01*
X143669704Y-84543308D01*
X143612678Y-84768500D01*
X143593496Y-84999994D01*
X141407006Y-84999994D01*
X141387816Y-84768414D01*
X141330771Y-84543146D01*
X141237425Y-84330339D01*
X141110325Y-84135799D01*
X140952939Y-83964832D01*
X140952934Y-83964828D01*
X140952932Y-83964826D01*
X140769567Y-83822107D01*
X140769561Y-83822103D01*
X140565188Y-83711501D01*
X140565180Y-83711498D01*
X140345402Y-83636048D01*
X140116190Y-83597800D01*
X139883810Y-83597800D01*
X139654597Y-83636048D01*
X139434819Y-83711498D01*
X139434811Y-83711501D01*
X139230438Y-83822103D01*
X139230432Y-83822107D01*
X139047067Y-83964826D01*
X139047064Y-83964829D01*
X138889676Y-84135797D01*
X138889673Y-84135801D01*
X138762575Y-84330337D01*
X138669229Y-84543145D01*
X138612183Y-84768417D01*
X138592994Y-84999994D01*
X136407006Y-84999994D01*
X136387816Y-84768414D01*
X136330771Y-84543146D01*
X136237425Y-84330339D01*
X136110325Y-84135799D01*
X135952939Y-83964832D01*
X135952934Y-83964828D01*
X135952932Y-83964826D01*
X135769567Y-83822107D01*
X135769561Y-83822103D01*
X135565188Y-83711501D01*
X135565180Y-83711498D01*
X135345402Y-83636048D01*
X135116190Y-83597800D01*
X134883810Y-83597800D01*
X134654597Y-83636048D01*
X134434819Y-83711498D01*
X134434811Y-83711501D01*
X134230438Y-83822103D01*
X134230432Y-83822107D01*
X134047067Y-83964826D01*
X134047064Y-83964829D01*
X133889676Y-84135797D01*
X133889673Y-84135801D01*
X133762575Y-84330337D01*
X133669229Y-84543145D01*
X133612183Y-84768417D01*
X133592994Y-84999994D01*
X125500500Y-84999994D01*
X125500500Y-82443713D01*
X126149500Y-82443713D01*
X126149500Y-82656286D01*
X126182753Y-82866239D01*
X126248444Y-83068414D01*
X126344951Y-83257820D01*
X126469890Y-83429786D01*
X126620213Y-83580109D01*
X126792179Y-83705048D01*
X126792181Y-83705049D01*
X126792184Y-83705051D01*
X126981588Y-83801557D01*
X127183757Y-83867246D01*
X127393713Y-83900500D01*
X127393714Y-83900500D01*
X127606286Y-83900500D01*
X127606287Y-83900500D01*
X127816243Y-83867246D01*
X128018412Y-83801557D01*
X128207816Y-83705051D01*
X128302121Y-83636535D01*
X128379786Y-83580109D01*
X128379788Y-83580106D01*
X128379792Y-83580104D01*
X128530104Y-83429792D01*
X128530106Y-83429788D01*
X128530109Y-83429786D01*
X128655048Y-83257820D01*
X128655047Y-83257820D01*
X128655051Y-83257816D01*
X128751557Y-83068412D01*
X128817246Y-82866243D01*
X128850500Y-82656287D01*
X128850500Y-82443713D01*
X128842581Y-82393713D01*
X151149500Y-82393713D01*
X151149500Y-82606286D01*
X151182753Y-82816239D01*
X151248444Y-83018414D01*
X151344951Y-83207820D01*
X151469890Y-83379786D01*
X151620213Y-83530109D01*
X151792179Y-83655048D01*
X151792181Y-83655049D01*
X151792184Y-83655051D01*
X151981588Y-83751557D01*
X152183757Y-83817246D01*
X152393713Y-83850500D01*
X152393714Y-83850500D01*
X152606286Y-83850500D01*
X152606287Y-83850500D01*
X152816243Y-83817246D01*
X153018412Y-83751557D01*
X153207816Y-83655051D01*
X153310966Y-83580109D01*
X153379786Y-83530109D01*
X153379788Y-83530106D01*
X153379792Y-83530104D01*
X153530104Y-83379792D01*
X153530106Y-83379788D01*
X153530109Y-83379786D01*
X153655048Y-83207820D01*
X153655047Y-83207820D01*
X153655051Y-83207816D01*
X153751557Y-83018412D01*
X153817246Y-82816243D01*
X153850500Y-82606287D01*
X153850500Y-82393713D01*
X153817246Y-82183757D01*
X153751557Y-81981588D01*
X153655051Y-81792184D01*
X153655049Y-81792181D01*
X153655048Y-81792179D01*
X153530109Y-81620213D01*
X153379786Y-81469890D01*
X153207820Y-81344951D01*
X153018414Y-81248444D01*
X153018413Y-81248443D01*
X153018412Y-81248443D01*
X152816243Y-81182754D01*
X152816241Y-81182753D01*
X152816240Y-81182753D01*
X152654957Y-81157208D01*
X152606287Y-81149500D01*
X152393713Y-81149500D01*
X152345042Y-81157208D01*
X152183760Y-81182753D01*
X151981585Y-81248444D01*
X151792179Y-81344951D01*
X151620213Y-81469890D01*
X151469890Y-81620213D01*
X151344951Y-81792179D01*
X151248444Y-81981585D01*
X151182753Y-82183760D01*
X151149500Y-82393713D01*
X128842581Y-82393713D01*
X128817246Y-82233757D01*
X128751557Y-82031588D01*
X128655051Y-81842184D01*
X128655049Y-81842181D01*
X128655048Y-81842179D01*
X128530109Y-81670213D01*
X128379786Y-81519890D01*
X128207820Y-81394951D01*
X128018414Y-81298444D01*
X128018413Y-81298443D01*
X128018412Y-81298443D01*
X127816243Y-81232754D01*
X127816241Y-81232753D01*
X127816240Y-81232753D01*
X127654957Y-81207208D01*
X127606287Y-81199500D01*
X127393713Y-81199500D01*
X127345042Y-81207208D01*
X127183760Y-81232753D01*
X126981585Y-81298444D01*
X126792179Y-81394951D01*
X126620213Y-81519890D01*
X126469890Y-81670213D01*
X126344951Y-81842179D01*
X126248444Y-82031585D01*
X126182753Y-82233760D01*
X126149500Y-82443713D01*
X125500500Y-82443713D01*
X125500500Y-80624500D01*
X125520185Y-80557461D01*
X125572989Y-80511706D01*
X125624500Y-80500500D01*
X154375500Y-80500500D01*
X154442539Y-80520185D01*
G37*
%TD.AperFunction*%
%TD*%
M02*
