%TF.GenerationSoftware,KiCad,Pcbnew,8.0.7*%
%TF.CreationDate,2025-02-24T23:57:51-05:00*%
%TF.ProjectId,pcb3,70636233-2e6b-4696-9361-645f70636258,rev?*%
%TF.SameCoordinates,Original*%
%TF.FileFunction,Legend,Top*%
%TF.FilePolarity,Positive*%
%FSLAX46Y46*%
G04 Gerber Fmt 4.6, Leading zero omitted, Abs format (unit mm)*
G04 Created by KiCad (PCBNEW 8.0.7) date 2025-02-24 23:57:51*
%MOMM*%
%LPD*%
G01*
G04 APERTURE LIST*
%ADD10C,0.150000*%
%ADD11C,0.120000*%
%ADD12C,0.508000*%
G04 APERTURE END LIST*
D10*
X143153333Y-104454819D02*
X142820000Y-103978628D01*
X142581905Y-104454819D02*
X142581905Y-103454819D01*
X142581905Y-103454819D02*
X142962857Y-103454819D01*
X142962857Y-103454819D02*
X143058095Y-103502438D01*
X143058095Y-103502438D02*
X143105714Y-103550057D01*
X143105714Y-103550057D02*
X143153333Y-103645295D01*
X143153333Y-103645295D02*
X143153333Y-103788152D01*
X143153333Y-103788152D02*
X143105714Y-103883390D01*
X143105714Y-103883390D02*
X143058095Y-103931009D01*
X143058095Y-103931009D02*
X142962857Y-103978628D01*
X142962857Y-103978628D02*
X142581905Y-103978628D01*
X144010476Y-103788152D02*
X144010476Y-104454819D01*
X143772381Y-103407200D02*
X143534286Y-104121485D01*
X143534286Y-104121485D02*
X144153333Y-104121485D01*
X131411905Y-104504819D02*
X131411905Y-103504819D01*
X131411905Y-103504819D02*
X131650000Y-103504819D01*
X131650000Y-103504819D02*
X131792857Y-103552438D01*
X131792857Y-103552438D02*
X131888095Y-103647676D01*
X131888095Y-103647676D02*
X131935714Y-103742914D01*
X131935714Y-103742914D02*
X131983333Y-103933390D01*
X131983333Y-103933390D02*
X131983333Y-104076247D01*
X131983333Y-104076247D02*
X131935714Y-104266723D01*
X131935714Y-104266723D02*
X131888095Y-104361961D01*
X131888095Y-104361961D02*
X131792857Y-104457200D01*
X131792857Y-104457200D02*
X131650000Y-104504819D01*
X131650000Y-104504819D02*
X131411905Y-104504819D01*
X132935714Y-104504819D02*
X132364286Y-104504819D01*
X132650000Y-104504819D02*
X132650000Y-103504819D01*
X132650000Y-103504819D02*
X132554762Y-103647676D01*
X132554762Y-103647676D02*
X132459524Y-103742914D01*
X132459524Y-103742914D02*
X132364286Y-103790533D01*
X137338095Y-102654819D02*
X137338095Y-101654819D01*
X137909523Y-102654819D02*
X137480952Y-102083390D01*
X137909523Y-101654819D02*
X137338095Y-102226247D01*
X128054819Y-92918094D02*
X127054819Y-92918094D01*
X127054819Y-92918094D02*
X127054819Y-92679999D01*
X127054819Y-92679999D02*
X127102438Y-92537142D01*
X127102438Y-92537142D02*
X127197676Y-92441904D01*
X127197676Y-92441904D02*
X127292914Y-92394285D01*
X127292914Y-92394285D02*
X127483390Y-92346666D01*
X127483390Y-92346666D02*
X127626247Y-92346666D01*
X127626247Y-92346666D02*
X127816723Y-92394285D01*
X127816723Y-92394285D02*
X127911961Y-92441904D01*
X127911961Y-92441904D02*
X128007200Y-92537142D01*
X128007200Y-92537142D02*
X128054819Y-92679999D01*
X128054819Y-92679999D02*
X128054819Y-92918094D01*
X127150057Y-91965713D02*
X127102438Y-91918094D01*
X127102438Y-91918094D02*
X127054819Y-91822856D01*
X127054819Y-91822856D02*
X127054819Y-91584761D01*
X127054819Y-91584761D02*
X127102438Y-91489523D01*
X127102438Y-91489523D02*
X127150057Y-91441904D01*
X127150057Y-91441904D02*
X127245295Y-91394285D01*
X127245295Y-91394285D02*
X127340533Y-91394285D01*
X127340533Y-91394285D02*
X127483390Y-91441904D01*
X127483390Y-91441904D02*
X128054819Y-92013332D01*
X128054819Y-92013332D02*
X128054819Y-91394285D01*
X128424819Y-97521904D02*
X127424819Y-97521904D01*
X128424819Y-96950476D02*
X127853390Y-97379047D01*
X127424819Y-96950476D02*
X127996247Y-97521904D01*
X139308095Y-88954819D02*
X139308095Y-89764342D01*
X139308095Y-89764342D02*
X139355714Y-89859580D01*
X139355714Y-89859580D02*
X139403333Y-89907200D01*
X139403333Y-89907200D02*
X139498571Y-89954819D01*
X139498571Y-89954819D02*
X139689047Y-89954819D01*
X139689047Y-89954819D02*
X139784285Y-89907200D01*
X139784285Y-89907200D02*
X139831904Y-89859580D01*
X139831904Y-89859580D02*
X139879523Y-89764342D01*
X139879523Y-89764342D02*
X139879523Y-88954819D01*
X140879523Y-89954819D02*
X140308095Y-89954819D01*
X140593809Y-89954819D02*
X140593809Y-88954819D01*
X140593809Y-88954819D02*
X140498571Y-89097676D01*
X140498571Y-89097676D02*
X140403333Y-89192914D01*
X140403333Y-89192914D02*
X140308095Y-89240533D01*
X147688095Y-88954819D02*
X147688095Y-89764342D01*
X147688095Y-89764342D02*
X147735714Y-89859580D01*
X147735714Y-89859580D02*
X147783333Y-89907200D01*
X147783333Y-89907200D02*
X147878571Y-89954819D01*
X147878571Y-89954819D02*
X148069047Y-89954819D01*
X148069047Y-89954819D02*
X148164285Y-89907200D01*
X148164285Y-89907200D02*
X148211904Y-89859580D01*
X148211904Y-89859580D02*
X148259523Y-89764342D01*
X148259523Y-89764342D02*
X148259523Y-88954819D01*
X148688095Y-89050057D02*
X148735714Y-89002438D01*
X148735714Y-89002438D02*
X148830952Y-88954819D01*
X148830952Y-88954819D02*
X149069047Y-88954819D01*
X149069047Y-88954819D02*
X149164285Y-89002438D01*
X149164285Y-89002438D02*
X149211904Y-89050057D01*
X149211904Y-89050057D02*
X149259523Y-89145295D01*
X149259523Y-89145295D02*
X149259523Y-89240533D01*
X149259523Y-89240533D02*
X149211904Y-89383390D01*
X149211904Y-89383390D02*
X148640476Y-89954819D01*
X148640476Y-89954819D02*
X149259523Y-89954819D01*
X138204819Y-100116666D02*
X137728628Y-100449999D01*
X138204819Y-100688094D02*
X137204819Y-100688094D01*
X137204819Y-100688094D02*
X137204819Y-100307142D01*
X137204819Y-100307142D02*
X137252438Y-100211904D01*
X137252438Y-100211904D02*
X137300057Y-100164285D01*
X137300057Y-100164285D02*
X137395295Y-100116666D01*
X137395295Y-100116666D02*
X137538152Y-100116666D01*
X137538152Y-100116666D02*
X137633390Y-100164285D01*
X137633390Y-100164285D02*
X137681009Y-100211904D01*
X137681009Y-100211904D02*
X137728628Y-100307142D01*
X137728628Y-100307142D02*
X137728628Y-100688094D01*
X137204819Y-99211904D02*
X137204819Y-99688094D01*
X137204819Y-99688094D02*
X137681009Y-99735713D01*
X137681009Y-99735713D02*
X137633390Y-99688094D01*
X137633390Y-99688094D02*
X137585771Y-99592856D01*
X137585771Y-99592856D02*
X137585771Y-99354761D01*
X137585771Y-99354761D02*
X137633390Y-99259523D01*
X137633390Y-99259523D02*
X137681009Y-99211904D01*
X137681009Y-99211904D02*
X137776247Y-99164285D01*
X137776247Y-99164285D02*
X138014342Y-99164285D01*
X138014342Y-99164285D02*
X138109580Y-99211904D01*
X138109580Y-99211904D02*
X138157200Y-99259523D01*
X138157200Y-99259523D02*
X138204819Y-99354761D01*
X138204819Y-99354761D02*
X138204819Y-99592856D01*
X138204819Y-99592856D02*
X138157200Y-99688094D01*
X138157200Y-99688094D02*
X138109580Y-99735713D01*
X134503333Y-95859580D02*
X134455714Y-95907200D01*
X134455714Y-95907200D02*
X134312857Y-95954819D01*
X134312857Y-95954819D02*
X134217619Y-95954819D01*
X134217619Y-95954819D02*
X134074762Y-95907200D01*
X134074762Y-95907200D02*
X133979524Y-95811961D01*
X133979524Y-95811961D02*
X133931905Y-95716723D01*
X133931905Y-95716723D02*
X133884286Y-95526247D01*
X133884286Y-95526247D02*
X133884286Y-95383390D01*
X133884286Y-95383390D02*
X133931905Y-95192914D01*
X133931905Y-95192914D02*
X133979524Y-95097676D01*
X133979524Y-95097676D02*
X134074762Y-95002438D01*
X134074762Y-95002438D02*
X134217619Y-94954819D01*
X134217619Y-94954819D02*
X134312857Y-94954819D01*
X134312857Y-94954819D02*
X134455714Y-95002438D01*
X134455714Y-95002438D02*
X134503333Y-95050057D01*
X134884286Y-95050057D02*
X134931905Y-95002438D01*
X134931905Y-95002438D02*
X135027143Y-94954819D01*
X135027143Y-94954819D02*
X135265238Y-94954819D01*
X135265238Y-94954819D02*
X135360476Y-95002438D01*
X135360476Y-95002438D02*
X135408095Y-95050057D01*
X135408095Y-95050057D02*
X135455714Y-95145295D01*
X135455714Y-95145295D02*
X135455714Y-95240533D01*
X135455714Y-95240533D02*
X135408095Y-95383390D01*
X135408095Y-95383390D02*
X134836667Y-95954819D01*
X134836667Y-95954819D02*
X135455714Y-95954819D01*
X138204819Y-97316666D02*
X137728628Y-97649999D01*
X138204819Y-97888094D02*
X137204819Y-97888094D01*
X137204819Y-97888094D02*
X137204819Y-97507142D01*
X137204819Y-97507142D02*
X137252438Y-97411904D01*
X137252438Y-97411904D02*
X137300057Y-97364285D01*
X137300057Y-97364285D02*
X137395295Y-97316666D01*
X137395295Y-97316666D02*
X137538152Y-97316666D01*
X137538152Y-97316666D02*
X137633390Y-97364285D01*
X137633390Y-97364285D02*
X137681009Y-97411904D01*
X137681009Y-97411904D02*
X137728628Y-97507142D01*
X137728628Y-97507142D02*
X137728628Y-97888094D01*
X138204819Y-96364285D02*
X138204819Y-96935713D01*
X138204819Y-96649999D02*
X137204819Y-96649999D01*
X137204819Y-96649999D02*
X137347676Y-96745237D01*
X137347676Y-96745237D02*
X137442914Y-96840475D01*
X137442914Y-96840475D02*
X137490533Y-96935713D01*
X150153333Y-104454819D02*
X149820000Y-103978628D01*
X149581905Y-104454819D02*
X149581905Y-103454819D01*
X149581905Y-103454819D02*
X149962857Y-103454819D01*
X149962857Y-103454819D02*
X150058095Y-103502438D01*
X150058095Y-103502438D02*
X150105714Y-103550057D01*
X150105714Y-103550057D02*
X150153333Y-103645295D01*
X150153333Y-103645295D02*
X150153333Y-103788152D01*
X150153333Y-103788152D02*
X150105714Y-103883390D01*
X150105714Y-103883390D02*
X150058095Y-103931009D01*
X150058095Y-103931009D02*
X149962857Y-103978628D01*
X149962857Y-103978628D02*
X149581905Y-103978628D01*
X150486667Y-103454819D02*
X151105714Y-103454819D01*
X151105714Y-103454819D02*
X150772381Y-103835771D01*
X150772381Y-103835771D02*
X150915238Y-103835771D01*
X150915238Y-103835771D02*
X151010476Y-103883390D01*
X151010476Y-103883390D02*
X151058095Y-103931009D01*
X151058095Y-103931009D02*
X151105714Y-104026247D01*
X151105714Y-104026247D02*
X151105714Y-104264342D01*
X151105714Y-104264342D02*
X151058095Y-104359580D01*
X151058095Y-104359580D02*
X151010476Y-104407200D01*
X151010476Y-104407200D02*
X150915238Y-104454819D01*
X150915238Y-104454819D02*
X150629524Y-104454819D01*
X150629524Y-104454819D02*
X150534286Y-104407200D01*
X150534286Y-104407200D02*
X150486667Y-104359580D01*
X133233333Y-89954819D02*
X132900000Y-89478628D01*
X132661905Y-89954819D02*
X132661905Y-88954819D01*
X132661905Y-88954819D02*
X133042857Y-88954819D01*
X133042857Y-88954819D02*
X133138095Y-89002438D01*
X133138095Y-89002438D02*
X133185714Y-89050057D01*
X133185714Y-89050057D02*
X133233333Y-89145295D01*
X133233333Y-89145295D02*
X133233333Y-89288152D01*
X133233333Y-89288152D02*
X133185714Y-89383390D01*
X133185714Y-89383390D02*
X133138095Y-89431009D01*
X133138095Y-89431009D02*
X133042857Y-89478628D01*
X133042857Y-89478628D02*
X132661905Y-89478628D01*
X133614286Y-89050057D02*
X133661905Y-89002438D01*
X133661905Y-89002438D02*
X133757143Y-88954819D01*
X133757143Y-88954819D02*
X133995238Y-88954819D01*
X133995238Y-88954819D02*
X134090476Y-89002438D01*
X134090476Y-89002438D02*
X134138095Y-89050057D01*
X134138095Y-89050057D02*
X134185714Y-89145295D01*
X134185714Y-89145295D02*
X134185714Y-89240533D01*
X134185714Y-89240533D02*
X134138095Y-89383390D01*
X134138095Y-89383390D02*
X133566667Y-89954819D01*
X133566667Y-89954819D02*
X134185714Y-89954819D01*
X135883333Y-89859580D02*
X135835714Y-89907200D01*
X135835714Y-89907200D02*
X135692857Y-89954819D01*
X135692857Y-89954819D02*
X135597619Y-89954819D01*
X135597619Y-89954819D02*
X135454762Y-89907200D01*
X135454762Y-89907200D02*
X135359524Y-89811961D01*
X135359524Y-89811961D02*
X135311905Y-89716723D01*
X135311905Y-89716723D02*
X135264286Y-89526247D01*
X135264286Y-89526247D02*
X135264286Y-89383390D01*
X135264286Y-89383390D02*
X135311905Y-89192914D01*
X135311905Y-89192914D02*
X135359524Y-89097676D01*
X135359524Y-89097676D02*
X135454762Y-89002438D01*
X135454762Y-89002438D02*
X135597619Y-88954819D01*
X135597619Y-88954819D02*
X135692857Y-88954819D01*
X135692857Y-88954819D02*
X135835714Y-89002438D01*
X135835714Y-89002438D02*
X135883333Y-89050057D01*
X136835714Y-89954819D02*
X136264286Y-89954819D01*
X136550000Y-89954819D02*
X136550000Y-88954819D01*
X136550000Y-88954819D02*
X136454762Y-89097676D01*
X136454762Y-89097676D02*
X136359524Y-89192914D01*
X136359524Y-89192914D02*
X136264286Y-89240533D01*
D11*
%TO.C,R4*%
X140450000Y-102180000D02*
X141400000Y-102180000D01*
X141400000Y-101260000D02*
X141400000Y-103100000D01*
X141400000Y-103100000D02*
X145240000Y-103100000D01*
X145240000Y-101260000D02*
X141400000Y-101260000D01*
X145240000Y-103100000D02*
X145240000Y-101260000D01*
X146190000Y-102180000D02*
X145240000Y-102180000D01*
%TO.C,D1*%
X129430000Y-102200000D02*
X130080000Y-102200000D01*
X130080000Y-101080000D02*
X130080000Y-103320000D01*
X130080000Y-103320000D02*
X134320000Y-103320000D01*
X133480000Y-103320000D02*
X133480000Y-101080000D01*
X133600000Y-103320000D02*
X133600000Y-101080000D01*
X133720000Y-103320000D02*
X133720000Y-101080000D01*
X134320000Y-101080000D02*
X130080000Y-101080000D01*
X134320000Y-103320000D02*
X134320000Y-101080000D01*
X134970000Y-102200000D02*
X134320000Y-102200000D01*
%TO.C,D2*%
X128600000Y-89460000D02*
X128600000Y-94900000D01*
X128600000Y-93880000D02*
X131540000Y-93880000D01*
X128600000Y-94000000D02*
X131540000Y-94000000D01*
X128600000Y-94120000D02*
X131540000Y-94120000D01*
X128600000Y-94900000D02*
X131540000Y-94900000D01*
X130070000Y-88440000D02*
X130070000Y-89460000D01*
X130070000Y-95920000D02*
X130070000Y-94900000D01*
X131540000Y-89460000D02*
X128600000Y-89460000D01*
X131540000Y-94900000D02*
X131540000Y-89460000D01*
%TO.C,U1*%
X138270000Y-95550000D02*
X141870000Y-95550000D01*
X138258547Y-95542156D02*
G75*
G02*
X139250000Y-91250000I1811453J1842156D01*
G01*
X140850000Y-91250000D02*
G75*
G02*
X141878445Y-95527684I-780000J-2450000D01*
G01*
%TO.C,U2*%
X143440000Y-93445000D02*
X143440000Y-94695000D01*
X143440000Y-96695000D02*
X143440000Y-97945000D01*
X143440000Y-97945000D02*
X153720000Y-97945000D01*
X153720000Y-93445000D02*
X143440000Y-93445000D01*
X153720000Y-97945000D02*
X153720000Y-93445000D01*
X143440000Y-94695000D02*
G75*
G02*
X143440000Y-96695000I0J-1000000D01*
G01*
%TO.C,R5*%
X140092936Y-99195000D02*
X140547064Y-99195000D01*
X140092936Y-100665000D02*
X140547064Y-100665000D01*
%TO.C,C2*%
X134408748Y-96445000D02*
X134931252Y-96445000D01*
X134408748Y-97915000D02*
X134931252Y-97915000D01*
%TO.C,R1*%
X140547064Y-96445000D02*
X140092936Y-96445000D01*
X140547064Y-97915000D02*
X140092936Y-97915000D01*
%TO.C,R3*%
X150547064Y-101445000D02*
X150092936Y-101445000D01*
X150547064Y-102915000D02*
X150092936Y-102915000D01*
%TO.C,R2*%
X132635000Y-92957064D02*
X132635000Y-92502936D01*
X134105000Y-92957064D02*
X134105000Y-92502936D01*
%TO.C,C1*%
X135335000Y-92941252D02*
X135335000Y-92418748D01*
X136805000Y-92941252D02*
X136805000Y-92418748D01*
D12*
%TO.C,J1*%
X149786000Y-85000000D02*
G75*
G02*
X149024000Y-85000000I-381000J0D01*
G01*
X149024000Y-85000000D02*
G75*
G02*
X149786000Y-85000000I381000J0D01*
G01*
%TD*%
M02*
