%TF.GenerationSoftware,KiCad,Pcbnew,8.0.7*%
%TF.CreationDate,2025-02-24T23:57:51-05:00*%
%TF.ProjectId,pcb3,70636233-2e6b-4696-9361-645f70636258,rev?*%
%TF.SameCoordinates,Original*%
%TF.FileFunction,Copper,L1,Top*%
%TF.FilePolarity,Positive*%
%FSLAX46Y46*%
G04 Gerber Fmt 4.6, Leading zero omitted, Abs format (unit mm)*
G04 Created by KiCad (PCBNEW 8.0.7) date 2025-02-24 23:57:51*
%MOMM*%
%LPD*%
G01*
G04 APERTURE LIST*
G04 Aperture macros list*
%AMRoundRect*
0 Rectangle with rounded corners*
0 $1 Rounding radius*
0 $2 $3 $4 $5 $6 $7 $8 $9 X,Y pos of 4 corners*
0 Add a 4 corners polygon primitive as box body*
4,1,4,$2,$3,$4,$5,$6,$7,$8,$9,$2,$3,0*
0 Add four circle primitives for the rounded corners*
1,1,$1+$1,$2,$3*
1,1,$1+$1,$4,$5*
1,1,$1+$1,$6,$7*
1,1,$1+$1,$8,$9*
0 Add four rect primitives between the rounded corners*
20,1,$1+$1,$2,$3,$4,$5,0*
20,1,$1+$1,$4,$5,$6,$7,0*
20,1,$1+$1,$6,$7,$8,$9,0*
20,1,$1+$1,$8,$9,$2,$3,0*%
G04 Aperture macros list end*
%TA.AperFunction,ComponentPad*%
%ADD10C,1.400000*%
%TD*%
%TA.AperFunction,ComponentPad*%
%ADD11O,1.400000X1.400000*%
%TD*%
%TA.AperFunction,ComponentPad*%
%ADD12R,1.600000X1.600000*%
%TD*%
%TA.AperFunction,ComponentPad*%
%ADD13O,1.600000X1.600000*%
%TD*%
%TA.AperFunction,ComponentPad*%
%ADD14R,2.200000X2.200000*%
%TD*%
%TA.AperFunction,ComponentPad*%
%ADD15O,2.200000X2.200000*%
%TD*%
%TA.AperFunction,ComponentPad*%
%ADD16R,1.100000X1.800000*%
%TD*%
%TA.AperFunction,ComponentPad*%
%ADD17RoundRect,0.275000X-0.275000X-0.625000X0.275000X-0.625000X0.275000X0.625000X-0.275000X0.625000X0*%
%TD*%
%TA.AperFunction,ComponentPad*%
%ADD18R,1.600000X2.400000*%
%TD*%
%TA.AperFunction,ComponentPad*%
%ADD19O,1.600000X2.400000*%
%TD*%
%TA.AperFunction,SMDPad,CuDef*%
%ADD20RoundRect,0.250000X-0.350000X-0.450000X0.350000X-0.450000X0.350000X0.450000X-0.350000X0.450000X0*%
%TD*%
%TA.AperFunction,SMDPad,CuDef*%
%ADD21RoundRect,0.250000X-0.337500X-0.475000X0.337500X-0.475000X0.337500X0.475000X-0.337500X0.475000X0*%
%TD*%
%TA.AperFunction,SMDPad,CuDef*%
%ADD22RoundRect,0.250000X0.350000X0.450000X-0.350000X0.450000X-0.350000X-0.450000X0.350000X-0.450000X0*%
%TD*%
%TA.AperFunction,SMDPad,CuDef*%
%ADD23RoundRect,0.250000X0.450000X-0.350000X0.450000X0.350000X-0.450000X0.350000X-0.450000X-0.350000X0*%
%TD*%
%TA.AperFunction,SMDPad,CuDef*%
%ADD24RoundRect,0.250000X0.475000X-0.337500X0.475000X0.337500X-0.475000X0.337500X-0.475000X-0.337500X0*%
%TD*%
%TA.AperFunction,ComponentPad*%
%ADD25C,1.803400*%
%TD*%
%TA.AperFunction,ViaPad*%
%ADD26C,0.600000*%
%TD*%
%TA.AperFunction,Conductor*%
%ADD27C,0.508000*%
%TD*%
G04 APERTURE END LIST*
D10*
%TO.P,R4,1*%
%TO.N,Net-(U2A--)*%
X147130000Y-102180000D03*
D11*
%TO.P,R4,2*%
%TO.N,GND*%
X139510000Y-102180000D03*
%TD*%
D12*
%TO.P,D1,1,K*%
%TO.N,Net-(D1-K)*%
X136010000Y-102200000D03*
D13*
%TO.P,D1,2,A*%
%TO.N,GND*%
X128390000Y-102200000D03*
%TD*%
D14*
%TO.P,D2,1,K*%
%TO.N,Net-(D2-K)*%
X130070000Y-97260000D03*
D15*
%TO.P,D2,2,A*%
%TO.N,+5V*%
X130070000Y-87100000D03*
%TD*%
D16*
%TO.P,U1,1,VDD*%
%TO.N,Net-(D1-K)*%
X138800000Y-94100000D03*
D17*
%TO.P,U1,2,GND*%
%TO.N,GND*%
X140070000Y-92030000D03*
%TO.P,U1,3,OUT*%
%TO.N,Net-(U1-OUT)*%
X141340000Y-94100000D03*
%TD*%
D18*
%TO.P,U2,1*%
%TO.N,/OUT_5V*%
X144770000Y-99505000D03*
D19*
%TO.P,U2,2,-*%
%TO.N,Net-(U2A--)*%
X147310000Y-99505000D03*
%TO.P,U2,3,+*%
%TO.N,Net-(U2A-+)*%
X149850000Y-99505000D03*
%TO.P,U2,4,V-*%
%TO.N,GND*%
X152390000Y-99505000D03*
%TO.P,U2,5,+*%
%TO.N,unconnected-(U2B-+-Pad5)*%
X152390000Y-91885000D03*
%TO.P,U2,6,-*%
%TO.N,unconnected-(U2B---Pad6)*%
X149850000Y-91885000D03*
%TO.P,U2,7*%
%TO.N,unconnected-(U2-Pad7)*%
X147310000Y-91885000D03*
%TO.P,U2,8,V+*%
%TO.N,+5V*%
X144770000Y-91885000D03*
%TD*%
D20*
%TO.P,R5,1*%
%TO.N,+5V*%
X139320000Y-99930000D03*
%TO.P,R5,2*%
%TO.N,/OUT_5V*%
X141320000Y-99930000D03*
%TD*%
D21*
%TO.P,C2,1*%
%TO.N,GND*%
X133632500Y-97180000D03*
%TO.P,C2,2*%
%TO.N,Net-(U2A-+)*%
X135707500Y-97180000D03*
%TD*%
D22*
%TO.P,R1,1*%
%TO.N,Net-(U1-OUT)*%
X141320000Y-97180000D03*
%TO.P,R1,2*%
%TO.N,Net-(U2A-+)*%
X139320000Y-97180000D03*
%TD*%
%TO.P,R3,1*%
%TO.N,+5V*%
X151320000Y-102180000D03*
%TO.P,R3,2*%
%TO.N,Net-(U2A--)*%
X149320000Y-102180000D03*
%TD*%
D23*
%TO.P,R2,1*%
%TO.N,Net-(D2-K)*%
X133370000Y-93730000D03*
%TO.P,R2,2*%
%TO.N,Net-(D1-K)*%
X133370000Y-91730000D03*
%TD*%
D24*
%TO.P,C1,1*%
%TO.N,Net-(D1-K)*%
X136070000Y-93717500D03*
%TO.P,C1,2*%
%TO.N,GND*%
X136070000Y-91642500D03*
%TD*%
D25*
%TO.P,J1,1,Pin_1*%
%TO.N,+5V*%
X145000000Y-85000000D03*
%TO.P,J1,2,Pin_2*%
%TO.N,/OUT_5V*%
X140000000Y-85000000D03*
%TO.P,J1,3,Pin_3*%
%TO.N,GND*%
X135000000Y-85000000D03*
%TD*%
D26*
%TO.N,Net-(U2A-+)*%
X133320000Y-99030000D03*
%TO.N,+5V*%
X153020000Y-102180000D03*
X136475000Y-99475000D03*
%TD*%
D27*
%TO.N,Net-(D1-K)*%
X132750000Y-101800000D02*
X133150000Y-102200000D01*
X132750000Y-100550000D02*
X132750000Y-101800000D01*
X128300000Y-100000000D02*
X132200000Y-100000000D01*
X138782500Y-93717500D02*
X138800000Y-93700000D01*
X138800000Y-91160000D02*
X138241000Y-90601000D01*
X127070000Y-91930000D02*
X127070000Y-98770000D01*
X133370000Y-91730000D02*
X133370000Y-90601000D01*
X138241000Y-90601000D02*
X133370000Y-90601000D01*
X128399000Y-90601000D02*
X127070000Y-91930000D01*
X133370000Y-90601000D02*
X128399000Y-90601000D01*
X133150000Y-102200000D02*
X136060000Y-102200000D01*
X136070000Y-93717500D02*
X138782500Y-93717500D01*
X127070000Y-98770000D02*
X128300000Y-100000000D01*
X138800000Y-93700000D02*
X138800000Y-91160000D01*
X132200000Y-100000000D02*
X132750000Y-100550000D01*
%TO.N,Net-(U2A-+)*%
X139320000Y-97180000D02*
X135707500Y-97180000D01*
X133857500Y-99030000D02*
X135707500Y-97180000D01*
X133320000Y-99030000D02*
X133857500Y-99030000D01*
%TO.N,+5V*%
X136930000Y-99930000D02*
X139320000Y-99930000D01*
X153020000Y-102180000D02*
X151320000Y-102180000D01*
X136475000Y-99475000D02*
X136930000Y-99930000D01*
%TO.N,Net-(D2-K)*%
X133370000Y-93730000D02*
X130620000Y-93730000D01*
X130620000Y-93730000D02*
X130070000Y-94280000D01*
X130070000Y-94280000D02*
X130070000Y-97260000D01*
%TO.N,/OUT_5V*%
X142820000Y-99430000D02*
X142320000Y-99930000D01*
X140000000Y-85000000D02*
X141250000Y-85000000D01*
X142320000Y-99930000D02*
X141320000Y-99930000D01*
X141250000Y-85000000D02*
X142820000Y-86570000D01*
X142820000Y-86570000D02*
X142820000Y-99430000D01*
X144770000Y-99505000D02*
X142895000Y-99505000D01*
%TO.N,Net-(U1-OUT)*%
X141340000Y-97160000D02*
X141320000Y-97180000D01*
X141340000Y-93700000D02*
X141340000Y-97160000D01*
%TO.N,Net-(U2A--)*%
X147130000Y-102180000D02*
X149320000Y-102180000D01*
X147310000Y-99505000D02*
X147130000Y-99685000D01*
X147130000Y-99685000D02*
X147130000Y-102180000D01*
%TD*%
%TA.AperFunction,Conductor*%
%TO.N,GND*%
G36*
X132112539Y-91375185D02*
G01*
X132158294Y-91427989D01*
X132169500Y-91479500D01*
X132169500Y-92130001D01*
X132169501Y-92130019D01*
X132180000Y-92232796D01*
X132180001Y-92232799D01*
X132235185Y-92399331D01*
X132235187Y-92399336D01*
X132327289Y-92548657D01*
X132420951Y-92642319D01*
X132454436Y-92703642D01*
X132449452Y-92773334D01*
X132420951Y-92817681D01*
X132327288Y-92911343D01*
X132324046Y-92916600D01*
X132272097Y-92963323D01*
X132218509Y-92975500D01*
X130545683Y-92975500D01*
X130399927Y-93004493D01*
X130399919Y-93004495D01*
X130262608Y-93061371D01*
X130139035Y-93143939D01*
X130139034Y-93143940D01*
X130086488Y-93196487D01*
X130033941Y-93249034D01*
X130033939Y-93249036D01*
X129483943Y-93799030D01*
X129483942Y-93799031D01*
X129401368Y-93922614D01*
X129368053Y-94003045D01*
X129344495Y-94059917D01*
X129344492Y-94059926D01*
X129341517Y-94074888D01*
X129341517Y-94074889D01*
X129315499Y-94205685D01*
X129315499Y-94360425D01*
X129315500Y-94360446D01*
X129315500Y-95535500D01*
X129295815Y-95602539D01*
X129243011Y-95648294D01*
X129191500Y-95659500D01*
X128922130Y-95659500D01*
X128922123Y-95659501D01*
X128862516Y-95665908D01*
X128727671Y-95716202D01*
X128727664Y-95716206D01*
X128612455Y-95802452D01*
X128612452Y-95802455D01*
X128526206Y-95917664D01*
X128526202Y-95917671D01*
X128475908Y-96052517D01*
X128469501Y-96112116D01*
X128469501Y-96112123D01*
X128469500Y-96112135D01*
X128469500Y-98407870D01*
X128469501Y-98407876D01*
X128475908Y-98467483D01*
X128526202Y-98602328D01*
X128526206Y-98602335D01*
X128612452Y-98717544D01*
X128612455Y-98717547D01*
X128727664Y-98803793D01*
X128727671Y-98803797D01*
X128862517Y-98854091D01*
X128862516Y-98854091D01*
X128869444Y-98854835D01*
X128922127Y-98860500D01*
X131217872Y-98860499D01*
X131277483Y-98854091D01*
X131412331Y-98803796D01*
X131527546Y-98717546D01*
X131613796Y-98602331D01*
X131664091Y-98467483D01*
X131670500Y-98407873D01*
X131670499Y-96655013D01*
X132545000Y-96655013D01*
X132545000Y-96930000D01*
X133382500Y-96930000D01*
X133382500Y-95955000D01*
X133245027Y-95955000D01*
X133245012Y-95955001D01*
X133142302Y-95965494D01*
X132975880Y-96020641D01*
X132975875Y-96020643D01*
X132826654Y-96112684D01*
X132702684Y-96236654D01*
X132610643Y-96385875D01*
X132610641Y-96385880D01*
X132555494Y-96552302D01*
X132555493Y-96552309D01*
X132545000Y-96655013D01*
X131670499Y-96655013D01*
X131670499Y-96112128D01*
X131664091Y-96052517D01*
X131661356Y-96045185D01*
X131613797Y-95917671D01*
X131613793Y-95917664D01*
X131527547Y-95802455D01*
X131527544Y-95802452D01*
X131412335Y-95716206D01*
X131412328Y-95716202D01*
X131277482Y-95665908D01*
X131277483Y-95665908D01*
X131217883Y-95659501D01*
X131217881Y-95659500D01*
X131217873Y-95659500D01*
X131217865Y-95659500D01*
X130948500Y-95659500D01*
X130881461Y-95639815D01*
X130835706Y-95587011D01*
X130824500Y-95535500D01*
X130824500Y-94643886D01*
X130844185Y-94576847D01*
X130860819Y-94556205D01*
X130896205Y-94520819D01*
X130957528Y-94487334D01*
X130983886Y-94484500D01*
X132218509Y-94484500D01*
X132285548Y-94504185D01*
X132324046Y-94543400D01*
X132327288Y-94548656D01*
X132451344Y-94672712D01*
X132600666Y-94764814D01*
X132767203Y-94819999D01*
X132869991Y-94830500D01*
X133870008Y-94830499D01*
X133870016Y-94830498D01*
X133870019Y-94830498D01*
X133926302Y-94824748D01*
X133972797Y-94819999D01*
X134139334Y-94764814D01*
X134288656Y-94672712D01*
X134412712Y-94548656D01*
X134504814Y-94399334D01*
X134559999Y-94232797D01*
X134570500Y-94130009D01*
X134570499Y-93329992D01*
X134567572Y-93301343D01*
X134559999Y-93227203D01*
X134559998Y-93227200D01*
X134535122Y-93152129D01*
X134504814Y-93060666D01*
X134412712Y-92911344D01*
X134319049Y-92817681D01*
X134285564Y-92756358D01*
X134290548Y-92686666D01*
X134319049Y-92642319D01*
X134361116Y-92600252D01*
X134412712Y-92548656D01*
X134504814Y-92399334D01*
X134559999Y-92232797D01*
X134570500Y-92130009D01*
X134570499Y-91479499D01*
X134590183Y-91412461D01*
X134642987Y-91366706D01*
X134694499Y-91355500D01*
X134756638Y-91355500D01*
X134823677Y-91375185D01*
X134844319Y-91391819D01*
X134845000Y-91392500D01*
X137294999Y-91392500D01*
X137295680Y-91391819D01*
X137357003Y-91358334D01*
X137383361Y-91355500D01*
X137877112Y-91355500D01*
X137944151Y-91375185D01*
X137964792Y-91391818D01*
X138009180Y-91436205D01*
X138042666Y-91497528D01*
X138045500Y-91523887D01*
X138045500Y-92665814D01*
X138025815Y-92732853D01*
X137995811Y-92765080D01*
X137892456Y-92842452D01*
X137892455Y-92842453D01*
X137892454Y-92842454D01*
X137839409Y-92913311D01*
X137783477Y-92955182D01*
X137740144Y-92963000D01*
X137238589Y-92963000D01*
X137171550Y-92943315D01*
X137141322Y-92915910D01*
X137137710Y-92911342D01*
X137013657Y-92787289D01*
X137013656Y-92787288D01*
X137010342Y-92785243D01*
X137008546Y-92783248D01*
X137007989Y-92782807D01*
X137008064Y-92782711D01*
X136963618Y-92733297D01*
X136952397Y-92664334D01*
X136980240Y-92600252D01*
X137010348Y-92574165D01*
X137013342Y-92572318D01*
X137137315Y-92448345D01*
X137229356Y-92299124D01*
X137229358Y-92299119D01*
X137284505Y-92132697D01*
X137284506Y-92132690D01*
X137294999Y-92029986D01*
X137295000Y-92029973D01*
X137295000Y-91892500D01*
X134845001Y-91892500D01*
X134845001Y-92029986D01*
X134855494Y-92132697D01*
X134910641Y-92299119D01*
X134910643Y-92299124D01*
X135002684Y-92448345D01*
X135126655Y-92572316D01*
X135126659Y-92572319D01*
X135129656Y-92574168D01*
X135131279Y-92575972D01*
X135132323Y-92576798D01*
X135132181Y-92576976D01*
X135176381Y-92626116D01*
X135187602Y-92695079D01*
X135159759Y-92759161D01*
X135129661Y-92785241D01*
X135126349Y-92787283D01*
X135126343Y-92787288D01*
X135002289Y-92911342D01*
X134910187Y-93060663D01*
X134910185Y-93060668D01*
X134895393Y-93105309D01*
X134855001Y-93227203D01*
X134855001Y-93227204D01*
X134855000Y-93227204D01*
X134844500Y-93329983D01*
X134844500Y-94105001D01*
X134844501Y-94105019D01*
X134855000Y-94207796D01*
X134855001Y-94207799D01*
X134863285Y-94232797D01*
X134910186Y-94374334D01*
X135002288Y-94523656D01*
X135126344Y-94647712D01*
X135275666Y-94739814D01*
X135442203Y-94794999D01*
X135544991Y-94805500D01*
X136595008Y-94805499D01*
X136595016Y-94805498D01*
X136595019Y-94805498D01*
X136651302Y-94799748D01*
X136697797Y-94794999D01*
X136864334Y-94739814D01*
X137013656Y-94647712D01*
X137137712Y-94523656D01*
X137137716Y-94523649D01*
X137141322Y-94519090D01*
X137198344Y-94478713D01*
X137238589Y-94472000D01*
X137625501Y-94472000D01*
X137692540Y-94491685D01*
X137738295Y-94544489D01*
X137749501Y-94596000D01*
X137749501Y-95047876D01*
X137755908Y-95107483D01*
X137806202Y-95242328D01*
X137806206Y-95242335D01*
X137892452Y-95357544D01*
X137892455Y-95357547D01*
X138007664Y-95443793D01*
X138007671Y-95443797D01*
X138142517Y-95494091D01*
X138142516Y-95494091D01*
X138149444Y-95494835D01*
X138202127Y-95500500D01*
X139397872Y-95500499D01*
X139457483Y-95494091D01*
X139592331Y-95443796D01*
X139707546Y-95357546D01*
X139793796Y-95242331D01*
X139844091Y-95107483D01*
X139850500Y-95047873D01*
X139850499Y-93152128D01*
X139844091Y-93092517D01*
X139832474Y-93061371D01*
X139827818Y-93048886D01*
X139820000Y-93005553D01*
X139820000Y-92710330D01*
X139839745Y-92730075D01*
X139925255Y-92779444D01*
X140020630Y-92805000D01*
X140119370Y-92805000D01*
X140214745Y-92779444D01*
X140300255Y-92730075D01*
X140320000Y-92710330D01*
X140320000Y-93235001D01*
X140313042Y-93275955D01*
X140304159Y-93301340D01*
X140304157Y-93301348D01*
X140289500Y-93431441D01*
X140289500Y-94768558D01*
X140304157Y-94898648D01*
X140304159Y-94898658D01*
X140361877Y-95063604D01*
X140454853Y-95211576D01*
X140549181Y-95305904D01*
X140582666Y-95367227D01*
X140585500Y-95393585D01*
X140585500Y-96016173D01*
X140565815Y-96083212D01*
X140526598Y-96121711D01*
X140501344Y-96137287D01*
X140501343Y-96137288D01*
X140407681Y-96230951D01*
X140346358Y-96264436D01*
X140276666Y-96259452D01*
X140232319Y-96230951D01*
X140138657Y-96137289D01*
X140138656Y-96137288D01*
X139989334Y-96045186D01*
X139822797Y-95990001D01*
X139822795Y-95990000D01*
X139720010Y-95979500D01*
X138919998Y-95979500D01*
X138919980Y-95979501D01*
X138817203Y-95990000D01*
X138817200Y-95990001D01*
X138650668Y-96045185D01*
X138650663Y-96045187D01*
X138501342Y-96137289D01*
X138377289Y-96261342D01*
X138312368Y-96366597D01*
X138260420Y-96413321D01*
X138206829Y-96425500D01*
X136823591Y-96425500D01*
X136756552Y-96405815D01*
X136718052Y-96366597D01*
X136668576Y-96286383D01*
X136637712Y-96236344D01*
X136513656Y-96112288D01*
X136364334Y-96020186D01*
X136197797Y-95965001D01*
X136197795Y-95965000D01*
X136095010Y-95954500D01*
X135319998Y-95954500D01*
X135319980Y-95954501D01*
X135217203Y-95965000D01*
X135217200Y-95965001D01*
X135050668Y-96020185D01*
X135050663Y-96020187D01*
X134901342Y-96112289D01*
X134777288Y-96236343D01*
X134777283Y-96236349D01*
X134775241Y-96239661D01*
X134773247Y-96241453D01*
X134772807Y-96242011D01*
X134772711Y-96241935D01*
X134723291Y-96286383D01*
X134654328Y-96297602D01*
X134590247Y-96269755D01*
X134564168Y-96239656D01*
X134562319Y-96236659D01*
X134562316Y-96236655D01*
X134438345Y-96112684D01*
X134289124Y-96020643D01*
X134289119Y-96020641D01*
X134122697Y-95965494D01*
X134122690Y-95965493D01*
X134019986Y-95955000D01*
X133882500Y-95955000D01*
X133882500Y-97056000D01*
X133862815Y-97123039D01*
X133810011Y-97168794D01*
X133758500Y-97180000D01*
X133632500Y-97180000D01*
X133632500Y-97306000D01*
X133612815Y-97373039D01*
X133560011Y-97418794D01*
X133508500Y-97430000D01*
X132545001Y-97430000D01*
X132545001Y-97704986D01*
X132555494Y-97807697D01*
X132610641Y-97974119D01*
X132610643Y-97974124D01*
X132702684Y-98123345D01*
X132810949Y-98231610D01*
X132844434Y-98292933D01*
X132839450Y-98362625D01*
X132810950Y-98406972D01*
X132690183Y-98527739D01*
X132594211Y-98680476D01*
X132534631Y-98850745D01*
X132534630Y-98850750D01*
X132514435Y-99029996D01*
X132514435Y-99030003D01*
X132525780Y-99130697D01*
X132513725Y-99199519D01*
X132466376Y-99250898D01*
X132398766Y-99268522D01*
X132378368Y-99266197D01*
X132274314Y-99245499D01*
X132274312Y-99245499D01*
X132125688Y-99245499D01*
X132119574Y-99245499D01*
X132119554Y-99245500D01*
X128663886Y-99245500D01*
X128596847Y-99225815D01*
X128576205Y-99209181D01*
X127860819Y-98493794D01*
X127827334Y-98432471D01*
X127824500Y-98406113D01*
X127824500Y-92293886D01*
X127844185Y-92226847D01*
X127860819Y-92206205D01*
X128675205Y-91391819D01*
X128736528Y-91358334D01*
X128762886Y-91355500D01*
X132045500Y-91355500D01*
X132112539Y-91375185D01*
G37*
%TD.AperFunction*%
%TA.AperFunction,Conductor*%
G36*
X154442539Y-80520185D02*
G01*
X154488294Y-80572989D01*
X154499500Y-80624500D01*
X154499500Y-104375500D01*
X154479815Y-104442539D01*
X154427011Y-104488294D01*
X154375500Y-104499500D01*
X125624500Y-104499500D01*
X125557461Y-104479815D01*
X125511706Y-104427011D01*
X125500500Y-104375500D01*
X125500500Y-91855685D01*
X126315499Y-91855685D01*
X126315499Y-92010425D01*
X126315500Y-92010446D01*
X126315500Y-98690552D01*
X126315499Y-98690578D01*
X126315499Y-98844314D01*
X126324048Y-98887289D01*
X126336330Y-98949034D01*
X126341045Y-98972738D01*
X126341046Y-98972741D01*
X126341045Y-98972741D01*
X126344493Y-98990075D01*
X126344495Y-98990081D01*
X126401366Y-99127381D01*
X126401372Y-99127392D01*
X126483942Y-99250968D01*
X126483943Y-99250969D01*
X127709600Y-100476624D01*
X127709621Y-100476647D01*
X127819029Y-100586055D01*
X127819032Y-100586057D01*
X127819034Y-100586059D01*
X127901605Y-100641230D01*
X127942611Y-100668630D01*
X128016738Y-100699334D01*
X128052801Y-100714272D01*
X128107205Y-100758114D01*
X128129269Y-100824408D01*
X128111989Y-100892107D01*
X128060852Y-100939717D01*
X128037442Y-100948608D01*
X127943679Y-100973731D01*
X127943673Y-100973734D01*
X127737517Y-101069865D01*
X127551179Y-101200342D01*
X127390342Y-101361179D01*
X127259865Y-101547517D01*
X127163734Y-101753673D01*
X127163730Y-101753682D01*
X127111127Y-101949999D01*
X127111128Y-101950000D01*
X128074314Y-101950000D01*
X128069920Y-101954394D01*
X128017259Y-102045606D01*
X127990000Y-102147339D01*
X127990000Y-102252661D01*
X128017259Y-102354394D01*
X128069920Y-102445606D01*
X128074314Y-102450000D01*
X127111128Y-102450000D01*
X127163730Y-102646317D01*
X127163734Y-102646326D01*
X127259865Y-102852482D01*
X127390342Y-103038820D01*
X127551179Y-103199657D01*
X127737517Y-103330134D01*
X127943673Y-103426265D01*
X127943682Y-103426269D01*
X128139999Y-103478872D01*
X128140000Y-103478871D01*
X128140000Y-102515686D01*
X128144394Y-102520080D01*
X128235606Y-102572741D01*
X128337339Y-102600000D01*
X128442661Y-102600000D01*
X128544394Y-102572741D01*
X128635606Y-102520080D01*
X128640000Y-102515686D01*
X128640000Y-103478872D01*
X128836317Y-103426269D01*
X128836326Y-103426265D01*
X129042482Y-103330134D01*
X129228820Y-103199657D01*
X129389657Y-103038820D01*
X129520134Y-102852482D01*
X129616265Y-102646326D01*
X129616269Y-102646317D01*
X129668872Y-102450000D01*
X128705686Y-102450000D01*
X128710080Y-102445606D01*
X128762741Y-102354394D01*
X128790000Y-102252661D01*
X128790000Y-102147339D01*
X128762741Y-102045606D01*
X128710080Y-101954394D01*
X128705686Y-101950000D01*
X129668872Y-101950000D01*
X129668872Y-101949999D01*
X129616269Y-101753682D01*
X129616265Y-101753673D01*
X129520134Y-101547517D01*
X129389657Y-101361179D01*
X129228820Y-101200342D01*
X129042482Y-101069865D01*
X128873101Y-100990882D01*
X128820662Y-100944710D01*
X128801510Y-100877516D01*
X128821726Y-100810635D01*
X128874891Y-100765300D01*
X128925506Y-100754500D01*
X131836112Y-100754500D01*
X131903151Y-100774185D01*
X131923792Y-100790818D01*
X131959180Y-100826205D01*
X131992666Y-100887527D01*
X131995500Y-100913887D01*
X131995500Y-101720552D01*
X131995499Y-101720578D01*
X131995499Y-101725688D01*
X131995499Y-101874312D01*
X131995499Y-101874314D01*
X131995498Y-101874314D01*
X132024493Y-102020073D01*
X132024496Y-102020083D01*
X132081366Y-102157381D01*
X132081372Y-102157392D01*
X132163942Y-102280968D01*
X132163943Y-102280969D01*
X132559601Y-102676625D01*
X132559620Y-102676646D01*
X132669028Y-102786054D01*
X132669035Y-102786060D01*
X132792608Y-102868628D01*
X132792609Y-102868628D01*
X132792610Y-102868629D01*
X132929920Y-102925505D01*
X133049717Y-102949334D01*
X133075683Y-102954499D01*
X133075687Y-102954500D01*
X133075688Y-102954500D01*
X134588079Y-102954500D01*
X134655118Y-102974185D01*
X134700873Y-103026989D01*
X134711369Y-103065248D01*
X134715908Y-103107483D01*
X134766202Y-103242328D01*
X134766206Y-103242335D01*
X134852452Y-103357544D01*
X134852455Y-103357547D01*
X134967664Y-103443793D01*
X134967671Y-103443797D01*
X135102517Y-103494091D01*
X135102516Y-103494091D01*
X135109444Y-103494835D01*
X135162127Y-103500500D01*
X136857872Y-103500499D01*
X136917483Y-103494091D01*
X137052331Y-103443796D01*
X137167546Y-103357546D01*
X137253796Y-103242331D01*
X137304091Y-103107483D01*
X137310500Y-103047873D01*
X137310500Y-102430000D01*
X138333505Y-102430000D01*
X138386239Y-102615349D01*
X138485368Y-102814425D01*
X138619391Y-102991900D01*
X138783738Y-103141721D01*
X138972820Y-103258797D01*
X138972822Y-103258798D01*
X139180195Y-103339135D01*
X139260000Y-103354052D01*
X139760000Y-103354052D01*
X139839804Y-103339135D01*
X140047177Y-103258798D01*
X140047179Y-103258797D01*
X140236261Y-103141721D01*
X140400608Y-102991900D01*
X140534631Y-102814425D01*
X140633760Y-102615349D01*
X140686495Y-102430000D01*
X139760000Y-102430000D01*
X139760000Y-103354052D01*
X139260000Y-103354052D01*
X139260000Y-102430000D01*
X138333505Y-102430000D01*
X137310500Y-102430000D01*
X137310499Y-101352128D01*
X137304091Y-101292517D01*
X137299712Y-101280777D01*
X137253797Y-101157671D01*
X137253793Y-101157664D01*
X137167547Y-101042455D01*
X137167544Y-101042452D01*
X137052335Y-100956206D01*
X137052328Y-100956202D01*
X136967817Y-100924682D01*
X136911883Y-100882811D01*
X136887466Y-100817347D01*
X136902317Y-100749074D01*
X136951723Y-100699668D01*
X137011150Y-100684500D01*
X138206829Y-100684500D01*
X138273868Y-100704185D01*
X138312367Y-100743402D01*
X138377288Y-100848656D01*
X138501344Y-100972712D01*
X138650666Y-101064814D01*
X138670646Y-101071434D01*
X138728090Y-101111206D01*
X138754914Y-101175721D01*
X138742600Y-101244497D01*
X138715180Y-101280777D01*
X138619391Y-101368099D01*
X138485368Y-101545574D01*
X138386239Y-101744650D01*
X138333505Y-101930000D01*
X139265025Y-101930000D01*
X139229930Y-101965095D01*
X139183852Y-102044905D01*
X139160000Y-102133922D01*
X139160000Y-102226078D01*
X139183852Y-102315095D01*
X139229930Y-102394905D01*
X139295095Y-102460070D01*
X139374905Y-102506148D01*
X139463922Y-102530000D01*
X139556078Y-102530000D01*
X139645095Y-102506148D01*
X139724905Y-102460070D01*
X139790070Y-102394905D01*
X139836148Y-102315095D01*
X139860000Y-102226078D01*
X139860000Y-102133922D01*
X139836148Y-102044905D01*
X139790070Y-101965095D01*
X139754975Y-101930000D01*
X140686495Y-101930000D01*
X140633760Y-101744650D01*
X140534631Y-101545574D01*
X140400608Y-101368099D01*
X140236261Y-101218278D01*
X140157418Y-101169460D01*
X140110783Y-101117432D01*
X140099679Y-101048450D01*
X140127632Y-100984416D01*
X140135015Y-100976351D01*
X140138650Y-100972715D01*
X140138656Y-100972712D01*
X140232321Y-100879046D01*
X140293643Y-100845564D01*
X140363334Y-100850548D01*
X140407681Y-100879049D01*
X140501344Y-100972712D01*
X140650666Y-101064814D01*
X140817203Y-101119999D01*
X140919991Y-101130500D01*
X141720008Y-101130499D01*
X141720016Y-101130498D01*
X141720019Y-101130498D01*
X141776302Y-101124748D01*
X141822797Y-101119999D01*
X141989334Y-101064814D01*
X142138656Y-100972712D01*
X142262712Y-100848656D01*
X142331358Y-100737361D01*
X142383304Y-100690638D01*
X142412701Y-100680842D01*
X142476783Y-100668095D01*
X142515895Y-100660315D01*
X142515895Y-100660316D01*
X142515900Y-100660313D01*
X142540080Y-100655505D01*
X142615386Y-100624312D01*
X142677389Y-100598630D01*
X142800966Y-100516059D01*
X143021206Y-100295819D01*
X143082529Y-100262334D01*
X143108887Y-100259500D01*
X143345501Y-100259500D01*
X143412540Y-100279185D01*
X143458295Y-100331989D01*
X143469501Y-100383500D01*
X143469501Y-100752876D01*
X143475908Y-100812483D01*
X143526202Y-100947328D01*
X143526206Y-100947335D01*
X143612452Y-101062544D01*
X143612455Y-101062547D01*
X143727664Y-101148793D01*
X143727671Y-101148797D01*
X143862517Y-101199091D01*
X143862516Y-101199091D01*
X143869444Y-101199835D01*
X143922127Y-101205500D01*
X145617872Y-101205499D01*
X145677483Y-101199091D01*
X145812331Y-101148796D01*
X145927546Y-101062546D01*
X146013796Y-100947331D01*
X146064091Y-100812483D01*
X146068061Y-100775556D01*
X146094796Y-100711011D01*
X146152188Y-100671161D01*
X146222013Y-100668666D01*
X146282102Y-100704317D01*
X146291667Y-100715929D01*
X146318032Y-100752217D01*
X146339181Y-100773366D01*
X146372666Y-100834689D01*
X146375500Y-100861047D01*
X146375500Y-101188592D01*
X146355815Y-101255631D01*
X146335039Y-101280228D01*
X146239025Y-101367757D01*
X146239021Y-101367761D01*
X146104943Y-101545308D01*
X146104938Y-101545316D01*
X146005775Y-101744461D01*
X146005769Y-101744476D01*
X145944885Y-101958462D01*
X145944884Y-101958464D01*
X145924357Y-102179999D01*
X145924357Y-102180000D01*
X145944884Y-102401535D01*
X145944885Y-102401537D01*
X146005769Y-102615523D01*
X146005775Y-102615538D01*
X146104938Y-102814683D01*
X146104943Y-102814691D01*
X146239020Y-102992238D01*
X146403437Y-103142123D01*
X146403439Y-103142125D01*
X146592595Y-103259245D01*
X146592596Y-103259245D01*
X146592599Y-103259247D01*
X146800060Y-103339618D01*
X147018757Y-103380500D01*
X147018759Y-103380500D01*
X147241241Y-103380500D01*
X147241243Y-103380500D01*
X147459940Y-103339618D01*
X147667401Y-103259247D01*
X147856562Y-103142124D01*
X148020981Y-102992236D01*
X148027371Y-102983773D01*
X148083479Y-102942137D01*
X148126325Y-102934500D01*
X148206829Y-102934500D01*
X148273868Y-102954185D01*
X148312367Y-102993402D01*
X148377288Y-103098656D01*
X148501344Y-103222712D01*
X148650666Y-103314814D01*
X148817203Y-103369999D01*
X148919991Y-103380500D01*
X149720008Y-103380499D01*
X149720016Y-103380498D01*
X149720019Y-103380498D01*
X149776302Y-103374748D01*
X149822797Y-103369999D01*
X149989334Y-103314814D01*
X150138656Y-103222712D01*
X150232319Y-103129049D01*
X150293642Y-103095564D01*
X150363334Y-103100548D01*
X150407681Y-103129049D01*
X150501344Y-103222712D01*
X150650666Y-103314814D01*
X150817203Y-103369999D01*
X150919991Y-103380500D01*
X151720008Y-103380499D01*
X151720016Y-103380498D01*
X151720019Y-103380498D01*
X151776302Y-103374748D01*
X151822797Y-103369999D01*
X151989334Y-103314814D01*
X152138656Y-103222712D01*
X152262712Y-103098656D01*
X152327632Y-102993402D01*
X152379580Y-102946679D01*
X152433171Y-102934500D01*
X152731460Y-102934500D01*
X152772415Y-102941459D01*
X152840737Y-102965366D01*
X152840743Y-102965367D01*
X152840745Y-102965368D01*
X152840746Y-102965368D01*
X152840750Y-102965369D01*
X153019996Y-102985565D01*
X153020000Y-102985565D01*
X153020004Y-102985565D01*
X153199249Y-102965369D01*
X153199252Y-102965368D01*
X153199255Y-102965368D01*
X153369522Y-102905789D01*
X153522262Y-102809816D01*
X153649816Y-102682262D01*
X153745789Y-102529522D01*
X153805368Y-102359255D01*
X153817378Y-102252661D01*
X153825565Y-102180003D01*
X153825565Y-102179996D01*
X153805369Y-102000750D01*
X153805368Y-102000745D01*
X153745789Y-101830478D01*
X153743766Y-101827259D01*
X153649815Y-101677737D01*
X153522262Y-101550184D01*
X153369523Y-101454211D01*
X153199254Y-101394631D01*
X153199249Y-101394630D01*
X153020004Y-101374435D01*
X153019996Y-101374435D01*
X152840750Y-101394630D01*
X152840737Y-101394633D01*
X152772415Y-101418541D01*
X152731460Y-101425500D01*
X152675700Y-101425500D01*
X152608661Y-101405815D01*
X152562906Y-101353011D01*
X152552962Y-101283853D01*
X152581987Y-101220297D01*
X152640765Y-101182523D01*
X152656302Y-101179027D01*
X152694417Y-101172990D01*
X152889031Y-101109755D01*
X153071349Y-101016859D01*
X153236894Y-100896582D01*
X153236895Y-100896582D01*
X153381582Y-100751895D01*
X153381582Y-100751894D01*
X153501859Y-100586349D01*
X153594755Y-100404031D01*
X153657990Y-100209417D01*
X153690000Y-100007317D01*
X153690000Y-99755000D01*
X152705686Y-99755000D01*
X152710080Y-99750606D01*
X152762741Y-99659394D01*
X152790000Y-99557661D01*
X152790000Y-99452339D01*
X152762741Y-99350606D01*
X152710080Y-99259394D01*
X152705686Y-99255000D01*
X153690000Y-99255000D01*
X153690000Y-99002682D01*
X153657990Y-98800582D01*
X153594755Y-98605968D01*
X153501859Y-98423650D01*
X153381582Y-98258105D01*
X153381582Y-98258104D01*
X153236895Y-98113417D01*
X153071349Y-97993140D01*
X152889029Y-97900244D01*
X152694413Y-97837009D01*
X152640000Y-97828390D01*
X152640000Y-99189314D01*
X152635606Y-99184920D01*
X152544394Y-99132259D01*
X152442661Y-99105000D01*
X152337339Y-99105000D01*
X152235606Y-99132259D01*
X152144394Y-99184920D01*
X152140000Y-99189314D01*
X152140000Y-97828390D01*
X152085586Y-97837009D01*
X151890970Y-97900244D01*
X151708650Y-97993140D01*
X151543105Y-98113417D01*
X151543104Y-98113417D01*
X151398417Y-98258104D01*
X151398417Y-98258105D01*
X151278140Y-98423650D01*
X151230765Y-98516629D01*
X151182790Y-98567425D01*
X151114969Y-98584220D01*
X151048834Y-98561682D01*
X151009795Y-98516629D01*
X150998160Y-98493794D01*
X150962287Y-98423390D01*
X150931125Y-98380499D01*
X150841971Y-98257786D01*
X150697213Y-98113028D01*
X150531613Y-97992715D01*
X150531612Y-97992714D01*
X150531610Y-97992713D01*
X150455995Y-97954185D01*
X150349223Y-97899781D01*
X150154534Y-97836522D01*
X149979995Y-97808878D01*
X149952352Y-97804500D01*
X149747648Y-97804500D01*
X149727463Y-97807697D01*
X149545465Y-97836522D01*
X149350776Y-97899781D01*
X149168386Y-97992715D01*
X149002786Y-98113028D01*
X148858028Y-98257786D01*
X148737715Y-98423386D01*
X148690485Y-98516080D01*
X148642510Y-98566876D01*
X148574689Y-98583671D01*
X148508554Y-98561134D01*
X148469515Y-98516080D01*
X148468883Y-98514840D01*
X148422287Y-98423390D01*
X148391125Y-98380499D01*
X148301971Y-98257786D01*
X148157213Y-98113028D01*
X147991613Y-97992715D01*
X147991612Y-97992714D01*
X147991610Y-97992713D01*
X147915995Y-97954185D01*
X147809223Y-97899781D01*
X147614534Y-97836522D01*
X147439995Y-97808878D01*
X147412352Y-97804500D01*
X147207648Y-97804500D01*
X147187463Y-97807697D01*
X147005465Y-97836522D01*
X146810776Y-97899781D01*
X146628386Y-97992715D01*
X146462786Y-98113028D01*
X146318032Y-98257782D01*
X146291668Y-98294070D01*
X146236338Y-98336735D01*
X146166724Y-98342714D01*
X146104929Y-98310108D01*
X146070572Y-98249269D01*
X146068060Y-98234438D01*
X146067640Y-98230533D01*
X146064091Y-98197517D01*
X146013796Y-98062669D01*
X146013795Y-98062668D01*
X146013793Y-98062664D01*
X145927547Y-97947455D01*
X145927544Y-97947452D01*
X145812335Y-97861206D01*
X145812328Y-97861202D01*
X145677482Y-97810908D01*
X145677483Y-97810908D01*
X145617883Y-97804501D01*
X145617881Y-97804500D01*
X145617873Y-97804500D01*
X145617864Y-97804500D01*
X143922129Y-97804500D01*
X143922123Y-97804501D01*
X143862515Y-97810909D01*
X143741832Y-97855920D01*
X143672141Y-97860904D01*
X143610818Y-97827418D01*
X143577333Y-97766095D01*
X143574500Y-97739738D01*
X143574500Y-93228047D01*
X143594185Y-93161008D01*
X143646989Y-93115253D01*
X143716147Y-93105309D01*
X143779703Y-93134334D01*
X143786181Y-93140366D01*
X143922786Y-93276971D01*
X144077749Y-93389556D01*
X144088390Y-93397287D01*
X144155435Y-93431448D01*
X144270776Y-93490218D01*
X144270778Y-93490218D01*
X144270781Y-93490220D01*
X144375137Y-93524127D01*
X144465465Y-93553477D01*
X144566557Y-93569488D01*
X144667648Y-93585500D01*
X144667649Y-93585500D01*
X144872351Y-93585500D01*
X144872352Y-93585500D01*
X145074534Y-93553477D01*
X145269219Y-93490220D01*
X145451610Y-93397287D01*
X145583671Y-93301340D01*
X145617213Y-93276971D01*
X145617215Y-93276968D01*
X145617219Y-93276966D01*
X145761966Y-93132219D01*
X145761968Y-93132215D01*
X145761971Y-93132213D01*
X145882284Y-92966614D01*
X145882285Y-92966613D01*
X145882287Y-92966610D01*
X145929516Y-92873917D01*
X145977489Y-92823123D01*
X146045310Y-92806328D01*
X146111445Y-92828865D01*
X146150485Y-92873919D01*
X146197715Y-92966614D01*
X146318028Y-93132213D01*
X146462786Y-93276971D01*
X146617749Y-93389556D01*
X146628390Y-93397287D01*
X146695435Y-93431448D01*
X146810776Y-93490218D01*
X146810778Y-93490218D01*
X146810781Y-93490220D01*
X146915137Y-93524127D01*
X147005465Y-93553477D01*
X147106557Y-93569488D01*
X147207648Y-93585500D01*
X147207649Y-93585500D01*
X147412351Y-93585500D01*
X147412352Y-93585500D01*
X147614534Y-93553477D01*
X147809219Y-93490220D01*
X147991610Y-93397287D01*
X148123671Y-93301340D01*
X148157213Y-93276971D01*
X148157215Y-93276968D01*
X148157219Y-93276966D01*
X148301966Y-93132219D01*
X148301968Y-93132215D01*
X148301971Y-93132213D01*
X148422284Y-92966614D01*
X148422285Y-92966613D01*
X148422287Y-92966610D01*
X148469516Y-92873917D01*
X148517489Y-92823123D01*
X148585310Y-92806328D01*
X148651445Y-92828865D01*
X148690485Y-92873919D01*
X148737715Y-92966614D01*
X148858028Y-93132213D01*
X149002786Y-93276971D01*
X149157749Y-93389556D01*
X149168390Y-93397287D01*
X149235435Y-93431448D01*
X149350776Y-93490218D01*
X149350778Y-93490218D01*
X149350781Y-93490220D01*
X149455137Y-93524127D01*
X149545465Y-93553477D01*
X149646557Y-93569488D01*
X149747648Y-93585500D01*
X149747649Y-93585500D01*
X149952351Y-93585500D01*
X149952352Y-93585500D01*
X150154534Y-93553477D01*
X150349219Y-93490220D01*
X150531610Y-93397287D01*
X150663671Y-93301340D01*
X150697213Y-93276971D01*
X150697215Y-93276968D01*
X150697219Y-93276966D01*
X150841966Y-93132219D01*
X150841968Y-93132215D01*
X150841971Y-93132213D01*
X150962284Y-92966614D01*
X150962285Y-92966613D01*
X150962287Y-92966610D01*
X151009516Y-92873917D01*
X151057489Y-92823123D01*
X151125310Y-92806328D01*
X151191445Y-92828865D01*
X151230485Y-92873919D01*
X151277715Y-92966614D01*
X151398028Y-93132213D01*
X151542786Y-93276971D01*
X151697749Y-93389556D01*
X151708390Y-93397287D01*
X151775435Y-93431448D01*
X151890776Y-93490218D01*
X151890778Y-93490218D01*
X151890781Y-93490220D01*
X151995137Y-93524127D01*
X152085465Y-93553477D01*
X152186557Y-93569488D01*
X152287648Y-93585500D01*
X152287649Y-93585500D01*
X152492351Y-93585500D01*
X152492352Y-93585500D01*
X152694534Y-93553477D01*
X152889219Y-93490220D01*
X153071610Y-93397287D01*
X153203671Y-93301340D01*
X153237213Y-93276971D01*
X153237215Y-93276968D01*
X153237219Y-93276966D01*
X153381966Y-93132219D01*
X153381968Y-93132215D01*
X153381971Y-93132213D01*
X153474762Y-93004495D01*
X153502287Y-92966610D01*
X153595220Y-92784219D01*
X153658477Y-92589534D01*
X153690500Y-92387352D01*
X153690500Y-91382648D01*
X153658477Y-91180466D01*
X153595220Y-90985781D01*
X153595218Y-90985778D01*
X153595218Y-90985776D01*
X153549515Y-90896080D01*
X153502287Y-90803390D01*
X153494556Y-90792749D01*
X153381971Y-90637786D01*
X153237213Y-90493028D01*
X153071613Y-90372715D01*
X153071612Y-90372714D01*
X153071610Y-90372713D01*
X153014653Y-90343691D01*
X152889223Y-90279781D01*
X152694534Y-90216522D01*
X152519995Y-90188878D01*
X152492352Y-90184500D01*
X152287648Y-90184500D01*
X152263329Y-90188351D01*
X152085465Y-90216522D01*
X151890776Y-90279781D01*
X151708386Y-90372715D01*
X151542786Y-90493028D01*
X151398028Y-90637786D01*
X151277715Y-90803386D01*
X151230485Y-90896080D01*
X151182510Y-90946876D01*
X151114689Y-90963671D01*
X151048554Y-90941134D01*
X151009515Y-90896080D01*
X151008883Y-90894840D01*
X150962287Y-90803390D01*
X150954556Y-90792749D01*
X150841971Y-90637786D01*
X150697213Y-90493028D01*
X150531613Y-90372715D01*
X150531612Y-90372714D01*
X150531610Y-90372713D01*
X150474653Y-90343691D01*
X150349223Y-90279781D01*
X150154534Y-90216522D01*
X149979995Y-90188878D01*
X149952352Y-90184500D01*
X149747648Y-90184500D01*
X149723329Y-90188351D01*
X149545465Y-90216522D01*
X149350776Y-90279781D01*
X149168386Y-90372715D01*
X149002786Y-90493028D01*
X148858028Y-90637786D01*
X148737715Y-90803386D01*
X148690485Y-90896080D01*
X148642510Y-90946876D01*
X148574689Y-90963671D01*
X148508554Y-90941134D01*
X148469515Y-90896080D01*
X148468883Y-90894840D01*
X148422287Y-90803390D01*
X148414556Y-90792749D01*
X148301971Y-90637786D01*
X148157213Y-90493028D01*
X147991613Y-90372715D01*
X147991612Y-90372714D01*
X147991610Y-90372713D01*
X147934653Y-90343691D01*
X147809223Y-90279781D01*
X147614534Y-90216522D01*
X147439995Y-90188878D01*
X147412352Y-90184500D01*
X147207648Y-90184500D01*
X147183329Y-90188351D01*
X147005465Y-90216522D01*
X146810776Y-90279781D01*
X146628386Y-90372715D01*
X146462786Y-90493028D01*
X146318028Y-90637786D01*
X146197715Y-90803386D01*
X146150485Y-90896080D01*
X146102510Y-90946876D01*
X146034689Y-90963671D01*
X145968554Y-90941134D01*
X145929515Y-90896080D01*
X145928883Y-90894840D01*
X145882287Y-90803390D01*
X145874556Y-90792749D01*
X145761971Y-90637786D01*
X145617213Y-90493028D01*
X145451613Y-90372715D01*
X145451612Y-90372714D01*
X145451610Y-90372713D01*
X145394653Y-90343691D01*
X145269223Y-90279781D01*
X145074534Y-90216522D01*
X144899995Y-90188878D01*
X144872352Y-90184500D01*
X144667648Y-90184500D01*
X144643329Y-90188351D01*
X144465465Y-90216522D01*
X144270776Y-90279781D01*
X144088386Y-90372715D01*
X143922786Y-90493028D01*
X143922782Y-90493032D01*
X143786181Y-90629634D01*
X143724858Y-90663119D01*
X143655166Y-90658135D01*
X143599233Y-90616263D01*
X143574816Y-90550799D01*
X143574500Y-90541953D01*
X143574500Y-86495687D01*
X143574499Y-86495683D01*
X143555904Y-86402200D01*
X143545505Y-86349920D01*
X143488629Y-86212610D01*
X143465435Y-86177898D01*
X143406060Y-86089035D01*
X143406054Y-86089028D01*
X143296647Y-85979621D01*
X143296624Y-85979600D01*
X142317019Y-84999994D01*
X143592994Y-84999994D01*
X143592994Y-85000005D01*
X143612183Y-85231582D01*
X143669229Y-85456854D01*
X143762575Y-85669662D01*
X143889673Y-85864198D01*
X143889675Y-85864201D01*
X144047061Y-86035168D01*
X144047064Y-86035170D01*
X144047067Y-86035173D01*
X144230432Y-86177892D01*
X144230438Y-86177896D01*
X144230441Y-86177898D01*
X144434812Y-86288499D01*
X144654600Y-86363952D01*
X144883810Y-86402200D01*
X145116190Y-86402200D01*
X145345400Y-86363952D01*
X145565188Y-86288499D01*
X145769559Y-86177898D01*
X145770098Y-86177479D01*
X145883739Y-86089028D01*
X145952939Y-86035168D01*
X146110325Y-85864201D01*
X146237425Y-85669661D01*
X146330771Y-85456854D01*
X146387816Y-85231586D01*
X146407006Y-85000000D01*
X146387816Y-84768414D01*
X146330771Y-84543146D01*
X146237425Y-84330339D01*
X146216331Y-84298053D01*
X146110326Y-84135801D01*
X146110325Y-84135799D01*
X145952939Y-83964832D01*
X145952934Y-83964828D01*
X145952932Y-83964826D01*
X145769567Y-83822107D01*
X145769561Y-83822103D01*
X145565188Y-83711501D01*
X145565180Y-83711498D01*
X145345402Y-83636048D01*
X145116190Y-83597800D01*
X144883810Y-83597800D01*
X144654597Y-83636048D01*
X144434819Y-83711498D01*
X144434811Y-83711501D01*
X144230438Y-83822103D01*
X144230432Y-83822107D01*
X144047067Y-83964826D01*
X144047064Y-83964829D01*
X143889676Y-84135797D01*
X143889673Y-84135801D01*
X143762575Y-84330337D01*
X143669229Y-84543145D01*
X143612183Y-84768417D01*
X143592994Y-84999994D01*
X142317019Y-84999994D01*
X141730969Y-84413943D01*
X141730968Y-84413942D01*
X141638713Y-84352300D01*
X141607389Y-84331370D01*
X141607386Y-84331368D01*
X141607385Y-84331368D01*
X141526955Y-84298053D01*
X141470080Y-84274495D01*
X141445894Y-84269684D01*
X141324314Y-84245499D01*
X141324312Y-84245499D01*
X141249101Y-84245499D01*
X141182062Y-84225814D01*
X141145293Y-84189321D01*
X141110326Y-84135801D01*
X141110325Y-84135799D01*
X140952939Y-83964832D01*
X140952934Y-83964828D01*
X140952932Y-83964826D01*
X140769567Y-83822107D01*
X140769561Y-83822103D01*
X140565188Y-83711501D01*
X140565180Y-83711498D01*
X140345402Y-83636048D01*
X140116190Y-83597800D01*
X139883810Y-83597800D01*
X139654597Y-83636048D01*
X139434819Y-83711498D01*
X139434811Y-83711501D01*
X139230438Y-83822103D01*
X139230432Y-83822107D01*
X139047067Y-83964826D01*
X139047064Y-83964829D01*
X138889676Y-84135797D01*
X138889673Y-84135801D01*
X138762575Y-84330337D01*
X138669229Y-84543145D01*
X138612183Y-84768417D01*
X138592994Y-84999994D01*
X138592994Y-85000005D01*
X138612183Y-85231582D01*
X138669229Y-85456854D01*
X138762575Y-85669662D01*
X138889673Y-85864198D01*
X138889675Y-85864201D01*
X139047061Y-86035168D01*
X139047064Y-86035170D01*
X139047067Y-86035173D01*
X139230432Y-86177892D01*
X139230438Y-86177896D01*
X139230441Y-86177898D01*
X139434812Y-86288499D01*
X139654600Y-86363952D01*
X139883810Y-86402200D01*
X140116190Y-86402200D01*
X140345400Y-86363952D01*
X140565188Y-86288499D01*
X140769559Y-86177898D01*
X140770098Y-86177479D01*
X140883739Y-86089028D01*
X140952939Y-86035168D01*
X140992530Y-85992159D01*
X141052414Y-85956171D01*
X141122252Y-85958270D01*
X141171436Y-85988461D01*
X141584676Y-86401700D01*
X142029181Y-86846205D01*
X142062666Y-86907528D01*
X142065500Y-86933886D01*
X142065500Y-92636269D01*
X142045815Y-92703308D01*
X141993011Y-92749063D01*
X141923853Y-92759007D01*
X141900546Y-92753311D01*
X141843349Y-92733297D01*
X141788657Y-92714159D01*
X141788655Y-92714158D01*
X141788653Y-92714158D01*
X141788648Y-92714157D01*
X141658558Y-92699500D01*
X141658552Y-92699500D01*
X141244000Y-92699500D01*
X141176961Y-92679815D01*
X141131206Y-92627011D01*
X141120000Y-92575500D01*
X141120000Y-92280000D01*
X140416410Y-92280000D01*
X140370075Y-92199745D01*
X140300255Y-92129925D01*
X140214745Y-92080556D01*
X140119370Y-92055000D01*
X140020630Y-92055000D01*
X139925255Y-92080556D01*
X139839745Y-92129925D01*
X139820000Y-92149670D01*
X139820000Y-91780000D01*
X140320000Y-91780000D01*
X141120000Y-91780000D01*
X141120000Y-91361473D01*
X141119999Y-91361469D01*
X141105351Y-91231460D01*
X141047669Y-91066613D01*
X140954753Y-90918737D01*
X140831262Y-90795246D01*
X140683386Y-90702330D01*
X140518539Y-90644648D01*
X140388530Y-90630000D01*
X140320000Y-90630000D01*
X140320000Y-91780000D01*
X139820000Y-91780000D01*
X139820000Y-90630000D01*
X139751469Y-90630000D01*
X139621460Y-90644648D01*
X139495147Y-90688847D01*
X139425368Y-90692408D01*
X139366512Y-90659486D01*
X139276647Y-90569621D01*
X139276624Y-90569600D01*
X138721969Y-90014943D01*
X138721968Y-90014942D01*
X138680773Y-89987417D01*
X138598389Y-89932370D01*
X138598386Y-89932368D01*
X138598385Y-89932368D01*
X138517955Y-89899053D01*
X138461080Y-89875495D01*
X138436894Y-89870684D01*
X138315314Y-89846499D01*
X138315312Y-89846499D01*
X138166688Y-89846499D01*
X138160574Y-89846499D01*
X138160554Y-89846500D01*
X128479446Y-89846500D01*
X128479426Y-89846499D01*
X128473312Y-89846499D01*
X128324688Y-89846499D01*
X128324686Y-89846499D01*
X128203105Y-89870684D01*
X128188540Y-89873581D01*
X128178918Y-89875495D01*
X128178917Y-89875495D01*
X128122045Y-89899052D01*
X128122045Y-89899053D01*
X128041616Y-89932368D01*
X128041609Y-89932371D01*
X127918033Y-90014941D01*
X127865487Y-90067487D01*
X127812941Y-90120034D01*
X127812939Y-90120036D01*
X126483943Y-91449030D01*
X126483942Y-91449031D01*
X126401372Y-91572607D01*
X126401366Y-91572618D01*
X126344496Y-91709916D01*
X126344493Y-91709926D01*
X126315499Y-91855685D01*
X125500500Y-91855685D01*
X125500500Y-87100000D01*
X128464551Y-87100000D01*
X128484317Y-87351151D01*
X128543126Y-87596110D01*
X128639533Y-87828859D01*
X128771160Y-88043653D01*
X128771161Y-88043656D01*
X128771164Y-88043659D01*
X128934776Y-88235224D01*
X129083066Y-88361875D01*
X129126343Y-88398838D01*
X129126346Y-88398839D01*
X129341140Y-88530466D01*
X129573889Y-88626873D01*
X129818852Y-88685683D01*
X130070000Y-88705449D01*
X130321148Y-88685683D01*
X130566111Y-88626873D01*
X130798859Y-88530466D01*
X131013659Y-88398836D01*
X131205224Y-88235224D01*
X131368836Y-88043659D01*
X131500466Y-87828859D01*
X131596873Y-87596111D01*
X131655683Y-87351148D01*
X131675449Y-87100000D01*
X131655683Y-86848852D01*
X131596873Y-86603889D01*
X131552055Y-86495688D01*
X131500466Y-86371140D01*
X131368839Y-86156346D01*
X131368838Y-86156343D01*
X131311345Y-86089028D01*
X131205224Y-85964776D01*
X131078571Y-85856604D01*
X131013656Y-85801161D01*
X131013653Y-85801160D01*
X130798859Y-85669533D01*
X130566110Y-85573126D01*
X130321151Y-85514317D01*
X130070000Y-85494551D01*
X129818848Y-85514317D01*
X129573889Y-85573126D01*
X129341140Y-85669533D01*
X129126346Y-85801160D01*
X129126343Y-85801161D01*
X128934776Y-85964776D01*
X128771161Y-86156343D01*
X128771160Y-86156346D01*
X128639533Y-86371140D01*
X128543126Y-86603889D01*
X128484317Y-86848848D01*
X128464551Y-87100000D01*
X125500500Y-87100000D01*
X125500500Y-84999994D01*
X133593496Y-84999994D01*
X133593496Y-85000005D01*
X133612678Y-85231499D01*
X133669704Y-85456691D01*
X133763016Y-85669421D01*
X133847584Y-85798862D01*
X134400718Y-85245727D01*
X134426016Y-85306801D01*
X134496899Y-85412885D01*
X134587115Y-85503101D01*
X134693199Y-85573984D01*
X134754271Y-85599281D01*
X134199989Y-86153562D01*
X134199989Y-86153563D01*
X134230712Y-86177476D01*
X134230717Y-86177479D01*
X134435007Y-86288035D01*
X134435017Y-86288040D01*
X134654721Y-86363464D01*
X134883853Y-86401700D01*
X135116147Y-86401700D01*
X135345278Y-86363464D01*
X135564982Y-86288040D01*
X135564992Y-86288035D01*
X135769281Y-86177480D01*
X135769287Y-86177475D01*
X135800009Y-86153563D01*
X135800010Y-86153562D01*
X135245728Y-85599281D01*
X135306801Y-85573984D01*
X135412885Y-85503101D01*
X135503101Y-85412885D01*
X135573984Y-85306801D01*
X135599280Y-85245728D01*
X136152414Y-85798862D01*
X136236982Y-85669423D01*
X136330295Y-85456691D01*
X136387321Y-85231499D01*
X136406504Y-85000005D01*
X136406504Y-84999994D01*
X136387321Y-84768500D01*
X136330295Y-84543308D01*
X136236984Y-84330581D01*
X136152414Y-84201136D01*
X135599280Y-84754270D01*
X135573984Y-84693199D01*
X135503101Y-84587115D01*
X135412885Y-84496899D01*
X135306801Y-84426016D01*
X135245726Y-84400718D01*
X135800009Y-83846436D01*
X135800009Y-83846434D01*
X135769293Y-83822527D01*
X135769282Y-83822520D01*
X135564992Y-83711964D01*
X135564982Y-83711959D01*
X135345278Y-83636535D01*
X135116147Y-83598300D01*
X134883853Y-83598300D01*
X134654721Y-83636535D01*
X134435017Y-83711959D01*
X134435012Y-83711961D01*
X134230707Y-83822527D01*
X134199989Y-83846434D01*
X134199988Y-83846436D01*
X134754271Y-84400718D01*
X134693199Y-84426016D01*
X134587115Y-84496899D01*
X134496899Y-84587115D01*
X134426016Y-84693199D01*
X134400718Y-84754272D01*
X133847583Y-84201137D01*
X133763016Y-84330578D01*
X133669704Y-84543308D01*
X133612678Y-84768500D01*
X133593496Y-84999994D01*
X125500500Y-84999994D01*
X125500500Y-82443713D01*
X126149500Y-82443713D01*
X126149500Y-82656286D01*
X126182753Y-82866239D01*
X126248444Y-83068414D01*
X126344951Y-83257820D01*
X126469890Y-83429786D01*
X126620213Y-83580109D01*
X126792179Y-83705048D01*
X126792181Y-83705049D01*
X126792184Y-83705051D01*
X126981588Y-83801557D01*
X127183757Y-83867246D01*
X127393713Y-83900500D01*
X127393714Y-83900500D01*
X127606286Y-83900500D01*
X127606287Y-83900500D01*
X127816243Y-83867246D01*
X128018412Y-83801557D01*
X128207816Y-83705051D01*
X128302121Y-83636535D01*
X128379786Y-83580109D01*
X128379788Y-83580106D01*
X128379792Y-83580104D01*
X128530104Y-83429792D01*
X128530106Y-83429788D01*
X128530109Y-83429786D01*
X128655048Y-83257820D01*
X128655047Y-83257820D01*
X128655051Y-83257816D01*
X128751557Y-83068412D01*
X128817246Y-82866243D01*
X128850500Y-82656287D01*
X128850500Y-82443713D01*
X128842581Y-82393713D01*
X151149500Y-82393713D01*
X151149500Y-82606286D01*
X151182753Y-82816239D01*
X151248444Y-83018414D01*
X151344951Y-83207820D01*
X151469890Y-83379786D01*
X151620213Y-83530109D01*
X151792179Y-83655048D01*
X151792181Y-83655049D01*
X151792184Y-83655051D01*
X151981588Y-83751557D01*
X152183757Y-83817246D01*
X152393713Y-83850500D01*
X152393714Y-83850500D01*
X152606286Y-83850500D01*
X152606287Y-83850500D01*
X152816243Y-83817246D01*
X153018412Y-83751557D01*
X153207816Y-83655051D01*
X153310966Y-83580109D01*
X153379786Y-83530109D01*
X153379788Y-83530106D01*
X153379792Y-83530104D01*
X153530104Y-83379792D01*
X153530106Y-83379788D01*
X153530109Y-83379786D01*
X153655048Y-83207820D01*
X153655047Y-83207820D01*
X153655051Y-83207816D01*
X153751557Y-83018412D01*
X153817246Y-82816243D01*
X153850500Y-82606287D01*
X153850500Y-82393713D01*
X153817246Y-82183757D01*
X153751557Y-81981588D01*
X153655051Y-81792184D01*
X153655049Y-81792181D01*
X153655048Y-81792179D01*
X153530109Y-81620213D01*
X153379786Y-81469890D01*
X153207820Y-81344951D01*
X153018414Y-81248444D01*
X153018413Y-81248443D01*
X153018412Y-81248443D01*
X152816243Y-81182754D01*
X152816241Y-81182753D01*
X152816240Y-81182753D01*
X152654957Y-81157208D01*
X152606287Y-81149500D01*
X152393713Y-81149500D01*
X152345042Y-81157208D01*
X152183760Y-81182753D01*
X151981585Y-81248444D01*
X151792179Y-81344951D01*
X151620213Y-81469890D01*
X151469890Y-81620213D01*
X151344951Y-81792179D01*
X151248444Y-81981585D01*
X151182753Y-82183760D01*
X151149500Y-82393713D01*
X128842581Y-82393713D01*
X128817246Y-82233757D01*
X128751557Y-82031588D01*
X128655051Y-81842184D01*
X128655049Y-81842181D01*
X128655048Y-81842179D01*
X128530109Y-81670213D01*
X128379786Y-81519890D01*
X128207820Y-81394951D01*
X128018414Y-81298444D01*
X128018413Y-81298443D01*
X128018412Y-81298443D01*
X127816243Y-81232754D01*
X127816241Y-81232753D01*
X127816240Y-81232753D01*
X127654957Y-81207208D01*
X127606287Y-81199500D01*
X127393713Y-81199500D01*
X127345042Y-81207208D01*
X127183760Y-81232753D01*
X126981585Y-81298444D01*
X126792179Y-81394951D01*
X126620213Y-81519890D01*
X126469890Y-81670213D01*
X126344951Y-81842179D01*
X126248444Y-82031585D01*
X126182753Y-82233760D01*
X126149500Y-82443713D01*
X125500500Y-82443713D01*
X125500500Y-80624500D01*
X125520185Y-80557461D01*
X125572989Y-80511706D01*
X125624500Y-80500500D01*
X154375500Y-80500500D01*
X154442539Y-80520185D01*
G37*
%TD.AperFunction*%
%TD*%
M02*
