%TF.GenerationSoftware,KiCad,Pcbnew,8.0.8*%
%TF.CreationDate,2025-02-25T12:41:36-05:00*%
%TF.ProjectId,pcb1,70636231-2e6b-4696-9361-645f70636258,rev?*%
%TF.SameCoordinates,Original*%
%TF.FileFunction,Legend,Bot*%
%TF.FilePolarity,Positive*%
%FSLAX46Y46*%
G04 Gerber Fmt 4.6, Leading zero omitted, Abs format (unit mm)*
G04 Created by KiCad (PCBNEW 8.0.8) date 2025-02-25 12:41:36*
%MOMM*%
%LPD*%
G01*
G04 APERTURE LIST*
%ADD10C,0.100000*%
%ADD11C,0.150000*%
%ADD12C,0.152400*%
%ADD13C,0.120000*%
G04 APERTURE END LIST*
D10*
X116324687Y-40477180D02*
X116372306Y-40524800D01*
X116372306Y-40524800D02*
X116515163Y-40572419D01*
X116515163Y-40572419D02*
X116610401Y-40572419D01*
X116610401Y-40572419D02*
X116753258Y-40524800D01*
X116753258Y-40524800D02*
X116848496Y-40429561D01*
X116848496Y-40429561D02*
X116896115Y-40334323D01*
X116896115Y-40334323D02*
X116943734Y-40143847D01*
X116943734Y-40143847D02*
X116943734Y-40000990D01*
X116943734Y-40000990D02*
X116896115Y-39810514D01*
X116896115Y-39810514D02*
X116848496Y-39715276D01*
X116848496Y-39715276D02*
X116753258Y-39620038D01*
X116753258Y-39620038D02*
X116610401Y-39572419D01*
X116610401Y-39572419D02*
X116515163Y-39572419D01*
X116515163Y-39572419D02*
X116372306Y-39620038D01*
X116372306Y-39620038D02*
X116324687Y-39667657D01*
X115991353Y-39572419D02*
X115324687Y-39572419D01*
X115324687Y-39572419D02*
X115991353Y-40572419D01*
X115991353Y-40572419D02*
X115324687Y-40572419D01*
X114562782Y-40524800D02*
X114658020Y-40572419D01*
X114658020Y-40572419D02*
X114848496Y-40572419D01*
X114848496Y-40572419D02*
X114943734Y-40524800D01*
X114943734Y-40524800D02*
X114991353Y-40429561D01*
X114991353Y-40429561D02*
X114991353Y-40048609D01*
X114991353Y-40048609D02*
X114943734Y-39953371D01*
X114943734Y-39953371D02*
X114848496Y-39905752D01*
X114848496Y-39905752D02*
X114658020Y-39905752D01*
X114658020Y-39905752D02*
X114562782Y-39953371D01*
X114562782Y-39953371D02*
X114515163Y-40048609D01*
X114515163Y-40048609D02*
X114515163Y-40143847D01*
X114515163Y-40143847D02*
X114991353Y-40239085D01*
X114086591Y-39905752D02*
X114086591Y-40905752D01*
X114086591Y-39953371D02*
X113991353Y-39905752D01*
X113991353Y-39905752D02*
X113800877Y-39905752D01*
X113800877Y-39905752D02*
X113705639Y-39953371D01*
X113705639Y-39953371D02*
X113658020Y-40000990D01*
X113658020Y-40000990D02*
X113610401Y-40096228D01*
X113610401Y-40096228D02*
X113610401Y-40381942D01*
X113610401Y-40381942D02*
X113658020Y-40477180D01*
X113658020Y-40477180D02*
X113705639Y-40524800D01*
X113705639Y-40524800D02*
X113800877Y-40572419D01*
X113800877Y-40572419D02*
X113991353Y-40572419D01*
X113991353Y-40572419D02*
X114086591Y-40524800D01*
X113181829Y-40572419D02*
X113181829Y-39572419D01*
X112753258Y-40572419D02*
X112753258Y-40048609D01*
X112753258Y-40048609D02*
X112800877Y-39953371D01*
X112800877Y-39953371D02*
X112896115Y-39905752D01*
X112896115Y-39905752D02*
X113038972Y-39905752D01*
X113038972Y-39905752D02*
X113134210Y-39953371D01*
X113134210Y-39953371D02*
X113181829Y-40000990D01*
X112277067Y-40572419D02*
X112277067Y-39905752D01*
X112277067Y-39572419D02*
X112324686Y-39620038D01*
X112324686Y-39620038D02*
X112277067Y-39667657D01*
X112277067Y-39667657D02*
X112229448Y-39620038D01*
X112229448Y-39620038D02*
X112277067Y-39572419D01*
X112277067Y-39572419D02*
X112277067Y-39667657D01*
X111800877Y-40572419D02*
X111800877Y-39905752D01*
X111800877Y-40096228D02*
X111753258Y-40000990D01*
X111753258Y-40000990D02*
X111705639Y-39953371D01*
X111705639Y-39953371D02*
X111610401Y-39905752D01*
X111610401Y-39905752D02*
X111515163Y-39905752D01*
D11*
X107538094Y-98454819D02*
X107538094Y-97454819D01*
X107538094Y-97454819D02*
X107299999Y-97454819D01*
X107299999Y-97454819D02*
X107157142Y-97502438D01*
X107157142Y-97502438D02*
X107061904Y-97597676D01*
X107061904Y-97597676D02*
X107014285Y-97692914D01*
X107014285Y-97692914D02*
X106966666Y-97883390D01*
X106966666Y-97883390D02*
X106966666Y-98026247D01*
X106966666Y-98026247D02*
X107014285Y-98216723D01*
X107014285Y-98216723D02*
X107061904Y-98311961D01*
X107061904Y-98311961D02*
X107157142Y-98407200D01*
X107157142Y-98407200D02*
X107299999Y-98454819D01*
X107299999Y-98454819D02*
X107538094Y-98454819D01*
X106014285Y-98454819D02*
X106585713Y-98454819D01*
X106299999Y-98454819D02*
X106299999Y-97454819D01*
X106299999Y-97454819D02*
X106395237Y-97597676D01*
X106395237Y-97597676D02*
X106490475Y-97692914D01*
X106490475Y-97692914D02*
X106585713Y-97740533D01*
X109279999Y-95924819D02*
X109279999Y-96162914D01*
X109518094Y-96067676D02*
X109279999Y-96162914D01*
X109279999Y-96162914D02*
X109041904Y-96067676D01*
X109422856Y-96353390D02*
X109279999Y-96162914D01*
X109279999Y-96162914D02*
X109137142Y-96353390D01*
X107119657Y-92002780D02*
X107167276Y-92050400D01*
X107167276Y-92050400D02*
X107310133Y-92098019D01*
X107310133Y-92098019D02*
X107405371Y-92098019D01*
X107405371Y-92098019D02*
X107548228Y-92050400D01*
X107548228Y-92050400D02*
X107643466Y-91955161D01*
X107643466Y-91955161D02*
X107691085Y-91859923D01*
X107691085Y-91859923D02*
X107738704Y-91669447D01*
X107738704Y-91669447D02*
X107738704Y-91526590D01*
X107738704Y-91526590D02*
X107691085Y-91336114D01*
X107691085Y-91336114D02*
X107643466Y-91240876D01*
X107643466Y-91240876D02*
X107548228Y-91145638D01*
X107548228Y-91145638D02*
X107405371Y-91098019D01*
X107405371Y-91098019D02*
X107310133Y-91098019D01*
X107310133Y-91098019D02*
X107167276Y-91145638D01*
X107167276Y-91145638D02*
X107119657Y-91193257D01*
X106167276Y-92098019D02*
X106738704Y-92098019D01*
X106452990Y-92098019D02*
X106452990Y-91098019D01*
X106452990Y-91098019D02*
X106548228Y-91240876D01*
X106548228Y-91240876D02*
X106643466Y-91336114D01*
X106643466Y-91336114D02*
X106738704Y-91383733D01*
X105214895Y-92098019D02*
X105786323Y-92098019D01*
X105500609Y-92098019D02*
X105500609Y-91098019D01*
X105500609Y-91098019D02*
X105595847Y-91240876D01*
X105595847Y-91240876D02*
X105691085Y-91336114D01*
X105691085Y-91336114D02*
X105786323Y-91383733D01*
D12*
%TO.C,D1*%
X105854500Y-95313500D02*
X105854500Y-95590360D01*
X105854500Y-96738440D02*
X105854500Y-97015300D01*
X105854500Y-97015300D02*
X107911900Y-97015300D01*
X107911900Y-95313500D02*
X105854500Y-95313500D01*
X107911900Y-95590360D02*
X107911900Y-95313500D01*
X107911900Y-97015300D02*
X107911900Y-96738440D01*
D13*
%TO.C,J3*%
X125670000Y-41910000D02*
X128330000Y-41910000D01*
X125670000Y-95310000D02*
X125670000Y-41910000D01*
X125670000Y-95310000D02*
X128330000Y-95310000D01*
X127000000Y-39310000D02*
X128330000Y-39310000D01*
X128330000Y-39310000D02*
X128330000Y-40640000D01*
X128330000Y-95310000D02*
X128330000Y-41910000D01*
%TO.C,J2*%
X100270000Y-41910000D02*
X102930000Y-41910000D01*
X100270000Y-95310000D02*
X100270000Y-41910000D01*
X100270000Y-95310000D02*
X102930000Y-95310000D01*
X101600000Y-39310000D02*
X102930000Y-39310000D01*
X102930000Y-39310000D02*
X102930000Y-40640000D01*
X102930000Y-95310000D02*
X102930000Y-41910000D01*
D12*
%TO.C,C11*%
X106441450Y-94068900D02*
X106816950Y-94068900D01*
X106816950Y-92570300D02*
X106441450Y-92570300D01*
%TD*%
M02*
