M48
; DRILL file {KiCad 8.0.8} date 2025-02-25T12:41:28-0500
; FORMAT={-:-/ absolute / inch / decimal}
; #@! TF.CreationDate,2025-02-25T12:41:28-05:00
; #@! TF.GenerationSoftware,Kicad,Pcbnew,8.0.8
; #@! TF.FileFunction,Plated,1,4,PTH
FMAT,2
INCH
; #@! TA.AperFunction,Plated,PTH,ComponentDrill
T1C0.0079
; #@! TA.AperFunction,Plated,PTH,ViaDrill
T2C0.0118
; #@! TA.AperFunction,Plated,PTH,ComponentDrill
T3C0.0197
; #@! TA.AperFunction,Plated,PTH,ComponentDrill
T4C0.0394
%
G90
G05
T1
X4.3808Y-1.8543
X4.3808Y-1.9094
X4.4084Y-1.8267
X4.4084Y-1.8819
X4.4084Y-1.937
X4.4359Y-1.8543
X4.4359Y-1.9094
X4.4635Y-1.8267
X4.4635Y-1.8819
X4.4635Y-1.937
X4.4911Y-1.8543
X4.4911Y-1.9094
T2
X4.0842Y-1.7542
X4.088Y-1.678
X4.1572Y-2.3401
X4.18Y-3.166
X4.21Y-2.55
X4.252Y-3.8543
X4.254Y-1.9279
X4.254Y-1.9779
X4.254Y-2.0279
X4.254Y-2.0779
X4.254Y-2.1279
X4.27Y-2.198
X4.3091Y-2.8366
X4.32Y-2.176
X4.37Y-2.176
X4.414Y-2.416
X4.42Y-2.176
X4.4823Y-3.2894
X4.4823Y-3.3386
X4.4823Y-3.3898
X4.5197Y-2.126
X4.52Y-2.174
X4.5567Y-2.7657
X4.5945Y-3.189
X4.62Y-2.124
X4.62Y-2.177
X4.666Y-3.31
X4.67Y-2.177
X4.7Y-3.222
X4.72Y-1.943
X4.72Y-1.987
X4.72Y-2.031
X4.72Y-2.177
X4.721Y-2.073
X4.721Y-2.122
X4.728Y-1.728
X4.728Y-1.778
X4.7319Y-1.6779
X4.82Y-3.242
X4.82Y-3.61
T4
X4.0Y-1.6
X4.0Y-1.7
X4.0Y-1.8
X4.0Y-1.9
X4.0Y-2.0
X4.0Y-2.1
X4.0Y-2.2
X4.0Y-2.3
X4.0Y-2.4
X4.0Y-2.5
X4.0Y-2.6
X4.0Y-2.7
X4.0Y-2.8
X4.0Y-2.9
X4.0Y-3.0
X4.0Y-3.1
X4.0Y-3.2
X4.0Y-3.3
X4.0Y-3.4
X4.0Y-3.5
X4.0Y-3.6
X4.0Y-3.7
X5.0Y-1.6
X5.0Y-1.7
X5.0Y-1.8
X5.0Y-1.9
X5.0Y-2.0
X5.0Y-2.1
X5.0Y-2.2
X5.0Y-2.3
X5.0Y-2.4
X5.0Y-2.5
X5.0Y-2.6
X5.0Y-2.7
X5.0Y-2.8
X5.0Y-2.9
X5.0Y-3.0
X5.0Y-3.1
X5.0Y-3.2
X5.0Y-3.3
X5.0Y-3.4
X5.0Y-3.5
X5.0Y-3.6
X5.0Y-3.7
T3
G00X4.3724Y-3.8693
M15
G01X4.3724Y-3.8417
M16
G05
G00X4.6323Y-3.8693
M15
G01X4.6323Y-3.8417
M16
G05
M30
