%TF.GenerationSoftware,KiCad,Pcbnew,8.0.8*%
%TF.CreationDate,2025-02-25T12:41:27-05:00*%
%TF.ProjectId,pcb1,70636231-2e6b-4696-9361-645f70636258,rev?*%
%TF.SameCoordinates,Original*%
%TF.FileFunction,Drillmap*%
%TF.FilePolarity,Positive*%
%FSLAX45Y45*%
G04 Gerber Fmt 4.5, Leading zero omitted, Abs format (unit mm)*
G04 Created by KiCad (PCBNEW 8.0.8) date 2025-02-25 12:41:27*
%MOMM*%
%LPD*%
G01*
G04 APERTURE LIST*
%ADD10C,0.050000*%
%ADD11C,0.200000*%
G04 APERTURE END LIST*
D10*
X9961880Y-3733800D02*
X12898120Y-3733800D01*
X12898120Y-9944100D01*
X9961880Y-9944100D01*
X9961880Y-3733800D01*
D11*
X10220157Y-10258084D02*
X10220157Y-10058084D01*
X10220157Y-10058084D02*
X10267776Y-10058084D01*
X10267776Y-10058084D02*
X10296347Y-10067608D01*
X10296347Y-10067608D02*
X10315395Y-10086655D01*
X10315395Y-10086655D02*
X10324919Y-10105703D01*
X10324919Y-10105703D02*
X10334443Y-10143798D01*
X10334443Y-10143798D02*
X10334443Y-10172370D01*
X10334443Y-10172370D02*
X10324919Y-10210465D01*
X10324919Y-10210465D02*
X10315395Y-10229512D01*
X10315395Y-10229512D02*
X10296347Y-10248560D01*
X10296347Y-10248560D02*
X10267776Y-10258084D01*
X10267776Y-10258084D02*
X10220157Y-10258084D01*
X10420157Y-10258084D02*
X10420157Y-10124750D01*
X10420157Y-10162846D02*
X10429681Y-10143798D01*
X10429681Y-10143798D02*
X10439204Y-10134274D01*
X10439204Y-10134274D02*
X10458252Y-10124750D01*
X10458252Y-10124750D02*
X10477300Y-10124750D01*
X10543966Y-10258084D02*
X10543966Y-10124750D01*
X10543966Y-10058084D02*
X10534443Y-10067608D01*
X10534443Y-10067608D02*
X10543966Y-10077131D01*
X10543966Y-10077131D02*
X10553490Y-10067608D01*
X10553490Y-10067608D02*
X10543966Y-10058084D01*
X10543966Y-10058084D02*
X10543966Y-10077131D01*
X10667776Y-10258084D02*
X10648728Y-10248560D01*
X10648728Y-10248560D02*
X10639204Y-10229512D01*
X10639204Y-10229512D02*
X10639204Y-10058084D01*
X10772538Y-10258084D02*
X10753490Y-10248560D01*
X10753490Y-10248560D02*
X10743966Y-10229512D01*
X10743966Y-10229512D02*
X10743966Y-10058084D01*
X11001109Y-10258084D02*
X11001109Y-10058084D01*
X11001109Y-10058084D02*
X11067776Y-10200941D01*
X11067776Y-10200941D02*
X11134443Y-10058084D01*
X11134443Y-10058084D02*
X11134443Y-10258084D01*
X11315395Y-10258084D02*
X11315395Y-10153322D01*
X11315395Y-10153322D02*
X11305871Y-10134274D01*
X11305871Y-10134274D02*
X11286823Y-10124750D01*
X11286823Y-10124750D02*
X11248728Y-10124750D01*
X11248728Y-10124750D02*
X11229681Y-10134274D01*
X11315395Y-10248560D02*
X11296347Y-10258084D01*
X11296347Y-10258084D02*
X11248728Y-10258084D01*
X11248728Y-10258084D02*
X11229681Y-10248560D01*
X11229681Y-10248560D02*
X11220157Y-10229512D01*
X11220157Y-10229512D02*
X11220157Y-10210465D01*
X11220157Y-10210465D02*
X11229681Y-10191417D01*
X11229681Y-10191417D02*
X11248728Y-10181893D01*
X11248728Y-10181893D02*
X11296347Y-10181893D01*
X11296347Y-10181893D02*
X11315395Y-10172370D01*
X11410633Y-10124750D02*
X11410633Y-10324750D01*
X11410633Y-10134274D02*
X11429681Y-10124750D01*
X11429681Y-10124750D02*
X11467776Y-10124750D01*
X11467776Y-10124750D02*
X11486823Y-10134274D01*
X11486823Y-10134274D02*
X11496347Y-10143798D01*
X11496347Y-10143798D02*
X11505871Y-10162846D01*
X11505871Y-10162846D02*
X11505871Y-10219989D01*
X11505871Y-10219989D02*
X11496347Y-10239036D01*
X11496347Y-10239036D02*
X11486823Y-10248560D01*
X11486823Y-10248560D02*
X11467776Y-10258084D01*
X11467776Y-10258084D02*
X11429681Y-10258084D01*
X11429681Y-10258084D02*
X11410633Y-10248560D01*
X11591585Y-10239036D02*
X11601109Y-10248560D01*
X11601109Y-10248560D02*
X11591585Y-10258084D01*
X11591585Y-10258084D02*
X11582062Y-10248560D01*
X11582062Y-10248560D02*
X11591585Y-10239036D01*
X11591585Y-10239036D02*
X11591585Y-10258084D01*
X11591585Y-10134274D02*
X11601109Y-10143798D01*
X11601109Y-10143798D02*
X11591585Y-10153322D01*
X11591585Y-10153322D02*
X11582062Y-10143798D01*
X11582062Y-10143798D02*
X11591585Y-10134274D01*
X11591585Y-10134274D02*
X11591585Y-10153322D01*
M02*
