%TF.GenerationSoftware,KiCad,Pcbnew,8.0.8*%
%TF.CreationDate,2025-02-25T12:41:36-05:00*%
%TF.ProjectId,pcb1,70636231-2e6b-4696-9361-645f70636258,rev?*%
%TF.SameCoordinates,Original*%
%TF.FileFunction,Legend,Top*%
%TF.FilePolarity,Positive*%
%FSLAX46Y46*%
G04 Gerber Fmt 4.6, Leading zero omitted, Abs format (unit mm)*
G04 Created by KiCad (PCBNEW 8.0.8) date 2025-02-25 12:41:36*
%MOMM*%
%LPD*%
G01*
G04 APERTURE LIST*
%ADD10C,0.038100*%
%ADD11C,0.150000*%
%ADD12C,0.152400*%
%ADD13C,0.120000*%
%ADD14C,0.508000*%
G04 APERTURE END LIST*
D10*
X101218588Y-49425028D02*
X101194398Y-49412933D01*
X101194398Y-49412933D02*
X101158112Y-49412933D01*
X101158112Y-49412933D02*
X101121826Y-49425028D01*
X101121826Y-49425028D02*
X101097636Y-49449218D01*
X101097636Y-49449218D02*
X101085541Y-49473409D01*
X101085541Y-49473409D02*
X101073445Y-49521790D01*
X101073445Y-49521790D02*
X101073445Y-49558076D01*
X101073445Y-49558076D02*
X101085541Y-49606457D01*
X101085541Y-49606457D02*
X101097636Y-49630647D01*
X101097636Y-49630647D02*
X101121826Y-49654838D01*
X101121826Y-49654838D02*
X101158112Y-49666933D01*
X101158112Y-49666933D02*
X101182303Y-49666933D01*
X101182303Y-49666933D02*
X101218588Y-49654838D01*
X101218588Y-49654838D02*
X101230684Y-49642742D01*
X101230684Y-49642742D02*
X101230684Y-49558076D01*
X101230684Y-49558076D02*
X101182303Y-49558076D01*
X101339541Y-49666933D02*
X101339541Y-49412933D01*
X101339541Y-49412933D02*
X101436303Y-49412933D01*
X101436303Y-49412933D02*
X101460493Y-49425028D01*
X101460493Y-49425028D02*
X101472588Y-49437123D01*
X101472588Y-49437123D02*
X101484684Y-49461314D01*
X101484684Y-49461314D02*
X101484684Y-49497599D01*
X101484684Y-49497599D02*
X101472588Y-49521790D01*
X101472588Y-49521790D02*
X101460493Y-49533885D01*
X101460493Y-49533885D02*
X101436303Y-49545980D01*
X101436303Y-49545980D02*
X101339541Y-49545980D01*
X101593541Y-49666933D02*
X101593541Y-49412933D01*
X101762874Y-49412933D02*
X101811255Y-49412933D01*
X101811255Y-49412933D02*
X101835445Y-49425028D01*
X101835445Y-49425028D02*
X101859636Y-49449218D01*
X101859636Y-49449218D02*
X101871731Y-49497599D01*
X101871731Y-49497599D02*
X101871731Y-49582266D01*
X101871731Y-49582266D02*
X101859636Y-49630647D01*
X101859636Y-49630647D02*
X101835445Y-49654838D01*
X101835445Y-49654838D02*
X101811255Y-49666933D01*
X101811255Y-49666933D02*
X101762874Y-49666933D01*
X101762874Y-49666933D02*
X101738683Y-49654838D01*
X101738683Y-49654838D02*
X101714493Y-49630647D01*
X101714493Y-49630647D02*
X101702397Y-49582266D01*
X101702397Y-49582266D02*
X101702397Y-49497599D01*
X101702397Y-49497599D02*
X101714493Y-49449218D01*
X101714493Y-49449218D02*
X101738683Y-49425028D01*
X101738683Y-49425028D02*
X101762874Y-49412933D01*
X102089445Y-49497599D02*
X102089445Y-49666933D01*
X102028969Y-49400838D02*
X101968492Y-49582266D01*
X101968492Y-49582266D02*
X102125731Y-49582266D01*
X126849255Y-44312933D02*
X126994398Y-44312933D01*
X126921826Y-44566933D02*
X126921826Y-44312933D01*
X127054874Y-44312933D02*
X127224208Y-44566933D01*
X127224208Y-44312933D02*
X127054874Y-44566933D01*
X101118588Y-59525028D02*
X101094398Y-59512933D01*
X101094398Y-59512933D02*
X101058112Y-59512933D01*
X101058112Y-59512933D02*
X101021826Y-59525028D01*
X101021826Y-59525028D02*
X100997636Y-59549218D01*
X100997636Y-59549218D02*
X100985541Y-59573409D01*
X100985541Y-59573409D02*
X100973445Y-59621790D01*
X100973445Y-59621790D02*
X100973445Y-59658076D01*
X100973445Y-59658076D02*
X100985541Y-59706457D01*
X100985541Y-59706457D02*
X100997636Y-59730647D01*
X100997636Y-59730647D02*
X101021826Y-59754838D01*
X101021826Y-59754838D02*
X101058112Y-59766933D01*
X101058112Y-59766933D02*
X101082303Y-59766933D01*
X101082303Y-59766933D02*
X101118588Y-59754838D01*
X101118588Y-59754838D02*
X101130684Y-59742742D01*
X101130684Y-59742742D02*
X101130684Y-59658076D01*
X101130684Y-59658076D02*
X101082303Y-59658076D01*
X101239541Y-59766933D02*
X101239541Y-59512933D01*
X101239541Y-59512933D02*
X101336303Y-59512933D01*
X101336303Y-59512933D02*
X101360493Y-59525028D01*
X101360493Y-59525028D02*
X101372588Y-59537123D01*
X101372588Y-59537123D02*
X101384684Y-59561314D01*
X101384684Y-59561314D02*
X101384684Y-59597599D01*
X101384684Y-59597599D02*
X101372588Y-59621790D01*
X101372588Y-59621790D02*
X101360493Y-59633885D01*
X101360493Y-59633885D02*
X101336303Y-59645980D01*
X101336303Y-59645980D02*
X101239541Y-59645980D01*
X101493541Y-59766933D02*
X101493541Y-59512933D01*
X101662874Y-59512933D02*
X101711255Y-59512933D01*
X101711255Y-59512933D02*
X101735445Y-59525028D01*
X101735445Y-59525028D02*
X101759636Y-59549218D01*
X101759636Y-59549218D02*
X101771731Y-59597599D01*
X101771731Y-59597599D02*
X101771731Y-59682266D01*
X101771731Y-59682266D02*
X101759636Y-59730647D01*
X101759636Y-59730647D02*
X101735445Y-59754838D01*
X101735445Y-59754838D02*
X101711255Y-59766933D01*
X101711255Y-59766933D02*
X101662874Y-59766933D01*
X101662874Y-59766933D02*
X101638683Y-59754838D01*
X101638683Y-59754838D02*
X101614493Y-59730647D01*
X101614493Y-59730647D02*
X101602397Y-59682266D01*
X101602397Y-59682266D02*
X101602397Y-59597599D01*
X101602397Y-59597599D02*
X101614493Y-59549218D01*
X101614493Y-59549218D02*
X101638683Y-59525028D01*
X101638683Y-59525028D02*
X101662874Y-59512933D01*
X102013635Y-59766933D02*
X101868492Y-59766933D01*
X101941064Y-59766933D02*
X101941064Y-59512933D01*
X101941064Y-59512933D02*
X101916873Y-59549218D01*
X101916873Y-59549218D02*
X101892683Y-59573409D01*
X101892683Y-59573409D02*
X101868492Y-59585504D01*
X102243445Y-59512933D02*
X102122493Y-59512933D01*
X102122493Y-59512933D02*
X102110397Y-59633885D01*
X102110397Y-59633885D02*
X102122493Y-59621790D01*
X102122493Y-59621790D02*
X102146683Y-59609695D01*
X102146683Y-59609695D02*
X102207159Y-59609695D01*
X102207159Y-59609695D02*
X102231350Y-59621790D01*
X102231350Y-59621790D02*
X102243445Y-59633885D01*
X102243445Y-59633885D02*
X102255540Y-59658076D01*
X102255540Y-59658076D02*
X102255540Y-59718552D01*
X102255540Y-59718552D02*
X102243445Y-59742742D01*
X102243445Y-59742742D02*
X102231350Y-59754838D01*
X102231350Y-59754838D02*
X102207159Y-59766933D01*
X102207159Y-59766933D02*
X102146683Y-59766933D01*
X102146683Y-59766933D02*
X102122493Y-59754838D01*
X102122493Y-59754838D02*
X102110397Y-59742742D01*
X126518588Y-82425028D02*
X126494398Y-82412933D01*
X126494398Y-82412933D02*
X126458112Y-82412933D01*
X126458112Y-82412933D02*
X126421826Y-82425028D01*
X126421826Y-82425028D02*
X126397636Y-82449218D01*
X126397636Y-82449218D02*
X126385541Y-82473409D01*
X126385541Y-82473409D02*
X126373445Y-82521790D01*
X126373445Y-82521790D02*
X126373445Y-82558076D01*
X126373445Y-82558076D02*
X126385541Y-82606457D01*
X126385541Y-82606457D02*
X126397636Y-82630647D01*
X126397636Y-82630647D02*
X126421826Y-82654838D01*
X126421826Y-82654838D02*
X126458112Y-82666933D01*
X126458112Y-82666933D02*
X126482303Y-82666933D01*
X126482303Y-82666933D02*
X126518588Y-82654838D01*
X126518588Y-82654838D02*
X126530684Y-82642742D01*
X126530684Y-82642742D02*
X126530684Y-82558076D01*
X126530684Y-82558076D02*
X126482303Y-82558076D01*
X126639541Y-82666933D02*
X126639541Y-82412933D01*
X126639541Y-82412933D02*
X126736303Y-82412933D01*
X126736303Y-82412933D02*
X126760493Y-82425028D01*
X126760493Y-82425028D02*
X126772588Y-82437123D01*
X126772588Y-82437123D02*
X126784684Y-82461314D01*
X126784684Y-82461314D02*
X126784684Y-82497599D01*
X126784684Y-82497599D02*
X126772588Y-82521790D01*
X126772588Y-82521790D02*
X126760493Y-82533885D01*
X126760493Y-82533885D02*
X126736303Y-82545980D01*
X126736303Y-82545980D02*
X126639541Y-82545980D01*
X126893541Y-82666933D02*
X126893541Y-82412933D01*
X127062874Y-82412933D02*
X127111255Y-82412933D01*
X127111255Y-82412933D02*
X127135445Y-82425028D01*
X127135445Y-82425028D02*
X127159636Y-82449218D01*
X127159636Y-82449218D02*
X127171731Y-82497599D01*
X127171731Y-82497599D02*
X127171731Y-82582266D01*
X127171731Y-82582266D02*
X127159636Y-82630647D01*
X127159636Y-82630647D02*
X127135445Y-82654838D01*
X127135445Y-82654838D02*
X127111255Y-82666933D01*
X127111255Y-82666933D02*
X127062874Y-82666933D01*
X127062874Y-82666933D02*
X127038683Y-82654838D01*
X127038683Y-82654838D02*
X127014493Y-82630647D01*
X127014493Y-82630647D02*
X127002397Y-82582266D01*
X127002397Y-82582266D02*
X127002397Y-82497599D01*
X127002397Y-82497599D02*
X127014493Y-82449218D01*
X127014493Y-82449218D02*
X127038683Y-82425028D01*
X127038683Y-82425028D02*
X127062874Y-82412933D01*
X127389445Y-82497599D02*
X127389445Y-82666933D01*
X127328969Y-82400838D02*
X127268492Y-82582266D01*
X127268492Y-82582266D02*
X127425731Y-82582266D01*
X127498302Y-82412933D02*
X127667636Y-82412933D01*
X127667636Y-82412933D02*
X127558778Y-82666933D01*
X100885541Y-44433885D02*
X100970207Y-44433885D01*
X101006493Y-44566933D02*
X100885541Y-44566933D01*
X100885541Y-44566933D02*
X100885541Y-44312933D01*
X100885541Y-44312933D02*
X101006493Y-44312933D01*
X101103255Y-44554838D02*
X101139541Y-44566933D01*
X101139541Y-44566933D02*
X101200017Y-44566933D01*
X101200017Y-44566933D02*
X101224208Y-44554838D01*
X101224208Y-44554838D02*
X101236303Y-44542742D01*
X101236303Y-44542742D02*
X101248398Y-44518552D01*
X101248398Y-44518552D02*
X101248398Y-44494361D01*
X101248398Y-44494361D02*
X101236303Y-44470171D01*
X101236303Y-44470171D02*
X101224208Y-44458076D01*
X101224208Y-44458076D02*
X101200017Y-44445980D01*
X101200017Y-44445980D02*
X101151636Y-44433885D01*
X101151636Y-44433885D02*
X101127446Y-44421790D01*
X101127446Y-44421790D02*
X101115351Y-44409695D01*
X101115351Y-44409695D02*
X101103255Y-44385504D01*
X101103255Y-44385504D02*
X101103255Y-44361314D01*
X101103255Y-44361314D02*
X101115351Y-44337123D01*
X101115351Y-44337123D02*
X101127446Y-44325028D01*
X101127446Y-44325028D02*
X101151636Y-44312933D01*
X101151636Y-44312933D02*
X101212113Y-44312933D01*
X101212113Y-44312933D02*
X101248398Y-44325028D01*
X101357256Y-44566933D02*
X101357256Y-44312933D01*
X101357256Y-44312933D02*
X101454018Y-44312933D01*
X101454018Y-44312933D02*
X101478208Y-44325028D01*
X101478208Y-44325028D02*
X101490303Y-44337123D01*
X101490303Y-44337123D02*
X101502399Y-44361314D01*
X101502399Y-44361314D02*
X101502399Y-44397599D01*
X101502399Y-44397599D02*
X101490303Y-44421790D01*
X101490303Y-44421790D02*
X101478208Y-44433885D01*
X101478208Y-44433885D02*
X101454018Y-44445980D01*
X101454018Y-44445980D02*
X101357256Y-44445980D01*
X101550780Y-44591123D02*
X101744303Y-44591123D01*
X101780589Y-44312933D02*
X101937827Y-44312933D01*
X101937827Y-44312933D02*
X101853161Y-44409695D01*
X101853161Y-44409695D02*
X101889446Y-44409695D01*
X101889446Y-44409695D02*
X101913637Y-44421790D01*
X101913637Y-44421790D02*
X101925732Y-44433885D01*
X101925732Y-44433885D02*
X101937827Y-44458076D01*
X101937827Y-44458076D02*
X101937827Y-44518552D01*
X101937827Y-44518552D02*
X101925732Y-44542742D01*
X101925732Y-44542742D02*
X101913637Y-44554838D01*
X101913637Y-44554838D02*
X101889446Y-44566933D01*
X101889446Y-44566933D02*
X101816875Y-44566933D01*
X101816875Y-44566933D02*
X101792684Y-44554838D01*
X101792684Y-44554838D02*
X101780589Y-44542742D01*
X102010399Y-44312933D02*
X102095066Y-44566933D01*
X102095066Y-44566933D02*
X102179732Y-44312933D01*
X102240208Y-44312933D02*
X102397446Y-44312933D01*
X102397446Y-44312933D02*
X102312780Y-44409695D01*
X102312780Y-44409695D02*
X102349065Y-44409695D01*
X102349065Y-44409695D02*
X102373256Y-44421790D01*
X102373256Y-44421790D02*
X102385351Y-44433885D01*
X102385351Y-44433885D02*
X102397446Y-44458076D01*
X102397446Y-44458076D02*
X102397446Y-44518552D01*
X102397446Y-44518552D02*
X102385351Y-44542742D01*
X102385351Y-44542742D02*
X102373256Y-44554838D01*
X102373256Y-44554838D02*
X102349065Y-44566933D01*
X102349065Y-44566933D02*
X102276494Y-44566933D01*
X102276494Y-44566933D02*
X102252303Y-44554838D01*
X102252303Y-44554838D02*
X102240208Y-44542742D01*
X126518588Y-67225028D02*
X126494398Y-67212933D01*
X126494398Y-67212933D02*
X126458112Y-67212933D01*
X126458112Y-67212933D02*
X126421826Y-67225028D01*
X126421826Y-67225028D02*
X126397636Y-67249218D01*
X126397636Y-67249218D02*
X126385541Y-67273409D01*
X126385541Y-67273409D02*
X126373445Y-67321790D01*
X126373445Y-67321790D02*
X126373445Y-67358076D01*
X126373445Y-67358076D02*
X126385541Y-67406457D01*
X126385541Y-67406457D02*
X126397636Y-67430647D01*
X126397636Y-67430647D02*
X126421826Y-67454838D01*
X126421826Y-67454838D02*
X126458112Y-67466933D01*
X126458112Y-67466933D02*
X126482303Y-67466933D01*
X126482303Y-67466933D02*
X126518588Y-67454838D01*
X126518588Y-67454838D02*
X126530684Y-67442742D01*
X126530684Y-67442742D02*
X126530684Y-67358076D01*
X126530684Y-67358076D02*
X126482303Y-67358076D01*
X126639541Y-67466933D02*
X126639541Y-67212933D01*
X126639541Y-67212933D02*
X126736303Y-67212933D01*
X126736303Y-67212933D02*
X126760493Y-67225028D01*
X126760493Y-67225028D02*
X126772588Y-67237123D01*
X126772588Y-67237123D02*
X126784684Y-67261314D01*
X126784684Y-67261314D02*
X126784684Y-67297599D01*
X126784684Y-67297599D02*
X126772588Y-67321790D01*
X126772588Y-67321790D02*
X126760493Y-67333885D01*
X126760493Y-67333885D02*
X126736303Y-67345980D01*
X126736303Y-67345980D02*
X126639541Y-67345980D01*
X126893541Y-67466933D02*
X126893541Y-67212933D01*
X127062874Y-67212933D02*
X127111255Y-67212933D01*
X127111255Y-67212933D02*
X127135445Y-67225028D01*
X127135445Y-67225028D02*
X127159636Y-67249218D01*
X127159636Y-67249218D02*
X127171731Y-67297599D01*
X127171731Y-67297599D02*
X127171731Y-67382266D01*
X127171731Y-67382266D02*
X127159636Y-67430647D01*
X127159636Y-67430647D02*
X127135445Y-67454838D01*
X127135445Y-67454838D02*
X127111255Y-67466933D01*
X127111255Y-67466933D02*
X127062874Y-67466933D01*
X127062874Y-67466933D02*
X127038683Y-67454838D01*
X127038683Y-67454838D02*
X127014493Y-67430647D01*
X127014493Y-67430647D02*
X127002397Y-67382266D01*
X127002397Y-67382266D02*
X127002397Y-67297599D01*
X127002397Y-67297599D02*
X127014493Y-67249218D01*
X127014493Y-67249218D02*
X127038683Y-67225028D01*
X127038683Y-67225028D02*
X127062874Y-67212933D01*
X127256397Y-67212933D02*
X127413635Y-67212933D01*
X127413635Y-67212933D02*
X127328969Y-67309695D01*
X127328969Y-67309695D02*
X127365254Y-67309695D01*
X127365254Y-67309695D02*
X127389445Y-67321790D01*
X127389445Y-67321790D02*
X127401540Y-67333885D01*
X127401540Y-67333885D02*
X127413635Y-67358076D01*
X127413635Y-67358076D02*
X127413635Y-67418552D01*
X127413635Y-67418552D02*
X127401540Y-67442742D01*
X127401540Y-67442742D02*
X127389445Y-67454838D01*
X127389445Y-67454838D02*
X127365254Y-67466933D01*
X127365254Y-67466933D02*
X127292683Y-67466933D01*
X127292683Y-67466933D02*
X127268492Y-67454838D01*
X127268492Y-67454838D02*
X127256397Y-67442742D01*
X127498302Y-67212933D02*
X127667636Y-67212933D01*
X127667636Y-67212933D02*
X127558778Y-67466933D01*
X126518588Y-57025028D02*
X126494398Y-57012933D01*
X126494398Y-57012933D02*
X126458112Y-57012933D01*
X126458112Y-57012933D02*
X126421826Y-57025028D01*
X126421826Y-57025028D02*
X126397636Y-57049218D01*
X126397636Y-57049218D02*
X126385541Y-57073409D01*
X126385541Y-57073409D02*
X126373445Y-57121790D01*
X126373445Y-57121790D02*
X126373445Y-57158076D01*
X126373445Y-57158076D02*
X126385541Y-57206457D01*
X126385541Y-57206457D02*
X126397636Y-57230647D01*
X126397636Y-57230647D02*
X126421826Y-57254838D01*
X126421826Y-57254838D02*
X126458112Y-57266933D01*
X126458112Y-57266933D02*
X126482303Y-57266933D01*
X126482303Y-57266933D02*
X126518588Y-57254838D01*
X126518588Y-57254838D02*
X126530684Y-57242742D01*
X126530684Y-57242742D02*
X126530684Y-57158076D01*
X126530684Y-57158076D02*
X126482303Y-57158076D01*
X126639541Y-57266933D02*
X126639541Y-57012933D01*
X126639541Y-57012933D02*
X126736303Y-57012933D01*
X126736303Y-57012933D02*
X126760493Y-57025028D01*
X126760493Y-57025028D02*
X126772588Y-57037123D01*
X126772588Y-57037123D02*
X126784684Y-57061314D01*
X126784684Y-57061314D02*
X126784684Y-57097599D01*
X126784684Y-57097599D02*
X126772588Y-57121790D01*
X126772588Y-57121790D02*
X126760493Y-57133885D01*
X126760493Y-57133885D02*
X126736303Y-57145980D01*
X126736303Y-57145980D02*
X126639541Y-57145980D01*
X126893541Y-57266933D02*
X126893541Y-57012933D01*
X127062874Y-57012933D02*
X127111255Y-57012933D01*
X127111255Y-57012933D02*
X127135445Y-57025028D01*
X127135445Y-57025028D02*
X127159636Y-57049218D01*
X127159636Y-57049218D02*
X127171731Y-57097599D01*
X127171731Y-57097599D02*
X127171731Y-57182266D01*
X127171731Y-57182266D02*
X127159636Y-57230647D01*
X127159636Y-57230647D02*
X127135445Y-57254838D01*
X127135445Y-57254838D02*
X127111255Y-57266933D01*
X127111255Y-57266933D02*
X127062874Y-57266933D01*
X127062874Y-57266933D02*
X127038683Y-57254838D01*
X127038683Y-57254838D02*
X127014493Y-57230647D01*
X127014493Y-57230647D02*
X127002397Y-57182266D01*
X127002397Y-57182266D02*
X127002397Y-57097599D01*
X127002397Y-57097599D02*
X127014493Y-57049218D01*
X127014493Y-57049218D02*
X127038683Y-57025028D01*
X127038683Y-57025028D02*
X127062874Y-57012933D01*
X127389445Y-57097599D02*
X127389445Y-57266933D01*
X127328969Y-57000838D02*
X127268492Y-57182266D01*
X127268492Y-57182266D02*
X127425731Y-57182266D01*
X127655540Y-57266933D02*
X127510397Y-57266933D01*
X127582969Y-57266933D02*
X127582969Y-57012933D01*
X127582969Y-57012933D02*
X127558778Y-57049218D01*
X127558778Y-57049218D02*
X127534588Y-57073409D01*
X127534588Y-57073409D02*
X127510397Y-57085504D01*
X126618588Y-49425028D02*
X126594398Y-49412933D01*
X126594398Y-49412933D02*
X126558112Y-49412933D01*
X126558112Y-49412933D02*
X126521826Y-49425028D01*
X126521826Y-49425028D02*
X126497636Y-49449218D01*
X126497636Y-49449218D02*
X126485541Y-49473409D01*
X126485541Y-49473409D02*
X126473445Y-49521790D01*
X126473445Y-49521790D02*
X126473445Y-49558076D01*
X126473445Y-49558076D02*
X126485541Y-49606457D01*
X126485541Y-49606457D02*
X126497636Y-49630647D01*
X126497636Y-49630647D02*
X126521826Y-49654838D01*
X126521826Y-49654838D02*
X126558112Y-49666933D01*
X126558112Y-49666933D02*
X126582303Y-49666933D01*
X126582303Y-49666933D02*
X126618588Y-49654838D01*
X126618588Y-49654838D02*
X126630684Y-49642742D01*
X126630684Y-49642742D02*
X126630684Y-49558076D01*
X126630684Y-49558076D02*
X126582303Y-49558076D01*
X126739541Y-49666933D02*
X126739541Y-49412933D01*
X126739541Y-49412933D02*
X126836303Y-49412933D01*
X126836303Y-49412933D02*
X126860493Y-49425028D01*
X126860493Y-49425028D02*
X126872588Y-49437123D01*
X126872588Y-49437123D02*
X126884684Y-49461314D01*
X126884684Y-49461314D02*
X126884684Y-49497599D01*
X126884684Y-49497599D02*
X126872588Y-49521790D01*
X126872588Y-49521790D02*
X126860493Y-49533885D01*
X126860493Y-49533885D02*
X126836303Y-49545980D01*
X126836303Y-49545980D02*
X126739541Y-49545980D01*
X126993541Y-49666933D02*
X126993541Y-49412933D01*
X127162874Y-49412933D02*
X127211255Y-49412933D01*
X127211255Y-49412933D02*
X127235445Y-49425028D01*
X127235445Y-49425028D02*
X127259636Y-49449218D01*
X127259636Y-49449218D02*
X127271731Y-49497599D01*
X127271731Y-49497599D02*
X127271731Y-49582266D01*
X127271731Y-49582266D02*
X127259636Y-49630647D01*
X127259636Y-49630647D02*
X127235445Y-49654838D01*
X127235445Y-49654838D02*
X127211255Y-49666933D01*
X127211255Y-49666933D02*
X127162874Y-49666933D01*
X127162874Y-49666933D02*
X127138683Y-49654838D01*
X127138683Y-49654838D02*
X127114493Y-49630647D01*
X127114493Y-49630647D02*
X127102397Y-49582266D01*
X127102397Y-49582266D02*
X127102397Y-49497599D01*
X127102397Y-49497599D02*
X127114493Y-49449218D01*
X127114493Y-49449218D02*
X127138683Y-49425028D01*
X127138683Y-49425028D02*
X127162874Y-49412933D01*
X127513635Y-49666933D02*
X127368492Y-49666933D01*
X127441064Y-49666933D02*
X127441064Y-49412933D01*
X127441064Y-49412933D02*
X127416873Y-49449218D01*
X127416873Y-49449218D02*
X127392683Y-49473409D01*
X127392683Y-49473409D02*
X127368492Y-49485504D01*
X100885541Y-41833885D02*
X100970207Y-41833885D01*
X101006493Y-41966933D02*
X100885541Y-41966933D01*
X100885541Y-41966933D02*
X100885541Y-41712933D01*
X100885541Y-41712933D02*
X101006493Y-41712933D01*
X101103255Y-41954838D02*
X101139541Y-41966933D01*
X101139541Y-41966933D02*
X101200017Y-41966933D01*
X101200017Y-41966933D02*
X101224208Y-41954838D01*
X101224208Y-41954838D02*
X101236303Y-41942742D01*
X101236303Y-41942742D02*
X101248398Y-41918552D01*
X101248398Y-41918552D02*
X101248398Y-41894361D01*
X101248398Y-41894361D02*
X101236303Y-41870171D01*
X101236303Y-41870171D02*
X101224208Y-41858076D01*
X101224208Y-41858076D02*
X101200017Y-41845980D01*
X101200017Y-41845980D02*
X101151636Y-41833885D01*
X101151636Y-41833885D02*
X101127446Y-41821790D01*
X101127446Y-41821790D02*
X101115351Y-41809695D01*
X101115351Y-41809695D02*
X101103255Y-41785504D01*
X101103255Y-41785504D02*
X101103255Y-41761314D01*
X101103255Y-41761314D02*
X101115351Y-41737123D01*
X101115351Y-41737123D02*
X101127446Y-41725028D01*
X101127446Y-41725028D02*
X101151636Y-41712933D01*
X101151636Y-41712933D02*
X101212113Y-41712933D01*
X101212113Y-41712933D02*
X101248398Y-41725028D01*
X101357256Y-41966933D02*
X101357256Y-41712933D01*
X101357256Y-41712933D02*
X101454018Y-41712933D01*
X101454018Y-41712933D02*
X101478208Y-41725028D01*
X101478208Y-41725028D02*
X101490303Y-41737123D01*
X101490303Y-41737123D02*
X101502399Y-41761314D01*
X101502399Y-41761314D02*
X101502399Y-41797599D01*
X101502399Y-41797599D02*
X101490303Y-41821790D01*
X101490303Y-41821790D02*
X101478208Y-41833885D01*
X101478208Y-41833885D02*
X101454018Y-41845980D01*
X101454018Y-41845980D02*
X101357256Y-41845980D01*
X101550780Y-41991123D02*
X101744303Y-41991123D01*
X101780589Y-41712933D02*
X101937827Y-41712933D01*
X101937827Y-41712933D02*
X101853161Y-41809695D01*
X101853161Y-41809695D02*
X101889446Y-41809695D01*
X101889446Y-41809695D02*
X101913637Y-41821790D01*
X101913637Y-41821790D02*
X101925732Y-41833885D01*
X101925732Y-41833885D02*
X101937827Y-41858076D01*
X101937827Y-41858076D02*
X101937827Y-41918552D01*
X101937827Y-41918552D02*
X101925732Y-41942742D01*
X101925732Y-41942742D02*
X101913637Y-41954838D01*
X101913637Y-41954838D02*
X101889446Y-41966933D01*
X101889446Y-41966933D02*
X101816875Y-41966933D01*
X101816875Y-41966933D02*
X101792684Y-41954838D01*
X101792684Y-41954838D02*
X101780589Y-41942742D01*
X102010399Y-41712933D02*
X102095066Y-41966933D01*
X102095066Y-41966933D02*
X102179732Y-41712933D01*
X102240208Y-41712933D02*
X102397446Y-41712933D01*
X102397446Y-41712933D02*
X102312780Y-41809695D01*
X102312780Y-41809695D02*
X102349065Y-41809695D01*
X102349065Y-41809695D02*
X102373256Y-41821790D01*
X102373256Y-41821790D02*
X102385351Y-41833885D01*
X102385351Y-41833885D02*
X102397446Y-41858076D01*
X102397446Y-41858076D02*
X102397446Y-41918552D01*
X102397446Y-41918552D02*
X102385351Y-41942742D01*
X102385351Y-41942742D02*
X102373256Y-41954838D01*
X102373256Y-41954838D02*
X102349065Y-41966933D01*
X102349065Y-41966933D02*
X102276494Y-41966933D01*
X102276494Y-41966933D02*
X102252303Y-41954838D01*
X102252303Y-41954838D02*
X102240208Y-41942742D01*
X101118588Y-62125028D02*
X101094398Y-62112933D01*
X101094398Y-62112933D02*
X101058112Y-62112933D01*
X101058112Y-62112933D02*
X101021826Y-62125028D01*
X101021826Y-62125028D02*
X100997636Y-62149218D01*
X100997636Y-62149218D02*
X100985541Y-62173409D01*
X100985541Y-62173409D02*
X100973445Y-62221790D01*
X100973445Y-62221790D02*
X100973445Y-62258076D01*
X100973445Y-62258076D02*
X100985541Y-62306457D01*
X100985541Y-62306457D02*
X100997636Y-62330647D01*
X100997636Y-62330647D02*
X101021826Y-62354838D01*
X101021826Y-62354838D02*
X101058112Y-62366933D01*
X101058112Y-62366933D02*
X101082303Y-62366933D01*
X101082303Y-62366933D02*
X101118588Y-62354838D01*
X101118588Y-62354838D02*
X101130684Y-62342742D01*
X101130684Y-62342742D02*
X101130684Y-62258076D01*
X101130684Y-62258076D02*
X101082303Y-62258076D01*
X101239541Y-62366933D02*
X101239541Y-62112933D01*
X101239541Y-62112933D02*
X101336303Y-62112933D01*
X101336303Y-62112933D02*
X101360493Y-62125028D01*
X101360493Y-62125028D02*
X101372588Y-62137123D01*
X101372588Y-62137123D02*
X101384684Y-62161314D01*
X101384684Y-62161314D02*
X101384684Y-62197599D01*
X101384684Y-62197599D02*
X101372588Y-62221790D01*
X101372588Y-62221790D02*
X101360493Y-62233885D01*
X101360493Y-62233885D02*
X101336303Y-62245980D01*
X101336303Y-62245980D02*
X101239541Y-62245980D01*
X101493541Y-62366933D02*
X101493541Y-62112933D01*
X101662874Y-62112933D02*
X101711255Y-62112933D01*
X101711255Y-62112933D02*
X101735445Y-62125028D01*
X101735445Y-62125028D02*
X101759636Y-62149218D01*
X101759636Y-62149218D02*
X101771731Y-62197599D01*
X101771731Y-62197599D02*
X101771731Y-62282266D01*
X101771731Y-62282266D02*
X101759636Y-62330647D01*
X101759636Y-62330647D02*
X101735445Y-62354838D01*
X101735445Y-62354838D02*
X101711255Y-62366933D01*
X101711255Y-62366933D02*
X101662874Y-62366933D01*
X101662874Y-62366933D02*
X101638683Y-62354838D01*
X101638683Y-62354838D02*
X101614493Y-62330647D01*
X101614493Y-62330647D02*
X101602397Y-62282266D01*
X101602397Y-62282266D02*
X101602397Y-62197599D01*
X101602397Y-62197599D02*
X101614493Y-62149218D01*
X101614493Y-62149218D02*
X101638683Y-62125028D01*
X101638683Y-62125028D02*
X101662874Y-62112933D01*
X102013635Y-62366933D02*
X101868492Y-62366933D01*
X101941064Y-62366933D02*
X101941064Y-62112933D01*
X101941064Y-62112933D02*
X101916873Y-62149218D01*
X101916873Y-62149218D02*
X101892683Y-62173409D01*
X101892683Y-62173409D02*
X101868492Y-62185504D01*
X102231350Y-62112933D02*
X102182969Y-62112933D01*
X102182969Y-62112933D02*
X102158778Y-62125028D01*
X102158778Y-62125028D02*
X102146683Y-62137123D01*
X102146683Y-62137123D02*
X102122493Y-62173409D01*
X102122493Y-62173409D02*
X102110397Y-62221790D01*
X102110397Y-62221790D02*
X102110397Y-62318552D01*
X102110397Y-62318552D02*
X102122493Y-62342742D01*
X102122493Y-62342742D02*
X102134588Y-62354838D01*
X102134588Y-62354838D02*
X102158778Y-62366933D01*
X102158778Y-62366933D02*
X102207159Y-62366933D01*
X102207159Y-62366933D02*
X102231350Y-62354838D01*
X102231350Y-62354838D02*
X102243445Y-62342742D01*
X102243445Y-62342742D02*
X102255540Y-62318552D01*
X102255540Y-62318552D02*
X102255540Y-62258076D01*
X102255540Y-62258076D02*
X102243445Y-62233885D01*
X102243445Y-62233885D02*
X102231350Y-62221790D01*
X102231350Y-62221790D02*
X102207159Y-62209695D01*
X102207159Y-62209695D02*
X102158778Y-62209695D01*
X102158778Y-62209695D02*
X102134588Y-62221790D01*
X102134588Y-62221790D02*
X102122493Y-62233885D01*
X102122493Y-62233885D02*
X102110397Y-62258076D01*
X101118588Y-84925028D02*
X101094398Y-84912933D01*
X101094398Y-84912933D02*
X101058112Y-84912933D01*
X101058112Y-84912933D02*
X101021826Y-84925028D01*
X101021826Y-84925028D02*
X100997636Y-84949218D01*
X100997636Y-84949218D02*
X100985541Y-84973409D01*
X100985541Y-84973409D02*
X100973445Y-85021790D01*
X100973445Y-85021790D02*
X100973445Y-85058076D01*
X100973445Y-85058076D02*
X100985541Y-85106457D01*
X100985541Y-85106457D02*
X100997636Y-85130647D01*
X100997636Y-85130647D02*
X101021826Y-85154838D01*
X101021826Y-85154838D02*
X101058112Y-85166933D01*
X101058112Y-85166933D02*
X101082303Y-85166933D01*
X101082303Y-85166933D02*
X101118588Y-85154838D01*
X101118588Y-85154838D02*
X101130684Y-85142742D01*
X101130684Y-85142742D02*
X101130684Y-85058076D01*
X101130684Y-85058076D02*
X101082303Y-85058076D01*
X101239541Y-85166933D02*
X101239541Y-84912933D01*
X101239541Y-84912933D02*
X101336303Y-84912933D01*
X101336303Y-84912933D02*
X101360493Y-84925028D01*
X101360493Y-84925028D02*
X101372588Y-84937123D01*
X101372588Y-84937123D02*
X101384684Y-84961314D01*
X101384684Y-84961314D02*
X101384684Y-84997599D01*
X101384684Y-84997599D02*
X101372588Y-85021790D01*
X101372588Y-85021790D02*
X101360493Y-85033885D01*
X101360493Y-85033885D02*
X101336303Y-85045980D01*
X101336303Y-85045980D02*
X101239541Y-85045980D01*
X101493541Y-85166933D02*
X101493541Y-84912933D01*
X101662874Y-84912933D02*
X101711255Y-84912933D01*
X101711255Y-84912933D02*
X101735445Y-84925028D01*
X101735445Y-84925028D02*
X101759636Y-84949218D01*
X101759636Y-84949218D02*
X101771731Y-84997599D01*
X101771731Y-84997599D02*
X101771731Y-85082266D01*
X101771731Y-85082266D02*
X101759636Y-85130647D01*
X101759636Y-85130647D02*
X101735445Y-85154838D01*
X101735445Y-85154838D02*
X101711255Y-85166933D01*
X101711255Y-85166933D02*
X101662874Y-85166933D01*
X101662874Y-85166933D02*
X101638683Y-85154838D01*
X101638683Y-85154838D02*
X101614493Y-85130647D01*
X101614493Y-85130647D02*
X101602397Y-85082266D01*
X101602397Y-85082266D02*
X101602397Y-84997599D01*
X101602397Y-84997599D02*
X101614493Y-84949218D01*
X101614493Y-84949218D02*
X101638683Y-84925028D01*
X101638683Y-84925028D02*
X101662874Y-84912933D01*
X102013635Y-85166933D02*
X101868492Y-85166933D01*
X101941064Y-85166933D02*
X101941064Y-84912933D01*
X101941064Y-84912933D02*
X101916873Y-84949218D01*
X101916873Y-84949218D02*
X101892683Y-84973409D01*
X101892683Y-84973409D02*
X101868492Y-84985504D01*
X102110397Y-84937123D02*
X102122493Y-84925028D01*
X102122493Y-84925028D02*
X102146683Y-84912933D01*
X102146683Y-84912933D02*
X102207159Y-84912933D01*
X102207159Y-84912933D02*
X102231350Y-84925028D01*
X102231350Y-84925028D02*
X102243445Y-84937123D01*
X102243445Y-84937123D02*
X102255540Y-84961314D01*
X102255540Y-84961314D02*
X102255540Y-84985504D01*
X102255540Y-84985504D02*
X102243445Y-85021790D01*
X102243445Y-85021790D02*
X102098302Y-85166933D01*
X102098302Y-85166933D02*
X102255540Y-85166933D01*
X126518588Y-64625028D02*
X126494398Y-64612933D01*
X126494398Y-64612933D02*
X126458112Y-64612933D01*
X126458112Y-64612933D02*
X126421826Y-64625028D01*
X126421826Y-64625028D02*
X126397636Y-64649218D01*
X126397636Y-64649218D02*
X126385541Y-64673409D01*
X126385541Y-64673409D02*
X126373445Y-64721790D01*
X126373445Y-64721790D02*
X126373445Y-64758076D01*
X126373445Y-64758076D02*
X126385541Y-64806457D01*
X126385541Y-64806457D02*
X126397636Y-64830647D01*
X126397636Y-64830647D02*
X126421826Y-64854838D01*
X126421826Y-64854838D02*
X126458112Y-64866933D01*
X126458112Y-64866933D02*
X126482303Y-64866933D01*
X126482303Y-64866933D02*
X126518588Y-64854838D01*
X126518588Y-64854838D02*
X126530684Y-64842742D01*
X126530684Y-64842742D02*
X126530684Y-64758076D01*
X126530684Y-64758076D02*
X126482303Y-64758076D01*
X126639541Y-64866933D02*
X126639541Y-64612933D01*
X126639541Y-64612933D02*
X126736303Y-64612933D01*
X126736303Y-64612933D02*
X126760493Y-64625028D01*
X126760493Y-64625028D02*
X126772588Y-64637123D01*
X126772588Y-64637123D02*
X126784684Y-64661314D01*
X126784684Y-64661314D02*
X126784684Y-64697599D01*
X126784684Y-64697599D02*
X126772588Y-64721790D01*
X126772588Y-64721790D02*
X126760493Y-64733885D01*
X126760493Y-64733885D02*
X126736303Y-64745980D01*
X126736303Y-64745980D02*
X126639541Y-64745980D01*
X126893541Y-64866933D02*
X126893541Y-64612933D01*
X127062874Y-64612933D02*
X127111255Y-64612933D01*
X127111255Y-64612933D02*
X127135445Y-64625028D01*
X127135445Y-64625028D02*
X127159636Y-64649218D01*
X127159636Y-64649218D02*
X127171731Y-64697599D01*
X127171731Y-64697599D02*
X127171731Y-64782266D01*
X127171731Y-64782266D02*
X127159636Y-64830647D01*
X127159636Y-64830647D02*
X127135445Y-64854838D01*
X127135445Y-64854838D02*
X127111255Y-64866933D01*
X127111255Y-64866933D02*
X127062874Y-64866933D01*
X127062874Y-64866933D02*
X127038683Y-64854838D01*
X127038683Y-64854838D02*
X127014493Y-64830647D01*
X127014493Y-64830647D02*
X127002397Y-64782266D01*
X127002397Y-64782266D02*
X127002397Y-64697599D01*
X127002397Y-64697599D02*
X127014493Y-64649218D01*
X127014493Y-64649218D02*
X127038683Y-64625028D01*
X127038683Y-64625028D02*
X127062874Y-64612933D01*
X127256397Y-64612933D02*
X127413635Y-64612933D01*
X127413635Y-64612933D02*
X127328969Y-64709695D01*
X127328969Y-64709695D02*
X127365254Y-64709695D01*
X127365254Y-64709695D02*
X127389445Y-64721790D01*
X127389445Y-64721790D02*
X127401540Y-64733885D01*
X127401540Y-64733885D02*
X127413635Y-64758076D01*
X127413635Y-64758076D02*
X127413635Y-64818552D01*
X127413635Y-64818552D02*
X127401540Y-64842742D01*
X127401540Y-64842742D02*
X127389445Y-64854838D01*
X127389445Y-64854838D02*
X127365254Y-64866933D01*
X127365254Y-64866933D02*
X127292683Y-64866933D01*
X127292683Y-64866933D02*
X127268492Y-64854838D01*
X127268492Y-64854838D02*
X127256397Y-64842742D01*
X127558778Y-64721790D02*
X127534588Y-64709695D01*
X127534588Y-64709695D02*
X127522493Y-64697599D01*
X127522493Y-64697599D02*
X127510397Y-64673409D01*
X127510397Y-64673409D02*
X127510397Y-64661314D01*
X127510397Y-64661314D02*
X127522493Y-64637123D01*
X127522493Y-64637123D02*
X127534588Y-64625028D01*
X127534588Y-64625028D02*
X127558778Y-64612933D01*
X127558778Y-64612933D02*
X127607159Y-64612933D01*
X127607159Y-64612933D02*
X127631350Y-64625028D01*
X127631350Y-64625028D02*
X127643445Y-64637123D01*
X127643445Y-64637123D02*
X127655540Y-64661314D01*
X127655540Y-64661314D02*
X127655540Y-64673409D01*
X127655540Y-64673409D02*
X127643445Y-64697599D01*
X127643445Y-64697599D02*
X127631350Y-64709695D01*
X127631350Y-64709695D02*
X127607159Y-64721790D01*
X127607159Y-64721790D02*
X127558778Y-64721790D01*
X127558778Y-64721790D02*
X127534588Y-64733885D01*
X127534588Y-64733885D02*
X127522493Y-64745980D01*
X127522493Y-64745980D02*
X127510397Y-64770171D01*
X127510397Y-64770171D02*
X127510397Y-64818552D01*
X127510397Y-64818552D02*
X127522493Y-64842742D01*
X127522493Y-64842742D02*
X127534588Y-64854838D01*
X127534588Y-64854838D02*
X127558778Y-64866933D01*
X127558778Y-64866933D02*
X127607159Y-64866933D01*
X127607159Y-64866933D02*
X127631350Y-64854838D01*
X127631350Y-64854838D02*
X127643445Y-64842742D01*
X127643445Y-64842742D02*
X127655540Y-64818552D01*
X127655540Y-64818552D02*
X127655540Y-64770171D01*
X127655540Y-64770171D02*
X127643445Y-64745980D01*
X127643445Y-64745980D02*
X127631350Y-64733885D01*
X127631350Y-64733885D02*
X127607159Y-64721790D01*
X126518588Y-84925028D02*
X126494398Y-84912933D01*
X126494398Y-84912933D02*
X126458112Y-84912933D01*
X126458112Y-84912933D02*
X126421826Y-84925028D01*
X126421826Y-84925028D02*
X126397636Y-84949218D01*
X126397636Y-84949218D02*
X126385541Y-84973409D01*
X126385541Y-84973409D02*
X126373445Y-85021790D01*
X126373445Y-85021790D02*
X126373445Y-85058076D01*
X126373445Y-85058076D02*
X126385541Y-85106457D01*
X126385541Y-85106457D02*
X126397636Y-85130647D01*
X126397636Y-85130647D02*
X126421826Y-85154838D01*
X126421826Y-85154838D02*
X126458112Y-85166933D01*
X126458112Y-85166933D02*
X126482303Y-85166933D01*
X126482303Y-85166933D02*
X126518588Y-85154838D01*
X126518588Y-85154838D02*
X126530684Y-85142742D01*
X126530684Y-85142742D02*
X126530684Y-85058076D01*
X126530684Y-85058076D02*
X126482303Y-85058076D01*
X126639541Y-85166933D02*
X126639541Y-84912933D01*
X126639541Y-84912933D02*
X126736303Y-84912933D01*
X126736303Y-84912933D02*
X126760493Y-84925028D01*
X126760493Y-84925028D02*
X126772588Y-84937123D01*
X126772588Y-84937123D02*
X126784684Y-84961314D01*
X126784684Y-84961314D02*
X126784684Y-84997599D01*
X126784684Y-84997599D02*
X126772588Y-85021790D01*
X126772588Y-85021790D02*
X126760493Y-85033885D01*
X126760493Y-85033885D02*
X126736303Y-85045980D01*
X126736303Y-85045980D02*
X126639541Y-85045980D01*
X126893541Y-85166933D02*
X126893541Y-84912933D01*
X127062874Y-84912933D02*
X127111255Y-84912933D01*
X127111255Y-84912933D02*
X127135445Y-84925028D01*
X127135445Y-84925028D02*
X127159636Y-84949218D01*
X127159636Y-84949218D02*
X127171731Y-84997599D01*
X127171731Y-84997599D02*
X127171731Y-85082266D01*
X127171731Y-85082266D02*
X127159636Y-85130647D01*
X127159636Y-85130647D02*
X127135445Y-85154838D01*
X127135445Y-85154838D02*
X127111255Y-85166933D01*
X127111255Y-85166933D02*
X127062874Y-85166933D01*
X127062874Y-85166933D02*
X127038683Y-85154838D01*
X127038683Y-85154838D02*
X127014493Y-85130647D01*
X127014493Y-85130647D02*
X127002397Y-85082266D01*
X127002397Y-85082266D02*
X127002397Y-84997599D01*
X127002397Y-84997599D02*
X127014493Y-84949218D01*
X127014493Y-84949218D02*
X127038683Y-84925028D01*
X127038683Y-84925028D02*
X127062874Y-84912933D01*
X127268492Y-84937123D02*
X127280588Y-84925028D01*
X127280588Y-84925028D02*
X127304778Y-84912933D01*
X127304778Y-84912933D02*
X127365254Y-84912933D01*
X127365254Y-84912933D02*
X127389445Y-84925028D01*
X127389445Y-84925028D02*
X127401540Y-84937123D01*
X127401540Y-84937123D02*
X127413635Y-84961314D01*
X127413635Y-84961314D02*
X127413635Y-84985504D01*
X127413635Y-84985504D02*
X127401540Y-85021790D01*
X127401540Y-85021790D02*
X127256397Y-85166933D01*
X127256397Y-85166933D02*
X127413635Y-85166933D01*
X127655540Y-85166933D02*
X127510397Y-85166933D01*
X127582969Y-85166933D02*
X127582969Y-84912933D01*
X127582969Y-84912933D02*
X127558778Y-84949218D01*
X127558778Y-84949218D02*
X127534588Y-84973409D01*
X127534588Y-84973409D02*
X127510397Y-84985504D01*
X100849255Y-92512933D02*
X100933922Y-92766933D01*
X100933922Y-92766933D02*
X101018588Y-92512933D01*
X101248398Y-92742742D02*
X101236302Y-92754838D01*
X101236302Y-92754838D02*
X101200017Y-92766933D01*
X101200017Y-92766933D02*
X101175826Y-92766933D01*
X101175826Y-92766933D02*
X101139540Y-92754838D01*
X101139540Y-92754838D02*
X101115350Y-92730647D01*
X101115350Y-92730647D02*
X101103255Y-92706457D01*
X101103255Y-92706457D02*
X101091159Y-92658076D01*
X101091159Y-92658076D02*
X101091159Y-92621790D01*
X101091159Y-92621790D02*
X101103255Y-92573409D01*
X101103255Y-92573409D02*
X101115350Y-92549218D01*
X101115350Y-92549218D02*
X101139540Y-92525028D01*
X101139540Y-92525028D02*
X101175826Y-92512933D01*
X101175826Y-92512933D02*
X101200017Y-92512933D01*
X101200017Y-92512933D02*
X101236302Y-92525028D01*
X101236302Y-92525028D02*
X101248398Y-92537123D01*
X101502398Y-92742742D02*
X101490302Y-92754838D01*
X101490302Y-92754838D02*
X101454017Y-92766933D01*
X101454017Y-92766933D02*
X101429826Y-92766933D01*
X101429826Y-92766933D02*
X101393540Y-92754838D01*
X101393540Y-92754838D02*
X101369350Y-92730647D01*
X101369350Y-92730647D02*
X101357255Y-92706457D01*
X101357255Y-92706457D02*
X101345159Y-92658076D01*
X101345159Y-92658076D02*
X101345159Y-92621790D01*
X101345159Y-92621790D02*
X101357255Y-92573409D01*
X101357255Y-92573409D02*
X101369350Y-92549218D01*
X101369350Y-92549218D02*
X101393540Y-92525028D01*
X101393540Y-92525028D02*
X101429826Y-92512933D01*
X101429826Y-92512933D02*
X101454017Y-92512933D01*
X101454017Y-92512933D02*
X101490302Y-92525028D01*
X101490302Y-92525028D02*
X101502398Y-92537123D01*
X101550779Y-92791123D02*
X101744302Y-92791123D01*
X101804779Y-92670171D02*
X101998303Y-92670171D01*
X101901541Y-92766933D02*
X101901541Y-92573409D01*
X102240207Y-92512933D02*
X102119255Y-92512933D01*
X102119255Y-92512933D02*
X102107159Y-92633885D01*
X102107159Y-92633885D02*
X102119255Y-92621790D01*
X102119255Y-92621790D02*
X102143445Y-92609695D01*
X102143445Y-92609695D02*
X102203921Y-92609695D01*
X102203921Y-92609695D02*
X102228112Y-92621790D01*
X102228112Y-92621790D02*
X102240207Y-92633885D01*
X102240207Y-92633885D02*
X102252302Y-92658076D01*
X102252302Y-92658076D02*
X102252302Y-92718552D01*
X102252302Y-92718552D02*
X102240207Y-92742742D01*
X102240207Y-92742742D02*
X102228112Y-92754838D01*
X102228112Y-92754838D02*
X102203921Y-92766933D01*
X102203921Y-92766933D02*
X102143445Y-92766933D01*
X102143445Y-92766933D02*
X102119255Y-92754838D01*
X102119255Y-92754838D02*
X102107159Y-92742742D01*
X102324874Y-92512933D02*
X102409541Y-92766933D01*
X102409541Y-92766933D02*
X102494207Y-92512933D01*
X126618588Y-74825028D02*
X126594398Y-74812933D01*
X126594398Y-74812933D02*
X126558112Y-74812933D01*
X126558112Y-74812933D02*
X126521826Y-74825028D01*
X126521826Y-74825028D02*
X126497636Y-74849218D01*
X126497636Y-74849218D02*
X126485541Y-74873409D01*
X126485541Y-74873409D02*
X126473445Y-74921790D01*
X126473445Y-74921790D02*
X126473445Y-74958076D01*
X126473445Y-74958076D02*
X126485541Y-75006457D01*
X126485541Y-75006457D02*
X126497636Y-75030647D01*
X126497636Y-75030647D02*
X126521826Y-75054838D01*
X126521826Y-75054838D02*
X126558112Y-75066933D01*
X126558112Y-75066933D02*
X126582303Y-75066933D01*
X126582303Y-75066933D02*
X126618588Y-75054838D01*
X126618588Y-75054838D02*
X126630684Y-75042742D01*
X126630684Y-75042742D02*
X126630684Y-74958076D01*
X126630684Y-74958076D02*
X126582303Y-74958076D01*
X126739541Y-75066933D02*
X126739541Y-74812933D01*
X126739541Y-74812933D02*
X126836303Y-74812933D01*
X126836303Y-74812933D02*
X126860493Y-74825028D01*
X126860493Y-74825028D02*
X126872588Y-74837123D01*
X126872588Y-74837123D02*
X126884684Y-74861314D01*
X126884684Y-74861314D02*
X126884684Y-74897599D01*
X126884684Y-74897599D02*
X126872588Y-74921790D01*
X126872588Y-74921790D02*
X126860493Y-74933885D01*
X126860493Y-74933885D02*
X126836303Y-74945980D01*
X126836303Y-74945980D02*
X126739541Y-74945980D01*
X126993541Y-75066933D02*
X126993541Y-74812933D01*
X127162874Y-74812933D02*
X127211255Y-74812933D01*
X127211255Y-74812933D02*
X127235445Y-74825028D01*
X127235445Y-74825028D02*
X127259636Y-74849218D01*
X127259636Y-74849218D02*
X127271731Y-74897599D01*
X127271731Y-74897599D02*
X127271731Y-74982266D01*
X127271731Y-74982266D02*
X127259636Y-75030647D01*
X127259636Y-75030647D02*
X127235445Y-75054838D01*
X127235445Y-75054838D02*
X127211255Y-75066933D01*
X127211255Y-75066933D02*
X127162874Y-75066933D01*
X127162874Y-75066933D02*
X127138683Y-75054838D01*
X127138683Y-75054838D02*
X127114493Y-75030647D01*
X127114493Y-75030647D02*
X127102397Y-74982266D01*
X127102397Y-74982266D02*
X127102397Y-74897599D01*
X127102397Y-74897599D02*
X127114493Y-74849218D01*
X127114493Y-74849218D02*
X127138683Y-74825028D01*
X127138683Y-74825028D02*
X127162874Y-74812933D01*
X127428969Y-74812933D02*
X127453159Y-74812933D01*
X127453159Y-74812933D02*
X127477350Y-74825028D01*
X127477350Y-74825028D02*
X127489445Y-74837123D01*
X127489445Y-74837123D02*
X127501540Y-74861314D01*
X127501540Y-74861314D02*
X127513635Y-74909695D01*
X127513635Y-74909695D02*
X127513635Y-74970171D01*
X127513635Y-74970171D02*
X127501540Y-75018552D01*
X127501540Y-75018552D02*
X127489445Y-75042742D01*
X127489445Y-75042742D02*
X127477350Y-75054838D01*
X127477350Y-75054838D02*
X127453159Y-75066933D01*
X127453159Y-75066933D02*
X127428969Y-75066933D01*
X127428969Y-75066933D02*
X127404778Y-75054838D01*
X127404778Y-75054838D02*
X127392683Y-75042742D01*
X127392683Y-75042742D02*
X127380588Y-75018552D01*
X127380588Y-75018552D02*
X127368492Y-74970171D01*
X127368492Y-74970171D02*
X127368492Y-74909695D01*
X127368492Y-74909695D02*
X127380588Y-74861314D01*
X127380588Y-74861314D02*
X127392683Y-74837123D01*
X127392683Y-74837123D02*
X127404778Y-74825028D01*
X127404778Y-74825028D02*
X127428969Y-74812933D01*
X101118588Y-64625028D02*
X101094398Y-64612933D01*
X101094398Y-64612933D02*
X101058112Y-64612933D01*
X101058112Y-64612933D02*
X101021826Y-64625028D01*
X101021826Y-64625028D02*
X100997636Y-64649218D01*
X100997636Y-64649218D02*
X100985541Y-64673409D01*
X100985541Y-64673409D02*
X100973445Y-64721790D01*
X100973445Y-64721790D02*
X100973445Y-64758076D01*
X100973445Y-64758076D02*
X100985541Y-64806457D01*
X100985541Y-64806457D02*
X100997636Y-64830647D01*
X100997636Y-64830647D02*
X101021826Y-64854838D01*
X101021826Y-64854838D02*
X101058112Y-64866933D01*
X101058112Y-64866933D02*
X101082303Y-64866933D01*
X101082303Y-64866933D02*
X101118588Y-64854838D01*
X101118588Y-64854838D02*
X101130684Y-64842742D01*
X101130684Y-64842742D02*
X101130684Y-64758076D01*
X101130684Y-64758076D02*
X101082303Y-64758076D01*
X101239541Y-64866933D02*
X101239541Y-64612933D01*
X101239541Y-64612933D02*
X101336303Y-64612933D01*
X101336303Y-64612933D02*
X101360493Y-64625028D01*
X101360493Y-64625028D02*
X101372588Y-64637123D01*
X101372588Y-64637123D02*
X101384684Y-64661314D01*
X101384684Y-64661314D02*
X101384684Y-64697599D01*
X101384684Y-64697599D02*
X101372588Y-64721790D01*
X101372588Y-64721790D02*
X101360493Y-64733885D01*
X101360493Y-64733885D02*
X101336303Y-64745980D01*
X101336303Y-64745980D02*
X101239541Y-64745980D01*
X101493541Y-64866933D02*
X101493541Y-64612933D01*
X101662874Y-64612933D02*
X101711255Y-64612933D01*
X101711255Y-64612933D02*
X101735445Y-64625028D01*
X101735445Y-64625028D02*
X101759636Y-64649218D01*
X101759636Y-64649218D02*
X101771731Y-64697599D01*
X101771731Y-64697599D02*
X101771731Y-64782266D01*
X101771731Y-64782266D02*
X101759636Y-64830647D01*
X101759636Y-64830647D02*
X101735445Y-64854838D01*
X101735445Y-64854838D02*
X101711255Y-64866933D01*
X101711255Y-64866933D02*
X101662874Y-64866933D01*
X101662874Y-64866933D02*
X101638683Y-64854838D01*
X101638683Y-64854838D02*
X101614493Y-64830647D01*
X101614493Y-64830647D02*
X101602397Y-64782266D01*
X101602397Y-64782266D02*
X101602397Y-64697599D01*
X101602397Y-64697599D02*
X101614493Y-64649218D01*
X101614493Y-64649218D02*
X101638683Y-64625028D01*
X101638683Y-64625028D02*
X101662874Y-64612933D01*
X102013635Y-64866933D02*
X101868492Y-64866933D01*
X101941064Y-64866933D02*
X101941064Y-64612933D01*
X101941064Y-64612933D02*
X101916873Y-64649218D01*
X101916873Y-64649218D02*
X101892683Y-64673409D01*
X101892683Y-64673409D02*
X101868492Y-64685504D01*
X102098302Y-64612933D02*
X102267636Y-64612933D01*
X102267636Y-64612933D02*
X102158778Y-64866933D01*
X101118588Y-87425028D02*
X101094398Y-87412933D01*
X101094398Y-87412933D02*
X101058112Y-87412933D01*
X101058112Y-87412933D02*
X101021826Y-87425028D01*
X101021826Y-87425028D02*
X100997636Y-87449218D01*
X100997636Y-87449218D02*
X100985541Y-87473409D01*
X100985541Y-87473409D02*
X100973445Y-87521790D01*
X100973445Y-87521790D02*
X100973445Y-87558076D01*
X100973445Y-87558076D02*
X100985541Y-87606457D01*
X100985541Y-87606457D02*
X100997636Y-87630647D01*
X100997636Y-87630647D02*
X101021826Y-87654838D01*
X101021826Y-87654838D02*
X101058112Y-87666933D01*
X101058112Y-87666933D02*
X101082303Y-87666933D01*
X101082303Y-87666933D02*
X101118588Y-87654838D01*
X101118588Y-87654838D02*
X101130684Y-87642742D01*
X101130684Y-87642742D02*
X101130684Y-87558076D01*
X101130684Y-87558076D02*
X101082303Y-87558076D01*
X101239541Y-87666933D02*
X101239541Y-87412933D01*
X101239541Y-87412933D02*
X101336303Y-87412933D01*
X101336303Y-87412933D02*
X101360493Y-87425028D01*
X101360493Y-87425028D02*
X101372588Y-87437123D01*
X101372588Y-87437123D02*
X101384684Y-87461314D01*
X101384684Y-87461314D02*
X101384684Y-87497599D01*
X101384684Y-87497599D02*
X101372588Y-87521790D01*
X101372588Y-87521790D02*
X101360493Y-87533885D01*
X101360493Y-87533885D02*
X101336303Y-87545980D01*
X101336303Y-87545980D02*
X101239541Y-87545980D01*
X101493541Y-87666933D02*
X101493541Y-87412933D01*
X101662874Y-87412933D02*
X101711255Y-87412933D01*
X101711255Y-87412933D02*
X101735445Y-87425028D01*
X101735445Y-87425028D02*
X101759636Y-87449218D01*
X101759636Y-87449218D02*
X101771731Y-87497599D01*
X101771731Y-87497599D02*
X101771731Y-87582266D01*
X101771731Y-87582266D02*
X101759636Y-87630647D01*
X101759636Y-87630647D02*
X101735445Y-87654838D01*
X101735445Y-87654838D02*
X101711255Y-87666933D01*
X101711255Y-87666933D02*
X101662874Y-87666933D01*
X101662874Y-87666933D02*
X101638683Y-87654838D01*
X101638683Y-87654838D02*
X101614493Y-87630647D01*
X101614493Y-87630647D02*
X101602397Y-87582266D01*
X101602397Y-87582266D02*
X101602397Y-87497599D01*
X101602397Y-87497599D02*
X101614493Y-87449218D01*
X101614493Y-87449218D02*
X101638683Y-87425028D01*
X101638683Y-87425028D02*
X101662874Y-87412933D01*
X102013635Y-87666933D02*
X101868492Y-87666933D01*
X101941064Y-87666933D02*
X101941064Y-87412933D01*
X101941064Y-87412933D02*
X101916873Y-87449218D01*
X101916873Y-87449218D02*
X101892683Y-87473409D01*
X101892683Y-87473409D02*
X101868492Y-87485504D01*
X102098302Y-87412933D02*
X102255540Y-87412933D01*
X102255540Y-87412933D02*
X102170874Y-87509695D01*
X102170874Y-87509695D02*
X102207159Y-87509695D01*
X102207159Y-87509695D02*
X102231350Y-87521790D01*
X102231350Y-87521790D02*
X102243445Y-87533885D01*
X102243445Y-87533885D02*
X102255540Y-87558076D01*
X102255540Y-87558076D02*
X102255540Y-87618552D01*
X102255540Y-87618552D02*
X102243445Y-87642742D01*
X102243445Y-87642742D02*
X102231350Y-87654838D01*
X102231350Y-87654838D02*
X102207159Y-87666933D01*
X102207159Y-87666933D02*
X102134588Y-87666933D01*
X102134588Y-87666933D02*
X102110397Y-87654838D01*
X102110397Y-87654838D02*
X102098302Y-87642742D01*
X126518588Y-72225028D02*
X126494398Y-72212933D01*
X126494398Y-72212933D02*
X126458112Y-72212933D01*
X126458112Y-72212933D02*
X126421826Y-72225028D01*
X126421826Y-72225028D02*
X126397636Y-72249218D01*
X126397636Y-72249218D02*
X126385541Y-72273409D01*
X126385541Y-72273409D02*
X126373445Y-72321790D01*
X126373445Y-72321790D02*
X126373445Y-72358076D01*
X126373445Y-72358076D02*
X126385541Y-72406457D01*
X126385541Y-72406457D02*
X126397636Y-72430647D01*
X126397636Y-72430647D02*
X126421826Y-72454838D01*
X126421826Y-72454838D02*
X126458112Y-72466933D01*
X126458112Y-72466933D02*
X126482303Y-72466933D01*
X126482303Y-72466933D02*
X126518588Y-72454838D01*
X126518588Y-72454838D02*
X126530684Y-72442742D01*
X126530684Y-72442742D02*
X126530684Y-72358076D01*
X126530684Y-72358076D02*
X126482303Y-72358076D01*
X126639541Y-72466933D02*
X126639541Y-72212933D01*
X126639541Y-72212933D02*
X126736303Y-72212933D01*
X126736303Y-72212933D02*
X126760493Y-72225028D01*
X126760493Y-72225028D02*
X126772588Y-72237123D01*
X126772588Y-72237123D02*
X126784684Y-72261314D01*
X126784684Y-72261314D02*
X126784684Y-72297599D01*
X126784684Y-72297599D02*
X126772588Y-72321790D01*
X126772588Y-72321790D02*
X126760493Y-72333885D01*
X126760493Y-72333885D02*
X126736303Y-72345980D01*
X126736303Y-72345980D02*
X126639541Y-72345980D01*
X126893541Y-72466933D02*
X126893541Y-72212933D01*
X127062874Y-72212933D02*
X127111255Y-72212933D01*
X127111255Y-72212933D02*
X127135445Y-72225028D01*
X127135445Y-72225028D02*
X127159636Y-72249218D01*
X127159636Y-72249218D02*
X127171731Y-72297599D01*
X127171731Y-72297599D02*
X127171731Y-72382266D01*
X127171731Y-72382266D02*
X127159636Y-72430647D01*
X127159636Y-72430647D02*
X127135445Y-72454838D01*
X127135445Y-72454838D02*
X127111255Y-72466933D01*
X127111255Y-72466933D02*
X127062874Y-72466933D01*
X127062874Y-72466933D02*
X127038683Y-72454838D01*
X127038683Y-72454838D02*
X127014493Y-72430647D01*
X127014493Y-72430647D02*
X127002397Y-72382266D01*
X127002397Y-72382266D02*
X127002397Y-72297599D01*
X127002397Y-72297599D02*
X127014493Y-72249218D01*
X127014493Y-72249218D02*
X127038683Y-72225028D01*
X127038683Y-72225028D02*
X127062874Y-72212933D01*
X127256397Y-72212933D02*
X127413635Y-72212933D01*
X127413635Y-72212933D02*
X127328969Y-72309695D01*
X127328969Y-72309695D02*
X127365254Y-72309695D01*
X127365254Y-72309695D02*
X127389445Y-72321790D01*
X127389445Y-72321790D02*
X127401540Y-72333885D01*
X127401540Y-72333885D02*
X127413635Y-72358076D01*
X127413635Y-72358076D02*
X127413635Y-72418552D01*
X127413635Y-72418552D02*
X127401540Y-72442742D01*
X127401540Y-72442742D02*
X127389445Y-72454838D01*
X127389445Y-72454838D02*
X127365254Y-72466933D01*
X127365254Y-72466933D02*
X127292683Y-72466933D01*
X127292683Y-72466933D02*
X127268492Y-72454838D01*
X127268492Y-72454838D02*
X127256397Y-72442742D01*
X127643445Y-72212933D02*
X127522493Y-72212933D01*
X127522493Y-72212933D02*
X127510397Y-72333885D01*
X127510397Y-72333885D02*
X127522493Y-72321790D01*
X127522493Y-72321790D02*
X127546683Y-72309695D01*
X127546683Y-72309695D02*
X127607159Y-72309695D01*
X127607159Y-72309695D02*
X127631350Y-72321790D01*
X127631350Y-72321790D02*
X127643445Y-72333885D01*
X127643445Y-72333885D02*
X127655540Y-72358076D01*
X127655540Y-72358076D02*
X127655540Y-72418552D01*
X127655540Y-72418552D02*
X127643445Y-72442742D01*
X127643445Y-72442742D02*
X127631350Y-72454838D01*
X127631350Y-72454838D02*
X127607159Y-72466933D01*
X127607159Y-72466933D02*
X127546683Y-72466933D01*
X127546683Y-72466933D02*
X127522493Y-72454838D01*
X127522493Y-72454838D02*
X127510397Y-72442742D01*
X101118588Y-82425028D02*
X101094398Y-82412933D01*
X101094398Y-82412933D02*
X101058112Y-82412933D01*
X101058112Y-82412933D02*
X101021826Y-82425028D01*
X101021826Y-82425028D02*
X100997636Y-82449218D01*
X100997636Y-82449218D02*
X100985541Y-82473409D01*
X100985541Y-82473409D02*
X100973445Y-82521790D01*
X100973445Y-82521790D02*
X100973445Y-82558076D01*
X100973445Y-82558076D02*
X100985541Y-82606457D01*
X100985541Y-82606457D02*
X100997636Y-82630647D01*
X100997636Y-82630647D02*
X101021826Y-82654838D01*
X101021826Y-82654838D02*
X101058112Y-82666933D01*
X101058112Y-82666933D02*
X101082303Y-82666933D01*
X101082303Y-82666933D02*
X101118588Y-82654838D01*
X101118588Y-82654838D02*
X101130684Y-82642742D01*
X101130684Y-82642742D02*
X101130684Y-82558076D01*
X101130684Y-82558076D02*
X101082303Y-82558076D01*
X101239541Y-82666933D02*
X101239541Y-82412933D01*
X101239541Y-82412933D02*
X101336303Y-82412933D01*
X101336303Y-82412933D02*
X101360493Y-82425028D01*
X101360493Y-82425028D02*
X101372588Y-82437123D01*
X101372588Y-82437123D02*
X101384684Y-82461314D01*
X101384684Y-82461314D02*
X101384684Y-82497599D01*
X101384684Y-82497599D02*
X101372588Y-82521790D01*
X101372588Y-82521790D02*
X101360493Y-82533885D01*
X101360493Y-82533885D02*
X101336303Y-82545980D01*
X101336303Y-82545980D02*
X101239541Y-82545980D01*
X101493541Y-82666933D02*
X101493541Y-82412933D01*
X101662874Y-82412933D02*
X101711255Y-82412933D01*
X101711255Y-82412933D02*
X101735445Y-82425028D01*
X101735445Y-82425028D02*
X101759636Y-82449218D01*
X101759636Y-82449218D02*
X101771731Y-82497599D01*
X101771731Y-82497599D02*
X101771731Y-82582266D01*
X101771731Y-82582266D02*
X101759636Y-82630647D01*
X101759636Y-82630647D02*
X101735445Y-82654838D01*
X101735445Y-82654838D02*
X101711255Y-82666933D01*
X101711255Y-82666933D02*
X101662874Y-82666933D01*
X101662874Y-82666933D02*
X101638683Y-82654838D01*
X101638683Y-82654838D02*
X101614493Y-82630647D01*
X101614493Y-82630647D02*
X101602397Y-82582266D01*
X101602397Y-82582266D02*
X101602397Y-82497599D01*
X101602397Y-82497599D02*
X101614493Y-82449218D01*
X101614493Y-82449218D02*
X101638683Y-82425028D01*
X101638683Y-82425028D02*
X101662874Y-82412933D01*
X102013635Y-82666933D02*
X101868492Y-82666933D01*
X101941064Y-82666933D02*
X101941064Y-82412933D01*
X101941064Y-82412933D02*
X101916873Y-82449218D01*
X101916873Y-82449218D02*
X101892683Y-82473409D01*
X101892683Y-82473409D02*
X101868492Y-82485504D01*
X102255540Y-82666933D02*
X102110397Y-82666933D01*
X102182969Y-82666933D02*
X102182969Y-82412933D01*
X102182969Y-82412933D02*
X102158778Y-82449218D01*
X102158778Y-82449218D02*
X102134588Y-82473409D01*
X102134588Y-82473409D02*
X102110397Y-82485504D01*
X101218588Y-77325028D02*
X101194398Y-77312933D01*
X101194398Y-77312933D02*
X101158112Y-77312933D01*
X101158112Y-77312933D02*
X101121826Y-77325028D01*
X101121826Y-77325028D02*
X101097636Y-77349218D01*
X101097636Y-77349218D02*
X101085541Y-77373409D01*
X101085541Y-77373409D02*
X101073445Y-77421790D01*
X101073445Y-77421790D02*
X101073445Y-77458076D01*
X101073445Y-77458076D02*
X101085541Y-77506457D01*
X101085541Y-77506457D02*
X101097636Y-77530647D01*
X101097636Y-77530647D02*
X101121826Y-77554838D01*
X101121826Y-77554838D02*
X101158112Y-77566933D01*
X101158112Y-77566933D02*
X101182303Y-77566933D01*
X101182303Y-77566933D02*
X101218588Y-77554838D01*
X101218588Y-77554838D02*
X101230684Y-77542742D01*
X101230684Y-77542742D02*
X101230684Y-77458076D01*
X101230684Y-77458076D02*
X101182303Y-77458076D01*
X101339541Y-77566933D02*
X101339541Y-77312933D01*
X101339541Y-77312933D02*
X101436303Y-77312933D01*
X101436303Y-77312933D02*
X101460493Y-77325028D01*
X101460493Y-77325028D02*
X101472588Y-77337123D01*
X101472588Y-77337123D02*
X101484684Y-77361314D01*
X101484684Y-77361314D02*
X101484684Y-77397599D01*
X101484684Y-77397599D02*
X101472588Y-77421790D01*
X101472588Y-77421790D02*
X101460493Y-77433885D01*
X101460493Y-77433885D02*
X101436303Y-77445980D01*
X101436303Y-77445980D02*
X101339541Y-77445980D01*
X101593541Y-77566933D02*
X101593541Y-77312933D01*
X101762874Y-77312933D02*
X101811255Y-77312933D01*
X101811255Y-77312933D02*
X101835445Y-77325028D01*
X101835445Y-77325028D02*
X101859636Y-77349218D01*
X101859636Y-77349218D02*
X101871731Y-77397599D01*
X101871731Y-77397599D02*
X101871731Y-77482266D01*
X101871731Y-77482266D02*
X101859636Y-77530647D01*
X101859636Y-77530647D02*
X101835445Y-77554838D01*
X101835445Y-77554838D02*
X101811255Y-77566933D01*
X101811255Y-77566933D02*
X101762874Y-77566933D01*
X101762874Y-77566933D02*
X101738683Y-77554838D01*
X101738683Y-77554838D02*
X101714493Y-77530647D01*
X101714493Y-77530647D02*
X101702397Y-77482266D01*
X101702397Y-77482266D02*
X101702397Y-77397599D01*
X101702397Y-77397599D02*
X101714493Y-77349218D01*
X101714493Y-77349218D02*
X101738683Y-77325028D01*
X101738683Y-77325028D02*
X101762874Y-77312933D01*
X101992683Y-77566933D02*
X102041064Y-77566933D01*
X102041064Y-77566933D02*
X102065254Y-77554838D01*
X102065254Y-77554838D02*
X102077350Y-77542742D01*
X102077350Y-77542742D02*
X102101540Y-77506457D01*
X102101540Y-77506457D02*
X102113635Y-77458076D01*
X102113635Y-77458076D02*
X102113635Y-77361314D01*
X102113635Y-77361314D02*
X102101540Y-77337123D01*
X102101540Y-77337123D02*
X102089445Y-77325028D01*
X102089445Y-77325028D02*
X102065254Y-77312933D01*
X102065254Y-77312933D02*
X102016873Y-77312933D01*
X102016873Y-77312933D02*
X101992683Y-77325028D01*
X101992683Y-77325028D02*
X101980588Y-77337123D01*
X101980588Y-77337123D02*
X101968492Y-77361314D01*
X101968492Y-77361314D02*
X101968492Y-77421790D01*
X101968492Y-77421790D02*
X101980588Y-77445980D01*
X101980588Y-77445980D02*
X101992683Y-77458076D01*
X101992683Y-77458076D02*
X102016873Y-77470171D01*
X102016873Y-77470171D02*
X102065254Y-77470171D01*
X102065254Y-77470171D02*
X102089445Y-77458076D01*
X102089445Y-77458076D02*
X102101540Y-77445980D01*
X102101540Y-77445980D02*
X102113635Y-77421790D01*
X126518588Y-69725028D02*
X126494398Y-69712933D01*
X126494398Y-69712933D02*
X126458112Y-69712933D01*
X126458112Y-69712933D02*
X126421826Y-69725028D01*
X126421826Y-69725028D02*
X126397636Y-69749218D01*
X126397636Y-69749218D02*
X126385541Y-69773409D01*
X126385541Y-69773409D02*
X126373445Y-69821790D01*
X126373445Y-69821790D02*
X126373445Y-69858076D01*
X126373445Y-69858076D02*
X126385541Y-69906457D01*
X126385541Y-69906457D02*
X126397636Y-69930647D01*
X126397636Y-69930647D02*
X126421826Y-69954838D01*
X126421826Y-69954838D02*
X126458112Y-69966933D01*
X126458112Y-69966933D02*
X126482303Y-69966933D01*
X126482303Y-69966933D02*
X126518588Y-69954838D01*
X126518588Y-69954838D02*
X126530684Y-69942742D01*
X126530684Y-69942742D02*
X126530684Y-69858076D01*
X126530684Y-69858076D02*
X126482303Y-69858076D01*
X126639541Y-69966933D02*
X126639541Y-69712933D01*
X126639541Y-69712933D02*
X126736303Y-69712933D01*
X126736303Y-69712933D02*
X126760493Y-69725028D01*
X126760493Y-69725028D02*
X126772588Y-69737123D01*
X126772588Y-69737123D02*
X126784684Y-69761314D01*
X126784684Y-69761314D02*
X126784684Y-69797599D01*
X126784684Y-69797599D02*
X126772588Y-69821790D01*
X126772588Y-69821790D02*
X126760493Y-69833885D01*
X126760493Y-69833885D02*
X126736303Y-69845980D01*
X126736303Y-69845980D02*
X126639541Y-69845980D01*
X126893541Y-69966933D02*
X126893541Y-69712933D01*
X127062874Y-69712933D02*
X127111255Y-69712933D01*
X127111255Y-69712933D02*
X127135445Y-69725028D01*
X127135445Y-69725028D02*
X127159636Y-69749218D01*
X127159636Y-69749218D02*
X127171731Y-69797599D01*
X127171731Y-69797599D02*
X127171731Y-69882266D01*
X127171731Y-69882266D02*
X127159636Y-69930647D01*
X127159636Y-69930647D02*
X127135445Y-69954838D01*
X127135445Y-69954838D02*
X127111255Y-69966933D01*
X127111255Y-69966933D02*
X127062874Y-69966933D01*
X127062874Y-69966933D02*
X127038683Y-69954838D01*
X127038683Y-69954838D02*
X127014493Y-69930647D01*
X127014493Y-69930647D02*
X127002397Y-69882266D01*
X127002397Y-69882266D02*
X127002397Y-69797599D01*
X127002397Y-69797599D02*
X127014493Y-69749218D01*
X127014493Y-69749218D02*
X127038683Y-69725028D01*
X127038683Y-69725028D02*
X127062874Y-69712933D01*
X127256397Y-69712933D02*
X127413635Y-69712933D01*
X127413635Y-69712933D02*
X127328969Y-69809695D01*
X127328969Y-69809695D02*
X127365254Y-69809695D01*
X127365254Y-69809695D02*
X127389445Y-69821790D01*
X127389445Y-69821790D02*
X127401540Y-69833885D01*
X127401540Y-69833885D02*
X127413635Y-69858076D01*
X127413635Y-69858076D02*
X127413635Y-69918552D01*
X127413635Y-69918552D02*
X127401540Y-69942742D01*
X127401540Y-69942742D02*
X127389445Y-69954838D01*
X127389445Y-69954838D02*
X127365254Y-69966933D01*
X127365254Y-69966933D02*
X127292683Y-69966933D01*
X127292683Y-69966933D02*
X127268492Y-69954838D01*
X127268492Y-69954838D02*
X127256397Y-69942742D01*
X127631350Y-69712933D02*
X127582969Y-69712933D01*
X127582969Y-69712933D02*
X127558778Y-69725028D01*
X127558778Y-69725028D02*
X127546683Y-69737123D01*
X127546683Y-69737123D02*
X127522493Y-69773409D01*
X127522493Y-69773409D02*
X127510397Y-69821790D01*
X127510397Y-69821790D02*
X127510397Y-69918552D01*
X127510397Y-69918552D02*
X127522493Y-69942742D01*
X127522493Y-69942742D02*
X127534588Y-69954838D01*
X127534588Y-69954838D02*
X127558778Y-69966933D01*
X127558778Y-69966933D02*
X127607159Y-69966933D01*
X127607159Y-69966933D02*
X127631350Y-69954838D01*
X127631350Y-69954838D02*
X127643445Y-69942742D01*
X127643445Y-69942742D02*
X127655540Y-69918552D01*
X127655540Y-69918552D02*
X127655540Y-69858076D01*
X127655540Y-69858076D02*
X127643445Y-69833885D01*
X127643445Y-69833885D02*
X127631350Y-69821790D01*
X127631350Y-69821790D02*
X127607159Y-69809695D01*
X127607159Y-69809695D02*
X127558778Y-69809695D01*
X127558778Y-69809695D02*
X127534588Y-69821790D01*
X127534588Y-69821790D02*
X127522493Y-69833885D01*
X127522493Y-69833885D02*
X127510397Y-69858076D01*
X101218588Y-69725028D02*
X101194398Y-69712933D01*
X101194398Y-69712933D02*
X101158112Y-69712933D01*
X101158112Y-69712933D02*
X101121826Y-69725028D01*
X101121826Y-69725028D02*
X101097636Y-69749218D01*
X101097636Y-69749218D02*
X101085541Y-69773409D01*
X101085541Y-69773409D02*
X101073445Y-69821790D01*
X101073445Y-69821790D02*
X101073445Y-69858076D01*
X101073445Y-69858076D02*
X101085541Y-69906457D01*
X101085541Y-69906457D02*
X101097636Y-69930647D01*
X101097636Y-69930647D02*
X101121826Y-69954838D01*
X101121826Y-69954838D02*
X101158112Y-69966933D01*
X101158112Y-69966933D02*
X101182303Y-69966933D01*
X101182303Y-69966933D02*
X101218588Y-69954838D01*
X101218588Y-69954838D02*
X101230684Y-69942742D01*
X101230684Y-69942742D02*
X101230684Y-69858076D01*
X101230684Y-69858076D02*
X101182303Y-69858076D01*
X101339541Y-69966933D02*
X101339541Y-69712933D01*
X101339541Y-69712933D02*
X101436303Y-69712933D01*
X101436303Y-69712933D02*
X101460493Y-69725028D01*
X101460493Y-69725028D02*
X101472588Y-69737123D01*
X101472588Y-69737123D02*
X101484684Y-69761314D01*
X101484684Y-69761314D02*
X101484684Y-69797599D01*
X101484684Y-69797599D02*
X101472588Y-69821790D01*
X101472588Y-69821790D02*
X101460493Y-69833885D01*
X101460493Y-69833885D02*
X101436303Y-69845980D01*
X101436303Y-69845980D02*
X101339541Y-69845980D01*
X101593541Y-69966933D02*
X101593541Y-69712933D01*
X101762874Y-69712933D02*
X101811255Y-69712933D01*
X101811255Y-69712933D02*
X101835445Y-69725028D01*
X101835445Y-69725028D02*
X101859636Y-69749218D01*
X101859636Y-69749218D02*
X101871731Y-69797599D01*
X101871731Y-69797599D02*
X101871731Y-69882266D01*
X101871731Y-69882266D02*
X101859636Y-69930647D01*
X101859636Y-69930647D02*
X101835445Y-69954838D01*
X101835445Y-69954838D02*
X101811255Y-69966933D01*
X101811255Y-69966933D02*
X101762874Y-69966933D01*
X101762874Y-69966933D02*
X101738683Y-69954838D01*
X101738683Y-69954838D02*
X101714493Y-69930647D01*
X101714493Y-69930647D02*
X101702397Y-69882266D01*
X101702397Y-69882266D02*
X101702397Y-69797599D01*
X101702397Y-69797599D02*
X101714493Y-69749218D01*
X101714493Y-69749218D02*
X101738683Y-69725028D01*
X101738683Y-69725028D02*
X101762874Y-69712933D01*
X102016873Y-69821790D02*
X101992683Y-69809695D01*
X101992683Y-69809695D02*
X101980588Y-69797599D01*
X101980588Y-69797599D02*
X101968492Y-69773409D01*
X101968492Y-69773409D02*
X101968492Y-69761314D01*
X101968492Y-69761314D02*
X101980588Y-69737123D01*
X101980588Y-69737123D02*
X101992683Y-69725028D01*
X101992683Y-69725028D02*
X102016873Y-69712933D01*
X102016873Y-69712933D02*
X102065254Y-69712933D01*
X102065254Y-69712933D02*
X102089445Y-69725028D01*
X102089445Y-69725028D02*
X102101540Y-69737123D01*
X102101540Y-69737123D02*
X102113635Y-69761314D01*
X102113635Y-69761314D02*
X102113635Y-69773409D01*
X102113635Y-69773409D02*
X102101540Y-69797599D01*
X102101540Y-69797599D02*
X102089445Y-69809695D01*
X102089445Y-69809695D02*
X102065254Y-69821790D01*
X102065254Y-69821790D02*
X102016873Y-69821790D01*
X102016873Y-69821790D02*
X101992683Y-69833885D01*
X101992683Y-69833885D02*
X101980588Y-69845980D01*
X101980588Y-69845980D02*
X101968492Y-69870171D01*
X101968492Y-69870171D02*
X101968492Y-69918552D01*
X101968492Y-69918552D02*
X101980588Y-69942742D01*
X101980588Y-69942742D02*
X101992683Y-69954838D01*
X101992683Y-69954838D02*
X102016873Y-69966933D01*
X102016873Y-69966933D02*
X102065254Y-69966933D01*
X102065254Y-69966933D02*
X102089445Y-69954838D01*
X102089445Y-69954838D02*
X102101540Y-69942742D01*
X102101540Y-69942742D02*
X102113635Y-69918552D01*
X102113635Y-69918552D02*
X102113635Y-69870171D01*
X102113635Y-69870171D02*
X102101540Y-69845980D01*
X102101540Y-69845980D02*
X102089445Y-69833885D01*
X102089445Y-69833885D02*
X102065254Y-69821790D01*
X101118588Y-67125028D02*
X101094398Y-67112933D01*
X101094398Y-67112933D02*
X101058112Y-67112933D01*
X101058112Y-67112933D02*
X101021826Y-67125028D01*
X101021826Y-67125028D02*
X100997636Y-67149218D01*
X100997636Y-67149218D02*
X100985541Y-67173409D01*
X100985541Y-67173409D02*
X100973445Y-67221790D01*
X100973445Y-67221790D02*
X100973445Y-67258076D01*
X100973445Y-67258076D02*
X100985541Y-67306457D01*
X100985541Y-67306457D02*
X100997636Y-67330647D01*
X100997636Y-67330647D02*
X101021826Y-67354838D01*
X101021826Y-67354838D02*
X101058112Y-67366933D01*
X101058112Y-67366933D02*
X101082303Y-67366933D01*
X101082303Y-67366933D02*
X101118588Y-67354838D01*
X101118588Y-67354838D02*
X101130684Y-67342742D01*
X101130684Y-67342742D02*
X101130684Y-67258076D01*
X101130684Y-67258076D02*
X101082303Y-67258076D01*
X101239541Y-67366933D02*
X101239541Y-67112933D01*
X101239541Y-67112933D02*
X101336303Y-67112933D01*
X101336303Y-67112933D02*
X101360493Y-67125028D01*
X101360493Y-67125028D02*
X101372588Y-67137123D01*
X101372588Y-67137123D02*
X101384684Y-67161314D01*
X101384684Y-67161314D02*
X101384684Y-67197599D01*
X101384684Y-67197599D02*
X101372588Y-67221790D01*
X101372588Y-67221790D02*
X101360493Y-67233885D01*
X101360493Y-67233885D02*
X101336303Y-67245980D01*
X101336303Y-67245980D02*
X101239541Y-67245980D01*
X101493541Y-67366933D02*
X101493541Y-67112933D01*
X101662874Y-67112933D02*
X101711255Y-67112933D01*
X101711255Y-67112933D02*
X101735445Y-67125028D01*
X101735445Y-67125028D02*
X101759636Y-67149218D01*
X101759636Y-67149218D02*
X101771731Y-67197599D01*
X101771731Y-67197599D02*
X101771731Y-67282266D01*
X101771731Y-67282266D02*
X101759636Y-67330647D01*
X101759636Y-67330647D02*
X101735445Y-67354838D01*
X101735445Y-67354838D02*
X101711255Y-67366933D01*
X101711255Y-67366933D02*
X101662874Y-67366933D01*
X101662874Y-67366933D02*
X101638683Y-67354838D01*
X101638683Y-67354838D02*
X101614493Y-67330647D01*
X101614493Y-67330647D02*
X101602397Y-67282266D01*
X101602397Y-67282266D02*
X101602397Y-67197599D01*
X101602397Y-67197599D02*
X101614493Y-67149218D01*
X101614493Y-67149218D02*
X101638683Y-67125028D01*
X101638683Y-67125028D02*
X101662874Y-67112933D01*
X102013635Y-67366933D02*
X101868492Y-67366933D01*
X101941064Y-67366933D02*
X101941064Y-67112933D01*
X101941064Y-67112933D02*
X101916873Y-67149218D01*
X101916873Y-67149218D02*
X101892683Y-67173409D01*
X101892683Y-67173409D02*
X101868492Y-67185504D01*
X102158778Y-67221790D02*
X102134588Y-67209695D01*
X102134588Y-67209695D02*
X102122493Y-67197599D01*
X102122493Y-67197599D02*
X102110397Y-67173409D01*
X102110397Y-67173409D02*
X102110397Y-67161314D01*
X102110397Y-67161314D02*
X102122493Y-67137123D01*
X102122493Y-67137123D02*
X102134588Y-67125028D01*
X102134588Y-67125028D02*
X102158778Y-67112933D01*
X102158778Y-67112933D02*
X102207159Y-67112933D01*
X102207159Y-67112933D02*
X102231350Y-67125028D01*
X102231350Y-67125028D02*
X102243445Y-67137123D01*
X102243445Y-67137123D02*
X102255540Y-67161314D01*
X102255540Y-67161314D02*
X102255540Y-67173409D01*
X102255540Y-67173409D02*
X102243445Y-67197599D01*
X102243445Y-67197599D02*
X102231350Y-67209695D01*
X102231350Y-67209695D02*
X102207159Y-67221790D01*
X102207159Y-67221790D02*
X102158778Y-67221790D01*
X102158778Y-67221790D02*
X102134588Y-67233885D01*
X102134588Y-67233885D02*
X102122493Y-67245980D01*
X102122493Y-67245980D02*
X102110397Y-67270171D01*
X102110397Y-67270171D02*
X102110397Y-67318552D01*
X102110397Y-67318552D02*
X102122493Y-67342742D01*
X102122493Y-67342742D02*
X102134588Y-67354838D01*
X102134588Y-67354838D02*
X102158778Y-67366933D01*
X102158778Y-67366933D02*
X102207159Y-67366933D01*
X102207159Y-67366933D02*
X102231350Y-67354838D01*
X102231350Y-67354838D02*
X102243445Y-67342742D01*
X102243445Y-67342742D02*
X102255540Y-67318552D01*
X102255540Y-67318552D02*
X102255540Y-67270171D01*
X102255540Y-67270171D02*
X102243445Y-67245980D01*
X102243445Y-67245980D02*
X102231350Y-67233885D01*
X102231350Y-67233885D02*
X102207159Y-67221790D01*
X126818588Y-92525028D02*
X126794398Y-92512933D01*
X126794398Y-92512933D02*
X126758112Y-92512933D01*
X126758112Y-92512933D02*
X126721826Y-92525028D01*
X126721826Y-92525028D02*
X126697636Y-92549218D01*
X126697636Y-92549218D02*
X126685541Y-92573409D01*
X126685541Y-92573409D02*
X126673445Y-92621790D01*
X126673445Y-92621790D02*
X126673445Y-92658076D01*
X126673445Y-92658076D02*
X126685541Y-92706457D01*
X126685541Y-92706457D02*
X126697636Y-92730647D01*
X126697636Y-92730647D02*
X126721826Y-92754838D01*
X126721826Y-92754838D02*
X126758112Y-92766933D01*
X126758112Y-92766933D02*
X126782303Y-92766933D01*
X126782303Y-92766933D02*
X126818588Y-92754838D01*
X126818588Y-92754838D02*
X126830684Y-92742742D01*
X126830684Y-92742742D02*
X126830684Y-92658076D01*
X126830684Y-92658076D02*
X126782303Y-92658076D01*
X126939541Y-92766933D02*
X126939541Y-92512933D01*
X126939541Y-92512933D02*
X127084684Y-92766933D01*
X127084684Y-92766933D02*
X127084684Y-92512933D01*
X127205636Y-92766933D02*
X127205636Y-92512933D01*
X127205636Y-92512933D02*
X127266112Y-92512933D01*
X127266112Y-92512933D02*
X127302398Y-92525028D01*
X127302398Y-92525028D02*
X127326588Y-92549218D01*
X127326588Y-92549218D02*
X127338683Y-92573409D01*
X127338683Y-92573409D02*
X127350779Y-92621790D01*
X127350779Y-92621790D02*
X127350779Y-92658076D01*
X127350779Y-92658076D02*
X127338683Y-92706457D01*
X127338683Y-92706457D02*
X127326588Y-92730647D01*
X127326588Y-92730647D02*
X127302398Y-92754838D01*
X127302398Y-92754838D02*
X127266112Y-92766933D01*
X127266112Y-92766933D02*
X127205636Y-92766933D01*
X126818588Y-95125028D02*
X126794398Y-95112933D01*
X126794398Y-95112933D02*
X126758112Y-95112933D01*
X126758112Y-95112933D02*
X126721826Y-95125028D01*
X126721826Y-95125028D02*
X126697636Y-95149218D01*
X126697636Y-95149218D02*
X126685541Y-95173409D01*
X126685541Y-95173409D02*
X126673445Y-95221790D01*
X126673445Y-95221790D02*
X126673445Y-95258076D01*
X126673445Y-95258076D02*
X126685541Y-95306457D01*
X126685541Y-95306457D02*
X126697636Y-95330647D01*
X126697636Y-95330647D02*
X126721826Y-95354838D01*
X126721826Y-95354838D02*
X126758112Y-95366933D01*
X126758112Y-95366933D02*
X126782303Y-95366933D01*
X126782303Y-95366933D02*
X126818588Y-95354838D01*
X126818588Y-95354838D02*
X126830684Y-95342742D01*
X126830684Y-95342742D02*
X126830684Y-95258076D01*
X126830684Y-95258076D02*
X126782303Y-95258076D01*
X126939541Y-95366933D02*
X126939541Y-95112933D01*
X126939541Y-95112933D02*
X127084684Y-95366933D01*
X127084684Y-95366933D02*
X127084684Y-95112933D01*
X127205636Y-95366933D02*
X127205636Y-95112933D01*
X127205636Y-95112933D02*
X127266112Y-95112933D01*
X127266112Y-95112933D02*
X127302398Y-95125028D01*
X127302398Y-95125028D02*
X127326588Y-95149218D01*
X127326588Y-95149218D02*
X127338683Y-95173409D01*
X127338683Y-95173409D02*
X127350779Y-95221790D01*
X127350779Y-95221790D02*
X127350779Y-95258076D01*
X127350779Y-95258076D02*
X127338683Y-95306457D01*
X127338683Y-95306457D02*
X127326588Y-95330647D01*
X127326588Y-95330647D02*
X127302398Y-95354838D01*
X127302398Y-95354838D02*
X127266112Y-95366933D01*
X127266112Y-95366933D02*
X127205636Y-95366933D01*
X126518588Y-54425028D02*
X126494398Y-54412933D01*
X126494398Y-54412933D02*
X126458112Y-54412933D01*
X126458112Y-54412933D02*
X126421826Y-54425028D01*
X126421826Y-54425028D02*
X126397636Y-54449218D01*
X126397636Y-54449218D02*
X126385541Y-54473409D01*
X126385541Y-54473409D02*
X126373445Y-54521790D01*
X126373445Y-54521790D02*
X126373445Y-54558076D01*
X126373445Y-54558076D02*
X126385541Y-54606457D01*
X126385541Y-54606457D02*
X126397636Y-54630647D01*
X126397636Y-54630647D02*
X126421826Y-54654838D01*
X126421826Y-54654838D02*
X126458112Y-54666933D01*
X126458112Y-54666933D02*
X126482303Y-54666933D01*
X126482303Y-54666933D02*
X126518588Y-54654838D01*
X126518588Y-54654838D02*
X126530684Y-54642742D01*
X126530684Y-54642742D02*
X126530684Y-54558076D01*
X126530684Y-54558076D02*
X126482303Y-54558076D01*
X126639541Y-54666933D02*
X126639541Y-54412933D01*
X126639541Y-54412933D02*
X126736303Y-54412933D01*
X126736303Y-54412933D02*
X126760493Y-54425028D01*
X126760493Y-54425028D02*
X126772588Y-54437123D01*
X126772588Y-54437123D02*
X126784684Y-54461314D01*
X126784684Y-54461314D02*
X126784684Y-54497599D01*
X126784684Y-54497599D02*
X126772588Y-54521790D01*
X126772588Y-54521790D02*
X126760493Y-54533885D01*
X126760493Y-54533885D02*
X126736303Y-54545980D01*
X126736303Y-54545980D02*
X126639541Y-54545980D01*
X126893541Y-54666933D02*
X126893541Y-54412933D01*
X127062874Y-54412933D02*
X127111255Y-54412933D01*
X127111255Y-54412933D02*
X127135445Y-54425028D01*
X127135445Y-54425028D02*
X127159636Y-54449218D01*
X127159636Y-54449218D02*
X127171731Y-54497599D01*
X127171731Y-54497599D02*
X127171731Y-54582266D01*
X127171731Y-54582266D02*
X127159636Y-54630647D01*
X127159636Y-54630647D02*
X127135445Y-54654838D01*
X127135445Y-54654838D02*
X127111255Y-54666933D01*
X127111255Y-54666933D02*
X127062874Y-54666933D01*
X127062874Y-54666933D02*
X127038683Y-54654838D01*
X127038683Y-54654838D02*
X127014493Y-54630647D01*
X127014493Y-54630647D02*
X127002397Y-54582266D01*
X127002397Y-54582266D02*
X127002397Y-54497599D01*
X127002397Y-54497599D02*
X127014493Y-54449218D01*
X127014493Y-54449218D02*
X127038683Y-54425028D01*
X127038683Y-54425028D02*
X127062874Y-54412933D01*
X127389445Y-54497599D02*
X127389445Y-54666933D01*
X127328969Y-54400838D02*
X127268492Y-54582266D01*
X127268492Y-54582266D02*
X127425731Y-54582266D01*
X127510397Y-54437123D02*
X127522493Y-54425028D01*
X127522493Y-54425028D02*
X127546683Y-54412933D01*
X127546683Y-54412933D02*
X127607159Y-54412933D01*
X127607159Y-54412933D02*
X127631350Y-54425028D01*
X127631350Y-54425028D02*
X127643445Y-54437123D01*
X127643445Y-54437123D02*
X127655540Y-54461314D01*
X127655540Y-54461314D02*
X127655540Y-54485504D01*
X127655540Y-54485504D02*
X127643445Y-54521790D01*
X127643445Y-54521790D02*
X127498302Y-54666933D01*
X127498302Y-54666933D02*
X127655540Y-54666933D01*
X101118588Y-79825028D02*
X101094398Y-79812933D01*
X101094398Y-79812933D02*
X101058112Y-79812933D01*
X101058112Y-79812933D02*
X101021826Y-79825028D01*
X101021826Y-79825028D02*
X100997636Y-79849218D01*
X100997636Y-79849218D02*
X100985541Y-79873409D01*
X100985541Y-79873409D02*
X100973445Y-79921790D01*
X100973445Y-79921790D02*
X100973445Y-79958076D01*
X100973445Y-79958076D02*
X100985541Y-80006457D01*
X100985541Y-80006457D02*
X100997636Y-80030647D01*
X100997636Y-80030647D02*
X101021826Y-80054838D01*
X101021826Y-80054838D02*
X101058112Y-80066933D01*
X101058112Y-80066933D02*
X101082303Y-80066933D01*
X101082303Y-80066933D02*
X101118588Y-80054838D01*
X101118588Y-80054838D02*
X101130684Y-80042742D01*
X101130684Y-80042742D02*
X101130684Y-79958076D01*
X101130684Y-79958076D02*
X101082303Y-79958076D01*
X101239541Y-80066933D02*
X101239541Y-79812933D01*
X101239541Y-79812933D02*
X101336303Y-79812933D01*
X101336303Y-79812933D02*
X101360493Y-79825028D01*
X101360493Y-79825028D02*
X101372588Y-79837123D01*
X101372588Y-79837123D02*
X101384684Y-79861314D01*
X101384684Y-79861314D02*
X101384684Y-79897599D01*
X101384684Y-79897599D02*
X101372588Y-79921790D01*
X101372588Y-79921790D02*
X101360493Y-79933885D01*
X101360493Y-79933885D02*
X101336303Y-79945980D01*
X101336303Y-79945980D02*
X101239541Y-79945980D01*
X101493541Y-80066933D02*
X101493541Y-79812933D01*
X101662874Y-79812933D02*
X101711255Y-79812933D01*
X101711255Y-79812933D02*
X101735445Y-79825028D01*
X101735445Y-79825028D02*
X101759636Y-79849218D01*
X101759636Y-79849218D02*
X101771731Y-79897599D01*
X101771731Y-79897599D02*
X101771731Y-79982266D01*
X101771731Y-79982266D02*
X101759636Y-80030647D01*
X101759636Y-80030647D02*
X101735445Y-80054838D01*
X101735445Y-80054838D02*
X101711255Y-80066933D01*
X101711255Y-80066933D02*
X101662874Y-80066933D01*
X101662874Y-80066933D02*
X101638683Y-80054838D01*
X101638683Y-80054838D02*
X101614493Y-80030647D01*
X101614493Y-80030647D02*
X101602397Y-79982266D01*
X101602397Y-79982266D02*
X101602397Y-79897599D01*
X101602397Y-79897599D02*
X101614493Y-79849218D01*
X101614493Y-79849218D02*
X101638683Y-79825028D01*
X101638683Y-79825028D02*
X101662874Y-79812933D01*
X102013635Y-80066933D02*
X101868492Y-80066933D01*
X101941064Y-80066933D02*
X101941064Y-79812933D01*
X101941064Y-79812933D02*
X101916873Y-79849218D01*
X101916873Y-79849218D02*
X101892683Y-79873409D01*
X101892683Y-79873409D02*
X101868492Y-79885504D01*
X102170874Y-79812933D02*
X102195064Y-79812933D01*
X102195064Y-79812933D02*
X102219255Y-79825028D01*
X102219255Y-79825028D02*
X102231350Y-79837123D01*
X102231350Y-79837123D02*
X102243445Y-79861314D01*
X102243445Y-79861314D02*
X102255540Y-79909695D01*
X102255540Y-79909695D02*
X102255540Y-79970171D01*
X102255540Y-79970171D02*
X102243445Y-80018552D01*
X102243445Y-80018552D02*
X102231350Y-80042742D01*
X102231350Y-80042742D02*
X102219255Y-80054838D01*
X102219255Y-80054838D02*
X102195064Y-80066933D01*
X102195064Y-80066933D02*
X102170874Y-80066933D01*
X102170874Y-80066933D02*
X102146683Y-80054838D01*
X102146683Y-80054838D02*
X102134588Y-80042742D01*
X102134588Y-80042742D02*
X102122493Y-80018552D01*
X102122493Y-80018552D02*
X102110397Y-79970171D01*
X102110397Y-79970171D02*
X102110397Y-79909695D01*
X102110397Y-79909695D02*
X102122493Y-79861314D01*
X102122493Y-79861314D02*
X102134588Y-79837123D01*
X102134588Y-79837123D02*
X102146683Y-79825028D01*
X102146683Y-79825028D02*
X102170874Y-79812933D01*
X101118588Y-74825028D02*
X101094398Y-74812933D01*
X101094398Y-74812933D02*
X101058112Y-74812933D01*
X101058112Y-74812933D02*
X101021826Y-74825028D01*
X101021826Y-74825028D02*
X100997636Y-74849218D01*
X100997636Y-74849218D02*
X100985541Y-74873409D01*
X100985541Y-74873409D02*
X100973445Y-74921790D01*
X100973445Y-74921790D02*
X100973445Y-74958076D01*
X100973445Y-74958076D02*
X100985541Y-75006457D01*
X100985541Y-75006457D02*
X100997636Y-75030647D01*
X100997636Y-75030647D02*
X101021826Y-75054838D01*
X101021826Y-75054838D02*
X101058112Y-75066933D01*
X101058112Y-75066933D02*
X101082303Y-75066933D01*
X101082303Y-75066933D02*
X101118588Y-75054838D01*
X101118588Y-75054838D02*
X101130684Y-75042742D01*
X101130684Y-75042742D02*
X101130684Y-74958076D01*
X101130684Y-74958076D02*
X101082303Y-74958076D01*
X101239541Y-75066933D02*
X101239541Y-74812933D01*
X101239541Y-74812933D02*
X101336303Y-74812933D01*
X101336303Y-74812933D02*
X101360493Y-74825028D01*
X101360493Y-74825028D02*
X101372588Y-74837123D01*
X101372588Y-74837123D02*
X101384684Y-74861314D01*
X101384684Y-74861314D02*
X101384684Y-74897599D01*
X101384684Y-74897599D02*
X101372588Y-74921790D01*
X101372588Y-74921790D02*
X101360493Y-74933885D01*
X101360493Y-74933885D02*
X101336303Y-74945980D01*
X101336303Y-74945980D02*
X101239541Y-74945980D01*
X101493541Y-75066933D02*
X101493541Y-74812933D01*
X101662874Y-74812933D02*
X101711255Y-74812933D01*
X101711255Y-74812933D02*
X101735445Y-74825028D01*
X101735445Y-74825028D02*
X101759636Y-74849218D01*
X101759636Y-74849218D02*
X101771731Y-74897599D01*
X101771731Y-74897599D02*
X101771731Y-74982266D01*
X101771731Y-74982266D02*
X101759636Y-75030647D01*
X101759636Y-75030647D02*
X101735445Y-75054838D01*
X101735445Y-75054838D02*
X101711255Y-75066933D01*
X101711255Y-75066933D02*
X101662874Y-75066933D01*
X101662874Y-75066933D02*
X101638683Y-75054838D01*
X101638683Y-75054838D02*
X101614493Y-75030647D01*
X101614493Y-75030647D02*
X101602397Y-74982266D01*
X101602397Y-74982266D02*
X101602397Y-74897599D01*
X101602397Y-74897599D02*
X101614493Y-74849218D01*
X101614493Y-74849218D02*
X101638683Y-74825028D01*
X101638683Y-74825028D02*
X101662874Y-74812933D01*
X101989445Y-74897599D02*
X101989445Y-75066933D01*
X101928969Y-74800838D02*
X101868492Y-74982266D01*
X101868492Y-74982266D02*
X102025731Y-74982266D01*
X102231350Y-74812933D02*
X102182969Y-74812933D01*
X102182969Y-74812933D02*
X102158778Y-74825028D01*
X102158778Y-74825028D02*
X102146683Y-74837123D01*
X102146683Y-74837123D02*
X102122493Y-74873409D01*
X102122493Y-74873409D02*
X102110397Y-74921790D01*
X102110397Y-74921790D02*
X102110397Y-75018552D01*
X102110397Y-75018552D02*
X102122493Y-75042742D01*
X102122493Y-75042742D02*
X102134588Y-75054838D01*
X102134588Y-75054838D02*
X102158778Y-75066933D01*
X102158778Y-75066933D02*
X102207159Y-75066933D01*
X102207159Y-75066933D02*
X102231350Y-75054838D01*
X102231350Y-75054838D02*
X102243445Y-75042742D01*
X102243445Y-75042742D02*
X102255540Y-75018552D01*
X102255540Y-75018552D02*
X102255540Y-74958076D01*
X102255540Y-74958076D02*
X102243445Y-74933885D01*
X102243445Y-74933885D02*
X102231350Y-74921790D01*
X102231350Y-74921790D02*
X102207159Y-74909695D01*
X102207159Y-74909695D02*
X102158778Y-74909695D01*
X102158778Y-74909695D02*
X102134588Y-74921790D01*
X102134588Y-74921790D02*
X102122493Y-74933885D01*
X102122493Y-74933885D02*
X102110397Y-74958076D01*
X126818588Y-41825028D02*
X126794398Y-41812933D01*
X126794398Y-41812933D02*
X126758112Y-41812933D01*
X126758112Y-41812933D02*
X126721826Y-41825028D01*
X126721826Y-41825028D02*
X126697636Y-41849218D01*
X126697636Y-41849218D02*
X126685541Y-41873409D01*
X126685541Y-41873409D02*
X126673445Y-41921790D01*
X126673445Y-41921790D02*
X126673445Y-41958076D01*
X126673445Y-41958076D02*
X126685541Y-42006457D01*
X126685541Y-42006457D02*
X126697636Y-42030647D01*
X126697636Y-42030647D02*
X126721826Y-42054838D01*
X126721826Y-42054838D02*
X126758112Y-42066933D01*
X126758112Y-42066933D02*
X126782303Y-42066933D01*
X126782303Y-42066933D02*
X126818588Y-42054838D01*
X126818588Y-42054838D02*
X126830684Y-42042742D01*
X126830684Y-42042742D02*
X126830684Y-41958076D01*
X126830684Y-41958076D02*
X126782303Y-41958076D01*
X126939541Y-42066933D02*
X126939541Y-41812933D01*
X126939541Y-41812933D02*
X127084684Y-42066933D01*
X127084684Y-42066933D02*
X127084684Y-41812933D01*
X127205636Y-42066933D02*
X127205636Y-41812933D01*
X127205636Y-41812933D02*
X127266112Y-41812933D01*
X127266112Y-41812933D02*
X127302398Y-41825028D01*
X127302398Y-41825028D02*
X127326588Y-41849218D01*
X127326588Y-41849218D02*
X127338683Y-41873409D01*
X127338683Y-41873409D02*
X127350779Y-41921790D01*
X127350779Y-41921790D02*
X127350779Y-41958076D01*
X127350779Y-41958076D02*
X127338683Y-42006457D01*
X127338683Y-42006457D02*
X127326588Y-42030647D01*
X127326588Y-42030647D02*
X127302398Y-42054838D01*
X127302398Y-42054838D02*
X127266112Y-42066933D01*
X127266112Y-42066933D02*
X127205636Y-42066933D01*
X101218588Y-54425028D02*
X101194398Y-54412933D01*
X101194398Y-54412933D02*
X101158112Y-54412933D01*
X101158112Y-54412933D02*
X101121826Y-54425028D01*
X101121826Y-54425028D02*
X101097636Y-54449218D01*
X101097636Y-54449218D02*
X101085541Y-54473409D01*
X101085541Y-54473409D02*
X101073445Y-54521790D01*
X101073445Y-54521790D02*
X101073445Y-54558076D01*
X101073445Y-54558076D02*
X101085541Y-54606457D01*
X101085541Y-54606457D02*
X101097636Y-54630647D01*
X101097636Y-54630647D02*
X101121826Y-54654838D01*
X101121826Y-54654838D02*
X101158112Y-54666933D01*
X101158112Y-54666933D02*
X101182303Y-54666933D01*
X101182303Y-54666933D02*
X101218588Y-54654838D01*
X101218588Y-54654838D02*
X101230684Y-54642742D01*
X101230684Y-54642742D02*
X101230684Y-54558076D01*
X101230684Y-54558076D02*
X101182303Y-54558076D01*
X101339541Y-54666933D02*
X101339541Y-54412933D01*
X101339541Y-54412933D02*
X101436303Y-54412933D01*
X101436303Y-54412933D02*
X101460493Y-54425028D01*
X101460493Y-54425028D02*
X101472588Y-54437123D01*
X101472588Y-54437123D02*
X101484684Y-54461314D01*
X101484684Y-54461314D02*
X101484684Y-54497599D01*
X101484684Y-54497599D02*
X101472588Y-54521790D01*
X101472588Y-54521790D02*
X101460493Y-54533885D01*
X101460493Y-54533885D02*
X101436303Y-54545980D01*
X101436303Y-54545980D02*
X101339541Y-54545980D01*
X101593541Y-54666933D02*
X101593541Y-54412933D01*
X101762874Y-54412933D02*
X101811255Y-54412933D01*
X101811255Y-54412933D02*
X101835445Y-54425028D01*
X101835445Y-54425028D02*
X101859636Y-54449218D01*
X101859636Y-54449218D02*
X101871731Y-54497599D01*
X101871731Y-54497599D02*
X101871731Y-54582266D01*
X101871731Y-54582266D02*
X101859636Y-54630647D01*
X101859636Y-54630647D02*
X101835445Y-54654838D01*
X101835445Y-54654838D02*
X101811255Y-54666933D01*
X101811255Y-54666933D02*
X101762874Y-54666933D01*
X101762874Y-54666933D02*
X101738683Y-54654838D01*
X101738683Y-54654838D02*
X101714493Y-54630647D01*
X101714493Y-54630647D02*
X101702397Y-54582266D01*
X101702397Y-54582266D02*
X101702397Y-54497599D01*
X101702397Y-54497599D02*
X101714493Y-54449218D01*
X101714493Y-54449218D02*
X101738683Y-54425028D01*
X101738683Y-54425028D02*
X101762874Y-54412933D01*
X102089445Y-54412933D02*
X102041064Y-54412933D01*
X102041064Y-54412933D02*
X102016873Y-54425028D01*
X102016873Y-54425028D02*
X102004778Y-54437123D01*
X102004778Y-54437123D02*
X101980588Y-54473409D01*
X101980588Y-54473409D02*
X101968492Y-54521790D01*
X101968492Y-54521790D02*
X101968492Y-54618552D01*
X101968492Y-54618552D02*
X101980588Y-54642742D01*
X101980588Y-54642742D02*
X101992683Y-54654838D01*
X101992683Y-54654838D02*
X102016873Y-54666933D01*
X102016873Y-54666933D02*
X102065254Y-54666933D01*
X102065254Y-54666933D02*
X102089445Y-54654838D01*
X102089445Y-54654838D02*
X102101540Y-54642742D01*
X102101540Y-54642742D02*
X102113635Y-54618552D01*
X102113635Y-54618552D02*
X102113635Y-54558076D01*
X102113635Y-54558076D02*
X102101540Y-54533885D01*
X102101540Y-54533885D02*
X102089445Y-54521790D01*
X102089445Y-54521790D02*
X102065254Y-54509695D01*
X102065254Y-54509695D02*
X102016873Y-54509695D01*
X102016873Y-54509695D02*
X101992683Y-54521790D01*
X101992683Y-54521790D02*
X101980588Y-54533885D01*
X101980588Y-54533885D02*
X101968492Y-54558076D01*
X126518588Y-79825028D02*
X126494398Y-79812933D01*
X126494398Y-79812933D02*
X126458112Y-79812933D01*
X126458112Y-79812933D02*
X126421826Y-79825028D01*
X126421826Y-79825028D02*
X126397636Y-79849218D01*
X126397636Y-79849218D02*
X126385541Y-79873409D01*
X126385541Y-79873409D02*
X126373445Y-79921790D01*
X126373445Y-79921790D02*
X126373445Y-79958076D01*
X126373445Y-79958076D02*
X126385541Y-80006457D01*
X126385541Y-80006457D02*
X126397636Y-80030647D01*
X126397636Y-80030647D02*
X126421826Y-80054838D01*
X126421826Y-80054838D02*
X126458112Y-80066933D01*
X126458112Y-80066933D02*
X126482303Y-80066933D01*
X126482303Y-80066933D02*
X126518588Y-80054838D01*
X126518588Y-80054838D02*
X126530684Y-80042742D01*
X126530684Y-80042742D02*
X126530684Y-79958076D01*
X126530684Y-79958076D02*
X126482303Y-79958076D01*
X126639541Y-80066933D02*
X126639541Y-79812933D01*
X126639541Y-79812933D02*
X126736303Y-79812933D01*
X126736303Y-79812933D02*
X126760493Y-79825028D01*
X126760493Y-79825028D02*
X126772588Y-79837123D01*
X126772588Y-79837123D02*
X126784684Y-79861314D01*
X126784684Y-79861314D02*
X126784684Y-79897599D01*
X126784684Y-79897599D02*
X126772588Y-79921790D01*
X126772588Y-79921790D02*
X126760493Y-79933885D01*
X126760493Y-79933885D02*
X126736303Y-79945980D01*
X126736303Y-79945980D02*
X126639541Y-79945980D01*
X126893541Y-80066933D02*
X126893541Y-79812933D01*
X127062874Y-79812933D02*
X127111255Y-79812933D01*
X127111255Y-79812933D02*
X127135445Y-79825028D01*
X127135445Y-79825028D02*
X127159636Y-79849218D01*
X127159636Y-79849218D02*
X127171731Y-79897599D01*
X127171731Y-79897599D02*
X127171731Y-79982266D01*
X127171731Y-79982266D02*
X127159636Y-80030647D01*
X127159636Y-80030647D02*
X127135445Y-80054838D01*
X127135445Y-80054838D02*
X127111255Y-80066933D01*
X127111255Y-80066933D02*
X127062874Y-80066933D01*
X127062874Y-80066933D02*
X127038683Y-80054838D01*
X127038683Y-80054838D02*
X127014493Y-80030647D01*
X127014493Y-80030647D02*
X127002397Y-79982266D01*
X127002397Y-79982266D02*
X127002397Y-79897599D01*
X127002397Y-79897599D02*
X127014493Y-79849218D01*
X127014493Y-79849218D02*
X127038683Y-79825028D01*
X127038683Y-79825028D02*
X127062874Y-79812933D01*
X127389445Y-79897599D02*
X127389445Y-80066933D01*
X127328969Y-79800838D02*
X127268492Y-79982266D01*
X127268492Y-79982266D02*
X127425731Y-79982266D01*
X127558778Y-79921790D02*
X127534588Y-79909695D01*
X127534588Y-79909695D02*
X127522493Y-79897599D01*
X127522493Y-79897599D02*
X127510397Y-79873409D01*
X127510397Y-79873409D02*
X127510397Y-79861314D01*
X127510397Y-79861314D02*
X127522493Y-79837123D01*
X127522493Y-79837123D02*
X127534588Y-79825028D01*
X127534588Y-79825028D02*
X127558778Y-79812933D01*
X127558778Y-79812933D02*
X127607159Y-79812933D01*
X127607159Y-79812933D02*
X127631350Y-79825028D01*
X127631350Y-79825028D02*
X127643445Y-79837123D01*
X127643445Y-79837123D02*
X127655540Y-79861314D01*
X127655540Y-79861314D02*
X127655540Y-79873409D01*
X127655540Y-79873409D02*
X127643445Y-79897599D01*
X127643445Y-79897599D02*
X127631350Y-79909695D01*
X127631350Y-79909695D02*
X127607159Y-79921790D01*
X127607159Y-79921790D02*
X127558778Y-79921790D01*
X127558778Y-79921790D02*
X127534588Y-79933885D01*
X127534588Y-79933885D02*
X127522493Y-79945980D01*
X127522493Y-79945980D02*
X127510397Y-79970171D01*
X127510397Y-79970171D02*
X127510397Y-80018552D01*
X127510397Y-80018552D02*
X127522493Y-80042742D01*
X127522493Y-80042742D02*
X127534588Y-80054838D01*
X127534588Y-80054838D02*
X127558778Y-80066933D01*
X127558778Y-80066933D02*
X127607159Y-80066933D01*
X127607159Y-80066933D02*
X127631350Y-80054838D01*
X127631350Y-80054838D02*
X127643445Y-80042742D01*
X127643445Y-80042742D02*
X127655540Y-80018552D01*
X127655540Y-80018552D02*
X127655540Y-79970171D01*
X127655540Y-79970171D02*
X127643445Y-79945980D01*
X127643445Y-79945980D02*
X127631350Y-79933885D01*
X127631350Y-79933885D02*
X127607159Y-79921790D01*
X126518588Y-77325028D02*
X126494398Y-77312933D01*
X126494398Y-77312933D02*
X126458112Y-77312933D01*
X126458112Y-77312933D02*
X126421826Y-77325028D01*
X126421826Y-77325028D02*
X126397636Y-77349218D01*
X126397636Y-77349218D02*
X126385541Y-77373409D01*
X126385541Y-77373409D02*
X126373445Y-77421790D01*
X126373445Y-77421790D02*
X126373445Y-77458076D01*
X126373445Y-77458076D02*
X126385541Y-77506457D01*
X126385541Y-77506457D02*
X126397636Y-77530647D01*
X126397636Y-77530647D02*
X126421826Y-77554838D01*
X126421826Y-77554838D02*
X126458112Y-77566933D01*
X126458112Y-77566933D02*
X126482303Y-77566933D01*
X126482303Y-77566933D02*
X126518588Y-77554838D01*
X126518588Y-77554838D02*
X126530684Y-77542742D01*
X126530684Y-77542742D02*
X126530684Y-77458076D01*
X126530684Y-77458076D02*
X126482303Y-77458076D01*
X126639541Y-77566933D02*
X126639541Y-77312933D01*
X126639541Y-77312933D02*
X126736303Y-77312933D01*
X126736303Y-77312933D02*
X126760493Y-77325028D01*
X126760493Y-77325028D02*
X126772588Y-77337123D01*
X126772588Y-77337123D02*
X126784684Y-77361314D01*
X126784684Y-77361314D02*
X126784684Y-77397599D01*
X126784684Y-77397599D02*
X126772588Y-77421790D01*
X126772588Y-77421790D02*
X126760493Y-77433885D01*
X126760493Y-77433885D02*
X126736303Y-77445980D01*
X126736303Y-77445980D02*
X126639541Y-77445980D01*
X126893541Y-77566933D02*
X126893541Y-77312933D01*
X127062874Y-77312933D02*
X127111255Y-77312933D01*
X127111255Y-77312933D02*
X127135445Y-77325028D01*
X127135445Y-77325028D02*
X127159636Y-77349218D01*
X127159636Y-77349218D02*
X127171731Y-77397599D01*
X127171731Y-77397599D02*
X127171731Y-77482266D01*
X127171731Y-77482266D02*
X127159636Y-77530647D01*
X127159636Y-77530647D02*
X127135445Y-77554838D01*
X127135445Y-77554838D02*
X127111255Y-77566933D01*
X127111255Y-77566933D02*
X127062874Y-77566933D01*
X127062874Y-77566933D02*
X127038683Y-77554838D01*
X127038683Y-77554838D02*
X127014493Y-77530647D01*
X127014493Y-77530647D02*
X127002397Y-77482266D01*
X127002397Y-77482266D02*
X127002397Y-77397599D01*
X127002397Y-77397599D02*
X127014493Y-77349218D01*
X127014493Y-77349218D02*
X127038683Y-77325028D01*
X127038683Y-77325028D02*
X127062874Y-77312933D01*
X127389445Y-77397599D02*
X127389445Y-77566933D01*
X127328969Y-77300838D02*
X127268492Y-77482266D01*
X127268492Y-77482266D02*
X127425731Y-77482266D01*
X127643445Y-77312933D02*
X127522493Y-77312933D01*
X127522493Y-77312933D02*
X127510397Y-77433885D01*
X127510397Y-77433885D02*
X127522493Y-77421790D01*
X127522493Y-77421790D02*
X127546683Y-77409695D01*
X127546683Y-77409695D02*
X127607159Y-77409695D01*
X127607159Y-77409695D02*
X127631350Y-77421790D01*
X127631350Y-77421790D02*
X127643445Y-77433885D01*
X127643445Y-77433885D02*
X127655540Y-77458076D01*
X127655540Y-77458076D02*
X127655540Y-77518552D01*
X127655540Y-77518552D02*
X127643445Y-77542742D01*
X127643445Y-77542742D02*
X127631350Y-77554838D01*
X127631350Y-77554838D02*
X127607159Y-77566933D01*
X127607159Y-77566933D02*
X127546683Y-77566933D01*
X127546683Y-77566933D02*
X127522493Y-77554838D01*
X127522493Y-77554838D02*
X127510397Y-77542742D01*
X101418588Y-94925028D02*
X101394398Y-94912933D01*
X101394398Y-94912933D02*
X101358112Y-94912933D01*
X101358112Y-94912933D02*
X101321826Y-94925028D01*
X101321826Y-94925028D02*
X101297636Y-94949218D01*
X101297636Y-94949218D02*
X101285541Y-94973409D01*
X101285541Y-94973409D02*
X101273445Y-95021790D01*
X101273445Y-95021790D02*
X101273445Y-95058076D01*
X101273445Y-95058076D02*
X101285541Y-95106457D01*
X101285541Y-95106457D02*
X101297636Y-95130647D01*
X101297636Y-95130647D02*
X101321826Y-95154838D01*
X101321826Y-95154838D02*
X101358112Y-95166933D01*
X101358112Y-95166933D02*
X101382303Y-95166933D01*
X101382303Y-95166933D02*
X101418588Y-95154838D01*
X101418588Y-95154838D02*
X101430684Y-95142742D01*
X101430684Y-95142742D02*
X101430684Y-95058076D01*
X101430684Y-95058076D02*
X101382303Y-95058076D01*
X101539541Y-95166933D02*
X101539541Y-94912933D01*
X101539541Y-94912933D02*
X101684684Y-95166933D01*
X101684684Y-95166933D02*
X101684684Y-94912933D01*
X101805636Y-95166933D02*
X101805636Y-94912933D01*
X101805636Y-94912933D02*
X101866112Y-94912933D01*
X101866112Y-94912933D02*
X101902398Y-94925028D01*
X101902398Y-94925028D02*
X101926588Y-94949218D01*
X101926588Y-94949218D02*
X101938683Y-94973409D01*
X101938683Y-94973409D02*
X101950779Y-95021790D01*
X101950779Y-95021790D02*
X101950779Y-95058076D01*
X101950779Y-95058076D02*
X101938683Y-95106457D01*
X101938683Y-95106457D02*
X101926588Y-95130647D01*
X101926588Y-95130647D02*
X101902398Y-95154838D01*
X101902398Y-95154838D02*
X101866112Y-95166933D01*
X101866112Y-95166933D02*
X101805636Y-95166933D01*
X127030684Y-47066933D02*
X126946017Y-46945980D01*
X126885541Y-47066933D02*
X126885541Y-46812933D01*
X126885541Y-46812933D02*
X126982303Y-46812933D01*
X126982303Y-46812933D02*
X127006493Y-46825028D01*
X127006493Y-46825028D02*
X127018588Y-46837123D01*
X127018588Y-46837123D02*
X127030684Y-46861314D01*
X127030684Y-46861314D02*
X127030684Y-46897599D01*
X127030684Y-46897599D02*
X127018588Y-46921790D01*
X127018588Y-46921790D02*
X127006493Y-46933885D01*
X127006493Y-46933885D02*
X126982303Y-46945980D01*
X126982303Y-46945980D02*
X126885541Y-46945980D01*
X127115350Y-46812933D02*
X127284684Y-47066933D01*
X127284684Y-46812933D02*
X127115350Y-47066933D01*
X101218588Y-72225028D02*
X101194398Y-72212933D01*
X101194398Y-72212933D02*
X101158112Y-72212933D01*
X101158112Y-72212933D02*
X101121826Y-72225028D01*
X101121826Y-72225028D02*
X101097636Y-72249218D01*
X101097636Y-72249218D02*
X101085541Y-72273409D01*
X101085541Y-72273409D02*
X101073445Y-72321790D01*
X101073445Y-72321790D02*
X101073445Y-72358076D01*
X101073445Y-72358076D02*
X101085541Y-72406457D01*
X101085541Y-72406457D02*
X101097636Y-72430647D01*
X101097636Y-72430647D02*
X101121826Y-72454838D01*
X101121826Y-72454838D02*
X101158112Y-72466933D01*
X101158112Y-72466933D02*
X101182303Y-72466933D01*
X101182303Y-72466933D02*
X101218588Y-72454838D01*
X101218588Y-72454838D02*
X101230684Y-72442742D01*
X101230684Y-72442742D02*
X101230684Y-72358076D01*
X101230684Y-72358076D02*
X101182303Y-72358076D01*
X101339541Y-72466933D02*
X101339541Y-72212933D01*
X101339541Y-72212933D02*
X101436303Y-72212933D01*
X101436303Y-72212933D02*
X101460493Y-72225028D01*
X101460493Y-72225028D02*
X101472588Y-72237123D01*
X101472588Y-72237123D02*
X101484684Y-72261314D01*
X101484684Y-72261314D02*
X101484684Y-72297599D01*
X101484684Y-72297599D02*
X101472588Y-72321790D01*
X101472588Y-72321790D02*
X101460493Y-72333885D01*
X101460493Y-72333885D02*
X101436303Y-72345980D01*
X101436303Y-72345980D02*
X101339541Y-72345980D01*
X101593541Y-72466933D02*
X101593541Y-72212933D01*
X101762874Y-72212933D02*
X101811255Y-72212933D01*
X101811255Y-72212933D02*
X101835445Y-72225028D01*
X101835445Y-72225028D02*
X101859636Y-72249218D01*
X101859636Y-72249218D02*
X101871731Y-72297599D01*
X101871731Y-72297599D02*
X101871731Y-72382266D01*
X101871731Y-72382266D02*
X101859636Y-72430647D01*
X101859636Y-72430647D02*
X101835445Y-72454838D01*
X101835445Y-72454838D02*
X101811255Y-72466933D01*
X101811255Y-72466933D02*
X101762874Y-72466933D01*
X101762874Y-72466933D02*
X101738683Y-72454838D01*
X101738683Y-72454838D02*
X101714493Y-72430647D01*
X101714493Y-72430647D02*
X101702397Y-72382266D01*
X101702397Y-72382266D02*
X101702397Y-72297599D01*
X101702397Y-72297599D02*
X101714493Y-72249218D01*
X101714493Y-72249218D02*
X101738683Y-72225028D01*
X101738683Y-72225028D02*
X101762874Y-72212933D01*
X101956397Y-72212933D02*
X102113635Y-72212933D01*
X102113635Y-72212933D02*
X102028969Y-72309695D01*
X102028969Y-72309695D02*
X102065254Y-72309695D01*
X102065254Y-72309695D02*
X102089445Y-72321790D01*
X102089445Y-72321790D02*
X102101540Y-72333885D01*
X102101540Y-72333885D02*
X102113635Y-72358076D01*
X102113635Y-72358076D02*
X102113635Y-72418552D01*
X102113635Y-72418552D02*
X102101540Y-72442742D01*
X102101540Y-72442742D02*
X102089445Y-72454838D01*
X102089445Y-72454838D02*
X102065254Y-72466933D01*
X102065254Y-72466933D02*
X101992683Y-72466933D01*
X101992683Y-72466933D02*
X101968492Y-72454838D01*
X101968492Y-72454838D02*
X101956397Y-72442742D01*
X126518588Y-62125028D02*
X126494398Y-62112933D01*
X126494398Y-62112933D02*
X126458112Y-62112933D01*
X126458112Y-62112933D02*
X126421826Y-62125028D01*
X126421826Y-62125028D02*
X126397636Y-62149218D01*
X126397636Y-62149218D02*
X126385541Y-62173409D01*
X126385541Y-62173409D02*
X126373445Y-62221790D01*
X126373445Y-62221790D02*
X126373445Y-62258076D01*
X126373445Y-62258076D02*
X126385541Y-62306457D01*
X126385541Y-62306457D02*
X126397636Y-62330647D01*
X126397636Y-62330647D02*
X126421826Y-62354838D01*
X126421826Y-62354838D02*
X126458112Y-62366933D01*
X126458112Y-62366933D02*
X126482303Y-62366933D01*
X126482303Y-62366933D02*
X126518588Y-62354838D01*
X126518588Y-62354838D02*
X126530684Y-62342742D01*
X126530684Y-62342742D02*
X126530684Y-62258076D01*
X126530684Y-62258076D02*
X126482303Y-62258076D01*
X126639541Y-62366933D02*
X126639541Y-62112933D01*
X126639541Y-62112933D02*
X126736303Y-62112933D01*
X126736303Y-62112933D02*
X126760493Y-62125028D01*
X126760493Y-62125028D02*
X126772588Y-62137123D01*
X126772588Y-62137123D02*
X126784684Y-62161314D01*
X126784684Y-62161314D02*
X126784684Y-62197599D01*
X126784684Y-62197599D02*
X126772588Y-62221790D01*
X126772588Y-62221790D02*
X126760493Y-62233885D01*
X126760493Y-62233885D02*
X126736303Y-62245980D01*
X126736303Y-62245980D02*
X126639541Y-62245980D01*
X126893541Y-62366933D02*
X126893541Y-62112933D01*
X127062874Y-62112933D02*
X127111255Y-62112933D01*
X127111255Y-62112933D02*
X127135445Y-62125028D01*
X127135445Y-62125028D02*
X127159636Y-62149218D01*
X127159636Y-62149218D02*
X127171731Y-62197599D01*
X127171731Y-62197599D02*
X127171731Y-62282266D01*
X127171731Y-62282266D02*
X127159636Y-62330647D01*
X127159636Y-62330647D02*
X127135445Y-62354838D01*
X127135445Y-62354838D02*
X127111255Y-62366933D01*
X127111255Y-62366933D02*
X127062874Y-62366933D01*
X127062874Y-62366933D02*
X127038683Y-62354838D01*
X127038683Y-62354838D02*
X127014493Y-62330647D01*
X127014493Y-62330647D02*
X127002397Y-62282266D01*
X127002397Y-62282266D02*
X127002397Y-62197599D01*
X127002397Y-62197599D02*
X127014493Y-62149218D01*
X127014493Y-62149218D02*
X127038683Y-62125028D01*
X127038683Y-62125028D02*
X127062874Y-62112933D01*
X127256397Y-62112933D02*
X127413635Y-62112933D01*
X127413635Y-62112933D02*
X127328969Y-62209695D01*
X127328969Y-62209695D02*
X127365254Y-62209695D01*
X127365254Y-62209695D02*
X127389445Y-62221790D01*
X127389445Y-62221790D02*
X127401540Y-62233885D01*
X127401540Y-62233885D02*
X127413635Y-62258076D01*
X127413635Y-62258076D02*
X127413635Y-62318552D01*
X127413635Y-62318552D02*
X127401540Y-62342742D01*
X127401540Y-62342742D02*
X127389445Y-62354838D01*
X127389445Y-62354838D02*
X127365254Y-62366933D01*
X127365254Y-62366933D02*
X127292683Y-62366933D01*
X127292683Y-62366933D02*
X127268492Y-62354838D01*
X127268492Y-62354838D02*
X127256397Y-62342742D01*
X127534588Y-62366933D02*
X127582969Y-62366933D01*
X127582969Y-62366933D02*
X127607159Y-62354838D01*
X127607159Y-62354838D02*
X127619255Y-62342742D01*
X127619255Y-62342742D02*
X127643445Y-62306457D01*
X127643445Y-62306457D02*
X127655540Y-62258076D01*
X127655540Y-62258076D02*
X127655540Y-62161314D01*
X127655540Y-62161314D02*
X127643445Y-62137123D01*
X127643445Y-62137123D02*
X127631350Y-62125028D01*
X127631350Y-62125028D02*
X127607159Y-62112933D01*
X127607159Y-62112933D02*
X127558778Y-62112933D01*
X127558778Y-62112933D02*
X127534588Y-62125028D01*
X127534588Y-62125028D02*
X127522493Y-62137123D01*
X127522493Y-62137123D02*
X127510397Y-62161314D01*
X127510397Y-62161314D02*
X127510397Y-62221790D01*
X127510397Y-62221790D02*
X127522493Y-62245980D01*
X127522493Y-62245980D02*
X127534588Y-62258076D01*
X127534588Y-62258076D02*
X127558778Y-62270171D01*
X127558778Y-62270171D02*
X127607159Y-62270171D01*
X127607159Y-62270171D02*
X127631350Y-62258076D01*
X127631350Y-62258076D02*
X127643445Y-62245980D01*
X127643445Y-62245980D02*
X127655540Y-62221790D01*
X126785541Y-90366933D02*
X126785541Y-90112933D01*
X126785541Y-90112933D02*
X126930684Y-90366933D01*
X126930684Y-90366933D02*
X126930684Y-90112933D01*
X127196779Y-90342742D02*
X127184683Y-90354838D01*
X127184683Y-90354838D02*
X127148398Y-90366933D01*
X127148398Y-90366933D02*
X127124207Y-90366933D01*
X127124207Y-90366933D02*
X127087921Y-90354838D01*
X127087921Y-90354838D02*
X127063731Y-90330647D01*
X127063731Y-90330647D02*
X127051636Y-90306457D01*
X127051636Y-90306457D02*
X127039540Y-90258076D01*
X127039540Y-90258076D02*
X127039540Y-90221790D01*
X127039540Y-90221790D02*
X127051636Y-90173409D01*
X127051636Y-90173409D02*
X127063731Y-90149218D01*
X127063731Y-90149218D02*
X127087921Y-90125028D01*
X127087921Y-90125028D02*
X127124207Y-90112933D01*
X127124207Y-90112933D02*
X127148398Y-90112933D01*
X127148398Y-90112933D02*
X127184683Y-90125028D01*
X127184683Y-90125028D02*
X127196779Y-90137123D01*
X126618588Y-51925028D02*
X126594398Y-51912933D01*
X126594398Y-51912933D02*
X126558112Y-51912933D01*
X126558112Y-51912933D02*
X126521826Y-51925028D01*
X126521826Y-51925028D02*
X126497636Y-51949218D01*
X126497636Y-51949218D02*
X126485541Y-51973409D01*
X126485541Y-51973409D02*
X126473445Y-52021790D01*
X126473445Y-52021790D02*
X126473445Y-52058076D01*
X126473445Y-52058076D02*
X126485541Y-52106457D01*
X126485541Y-52106457D02*
X126497636Y-52130647D01*
X126497636Y-52130647D02*
X126521826Y-52154838D01*
X126521826Y-52154838D02*
X126558112Y-52166933D01*
X126558112Y-52166933D02*
X126582303Y-52166933D01*
X126582303Y-52166933D02*
X126618588Y-52154838D01*
X126618588Y-52154838D02*
X126630684Y-52142742D01*
X126630684Y-52142742D02*
X126630684Y-52058076D01*
X126630684Y-52058076D02*
X126582303Y-52058076D01*
X126739541Y-52166933D02*
X126739541Y-51912933D01*
X126739541Y-51912933D02*
X126836303Y-51912933D01*
X126836303Y-51912933D02*
X126860493Y-51925028D01*
X126860493Y-51925028D02*
X126872588Y-51937123D01*
X126872588Y-51937123D02*
X126884684Y-51961314D01*
X126884684Y-51961314D02*
X126884684Y-51997599D01*
X126884684Y-51997599D02*
X126872588Y-52021790D01*
X126872588Y-52021790D02*
X126860493Y-52033885D01*
X126860493Y-52033885D02*
X126836303Y-52045980D01*
X126836303Y-52045980D02*
X126739541Y-52045980D01*
X126993541Y-52166933D02*
X126993541Y-51912933D01*
X127162874Y-51912933D02*
X127211255Y-51912933D01*
X127211255Y-51912933D02*
X127235445Y-51925028D01*
X127235445Y-51925028D02*
X127259636Y-51949218D01*
X127259636Y-51949218D02*
X127271731Y-51997599D01*
X127271731Y-51997599D02*
X127271731Y-52082266D01*
X127271731Y-52082266D02*
X127259636Y-52130647D01*
X127259636Y-52130647D02*
X127235445Y-52154838D01*
X127235445Y-52154838D02*
X127211255Y-52166933D01*
X127211255Y-52166933D02*
X127162874Y-52166933D01*
X127162874Y-52166933D02*
X127138683Y-52154838D01*
X127138683Y-52154838D02*
X127114493Y-52130647D01*
X127114493Y-52130647D02*
X127102397Y-52082266D01*
X127102397Y-52082266D02*
X127102397Y-51997599D01*
X127102397Y-51997599D02*
X127114493Y-51949218D01*
X127114493Y-51949218D02*
X127138683Y-51925028D01*
X127138683Y-51925028D02*
X127162874Y-51912933D01*
X127368492Y-51937123D02*
X127380588Y-51925028D01*
X127380588Y-51925028D02*
X127404778Y-51912933D01*
X127404778Y-51912933D02*
X127465254Y-51912933D01*
X127465254Y-51912933D02*
X127489445Y-51925028D01*
X127489445Y-51925028D02*
X127501540Y-51937123D01*
X127501540Y-51937123D02*
X127513635Y-51961314D01*
X127513635Y-51961314D02*
X127513635Y-51985504D01*
X127513635Y-51985504D02*
X127501540Y-52021790D01*
X127501540Y-52021790D02*
X127356397Y-52166933D01*
X127356397Y-52166933D02*
X127513635Y-52166933D01*
X101218588Y-57025028D02*
X101194398Y-57012933D01*
X101194398Y-57012933D02*
X101158112Y-57012933D01*
X101158112Y-57012933D02*
X101121826Y-57025028D01*
X101121826Y-57025028D02*
X101097636Y-57049218D01*
X101097636Y-57049218D02*
X101085541Y-57073409D01*
X101085541Y-57073409D02*
X101073445Y-57121790D01*
X101073445Y-57121790D02*
X101073445Y-57158076D01*
X101073445Y-57158076D02*
X101085541Y-57206457D01*
X101085541Y-57206457D02*
X101097636Y-57230647D01*
X101097636Y-57230647D02*
X101121826Y-57254838D01*
X101121826Y-57254838D02*
X101158112Y-57266933D01*
X101158112Y-57266933D02*
X101182303Y-57266933D01*
X101182303Y-57266933D02*
X101218588Y-57254838D01*
X101218588Y-57254838D02*
X101230684Y-57242742D01*
X101230684Y-57242742D02*
X101230684Y-57158076D01*
X101230684Y-57158076D02*
X101182303Y-57158076D01*
X101339541Y-57266933D02*
X101339541Y-57012933D01*
X101339541Y-57012933D02*
X101436303Y-57012933D01*
X101436303Y-57012933D02*
X101460493Y-57025028D01*
X101460493Y-57025028D02*
X101472588Y-57037123D01*
X101472588Y-57037123D02*
X101484684Y-57061314D01*
X101484684Y-57061314D02*
X101484684Y-57097599D01*
X101484684Y-57097599D02*
X101472588Y-57121790D01*
X101472588Y-57121790D02*
X101460493Y-57133885D01*
X101460493Y-57133885D02*
X101436303Y-57145980D01*
X101436303Y-57145980D02*
X101339541Y-57145980D01*
X101593541Y-57266933D02*
X101593541Y-57012933D01*
X101762874Y-57012933D02*
X101811255Y-57012933D01*
X101811255Y-57012933D02*
X101835445Y-57025028D01*
X101835445Y-57025028D02*
X101859636Y-57049218D01*
X101859636Y-57049218D02*
X101871731Y-57097599D01*
X101871731Y-57097599D02*
X101871731Y-57182266D01*
X101871731Y-57182266D02*
X101859636Y-57230647D01*
X101859636Y-57230647D02*
X101835445Y-57254838D01*
X101835445Y-57254838D02*
X101811255Y-57266933D01*
X101811255Y-57266933D02*
X101762874Y-57266933D01*
X101762874Y-57266933D02*
X101738683Y-57254838D01*
X101738683Y-57254838D02*
X101714493Y-57230647D01*
X101714493Y-57230647D02*
X101702397Y-57182266D01*
X101702397Y-57182266D02*
X101702397Y-57097599D01*
X101702397Y-57097599D02*
X101714493Y-57049218D01*
X101714493Y-57049218D02*
X101738683Y-57025028D01*
X101738683Y-57025028D02*
X101762874Y-57012933D01*
X101956397Y-57012933D02*
X102125731Y-57012933D01*
X102125731Y-57012933D02*
X102016873Y-57266933D01*
X101118588Y-90025028D02*
X101094398Y-90012933D01*
X101094398Y-90012933D02*
X101058112Y-90012933D01*
X101058112Y-90012933D02*
X101021826Y-90025028D01*
X101021826Y-90025028D02*
X100997636Y-90049218D01*
X100997636Y-90049218D02*
X100985541Y-90073409D01*
X100985541Y-90073409D02*
X100973445Y-90121790D01*
X100973445Y-90121790D02*
X100973445Y-90158076D01*
X100973445Y-90158076D02*
X100985541Y-90206457D01*
X100985541Y-90206457D02*
X100997636Y-90230647D01*
X100997636Y-90230647D02*
X101021826Y-90254838D01*
X101021826Y-90254838D02*
X101058112Y-90266933D01*
X101058112Y-90266933D02*
X101082303Y-90266933D01*
X101082303Y-90266933D02*
X101118588Y-90254838D01*
X101118588Y-90254838D02*
X101130684Y-90242742D01*
X101130684Y-90242742D02*
X101130684Y-90158076D01*
X101130684Y-90158076D02*
X101082303Y-90158076D01*
X101239541Y-90266933D02*
X101239541Y-90012933D01*
X101239541Y-90012933D02*
X101336303Y-90012933D01*
X101336303Y-90012933D02*
X101360493Y-90025028D01*
X101360493Y-90025028D02*
X101372588Y-90037123D01*
X101372588Y-90037123D02*
X101384684Y-90061314D01*
X101384684Y-90061314D02*
X101384684Y-90097599D01*
X101384684Y-90097599D02*
X101372588Y-90121790D01*
X101372588Y-90121790D02*
X101360493Y-90133885D01*
X101360493Y-90133885D02*
X101336303Y-90145980D01*
X101336303Y-90145980D02*
X101239541Y-90145980D01*
X101493541Y-90266933D02*
X101493541Y-90012933D01*
X101662874Y-90012933D02*
X101711255Y-90012933D01*
X101711255Y-90012933D02*
X101735445Y-90025028D01*
X101735445Y-90025028D02*
X101759636Y-90049218D01*
X101759636Y-90049218D02*
X101771731Y-90097599D01*
X101771731Y-90097599D02*
X101771731Y-90182266D01*
X101771731Y-90182266D02*
X101759636Y-90230647D01*
X101759636Y-90230647D02*
X101735445Y-90254838D01*
X101735445Y-90254838D02*
X101711255Y-90266933D01*
X101711255Y-90266933D02*
X101662874Y-90266933D01*
X101662874Y-90266933D02*
X101638683Y-90254838D01*
X101638683Y-90254838D02*
X101614493Y-90230647D01*
X101614493Y-90230647D02*
X101602397Y-90182266D01*
X101602397Y-90182266D02*
X101602397Y-90097599D01*
X101602397Y-90097599D02*
X101614493Y-90049218D01*
X101614493Y-90049218D02*
X101638683Y-90025028D01*
X101638683Y-90025028D02*
X101662874Y-90012933D01*
X102013635Y-90266933D02*
X101868492Y-90266933D01*
X101941064Y-90266933D02*
X101941064Y-90012933D01*
X101941064Y-90012933D02*
X101916873Y-90049218D01*
X101916873Y-90049218D02*
X101892683Y-90073409D01*
X101892683Y-90073409D02*
X101868492Y-90085504D01*
X102231350Y-90097599D02*
X102231350Y-90266933D01*
X102170874Y-90000838D02*
X102110397Y-90182266D01*
X102110397Y-90182266D02*
X102267636Y-90182266D01*
X126518588Y-59525028D02*
X126494398Y-59512933D01*
X126494398Y-59512933D02*
X126458112Y-59512933D01*
X126458112Y-59512933D02*
X126421826Y-59525028D01*
X126421826Y-59525028D02*
X126397636Y-59549218D01*
X126397636Y-59549218D02*
X126385541Y-59573409D01*
X126385541Y-59573409D02*
X126373445Y-59621790D01*
X126373445Y-59621790D02*
X126373445Y-59658076D01*
X126373445Y-59658076D02*
X126385541Y-59706457D01*
X126385541Y-59706457D02*
X126397636Y-59730647D01*
X126397636Y-59730647D02*
X126421826Y-59754838D01*
X126421826Y-59754838D02*
X126458112Y-59766933D01*
X126458112Y-59766933D02*
X126482303Y-59766933D01*
X126482303Y-59766933D02*
X126518588Y-59754838D01*
X126518588Y-59754838D02*
X126530684Y-59742742D01*
X126530684Y-59742742D02*
X126530684Y-59658076D01*
X126530684Y-59658076D02*
X126482303Y-59658076D01*
X126639541Y-59766933D02*
X126639541Y-59512933D01*
X126639541Y-59512933D02*
X126736303Y-59512933D01*
X126736303Y-59512933D02*
X126760493Y-59525028D01*
X126760493Y-59525028D02*
X126772588Y-59537123D01*
X126772588Y-59537123D02*
X126784684Y-59561314D01*
X126784684Y-59561314D02*
X126784684Y-59597599D01*
X126784684Y-59597599D02*
X126772588Y-59621790D01*
X126772588Y-59621790D02*
X126760493Y-59633885D01*
X126760493Y-59633885D02*
X126736303Y-59645980D01*
X126736303Y-59645980D02*
X126639541Y-59645980D01*
X126893541Y-59766933D02*
X126893541Y-59512933D01*
X127062874Y-59512933D02*
X127111255Y-59512933D01*
X127111255Y-59512933D02*
X127135445Y-59525028D01*
X127135445Y-59525028D02*
X127159636Y-59549218D01*
X127159636Y-59549218D02*
X127171731Y-59597599D01*
X127171731Y-59597599D02*
X127171731Y-59682266D01*
X127171731Y-59682266D02*
X127159636Y-59730647D01*
X127159636Y-59730647D02*
X127135445Y-59754838D01*
X127135445Y-59754838D02*
X127111255Y-59766933D01*
X127111255Y-59766933D02*
X127062874Y-59766933D01*
X127062874Y-59766933D02*
X127038683Y-59754838D01*
X127038683Y-59754838D02*
X127014493Y-59730647D01*
X127014493Y-59730647D02*
X127002397Y-59682266D01*
X127002397Y-59682266D02*
X127002397Y-59597599D01*
X127002397Y-59597599D02*
X127014493Y-59549218D01*
X127014493Y-59549218D02*
X127038683Y-59525028D01*
X127038683Y-59525028D02*
X127062874Y-59512933D01*
X127389445Y-59597599D02*
X127389445Y-59766933D01*
X127328969Y-59500838D02*
X127268492Y-59682266D01*
X127268492Y-59682266D02*
X127425731Y-59682266D01*
X127570874Y-59512933D02*
X127595064Y-59512933D01*
X127595064Y-59512933D02*
X127619255Y-59525028D01*
X127619255Y-59525028D02*
X127631350Y-59537123D01*
X127631350Y-59537123D02*
X127643445Y-59561314D01*
X127643445Y-59561314D02*
X127655540Y-59609695D01*
X127655540Y-59609695D02*
X127655540Y-59670171D01*
X127655540Y-59670171D02*
X127643445Y-59718552D01*
X127643445Y-59718552D02*
X127631350Y-59742742D01*
X127631350Y-59742742D02*
X127619255Y-59754838D01*
X127619255Y-59754838D02*
X127595064Y-59766933D01*
X127595064Y-59766933D02*
X127570874Y-59766933D01*
X127570874Y-59766933D02*
X127546683Y-59754838D01*
X127546683Y-59754838D02*
X127534588Y-59742742D01*
X127534588Y-59742742D02*
X127522493Y-59718552D01*
X127522493Y-59718552D02*
X127510397Y-59670171D01*
X127510397Y-59670171D02*
X127510397Y-59609695D01*
X127510397Y-59609695D02*
X127522493Y-59561314D01*
X127522493Y-59561314D02*
X127534588Y-59537123D01*
X127534588Y-59537123D02*
X127546683Y-59525028D01*
X127546683Y-59525028D02*
X127570874Y-59512933D01*
X101218588Y-51925028D02*
X101194398Y-51912933D01*
X101194398Y-51912933D02*
X101158112Y-51912933D01*
X101158112Y-51912933D02*
X101121826Y-51925028D01*
X101121826Y-51925028D02*
X101097636Y-51949218D01*
X101097636Y-51949218D02*
X101085541Y-51973409D01*
X101085541Y-51973409D02*
X101073445Y-52021790D01*
X101073445Y-52021790D02*
X101073445Y-52058076D01*
X101073445Y-52058076D02*
X101085541Y-52106457D01*
X101085541Y-52106457D02*
X101097636Y-52130647D01*
X101097636Y-52130647D02*
X101121826Y-52154838D01*
X101121826Y-52154838D02*
X101158112Y-52166933D01*
X101158112Y-52166933D02*
X101182303Y-52166933D01*
X101182303Y-52166933D02*
X101218588Y-52154838D01*
X101218588Y-52154838D02*
X101230684Y-52142742D01*
X101230684Y-52142742D02*
X101230684Y-52058076D01*
X101230684Y-52058076D02*
X101182303Y-52058076D01*
X101339541Y-52166933D02*
X101339541Y-51912933D01*
X101339541Y-51912933D02*
X101436303Y-51912933D01*
X101436303Y-51912933D02*
X101460493Y-51925028D01*
X101460493Y-51925028D02*
X101472588Y-51937123D01*
X101472588Y-51937123D02*
X101484684Y-51961314D01*
X101484684Y-51961314D02*
X101484684Y-51997599D01*
X101484684Y-51997599D02*
X101472588Y-52021790D01*
X101472588Y-52021790D02*
X101460493Y-52033885D01*
X101460493Y-52033885D02*
X101436303Y-52045980D01*
X101436303Y-52045980D02*
X101339541Y-52045980D01*
X101593541Y-52166933D02*
X101593541Y-51912933D01*
X101762874Y-51912933D02*
X101811255Y-51912933D01*
X101811255Y-51912933D02*
X101835445Y-51925028D01*
X101835445Y-51925028D02*
X101859636Y-51949218D01*
X101859636Y-51949218D02*
X101871731Y-51997599D01*
X101871731Y-51997599D02*
X101871731Y-52082266D01*
X101871731Y-52082266D02*
X101859636Y-52130647D01*
X101859636Y-52130647D02*
X101835445Y-52154838D01*
X101835445Y-52154838D02*
X101811255Y-52166933D01*
X101811255Y-52166933D02*
X101762874Y-52166933D01*
X101762874Y-52166933D02*
X101738683Y-52154838D01*
X101738683Y-52154838D02*
X101714493Y-52130647D01*
X101714493Y-52130647D02*
X101702397Y-52082266D01*
X101702397Y-52082266D02*
X101702397Y-51997599D01*
X101702397Y-51997599D02*
X101714493Y-51949218D01*
X101714493Y-51949218D02*
X101738683Y-51925028D01*
X101738683Y-51925028D02*
X101762874Y-51912933D01*
X102101540Y-51912933D02*
X101980588Y-51912933D01*
X101980588Y-51912933D02*
X101968492Y-52033885D01*
X101968492Y-52033885D02*
X101980588Y-52021790D01*
X101980588Y-52021790D02*
X102004778Y-52009695D01*
X102004778Y-52009695D02*
X102065254Y-52009695D01*
X102065254Y-52009695D02*
X102089445Y-52021790D01*
X102089445Y-52021790D02*
X102101540Y-52033885D01*
X102101540Y-52033885D02*
X102113635Y-52058076D01*
X102113635Y-52058076D02*
X102113635Y-52118552D01*
X102113635Y-52118552D02*
X102101540Y-52142742D01*
X102101540Y-52142742D02*
X102089445Y-52154838D01*
X102089445Y-52154838D02*
X102065254Y-52166933D01*
X102065254Y-52166933D02*
X102004778Y-52166933D01*
X102004778Y-52166933D02*
X101980588Y-52154838D01*
X101980588Y-52154838D02*
X101968492Y-52142742D01*
X101030684Y-47042742D02*
X101018588Y-47054838D01*
X101018588Y-47054838D02*
X100982303Y-47066933D01*
X100982303Y-47066933D02*
X100958112Y-47066933D01*
X100958112Y-47066933D02*
X100921826Y-47054838D01*
X100921826Y-47054838D02*
X100897636Y-47030647D01*
X100897636Y-47030647D02*
X100885541Y-47006457D01*
X100885541Y-47006457D02*
X100873445Y-46958076D01*
X100873445Y-46958076D02*
X100873445Y-46921790D01*
X100873445Y-46921790D02*
X100885541Y-46873409D01*
X100885541Y-46873409D02*
X100897636Y-46849218D01*
X100897636Y-46849218D02*
X100921826Y-46825028D01*
X100921826Y-46825028D02*
X100958112Y-46812933D01*
X100958112Y-46812933D02*
X100982303Y-46812933D01*
X100982303Y-46812933D02*
X101018588Y-46825028D01*
X101018588Y-46825028D02*
X101030684Y-46837123D01*
X101139541Y-47066933D02*
X101139541Y-46812933D01*
X101139541Y-46933885D02*
X101284684Y-46933885D01*
X101284684Y-47066933D02*
X101284684Y-46812933D01*
X101405636Y-47066933D02*
X101405636Y-46812933D01*
X101526588Y-47066933D02*
X101526588Y-46812933D01*
X101526588Y-46812933D02*
X101623350Y-46812933D01*
X101623350Y-46812933D02*
X101647540Y-46825028D01*
X101647540Y-46825028D02*
X101659635Y-46837123D01*
X101659635Y-46837123D02*
X101671731Y-46861314D01*
X101671731Y-46861314D02*
X101671731Y-46897599D01*
X101671731Y-46897599D02*
X101659635Y-46921790D01*
X101659635Y-46921790D02*
X101647540Y-46933885D01*
X101647540Y-46933885D02*
X101623350Y-46945980D01*
X101623350Y-46945980D02*
X101526588Y-46945980D01*
X101720112Y-47091123D02*
X101913635Y-47091123D01*
X101974112Y-47066933D02*
X101974112Y-46812933D01*
X101974112Y-46812933D02*
X102070874Y-46812933D01*
X102070874Y-46812933D02*
X102095064Y-46825028D01*
X102095064Y-46825028D02*
X102107159Y-46837123D01*
X102107159Y-46837123D02*
X102119255Y-46861314D01*
X102119255Y-46861314D02*
X102119255Y-46897599D01*
X102119255Y-46897599D02*
X102107159Y-46921790D01*
X102107159Y-46921790D02*
X102095064Y-46933885D01*
X102095064Y-46933885D02*
X102070874Y-46945980D01*
X102070874Y-46945980D02*
X101974112Y-46945980D01*
X102228112Y-46812933D02*
X102228112Y-47018552D01*
X102228112Y-47018552D02*
X102240207Y-47042742D01*
X102240207Y-47042742D02*
X102252302Y-47054838D01*
X102252302Y-47054838D02*
X102276493Y-47066933D01*
X102276493Y-47066933D02*
X102324874Y-47066933D01*
X102324874Y-47066933D02*
X102349064Y-47054838D01*
X102349064Y-47054838D02*
X102361159Y-47042742D01*
X102361159Y-47042742D02*
X102373255Y-47018552D01*
X102373255Y-47018552D02*
X102373255Y-46812933D01*
X126785541Y-87766933D02*
X126785541Y-87512933D01*
X126785541Y-87512933D02*
X126930684Y-87766933D01*
X126930684Y-87766933D02*
X126930684Y-87512933D01*
X127196779Y-87742742D02*
X127184683Y-87754838D01*
X127184683Y-87754838D02*
X127148398Y-87766933D01*
X127148398Y-87766933D02*
X127124207Y-87766933D01*
X127124207Y-87766933D02*
X127087921Y-87754838D01*
X127087921Y-87754838D02*
X127063731Y-87730647D01*
X127063731Y-87730647D02*
X127051636Y-87706457D01*
X127051636Y-87706457D02*
X127039540Y-87658076D01*
X127039540Y-87658076D02*
X127039540Y-87621790D01*
X127039540Y-87621790D02*
X127051636Y-87573409D01*
X127051636Y-87573409D02*
X127063731Y-87549218D01*
X127063731Y-87549218D02*
X127087921Y-87525028D01*
X127087921Y-87525028D02*
X127124207Y-87512933D01*
X127124207Y-87512933D02*
X127148398Y-87512933D01*
X127148398Y-87512933D02*
X127184683Y-87525028D01*
X127184683Y-87525028D02*
X127196779Y-87537123D01*
D11*
X123446380Y-89647733D02*
X123922571Y-89314400D01*
X123446380Y-89076305D02*
X124446380Y-89076305D01*
X124446380Y-89076305D02*
X124446380Y-89457257D01*
X124446380Y-89457257D02*
X124398761Y-89552495D01*
X124398761Y-89552495D02*
X124351142Y-89600114D01*
X124351142Y-89600114D02*
X124255904Y-89647733D01*
X124255904Y-89647733D02*
X124113047Y-89647733D01*
X124113047Y-89647733D02*
X124017809Y-89600114D01*
X124017809Y-89600114D02*
X123970190Y-89552495D01*
X123970190Y-89552495D02*
X123922571Y-89457257D01*
X123922571Y-89457257D02*
X123922571Y-89076305D01*
X124446380Y-89981067D02*
X124446380Y-90600114D01*
X124446380Y-90600114D02*
X124065428Y-90266781D01*
X124065428Y-90266781D02*
X124065428Y-90409638D01*
X124065428Y-90409638D02*
X124017809Y-90504876D01*
X124017809Y-90504876D02*
X123970190Y-90552495D01*
X123970190Y-90552495D02*
X123874952Y-90600114D01*
X123874952Y-90600114D02*
X123636857Y-90600114D01*
X123636857Y-90600114D02*
X123541619Y-90552495D01*
X123541619Y-90552495D02*
X123494000Y-90504876D01*
X123494000Y-90504876D02*
X123446380Y-90409638D01*
X123446380Y-90409638D02*
X123446380Y-90123924D01*
X123446380Y-90123924D02*
X123494000Y-90028686D01*
X123494000Y-90028686D02*
X123541619Y-89981067D01*
X113438095Y-80304819D02*
X113438095Y-81114342D01*
X113438095Y-81114342D02*
X113485714Y-81209580D01*
X113485714Y-81209580D02*
X113533333Y-81257200D01*
X113533333Y-81257200D02*
X113628571Y-81304819D01*
X113628571Y-81304819D02*
X113819047Y-81304819D01*
X113819047Y-81304819D02*
X113914285Y-81257200D01*
X113914285Y-81257200D02*
X113961904Y-81209580D01*
X113961904Y-81209580D02*
X114009523Y-81114342D01*
X114009523Y-81114342D02*
X114009523Y-80304819D01*
X114390476Y-80304819D02*
X115009523Y-80304819D01*
X115009523Y-80304819D02*
X114676190Y-80685771D01*
X114676190Y-80685771D02*
X114819047Y-80685771D01*
X114819047Y-80685771D02*
X114914285Y-80733390D01*
X114914285Y-80733390D02*
X114961904Y-80781009D01*
X114961904Y-80781009D02*
X115009523Y-80876247D01*
X115009523Y-80876247D02*
X115009523Y-81114342D01*
X115009523Y-81114342D02*
X114961904Y-81209580D01*
X114961904Y-81209580D02*
X114914285Y-81257200D01*
X114914285Y-81257200D02*
X114819047Y-81304819D01*
X114819047Y-81304819D02*
X114533333Y-81304819D01*
X114533333Y-81304819D02*
X114438095Y-81257200D01*
X114438095Y-81257200D02*
X114390476Y-81209580D01*
X108095180Y-93711905D02*
X109095180Y-93711905D01*
X109095180Y-93711905D02*
X109095180Y-93950000D01*
X109095180Y-93950000D02*
X109047561Y-94092857D01*
X109047561Y-94092857D02*
X108952323Y-94188095D01*
X108952323Y-94188095D02*
X108857085Y-94235714D01*
X108857085Y-94235714D02*
X108666609Y-94283333D01*
X108666609Y-94283333D02*
X108523752Y-94283333D01*
X108523752Y-94283333D02*
X108333276Y-94235714D01*
X108333276Y-94235714D02*
X108238038Y-94188095D01*
X108238038Y-94188095D02*
X108142800Y-94092857D01*
X108142800Y-94092857D02*
X108095180Y-93950000D01*
X108095180Y-93950000D02*
X108095180Y-93711905D01*
X109095180Y-94616667D02*
X109095180Y-95235714D01*
X109095180Y-95235714D02*
X108714228Y-94902381D01*
X108714228Y-94902381D02*
X108714228Y-95045238D01*
X108714228Y-95045238D02*
X108666609Y-95140476D01*
X108666609Y-95140476D02*
X108618990Y-95188095D01*
X108618990Y-95188095D02*
X108523752Y-95235714D01*
X108523752Y-95235714D02*
X108285657Y-95235714D01*
X108285657Y-95235714D02*
X108190419Y-95188095D01*
X108190419Y-95188095D02*
X108142800Y-95140476D01*
X108142800Y-95140476D02*
X108095180Y-95045238D01*
X108095180Y-95045238D02*
X108095180Y-94759524D01*
X108095180Y-94759524D02*
X108142800Y-94664286D01*
X108142800Y-94664286D02*
X108190419Y-94616667D01*
X115345180Y-59807142D02*
X115821371Y-59473809D01*
X115345180Y-59235714D02*
X116345180Y-59235714D01*
X116345180Y-59235714D02*
X116345180Y-59616666D01*
X116345180Y-59616666D02*
X116297561Y-59711904D01*
X116297561Y-59711904D02*
X116249942Y-59759523D01*
X116249942Y-59759523D02*
X116154704Y-59807142D01*
X116154704Y-59807142D02*
X116011847Y-59807142D01*
X116011847Y-59807142D02*
X115916609Y-59759523D01*
X115916609Y-59759523D02*
X115868990Y-59711904D01*
X115868990Y-59711904D02*
X115821371Y-59616666D01*
X115821371Y-59616666D02*
X115821371Y-59235714D01*
X115345180Y-60759523D02*
X115345180Y-60188095D01*
X115345180Y-60473809D02*
X116345180Y-60473809D01*
X116345180Y-60473809D02*
X116202323Y-60378571D01*
X116202323Y-60378571D02*
X116107085Y-60283333D01*
X116107085Y-60283333D02*
X116059466Y-60188095D01*
X116011847Y-61616666D02*
X115345180Y-61616666D01*
X116392800Y-61378571D02*
X115678514Y-61140476D01*
X115678514Y-61140476D02*
X115678514Y-61759523D01*
X114026666Y-92884819D02*
X114026666Y-93599104D01*
X114026666Y-93599104D02*
X113979047Y-93741961D01*
X113979047Y-93741961D02*
X113883809Y-93837200D01*
X113883809Y-93837200D02*
X113740952Y-93884819D01*
X113740952Y-93884819D02*
X113645714Y-93884819D01*
X115026666Y-93884819D02*
X114455238Y-93884819D01*
X114740952Y-93884819D02*
X114740952Y-92884819D01*
X114740952Y-92884819D02*
X114645714Y-93027676D01*
X114645714Y-93027676D02*
X114550476Y-93122914D01*
X114550476Y-93122914D02*
X114455238Y-93170533D01*
X109609580Y-69166666D02*
X109657200Y-69214285D01*
X109657200Y-69214285D02*
X109704819Y-69357142D01*
X109704819Y-69357142D02*
X109704819Y-69452380D01*
X109704819Y-69452380D02*
X109657200Y-69595237D01*
X109657200Y-69595237D02*
X109561961Y-69690475D01*
X109561961Y-69690475D02*
X109466723Y-69738094D01*
X109466723Y-69738094D02*
X109276247Y-69785713D01*
X109276247Y-69785713D02*
X109133390Y-69785713D01*
X109133390Y-69785713D02*
X108942914Y-69738094D01*
X108942914Y-69738094D02*
X108847676Y-69690475D01*
X108847676Y-69690475D02*
X108752438Y-69595237D01*
X108752438Y-69595237D02*
X108704819Y-69452380D01*
X108704819Y-69452380D02*
X108704819Y-69357142D01*
X108704819Y-69357142D02*
X108752438Y-69214285D01*
X108752438Y-69214285D02*
X108800057Y-69166666D01*
X108704819Y-68261904D02*
X108704819Y-68738094D01*
X108704819Y-68738094D02*
X109181009Y-68785713D01*
X109181009Y-68785713D02*
X109133390Y-68738094D01*
X109133390Y-68738094D02*
X109085771Y-68642856D01*
X109085771Y-68642856D02*
X109085771Y-68404761D01*
X109085771Y-68404761D02*
X109133390Y-68309523D01*
X109133390Y-68309523D02*
X109181009Y-68261904D01*
X109181009Y-68261904D02*
X109276247Y-68214285D01*
X109276247Y-68214285D02*
X109514342Y-68214285D01*
X109514342Y-68214285D02*
X109609580Y-68261904D01*
X109609580Y-68261904D02*
X109657200Y-68309523D01*
X109657200Y-68309523D02*
X109704819Y-68404761D01*
X109704819Y-68404761D02*
X109704819Y-68642856D01*
X109704819Y-68642856D02*
X109657200Y-68738094D01*
X109657200Y-68738094D02*
X109609580Y-68785713D01*
X114509580Y-69166666D02*
X114557200Y-69214285D01*
X114557200Y-69214285D02*
X114604819Y-69357142D01*
X114604819Y-69357142D02*
X114604819Y-69452380D01*
X114604819Y-69452380D02*
X114557200Y-69595237D01*
X114557200Y-69595237D02*
X114461961Y-69690475D01*
X114461961Y-69690475D02*
X114366723Y-69738094D01*
X114366723Y-69738094D02*
X114176247Y-69785713D01*
X114176247Y-69785713D02*
X114033390Y-69785713D01*
X114033390Y-69785713D02*
X113842914Y-69738094D01*
X113842914Y-69738094D02*
X113747676Y-69690475D01*
X113747676Y-69690475D02*
X113652438Y-69595237D01*
X113652438Y-69595237D02*
X113604819Y-69452380D01*
X113604819Y-69452380D02*
X113604819Y-69357142D01*
X113604819Y-69357142D02*
X113652438Y-69214285D01*
X113652438Y-69214285D02*
X113700057Y-69166666D01*
X114033390Y-68595237D02*
X113985771Y-68690475D01*
X113985771Y-68690475D02*
X113938152Y-68738094D01*
X113938152Y-68738094D02*
X113842914Y-68785713D01*
X113842914Y-68785713D02*
X113795295Y-68785713D01*
X113795295Y-68785713D02*
X113700057Y-68738094D01*
X113700057Y-68738094D02*
X113652438Y-68690475D01*
X113652438Y-68690475D02*
X113604819Y-68595237D01*
X113604819Y-68595237D02*
X113604819Y-68404761D01*
X113604819Y-68404761D02*
X113652438Y-68309523D01*
X113652438Y-68309523D02*
X113700057Y-68261904D01*
X113700057Y-68261904D02*
X113795295Y-68214285D01*
X113795295Y-68214285D02*
X113842914Y-68214285D01*
X113842914Y-68214285D02*
X113938152Y-68261904D01*
X113938152Y-68261904D02*
X113985771Y-68309523D01*
X113985771Y-68309523D02*
X114033390Y-68404761D01*
X114033390Y-68404761D02*
X114033390Y-68595237D01*
X114033390Y-68595237D02*
X114081009Y-68690475D01*
X114081009Y-68690475D02*
X114128628Y-68738094D01*
X114128628Y-68738094D02*
X114223866Y-68785713D01*
X114223866Y-68785713D02*
X114414342Y-68785713D01*
X114414342Y-68785713D02*
X114509580Y-68738094D01*
X114509580Y-68738094D02*
X114557200Y-68690475D01*
X114557200Y-68690475D02*
X114604819Y-68595237D01*
X114604819Y-68595237D02*
X114604819Y-68404761D01*
X114604819Y-68404761D02*
X114557200Y-68309523D01*
X114557200Y-68309523D02*
X114509580Y-68261904D01*
X114509580Y-68261904D02*
X114414342Y-68214285D01*
X114414342Y-68214285D02*
X114223866Y-68214285D01*
X114223866Y-68214285D02*
X114128628Y-68261904D01*
X114128628Y-68261904D02*
X114081009Y-68309523D01*
X114081009Y-68309523D02*
X114033390Y-68404761D01*
X108816667Y-61857200D02*
X108959524Y-61904819D01*
X108959524Y-61904819D02*
X109197619Y-61904819D01*
X109197619Y-61904819D02*
X109292857Y-61857200D01*
X109292857Y-61857200D02*
X109340476Y-61809580D01*
X109340476Y-61809580D02*
X109388095Y-61714342D01*
X109388095Y-61714342D02*
X109388095Y-61619104D01*
X109388095Y-61619104D02*
X109340476Y-61523866D01*
X109340476Y-61523866D02*
X109292857Y-61476247D01*
X109292857Y-61476247D02*
X109197619Y-61428628D01*
X109197619Y-61428628D02*
X109007143Y-61381009D01*
X109007143Y-61381009D02*
X108911905Y-61333390D01*
X108911905Y-61333390D02*
X108864286Y-61285771D01*
X108864286Y-61285771D02*
X108816667Y-61190533D01*
X108816667Y-61190533D02*
X108816667Y-61095295D01*
X108816667Y-61095295D02*
X108864286Y-61000057D01*
X108864286Y-61000057D02*
X108911905Y-60952438D01*
X108911905Y-60952438D02*
X109007143Y-60904819D01*
X109007143Y-60904819D02*
X109245238Y-60904819D01*
X109245238Y-60904819D02*
X109388095Y-60952438D01*
X109721429Y-60904819D02*
X109959524Y-61904819D01*
X109959524Y-61904819D02*
X110150000Y-61190533D01*
X110150000Y-61190533D02*
X110340476Y-61904819D01*
X110340476Y-61904819D02*
X110578572Y-60904819D01*
X110911905Y-61000057D02*
X110959524Y-60952438D01*
X110959524Y-60952438D02*
X111054762Y-60904819D01*
X111054762Y-60904819D02*
X111292857Y-60904819D01*
X111292857Y-60904819D02*
X111388095Y-60952438D01*
X111388095Y-60952438D02*
X111435714Y-61000057D01*
X111435714Y-61000057D02*
X111483333Y-61095295D01*
X111483333Y-61095295D02*
X111483333Y-61190533D01*
X111483333Y-61190533D02*
X111435714Y-61333390D01*
X111435714Y-61333390D02*
X110864286Y-61904819D01*
X110864286Y-61904819D02*
X111483333Y-61904819D01*
X113400000Y-67204819D02*
X113400000Y-67442914D01*
X113161905Y-67347676D02*
X113400000Y-67442914D01*
X113400000Y-67442914D02*
X113638095Y-67347676D01*
X113257143Y-67633390D02*
X113400000Y-67442914D01*
X113400000Y-67442914D02*
X113542857Y-67633390D01*
X120954761Y-96600057D02*
X120859523Y-96552438D01*
X120859523Y-96552438D02*
X120764285Y-96457200D01*
X120764285Y-96457200D02*
X120621428Y-96314342D01*
X120621428Y-96314342D02*
X120526190Y-96266723D01*
X120526190Y-96266723D02*
X120430952Y-96266723D01*
X120478571Y-96504819D02*
X120383333Y-96457200D01*
X120383333Y-96457200D02*
X120288095Y-96361961D01*
X120288095Y-96361961D02*
X120240476Y-96171485D01*
X120240476Y-96171485D02*
X120240476Y-95838152D01*
X120240476Y-95838152D02*
X120288095Y-95647676D01*
X120288095Y-95647676D02*
X120383333Y-95552438D01*
X120383333Y-95552438D02*
X120478571Y-95504819D01*
X120478571Y-95504819D02*
X120669047Y-95504819D01*
X120669047Y-95504819D02*
X120764285Y-95552438D01*
X120764285Y-95552438D02*
X120859523Y-95647676D01*
X120859523Y-95647676D02*
X120907142Y-95838152D01*
X120907142Y-95838152D02*
X120907142Y-96171485D01*
X120907142Y-96171485D02*
X120859523Y-96361961D01*
X120859523Y-96361961D02*
X120764285Y-96457200D01*
X120764285Y-96457200D02*
X120669047Y-96504819D01*
X120669047Y-96504819D02*
X120478571Y-96504819D01*
X121288095Y-95600057D02*
X121335714Y-95552438D01*
X121335714Y-95552438D02*
X121430952Y-95504819D01*
X121430952Y-95504819D02*
X121669047Y-95504819D01*
X121669047Y-95504819D02*
X121764285Y-95552438D01*
X121764285Y-95552438D02*
X121811904Y-95600057D01*
X121811904Y-95600057D02*
X121859523Y-95695295D01*
X121859523Y-95695295D02*
X121859523Y-95790533D01*
X121859523Y-95790533D02*
X121811904Y-95933390D01*
X121811904Y-95933390D02*
X121240476Y-96504819D01*
X121240476Y-96504819D02*
X121859523Y-96504819D01*
X123518633Y-67280819D02*
X123185300Y-66804628D01*
X122947205Y-67280819D02*
X122947205Y-66280819D01*
X122947205Y-66280819D02*
X123328157Y-66280819D01*
X123328157Y-66280819D02*
X123423395Y-66328438D01*
X123423395Y-66328438D02*
X123471014Y-66376057D01*
X123471014Y-66376057D02*
X123518633Y-66471295D01*
X123518633Y-66471295D02*
X123518633Y-66614152D01*
X123518633Y-66614152D02*
X123471014Y-66709390D01*
X123471014Y-66709390D02*
X123423395Y-66757009D01*
X123423395Y-66757009D02*
X123328157Y-66804628D01*
X123328157Y-66804628D02*
X122947205Y-66804628D01*
X124471014Y-67280819D02*
X123899586Y-67280819D01*
X124185300Y-67280819D02*
X124185300Y-66280819D01*
X124185300Y-66280819D02*
X124090062Y-66423676D01*
X124090062Y-66423676D02*
X123994824Y-66518914D01*
X123994824Y-66518914D02*
X123899586Y-66566533D01*
X122690419Y-71733333D02*
X122642800Y-71685714D01*
X122642800Y-71685714D02*
X122595180Y-71542857D01*
X122595180Y-71542857D02*
X122595180Y-71447619D01*
X122595180Y-71447619D02*
X122642800Y-71304762D01*
X122642800Y-71304762D02*
X122738038Y-71209524D01*
X122738038Y-71209524D02*
X122833276Y-71161905D01*
X122833276Y-71161905D02*
X123023752Y-71114286D01*
X123023752Y-71114286D02*
X123166609Y-71114286D01*
X123166609Y-71114286D02*
X123357085Y-71161905D01*
X123357085Y-71161905D02*
X123452323Y-71209524D01*
X123452323Y-71209524D02*
X123547561Y-71304762D01*
X123547561Y-71304762D02*
X123595180Y-71447619D01*
X123595180Y-71447619D02*
X123595180Y-71542857D01*
X123595180Y-71542857D02*
X123547561Y-71685714D01*
X123547561Y-71685714D02*
X123499942Y-71733333D01*
X122595180Y-72685714D02*
X122595180Y-72114286D01*
X122595180Y-72400000D02*
X123595180Y-72400000D01*
X123595180Y-72400000D02*
X123452323Y-72304762D01*
X123452323Y-72304762D02*
X123357085Y-72209524D01*
X123357085Y-72209524D02*
X123309466Y-72114286D01*
X123471780Y-86802933D02*
X123947971Y-86469600D01*
X123471780Y-86231505D02*
X124471780Y-86231505D01*
X124471780Y-86231505D02*
X124471780Y-86612457D01*
X124471780Y-86612457D02*
X124424161Y-86707695D01*
X124424161Y-86707695D02*
X124376542Y-86755314D01*
X124376542Y-86755314D02*
X124281304Y-86802933D01*
X124281304Y-86802933D02*
X124138447Y-86802933D01*
X124138447Y-86802933D02*
X124043209Y-86755314D01*
X124043209Y-86755314D02*
X123995590Y-86707695D01*
X123995590Y-86707695D02*
X123947971Y-86612457D01*
X123947971Y-86612457D02*
X123947971Y-86231505D01*
X124138447Y-87660076D02*
X123471780Y-87660076D01*
X124519400Y-87421981D02*
X123805114Y-87183886D01*
X123805114Y-87183886D02*
X123805114Y-87802933D01*
X122740419Y-74633333D02*
X122692800Y-74585714D01*
X122692800Y-74585714D02*
X122645180Y-74442857D01*
X122645180Y-74442857D02*
X122645180Y-74347619D01*
X122645180Y-74347619D02*
X122692800Y-74204762D01*
X122692800Y-74204762D02*
X122788038Y-74109524D01*
X122788038Y-74109524D02*
X122883276Y-74061905D01*
X122883276Y-74061905D02*
X123073752Y-74014286D01*
X123073752Y-74014286D02*
X123216609Y-74014286D01*
X123216609Y-74014286D02*
X123407085Y-74061905D01*
X123407085Y-74061905D02*
X123502323Y-74109524D01*
X123502323Y-74109524D02*
X123597561Y-74204762D01*
X123597561Y-74204762D02*
X123645180Y-74347619D01*
X123645180Y-74347619D02*
X123645180Y-74442857D01*
X123645180Y-74442857D02*
X123597561Y-74585714D01*
X123597561Y-74585714D02*
X123549942Y-74633333D01*
X123549942Y-75014286D02*
X123597561Y-75061905D01*
X123597561Y-75061905D02*
X123645180Y-75157143D01*
X123645180Y-75157143D02*
X123645180Y-75395238D01*
X123645180Y-75395238D02*
X123597561Y-75490476D01*
X123597561Y-75490476D02*
X123549942Y-75538095D01*
X123549942Y-75538095D02*
X123454704Y-75585714D01*
X123454704Y-75585714D02*
X123359466Y-75585714D01*
X123359466Y-75585714D02*
X123216609Y-75538095D01*
X123216609Y-75538095D02*
X122645180Y-74966667D01*
X122645180Y-74966667D02*
X122645180Y-75585714D01*
X104804819Y-69632857D02*
X104328628Y-69966190D01*
X104804819Y-70204285D02*
X103804819Y-70204285D01*
X103804819Y-70204285D02*
X103804819Y-69823333D01*
X103804819Y-69823333D02*
X103852438Y-69728095D01*
X103852438Y-69728095D02*
X103900057Y-69680476D01*
X103900057Y-69680476D02*
X103995295Y-69632857D01*
X103995295Y-69632857D02*
X104138152Y-69632857D01*
X104138152Y-69632857D02*
X104233390Y-69680476D01*
X104233390Y-69680476D02*
X104281009Y-69728095D01*
X104281009Y-69728095D02*
X104328628Y-69823333D01*
X104328628Y-69823333D02*
X104328628Y-70204285D01*
X104804819Y-68680476D02*
X104804819Y-69251904D01*
X104804819Y-68966190D02*
X103804819Y-68966190D01*
X103804819Y-68966190D02*
X103947676Y-69061428D01*
X103947676Y-69061428D02*
X104042914Y-69156666D01*
X104042914Y-69156666D02*
X104090533Y-69251904D01*
X103804819Y-67775714D02*
X103804819Y-68251904D01*
X103804819Y-68251904D02*
X104281009Y-68299523D01*
X104281009Y-68299523D02*
X104233390Y-68251904D01*
X104233390Y-68251904D02*
X104185771Y-68156666D01*
X104185771Y-68156666D02*
X104185771Y-67918571D01*
X104185771Y-67918571D02*
X104233390Y-67823333D01*
X104233390Y-67823333D02*
X104281009Y-67775714D01*
X104281009Y-67775714D02*
X104376247Y-67728095D01*
X104376247Y-67728095D02*
X104614342Y-67728095D01*
X104614342Y-67728095D02*
X104709580Y-67775714D01*
X104709580Y-67775714D02*
X104757200Y-67823333D01*
X104757200Y-67823333D02*
X104804819Y-67918571D01*
X104804819Y-67918571D02*
X104804819Y-68156666D01*
X104804819Y-68156666D02*
X104757200Y-68251904D01*
X104757200Y-68251904D02*
X104709580Y-68299523D01*
X107704819Y-74942857D02*
X107228628Y-75276190D01*
X107704819Y-75514285D02*
X106704819Y-75514285D01*
X106704819Y-75514285D02*
X106704819Y-75133333D01*
X106704819Y-75133333D02*
X106752438Y-75038095D01*
X106752438Y-75038095D02*
X106800057Y-74990476D01*
X106800057Y-74990476D02*
X106895295Y-74942857D01*
X106895295Y-74942857D02*
X107038152Y-74942857D01*
X107038152Y-74942857D02*
X107133390Y-74990476D01*
X107133390Y-74990476D02*
X107181009Y-75038095D01*
X107181009Y-75038095D02*
X107228628Y-75133333D01*
X107228628Y-75133333D02*
X107228628Y-75514285D01*
X107704819Y-73990476D02*
X107704819Y-74561904D01*
X107704819Y-74276190D02*
X106704819Y-74276190D01*
X106704819Y-74276190D02*
X106847676Y-74371428D01*
X106847676Y-74371428D02*
X106942914Y-74466666D01*
X106942914Y-74466666D02*
X106990533Y-74561904D01*
X106704819Y-73657142D02*
X106704819Y-73038095D01*
X106704819Y-73038095D02*
X107085771Y-73371428D01*
X107085771Y-73371428D02*
X107085771Y-73228571D01*
X107085771Y-73228571D02*
X107133390Y-73133333D01*
X107133390Y-73133333D02*
X107181009Y-73085714D01*
X107181009Y-73085714D02*
X107276247Y-73038095D01*
X107276247Y-73038095D02*
X107514342Y-73038095D01*
X107514342Y-73038095D02*
X107609580Y-73085714D01*
X107609580Y-73085714D02*
X107657200Y-73133333D01*
X107657200Y-73133333D02*
X107704819Y-73228571D01*
X107704819Y-73228571D02*
X107704819Y-73514285D01*
X107704819Y-73514285D02*
X107657200Y-73609523D01*
X107657200Y-73609523D02*
X107609580Y-73657142D01*
X124909580Y-61116666D02*
X124957200Y-61164285D01*
X124957200Y-61164285D02*
X125004819Y-61307142D01*
X125004819Y-61307142D02*
X125004819Y-61402380D01*
X125004819Y-61402380D02*
X124957200Y-61545237D01*
X124957200Y-61545237D02*
X124861961Y-61640475D01*
X124861961Y-61640475D02*
X124766723Y-61688094D01*
X124766723Y-61688094D02*
X124576247Y-61735713D01*
X124576247Y-61735713D02*
X124433390Y-61735713D01*
X124433390Y-61735713D02*
X124242914Y-61688094D01*
X124242914Y-61688094D02*
X124147676Y-61640475D01*
X124147676Y-61640475D02*
X124052438Y-61545237D01*
X124052438Y-61545237D02*
X124004819Y-61402380D01*
X124004819Y-61402380D02*
X124004819Y-61307142D01*
X124004819Y-61307142D02*
X124052438Y-61164285D01*
X124052438Y-61164285D02*
X124100057Y-61116666D01*
X125004819Y-60640475D02*
X125004819Y-60449999D01*
X125004819Y-60449999D02*
X124957200Y-60354761D01*
X124957200Y-60354761D02*
X124909580Y-60307142D01*
X124909580Y-60307142D02*
X124766723Y-60211904D01*
X124766723Y-60211904D02*
X124576247Y-60164285D01*
X124576247Y-60164285D02*
X124195295Y-60164285D01*
X124195295Y-60164285D02*
X124100057Y-60211904D01*
X124100057Y-60211904D02*
X124052438Y-60259523D01*
X124052438Y-60259523D02*
X124004819Y-60354761D01*
X124004819Y-60354761D02*
X124004819Y-60545237D01*
X124004819Y-60545237D02*
X124052438Y-60640475D01*
X124052438Y-60640475D02*
X124100057Y-60688094D01*
X124100057Y-60688094D02*
X124195295Y-60735713D01*
X124195295Y-60735713D02*
X124433390Y-60735713D01*
X124433390Y-60735713D02*
X124528628Y-60688094D01*
X124528628Y-60688094D02*
X124576247Y-60640475D01*
X124576247Y-60640475D02*
X124623866Y-60545237D01*
X124623866Y-60545237D02*
X124623866Y-60354761D01*
X124623866Y-60354761D02*
X124576247Y-60259523D01*
X124576247Y-60259523D02*
X124528628Y-60211904D01*
X124528628Y-60211904D02*
X124433390Y-60164285D01*
X117316667Y-61757200D02*
X117459524Y-61804819D01*
X117459524Y-61804819D02*
X117697619Y-61804819D01*
X117697619Y-61804819D02*
X117792857Y-61757200D01*
X117792857Y-61757200D02*
X117840476Y-61709580D01*
X117840476Y-61709580D02*
X117888095Y-61614342D01*
X117888095Y-61614342D02*
X117888095Y-61519104D01*
X117888095Y-61519104D02*
X117840476Y-61423866D01*
X117840476Y-61423866D02*
X117792857Y-61376247D01*
X117792857Y-61376247D02*
X117697619Y-61328628D01*
X117697619Y-61328628D02*
X117507143Y-61281009D01*
X117507143Y-61281009D02*
X117411905Y-61233390D01*
X117411905Y-61233390D02*
X117364286Y-61185771D01*
X117364286Y-61185771D02*
X117316667Y-61090533D01*
X117316667Y-61090533D02*
X117316667Y-60995295D01*
X117316667Y-60995295D02*
X117364286Y-60900057D01*
X117364286Y-60900057D02*
X117411905Y-60852438D01*
X117411905Y-60852438D02*
X117507143Y-60804819D01*
X117507143Y-60804819D02*
X117745238Y-60804819D01*
X117745238Y-60804819D02*
X117888095Y-60852438D01*
X118221429Y-60804819D02*
X118459524Y-61804819D01*
X118459524Y-61804819D02*
X118650000Y-61090533D01*
X118650000Y-61090533D02*
X118840476Y-61804819D01*
X118840476Y-61804819D02*
X119078572Y-60804819D01*
X119983333Y-61804819D02*
X119411905Y-61804819D01*
X119697619Y-61804819D02*
X119697619Y-60804819D01*
X119697619Y-60804819D02*
X119602381Y-60947676D01*
X119602381Y-60947676D02*
X119507143Y-61042914D01*
X119507143Y-61042914D02*
X119411905Y-61090533D01*
X115200000Y-61904819D02*
X115200000Y-62142914D01*
X114961905Y-62047676D02*
X115200000Y-62142914D01*
X115200000Y-62142914D02*
X115438095Y-62047676D01*
X115057143Y-62333390D02*
X115200000Y-62142914D01*
X115200000Y-62142914D02*
X115342857Y-62333390D01*
X106457142Y-71059580D02*
X106409523Y-71107200D01*
X106409523Y-71107200D02*
X106266666Y-71154819D01*
X106266666Y-71154819D02*
X106171428Y-71154819D01*
X106171428Y-71154819D02*
X106028571Y-71107200D01*
X106028571Y-71107200D02*
X105933333Y-71011961D01*
X105933333Y-71011961D02*
X105885714Y-70916723D01*
X105885714Y-70916723D02*
X105838095Y-70726247D01*
X105838095Y-70726247D02*
X105838095Y-70583390D01*
X105838095Y-70583390D02*
X105885714Y-70392914D01*
X105885714Y-70392914D02*
X105933333Y-70297676D01*
X105933333Y-70297676D02*
X106028571Y-70202438D01*
X106028571Y-70202438D02*
X106171428Y-70154819D01*
X106171428Y-70154819D02*
X106266666Y-70154819D01*
X106266666Y-70154819D02*
X106409523Y-70202438D01*
X106409523Y-70202438D02*
X106457142Y-70250057D01*
X107409523Y-71154819D02*
X106838095Y-71154819D01*
X107123809Y-71154819D02*
X107123809Y-70154819D01*
X107123809Y-70154819D02*
X107028571Y-70297676D01*
X107028571Y-70297676D02*
X106933333Y-70392914D01*
X106933333Y-70392914D02*
X106838095Y-70440533D01*
X108028571Y-70154819D02*
X108123809Y-70154819D01*
X108123809Y-70154819D02*
X108219047Y-70202438D01*
X108219047Y-70202438D02*
X108266666Y-70250057D01*
X108266666Y-70250057D02*
X108314285Y-70345295D01*
X108314285Y-70345295D02*
X108361904Y-70535771D01*
X108361904Y-70535771D02*
X108361904Y-70773866D01*
X108361904Y-70773866D02*
X108314285Y-70964342D01*
X108314285Y-70964342D02*
X108266666Y-71059580D01*
X108266666Y-71059580D02*
X108219047Y-71107200D01*
X108219047Y-71107200D02*
X108123809Y-71154819D01*
X108123809Y-71154819D02*
X108028571Y-71154819D01*
X108028571Y-71154819D02*
X107933333Y-71107200D01*
X107933333Y-71107200D02*
X107885714Y-71059580D01*
X107885714Y-71059580D02*
X107838095Y-70964342D01*
X107838095Y-70964342D02*
X107790476Y-70773866D01*
X107790476Y-70773866D02*
X107790476Y-70535771D01*
X107790476Y-70535771D02*
X107838095Y-70345295D01*
X107838095Y-70345295D02*
X107885714Y-70250057D01*
X107885714Y-70250057D02*
X107933333Y-70202438D01*
X107933333Y-70202438D02*
X108028571Y-70154819D01*
X103127819Y-57500904D02*
X103937342Y-57500904D01*
X103937342Y-57500904D02*
X104032580Y-57453285D01*
X104032580Y-57453285D02*
X104080200Y-57405666D01*
X104080200Y-57405666D02*
X104127819Y-57310428D01*
X104127819Y-57310428D02*
X104127819Y-57119952D01*
X104127819Y-57119952D02*
X104080200Y-57024714D01*
X104080200Y-57024714D02*
X104032580Y-56977095D01*
X104032580Y-56977095D02*
X103937342Y-56929476D01*
X103937342Y-56929476D02*
X103127819Y-56929476D01*
X104127819Y-55929476D02*
X104127819Y-56500904D01*
X104127819Y-56215190D02*
X103127819Y-56215190D01*
X103127819Y-56215190D02*
X103270676Y-56310428D01*
X103270676Y-56310428D02*
X103365914Y-56405666D01*
X103365914Y-56405666D02*
X103413533Y-56500904D01*
X108745180Y-86361905D02*
X109745180Y-86361905D01*
X109745180Y-86361905D02*
X109745180Y-86600000D01*
X109745180Y-86600000D02*
X109697561Y-86742857D01*
X109697561Y-86742857D02*
X109602323Y-86838095D01*
X109602323Y-86838095D02*
X109507085Y-86885714D01*
X109507085Y-86885714D02*
X109316609Y-86933333D01*
X109316609Y-86933333D02*
X109173752Y-86933333D01*
X109173752Y-86933333D02*
X108983276Y-86885714D01*
X108983276Y-86885714D02*
X108888038Y-86838095D01*
X108888038Y-86838095D02*
X108792800Y-86742857D01*
X108792800Y-86742857D02*
X108745180Y-86600000D01*
X108745180Y-86600000D02*
X108745180Y-86361905D01*
X109411847Y-87790476D02*
X108745180Y-87790476D01*
X109792800Y-87552381D02*
X109078514Y-87314286D01*
X109078514Y-87314286D02*
X109078514Y-87933333D01*
X107969999Y-88165180D02*
X107969999Y-87927085D01*
X108208094Y-88022323D02*
X107969999Y-87927085D01*
X107969999Y-87927085D02*
X107731904Y-88022323D01*
X108112856Y-87736609D02*
X107969999Y-87927085D01*
X107969999Y-87927085D02*
X107827142Y-87736609D01*
X113788095Y-77904819D02*
X113788095Y-78714342D01*
X113788095Y-78714342D02*
X113835714Y-78809580D01*
X113835714Y-78809580D02*
X113883333Y-78857200D01*
X113883333Y-78857200D02*
X113978571Y-78904819D01*
X113978571Y-78904819D02*
X114169047Y-78904819D01*
X114169047Y-78904819D02*
X114264285Y-78857200D01*
X114264285Y-78857200D02*
X114311904Y-78809580D01*
X114311904Y-78809580D02*
X114359523Y-78714342D01*
X114359523Y-78714342D02*
X114359523Y-77904819D01*
X114788095Y-78000057D02*
X114835714Y-77952438D01*
X114835714Y-77952438D02*
X114930952Y-77904819D01*
X114930952Y-77904819D02*
X115169047Y-77904819D01*
X115169047Y-77904819D02*
X115264285Y-77952438D01*
X115264285Y-77952438D02*
X115311904Y-78000057D01*
X115311904Y-78000057D02*
X115359523Y-78095295D01*
X115359523Y-78095295D02*
X115359523Y-78190533D01*
X115359523Y-78190533D02*
X115311904Y-78333390D01*
X115311904Y-78333390D02*
X114740476Y-78904819D01*
X114740476Y-78904819D02*
X115359523Y-78904819D01*
X108926333Y-82274580D02*
X108878714Y-82322200D01*
X108878714Y-82322200D02*
X108735857Y-82369819D01*
X108735857Y-82369819D02*
X108640619Y-82369819D01*
X108640619Y-82369819D02*
X108497762Y-82322200D01*
X108497762Y-82322200D02*
X108402524Y-82226961D01*
X108402524Y-82226961D02*
X108354905Y-82131723D01*
X108354905Y-82131723D02*
X108307286Y-81941247D01*
X108307286Y-81941247D02*
X108307286Y-81798390D01*
X108307286Y-81798390D02*
X108354905Y-81607914D01*
X108354905Y-81607914D02*
X108402524Y-81512676D01*
X108402524Y-81512676D02*
X108497762Y-81417438D01*
X108497762Y-81417438D02*
X108640619Y-81369819D01*
X108640619Y-81369819D02*
X108735857Y-81369819D01*
X108735857Y-81369819D02*
X108878714Y-81417438D01*
X108878714Y-81417438D02*
X108926333Y-81465057D01*
X109783476Y-81369819D02*
X109593000Y-81369819D01*
X109593000Y-81369819D02*
X109497762Y-81417438D01*
X109497762Y-81417438D02*
X109450143Y-81465057D01*
X109450143Y-81465057D02*
X109354905Y-81607914D01*
X109354905Y-81607914D02*
X109307286Y-81798390D01*
X109307286Y-81798390D02*
X109307286Y-82179342D01*
X109307286Y-82179342D02*
X109354905Y-82274580D01*
X109354905Y-82274580D02*
X109402524Y-82322200D01*
X109402524Y-82322200D02*
X109497762Y-82369819D01*
X109497762Y-82369819D02*
X109688238Y-82369819D01*
X109688238Y-82369819D02*
X109783476Y-82322200D01*
X109783476Y-82322200D02*
X109831095Y-82274580D01*
X109831095Y-82274580D02*
X109878714Y-82179342D01*
X109878714Y-82179342D02*
X109878714Y-81941247D01*
X109878714Y-81941247D02*
X109831095Y-81846009D01*
X109831095Y-81846009D02*
X109783476Y-81798390D01*
X109783476Y-81798390D02*
X109688238Y-81750771D01*
X109688238Y-81750771D02*
X109497762Y-81750771D01*
X109497762Y-81750771D02*
X109402524Y-81798390D01*
X109402524Y-81798390D02*
X109354905Y-81846009D01*
X109354905Y-81846009D02*
X109307286Y-81941247D01*
X108795180Y-88861905D02*
X109795180Y-88861905D01*
X109795180Y-88861905D02*
X109795180Y-89100000D01*
X109795180Y-89100000D02*
X109747561Y-89242857D01*
X109747561Y-89242857D02*
X109652323Y-89338095D01*
X109652323Y-89338095D02*
X109557085Y-89385714D01*
X109557085Y-89385714D02*
X109366609Y-89433333D01*
X109366609Y-89433333D02*
X109223752Y-89433333D01*
X109223752Y-89433333D02*
X109033276Y-89385714D01*
X109033276Y-89385714D02*
X108938038Y-89338095D01*
X108938038Y-89338095D02*
X108842800Y-89242857D01*
X108842800Y-89242857D02*
X108795180Y-89100000D01*
X108795180Y-89100000D02*
X108795180Y-88861905D01*
X109699942Y-89814286D02*
X109747561Y-89861905D01*
X109747561Y-89861905D02*
X109795180Y-89957143D01*
X109795180Y-89957143D02*
X109795180Y-90195238D01*
X109795180Y-90195238D02*
X109747561Y-90290476D01*
X109747561Y-90290476D02*
X109699942Y-90338095D01*
X109699942Y-90338095D02*
X109604704Y-90385714D01*
X109604704Y-90385714D02*
X109509466Y-90385714D01*
X109509466Y-90385714D02*
X109366609Y-90338095D01*
X109366609Y-90338095D02*
X108795180Y-89766667D01*
X108795180Y-89766667D02*
X108795180Y-90385714D01*
X107980000Y-90214819D02*
X107980000Y-90452914D01*
X107741905Y-90357676D02*
X107980000Y-90452914D01*
X107980000Y-90452914D02*
X108218095Y-90357676D01*
X107837143Y-90643390D02*
X107980000Y-90452914D01*
X107980000Y-90452914D02*
X108122857Y-90643390D01*
X122449942Y-79204761D02*
X122497561Y-79109523D01*
X122497561Y-79109523D02*
X122592800Y-79014285D01*
X122592800Y-79014285D02*
X122735657Y-78871428D01*
X122735657Y-78871428D02*
X122783276Y-78776190D01*
X122783276Y-78776190D02*
X122783276Y-78680952D01*
X122545180Y-78728571D02*
X122592800Y-78633333D01*
X122592800Y-78633333D02*
X122688038Y-78538095D01*
X122688038Y-78538095D02*
X122878514Y-78490476D01*
X122878514Y-78490476D02*
X123211847Y-78490476D01*
X123211847Y-78490476D02*
X123402323Y-78538095D01*
X123402323Y-78538095D02*
X123497561Y-78633333D01*
X123497561Y-78633333D02*
X123545180Y-78728571D01*
X123545180Y-78728571D02*
X123545180Y-78919047D01*
X123545180Y-78919047D02*
X123497561Y-79014285D01*
X123497561Y-79014285D02*
X123402323Y-79109523D01*
X123402323Y-79109523D02*
X123211847Y-79157142D01*
X123211847Y-79157142D02*
X122878514Y-79157142D01*
X122878514Y-79157142D02*
X122688038Y-79109523D01*
X122688038Y-79109523D02*
X122592800Y-79014285D01*
X122592800Y-79014285D02*
X122545180Y-78919047D01*
X122545180Y-78919047D02*
X122545180Y-78728571D01*
X122545180Y-80109523D02*
X122545180Y-79538095D01*
X122545180Y-79823809D02*
X123545180Y-79823809D01*
X123545180Y-79823809D02*
X123402323Y-79728571D01*
X123402323Y-79728571D02*
X123307085Y-79633333D01*
X123307085Y-79633333D02*
X123259466Y-79538095D01*
X104204819Y-61016666D02*
X103728628Y-61349999D01*
X104204819Y-61588094D02*
X103204819Y-61588094D01*
X103204819Y-61588094D02*
X103204819Y-61207142D01*
X103204819Y-61207142D02*
X103252438Y-61111904D01*
X103252438Y-61111904D02*
X103300057Y-61064285D01*
X103300057Y-61064285D02*
X103395295Y-61016666D01*
X103395295Y-61016666D02*
X103538152Y-61016666D01*
X103538152Y-61016666D02*
X103633390Y-61064285D01*
X103633390Y-61064285D02*
X103681009Y-61111904D01*
X103681009Y-61111904D02*
X103728628Y-61207142D01*
X103728628Y-61207142D02*
X103728628Y-61588094D01*
X103300057Y-60635713D02*
X103252438Y-60588094D01*
X103252438Y-60588094D02*
X103204819Y-60492856D01*
X103204819Y-60492856D02*
X103204819Y-60254761D01*
X103204819Y-60254761D02*
X103252438Y-60159523D01*
X103252438Y-60159523D02*
X103300057Y-60111904D01*
X103300057Y-60111904D02*
X103395295Y-60064285D01*
X103395295Y-60064285D02*
X103490533Y-60064285D01*
X103490533Y-60064285D02*
X103633390Y-60111904D01*
X103633390Y-60111904D02*
X104204819Y-60683332D01*
X104204819Y-60683332D02*
X104204819Y-60064285D01*
X123133333Y-69309580D02*
X123085714Y-69357200D01*
X123085714Y-69357200D02*
X122942857Y-69404819D01*
X122942857Y-69404819D02*
X122847619Y-69404819D01*
X122847619Y-69404819D02*
X122704762Y-69357200D01*
X122704762Y-69357200D02*
X122609524Y-69261961D01*
X122609524Y-69261961D02*
X122561905Y-69166723D01*
X122561905Y-69166723D02*
X122514286Y-68976247D01*
X122514286Y-68976247D02*
X122514286Y-68833390D01*
X122514286Y-68833390D02*
X122561905Y-68642914D01*
X122561905Y-68642914D02*
X122609524Y-68547676D01*
X122609524Y-68547676D02*
X122704762Y-68452438D01*
X122704762Y-68452438D02*
X122847619Y-68404819D01*
X122847619Y-68404819D02*
X122942857Y-68404819D01*
X122942857Y-68404819D02*
X123085714Y-68452438D01*
X123085714Y-68452438D02*
X123133333Y-68500057D01*
X123990476Y-68738152D02*
X123990476Y-69404819D01*
X123752381Y-68357200D02*
X123514286Y-69071485D01*
X123514286Y-69071485D02*
X124133333Y-69071485D01*
X106561905Y-79504819D02*
X106561905Y-78504819D01*
X106561905Y-78504819D02*
X106800000Y-78504819D01*
X106800000Y-78504819D02*
X106942857Y-78552438D01*
X106942857Y-78552438D02*
X107038095Y-78647676D01*
X107038095Y-78647676D02*
X107085714Y-78742914D01*
X107085714Y-78742914D02*
X107133333Y-78933390D01*
X107133333Y-78933390D02*
X107133333Y-79076247D01*
X107133333Y-79076247D02*
X107085714Y-79266723D01*
X107085714Y-79266723D02*
X107038095Y-79361961D01*
X107038095Y-79361961D02*
X106942857Y-79457200D01*
X106942857Y-79457200D02*
X106800000Y-79504819D01*
X106800000Y-79504819D02*
X106561905Y-79504819D01*
X108038095Y-78504819D02*
X107561905Y-78504819D01*
X107561905Y-78504819D02*
X107514286Y-78981009D01*
X107514286Y-78981009D02*
X107561905Y-78933390D01*
X107561905Y-78933390D02*
X107657143Y-78885771D01*
X107657143Y-78885771D02*
X107895238Y-78885771D01*
X107895238Y-78885771D02*
X107990476Y-78933390D01*
X107990476Y-78933390D02*
X108038095Y-78981009D01*
X108038095Y-78981009D02*
X108085714Y-79076247D01*
X108085714Y-79076247D02*
X108085714Y-79314342D01*
X108085714Y-79314342D02*
X108038095Y-79409580D01*
X108038095Y-79409580D02*
X107990476Y-79457200D01*
X107990476Y-79457200D02*
X107895238Y-79504819D01*
X107895238Y-79504819D02*
X107657143Y-79504819D01*
X107657143Y-79504819D02*
X107561905Y-79457200D01*
X107561905Y-79457200D02*
X107514286Y-79409580D01*
X122297019Y-83653333D02*
X122249400Y-83605714D01*
X122249400Y-83605714D02*
X122201780Y-83462857D01*
X122201780Y-83462857D02*
X122201780Y-83367619D01*
X122201780Y-83367619D02*
X122249400Y-83224762D01*
X122249400Y-83224762D02*
X122344638Y-83129524D01*
X122344638Y-83129524D02*
X122439876Y-83081905D01*
X122439876Y-83081905D02*
X122630352Y-83034286D01*
X122630352Y-83034286D02*
X122773209Y-83034286D01*
X122773209Y-83034286D02*
X122963685Y-83081905D01*
X122963685Y-83081905D02*
X123058923Y-83129524D01*
X123058923Y-83129524D02*
X123154161Y-83224762D01*
X123154161Y-83224762D02*
X123201780Y-83367619D01*
X123201780Y-83367619D02*
X123201780Y-83462857D01*
X123201780Y-83462857D02*
X123154161Y-83605714D01*
X123154161Y-83605714D02*
X123106542Y-83653333D01*
X123201780Y-83986667D02*
X123201780Y-84605714D01*
X123201780Y-84605714D02*
X122820828Y-84272381D01*
X122820828Y-84272381D02*
X122820828Y-84415238D01*
X122820828Y-84415238D02*
X122773209Y-84510476D01*
X122773209Y-84510476D02*
X122725590Y-84558095D01*
X122725590Y-84558095D02*
X122630352Y-84605714D01*
X122630352Y-84605714D02*
X122392257Y-84605714D01*
X122392257Y-84605714D02*
X122297019Y-84558095D01*
X122297019Y-84558095D02*
X122249400Y-84510476D01*
X122249400Y-84510476D02*
X122201780Y-84415238D01*
X122201780Y-84415238D02*
X122201780Y-84129524D01*
X122201780Y-84129524D02*
X122249400Y-84034286D01*
X122249400Y-84034286D02*
X122297019Y-83986667D01*
X126666666Y-37764819D02*
X126666666Y-38479104D01*
X126666666Y-38479104D02*
X126619047Y-38621961D01*
X126619047Y-38621961D02*
X126523809Y-38717200D01*
X126523809Y-38717200D02*
X126380952Y-38764819D01*
X126380952Y-38764819D02*
X126285714Y-38764819D01*
X127047619Y-37764819D02*
X127666666Y-37764819D01*
X127666666Y-37764819D02*
X127333333Y-38145771D01*
X127333333Y-38145771D02*
X127476190Y-38145771D01*
X127476190Y-38145771D02*
X127571428Y-38193390D01*
X127571428Y-38193390D02*
X127619047Y-38241009D01*
X127619047Y-38241009D02*
X127666666Y-38336247D01*
X127666666Y-38336247D02*
X127666666Y-38574342D01*
X127666666Y-38574342D02*
X127619047Y-38669580D01*
X127619047Y-38669580D02*
X127571428Y-38717200D01*
X127571428Y-38717200D02*
X127476190Y-38764819D01*
X127476190Y-38764819D02*
X127190476Y-38764819D01*
X127190476Y-38764819D02*
X127095238Y-38717200D01*
X127095238Y-38717200D02*
X127047619Y-38669580D01*
X101266666Y-37764819D02*
X101266666Y-38479104D01*
X101266666Y-38479104D02*
X101219047Y-38621961D01*
X101219047Y-38621961D02*
X101123809Y-38717200D01*
X101123809Y-38717200D02*
X100980952Y-38764819D01*
X100980952Y-38764819D02*
X100885714Y-38764819D01*
X101695238Y-37860057D02*
X101742857Y-37812438D01*
X101742857Y-37812438D02*
X101838095Y-37764819D01*
X101838095Y-37764819D02*
X102076190Y-37764819D01*
X102076190Y-37764819D02*
X102171428Y-37812438D01*
X102171428Y-37812438D02*
X102219047Y-37860057D01*
X102219047Y-37860057D02*
X102266666Y-37955295D01*
X102266666Y-37955295D02*
X102266666Y-38050533D01*
X102266666Y-38050533D02*
X102219047Y-38193390D01*
X102219047Y-38193390D02*
X101647619Y-38764819D01*
X101647619Y-38764819D02*
X102266666Y-38764819D01*
D12*
%TO.C,R3*%
X120398750Y-90766900D02*
X121612450Y-90766900D01*
X121612450Y-88760300D02*
X120398750Y-88760300D01*
D13*
%TO.C,U3*%
X114200000Y-81690000D02*
X112250000Y-81690000D01*
X114200000Y-81690000D02*
X116150000Y-81690000D01*
X114200000Y-91810000D02*
X112250000Y-91810000D01*
X114200000Y-91810000D02*
X116150000Y-91810000D01*
X111500000Y-81745000D02*
X111260000Y-81415000D01*
X111740000Y-81415000D01*
X111500000Y-81745000D01*
G36*
X111500000Y-81745000D02*
G01*
X111260000Y-81415000D01*
X111740000Y-81415000D01*
X111500000Y-81745000D01*
G37*
D12*
%TO.C,D3*%
X104571800Y-92290900D02*
X104571800Y-97294700D01*
X104571800Y-97294700D02*
X104988360Y-97294700D01*
X104988360Y-92290900D02*
X104571800Y-92290900D01*
X107355640Y-97294700D02*
X107772200Y-97294700D01*
X107772200Y-92290900D02*
X107355640Y-92290900D01*
X107772200Y-97294700D02*
X107772200Y-92290900D01*
X106248200Y-90754200D02*
G75*
G02*
X106095800Y-90754200I-76200J0D01*
G01*
X106095800Y-90754200D02*
G75*
G02*
X106248200Y-90754200I76200J0D01*
G01*
%TO.C,R14*%
X113912701Y-60461151D02*
X113912701Y-60646049D01*
X114966699Y-60646049D02*
X114966699Y-60461151D01*
D13*
%TO.C,J1*%
X110100000Y-94520000D02*
X110100000Y-98880000D01*
X110100000Y-94520000D02*
X112600000Y-94520000D01*
X112600000Y-94520000D02*
X112600000Y-94320000D01*
X113260000Y-94320000D02*
X112600000Y-94320000D01*
X116120000Y-94520000D02*
X118620000Y-94520000D01*
X118620000Y-94520000D02*
X118620000Y-98880000D01*
%TO.C,C5*%
X111811252Y-68265000D02*
X111288748Y-68265000D01*
X111811252Y-69735000D02*
X111288748Y-69735000D01*
D12*
%TO.C,C8*%
X116423650Y-69734300D02*
X116799150Y-69734300D01*
X116799150Y-68235700D02*
X116423650Y-68235700D01*
%TO.C,SW2*%
X107666900Y-62268100D02*
X107666900Y-62441960D01*
X107666900Y-64098040D02*
X107666900Y-65441960D01*
X107666900Y-67098040D02*
X107666900Y-67271900D01*
X107666900Y-67271900D02*
X112670700Y-67271900D01*
X112670700Y-62268100D02*
X107666900Y-62268100D01*
X112670700Y-62441960D02*
X112670700Y-62268100D01*
X112670700Y-65441960D02*
X112670700Y-64098040D01*
X112670700Y-67271900D02*
X112670700Y-67098040D01*
X111692800Y-64770000D02*
G75*
G02*
X108644800Y-64770000I-1524000J0D01*
G01*
X108644800Y-64770000D02*
G75*
G02*
X111692800Y-64770000I1524000J0D01*
G01*
%TO.C,Q2*%
X119360899Y-92494100D02*
X119360899Y-94246700D01*
X120387059Y-92494100D02*
X119360899Y-92494100D01*
X120762938Y-94246700D02*
X121337060Y-94246700D01*
X122739099Y-92494100D02*
X121712939Y-92494100D01*
X122739099Y-94246700D02*
X122739099Y-92494100D01*
X119276999Y-94820400D02*
G75*
G02*
X119022999Y-94820400I-127000J0D01*
G01*
X119022999Y-94820400D02*
G75*
G02*
X119276999Y-94820400I127000J0D01*
G01*
D13*
%TO.C,R1*%
X123022800Y-64489064D02*
X123022800Y-64034936D01*
X124492800Y-64489064D02*
X124492800Y-64034936D01*
D12*
%TO.C,C1*%
X120513050Y-72682100D02*
X120888550Y-72682100D01*
X120888550Y-71183500D02*
X120513050Y-71183500D01*
%TO.C,R4*%
X120398750Y-88023700D02*
X121612450Y-88023700D01*
X121612450Y-86017100D02*
X120398750Y-86017100D01*
%TO.C,C2*%
X120512250Y-75549300D02*
X120887750Y-75549300D01*
X120887750Y-74050700D02*
X120512250Y-74050700D01*
%TO.C,R15*%
X103746300Y-64213950D02*
X103746300Y-65427650D01*
X105752900Y-65427650D02*
X105752900Y-64213950D01*
D13*
%TO.C,R13*%
X108165000Y-74527064D02*
X108165000Y-74072936D01*
X109635000Y-74527064D02*
X109635000Y-74072936D01*
%TO.C,C9*%
X121900048Y-60122000D02*
X122422552Y-60122000D01*
X121900048Y-61592000D02*
X122422552Y-61592000D01*
D12*
%TO.C,SW1*%
X116166900Y-62268100D02*
X116166900Y-62441960D01*
X116166900Y-64098040D02*
X116166900Y-65441960D01*
X116166900Y-67098040D02*
X116166900Y-67271900D01*
X116166900Y-67271900D02*
X121170700Y-67271900D01*
X121170700Y-62268100D02*
X116166900Y-62268100D01*
X121170700Y-62441960D02*
X121170700Y-62268100D01*
X121170700Y-65441960D02*
X121170700Y-64098040D01*
X121170700Y-67271900D02*
X121170700Y-67098040D01*
X120192800Y-64770000D02*
G75*
G02*
X117144800Y-64770000I-1524000J0D01*
G01*
X117144800Y-64770000D02*
G75*
G02*
X120192800Y-64770000I1524000J0D01*
G01*
D13*
%TO.C,C10*%
X107061252Y-68265000D02*
X106538748Y-68265000D01*
X107061252Y-69735000D02*
X106538748Y-69735000D01*
%TO.C,U1*%
X104973000Y-32439000D02*
X104973000Y-38639000D01*
X104973000Y-32439000D02*
X123373000Y-32439000D01*
X104973000Y-57289000D02*
X104973000Y-58289000D01*
X104973000Y-58289000D02*
X106473000Y-58289000D01*
X123373000Y-32439000D02*
X123373000Y-38639000D01*
X123373000Y-58289000D02*
X121873000Y-58289000D01*
X123373000Y-58289000D02*
X123373000Y-57289000D01*
X104973000Y-39314000D02*
X104473000Y-39314000D01*
X104973000Y-38814000D01*
X104973000Y-39314000D01*
G36*
X104973000Y-39314000D02*
G01*
X104473000Y-39314000D01*
X104973000Y-38814000D01*
X104973000Y-39314000D01*
G37*
D12*
%TO.C,D4*%
X105092500Y-86169500D02*
X105092500Y-86446360D01*
X105092500Y-87594440D02*
X105092500Y-87871300D01*
X105092500Y-87871300D02*
X107149900Y-87871300D01*
X107149900Y-86169500D02*
X105092500Y-86169500D01*
X107149900Y-86446360D02*
X107149900Y-86169500D01*
X107149900Y-87871300D02*
X107149900Y-87594440D01*
D13*
%TO.C,U2*%
X112700000Y-70790000D02*
X116460000Y-70790000D01*
X112700000Y-77610000D02*
X116460000Y-77610000D01*
X116460000Y-70790000D02*
X116460000Y-72050000D01*
X116460000Y-77610000D02*
X116460000Y-76350000D01*
X111420000Y-70890000D02*
X111180000Y-70560000D01*
X111660000Y-70560000D01*
X111420000Y-70890000D01*
G36*
X111420000Y-70890000D02*
G01*
X111180000Y-70560000D01*
X111660000Y-70560000D01*
X111420000Y-70890000D01*
G37*
D12*
%TO.C,C6*%
X108343700Y-84013250D02*
X108343700Y-84388750D01*
X109842300Y-84388750D02*
X109842300Y-84013250D01*
%TO.C,D2*%
X105143300Y-88658700D02*
X105143300Y-88935560D01*
X105143300Y-90083640D02*
X105143300Y-90360500D01*
X105143300Y-90360500D02*
X107200700Y-90360500D01*
X107200700Y-88658700D02*
X105143300Y-88658700D01*
X107200700Y-88935560D02*
X107200700Y-88658700D01*
X107200700Y-90360500D02*
X107200700Y-90083640D01*
%TO.C,Q1*%
X118656100Y-78422500D02*
X118656100Y-80175100D01*
X119682260Y-78422500D02*
X118656100Y-78422500D01*
X120058139Y-80175100D02*
X120632261Y-80175100D01*
X122034300Y-78422500D02*
X121008140Y-78422500D01*
X122034300Y-80175100D02*
X122034300Y-78422500D01*
X117640100Y-80645000D02*
G75*
G02*
X117386100Y-80645000I-127000J0D01*
G01*
X117386100Y-80645000D02*
G75*
G02*
X117640100Y-80645000I127000J0D01*
G01*
D13*
%TO.C,R2*%
X105932236Y-60122000D02*
X106386364Y-60122000D01*
X105932236Y-61592000D02*
X106386364Y-61592000D01*
%TO.C,C4*%
X120321548Y-68226000D02*
X120844052Y-68226000D01*
X120321548Y-69696000D02*
X120844052Y-69696000D01*
D12*
%TO.C,D5*%
X106167300Y-77762140D02*
X106167300Y-77924700D01*
X106167300Y-77924700D02*
X108732700Y-77924700D01*
X108355935Y-76375300D02*
X106544065Y-76375300D01*
X108732700Y-77924700D02*
X108732700Y-77762140D01*
D14*
X104770300Y-77035700D02*
G75*
G02*
X104008300Y-77035700I-381000J0D01*
G01*
X104008300Y-77035700D02*
G75*
G02*
X104770300Y-77035700I381000J0D01*
G01*
D12*
%TO.C,C3*%
X120205500Y-83530650D02*
X120205500Y-83906150D01*
X121704100Y-83906150D02*
X121704100Y-83530650D01*
%TD*%
M02*
