%TF.GenerationSoftware,KiCad,Pcbnew,8.0.8*%
%TF.CreationDate,2025-02-25T12:41:36-05:00*%
%TF.ProjectId,pcb1,70636231-2e6b-4696-9361-645f70636258,rev?*%
%TF.SameCoordinates,Original*%
%TF.FileFunction,Copper,L4,Bot*%
%TF.FilePolarity,Positive*%
%FSLAX46Y46*%
G04 Gerber Fmt 4.6, Leading zero omitted, Abs format (unit mm)*
G04 Created by KiCad (PCBNEW 8.0.8) date 2025-02-25 12:41:36*
%MOMM*%
%LPD*%
G01*
G04 APERTURE LIST*
%TA.AperFunction,ComponentPad*%
%ADD10O,0.900000X1.600000*%
%TD*%
%TA.AperFunction,HeatsinkPad*%
%ADD11C,0.600000*%
%TD*%
%TA.AperFunction,SMDPad,CuDef*%
%ADD12R,1.168400X0.482600*%
%TD*%
%TA.AperFunction,ComponentPad*%
%ADD13R,1.700000X1.700000*%
%TD*%
%TA.AperFunction,ComponentPad*%
%ADD14O,1.700000X1.700000*%
%TD*%
%TA.AperFunction,SMDPad,CuDef*%
%ADD15R,0.863600X1.244600*%
%TD*%
%TA.AperFunction,ViaPad*%
%ADD16C,0.600000*%
%TD*%
%TA.AperFunction,Conductor*%
%ADD17C,0.381000*%
%TD*%
%TA.AperFunction,Conductor*%
%ADD18C,0.508000*%
%TD*%
G04 APERTURE END LIST*
D10*
%TO.P,J1,6,Shield*%
%TO.N,GND*%
X111060000Y-97930000D03*
X117660000Y-97930000D03*
%TD*%
D11*
%TO.P,U1,41,GND*%
%TO.N,GND*%
X111273000Y-47099000D03*
X111273000Y-48499000D03*
X111973000Y-46399000D03*
X111973000Y-47799000D03*
X111973000Y-49199000D03*
X112673000Y-47099000D03*
X112673000Y-48499000D03*
X113373000Y-46399000D03*
X113373000Y-47799000D03*
X113373000Y-49199000D03*
X114073000Y-47099000D03*
X114073000Y-48499000D03*
%TD*%
D12*
%TO.P,D1,1,K*%
%TO.N,VBUS*%
X108000800Y-96164400D03*
%TO.P,D1,2,A*%
%TO.N,GND*%
X105765600Y-96164400D03*
%TD*%
D13*
%TO.P,J3,1,Pin_1*%
%TO.N,GND*%
X127000000Y-40640000D03*
D14*
%TO.P,J3,2,Pin_2*%
%TO.N,/U0TXD*%
X127000000Y-43180000D03*
%TO.P,J3,3,Pin_3*%
%TO.N,/U0RXD*%
X127000000Y-45720000D03*
%TO.P,J3,4,Pin_4*%
%TO.N,/GPIO1*%
X127000000Y-48260000D03*
%TO.P,J3,5,Pin_5*%
%TO.N,/GPIO2*%
X127000000Y-50800000D03*
%TO.P,J3,6,Pin_6*%
%TO.N,/GPIO42*%
X127000000Y-53340000D03*
%TO.P,J3,7,Pin_7*%
%TO.N,/GPIO41*%
X127000000Y-55880000D03*
%TO.P,J3,8,Pin_8*%
%TO.N,/GPIO40*%
X127000000Y-58420000D03*
%TO.P,J3,9,Pin_9*%
%TO.N,/GPIO39*%
X127000000Y-60960000D03*
%TO.P,J3,10,Pin_10*%
%TO.N,/GPIO38*%
X127000000Y-63500000D03*
%TO.P,J3,11,Pin_11*%
%TO.N,/GPIO37*%
X127000000Y-66040000D03*
%TO.P,J3,12,Pin_12*%
%TO.N,/GPIO36*%
X127000000Y-68580000D03*
%TO.P,J3,13,Pin_13*%
%TO.N,/GPIO35*%
X127000000Y-71120000D03*
%TO.P,J3,14,Pin_14*%
%TO.N,/GPIO0*%
X127000000Y-73660000D03*
%TO.P,J3,15,Pin_15*%
%TO.N,/GPIO45*%
X127000000Y-76200000D03*
%TO.P,J3,16,Pin_16*%
%TO.N,/GPIO48*%
X127000000Y-78740000D03*
%TO.P,J3,17,Pin_17*%
%TO.N,/GPIO47*%
X127000000Y-81280000D03*
%TO.P,J3,18,Pin_18*%
%TO.N,/GPIO21*%
X127000000Y-83820000D03*
%TO.P,J3,19,Pin_19*%
%TO.N,/GPIO20*%
X127000000Y-86360000D03*
%TO.P,J3,20,Pin_20*%
%TO.N,/GPIO19*%
X127000000Y-88900000D03*
%TO.P,J3,21,Pin_21*%
%TO.N,GND*%
X127000000Y-91440000D03*
%TO.P,J3,22,Pin_22*%
X127000000Y-93980000D03*
%TD*%
D13*
%TO.P,J2,1,Pin_1*%
%TO.N,ESP_3V3*%
X101600000Y-40640000D03*
D14*
%TO.P,J2,2,Pin_2*%
X101600000Y-43180000D03*
%TO.P,J2,3,Pin_3*%
%TO.N,/CHIP_PU*%
X101600000Y-45720000D03*
%TO.P,J2,4,Pin_4*%
%TO.N,/GPIO4*%
X101600000Y-48260000D03*
%TO.P,J2,5,Pin_5*%
%TO.N,/GPIO5*%
X101600000Y-50800000D03*
%TO.P,J2,6,Pin_6*%
%TO.N,/GPIO6*%
X101600000Y-53340000D03*
%TO.P,J2,7,Pin_7*%
%TO.N,/GPIO7*%
X101600000Y-55880000D03*
%TO.P,J2,8,Pin_8*%
%TO.N,/GPIO15*%
X101600000Y-58420000D03*
%TO.P,J2,9,Pin_9*%
%TO.N,/GPIO16*%
X101600000Y-60960000D03*
%TO.P,J2,10,Pin_10*%
%TO.N,/GPIO17*%
X101600000Y-63500000D03*
%TO.P,J2,11,Pin_11*%
%TO.N,/GPIO18*%
X101600000Y-66040000D03*
%TO.P,J2,12,Pin_12*%
%TO.N,/GPIO8*%
X101600000Y-68580000D03*
%TO.P,J2,13,Pin_13*%
%TO.N,/GPIO3*%
X101600000Y-71120000D03*
%TO.P,J2,14,Pin_14*%
%TO.N,/GPIO46*%
X101600000Y-73660000D03*
%TO.P,J2,15,Pin_15*%
%TO.N,/GPIO9*%
X101600000Y-76200000D03*
%TO.P,J2,16,Pin_16*%
%TO.N,/GPIO10*%
X101600000Y-78740000D03*
%TO.P,J2,17,Pin_17*%
%TO.N,/GPIO11*%
X101600000Y-81280000D03*
%TO.P,J2,18,Pin_18*%
%TO.N,/GPIO12*%
X101600000Y-83820000D03*
%TO.P,J2,19,Pin_19*%
%TO.N,/GPIO13*%
X101600000Y-86360000D03*
%TO.P,J2,20,Pin_20*%
%TO.N,/GPIO14*%
X101600000Y-88900000D03*
%TO.P,J2,21,Pin_21*%
%TO.N,VCC_5V*%
X101600000Y-91440000D03*
%TO.P,J2,22,Pin_22*%
%TO.N,GND*%
X101600000Y-93980000D03*
%TD*%
D15*
%TO.P,C11,1*%
%TO.N,VCC_5V*%
X107556300Y-93319600D03*
%TO.P,C11,2*%
%TO.N,GND*%
X105702100Y-93319600D03*
%TD*%
D16*
%TO.N,VCC_5V*%
X106172000Y-80416400D03*
%TO.N,+3V3*%
X113850000Y-86100000D03*
X109450000Y-72050000D03*
X116700000Y-81000000D03*
X115740500Y-70250000D03*
%TO.N,/CHIP_PU*%
X105592500Y-59438008D03*
X103835200Y-42621200D03*
%TO.N,VBUS*%
X108000000Y-97900000D03*
%TO.N,/GPIO17*%
X108051600Y-51509000D03*
%TO.N,/GPIO10*%
X110998000Y-55270400D03*
%TO.N,/GPIO13*%
X114808000Y-55219600D03*
%TO.N,ESP_3V3*%
X106934000Y-64770000D03*
X112115600Y-61366400D03*
%TO.N,/GPIO18*%
X108051600Y-52779000D03*
%TO.N,/GPIO16*%
X108051600Y-50239000D03*
%TO.N,/GPIO14*%
X117348000Y-53949600D03*
%TO.N,/GPIO12*%
X114800000Y-54000000D03*
%TO.N,/GPIO46*%
X108458000Y-55829200D03*
%TO.N,/GPIO9*%
X109728000Y-55270400D03*
%TO.N,/GPIO15*%
X108051600Y-48969000D03*
%TO.N,/GPIO8*%
X108051600Y-54049000D03*
%TO.N,/GPIO11*%
X112268000Y-55270400D03*
%TO.N,/GPIO4*%
X103739258Y-44557258D03*
%TO.N,/GPIO2*%
X120190600Y-42619000D03*
%TO.N,/GPIO38*%
X119888000Y-49352200D03*
%TO.N,/GPIO36*%
X119888000Y-51587400D03*
%TO.N,/GPIO21*%
X117348000Y-55295800D03*
%TO.N,/GPIO37*%
X119888000Y-50469800D03*
%TO.N,/GPIO35*%
X119913400Y-52654200D03*
%TO.N,/U0RXD*%
X113850000Y-83550000D03*
%TO.N,/U0TXD*%
X120091200Y-43891200D03*
%TO.N,/GPIO48*%
X119888000Y-55295800D03*
%TO.N,/GPIO45*%
X119913400Y-53898800D03*
%TO.N,/GPIO47*%
X118618000Y-55295800D03*
%TO.N,/U0TXD*%
X113850000Y-84800000D03*
%TO.N,/U0RXD*%
X120091200Y-45161200D03*
%TO.N,Net-(Q1-B)*%
X122428000Y-91694000D03*
X122428000Y-82346800D03*
%TO.N,Net-(Q1-E)*%
X119380000Y-81838800D03*
X118516400Y-84074000D03*
%TD*%
D17*
%TO.N,/GPIO2*%
X121820000Y-49910000D02*
X122710000Y-50800000D01*
X122710000Y-50800000D02*
X127000000Y-50800000D01*
X121820000Y-43030000D02*
X121820000Y-49910000D01*
X121409000Y-42619000D02*
X121820000Y-43030000D01*
X120190600Y-42619000D02*
X121409000Y-42619000D01*
D18*
%TO.N,VCC_5V*%
X107066400Y-80416400D02*
X106172000Y-80416400D01*
X107543600Y-80893600D02*
X107066400Y-80416400D01*
X107543600Y-91440000D02*
X107543600Y-80893600D01*
X107543600Y-93319600D02*
X107543600Y-91440000D01*
X101600000Y-91440000D02*
X107543600Y-91440000D01*
D17*
%TO.N,GND*%
X105765600Y-93510100D02*
X105956100Y-93319600D01*
X105702100Y-96100900D02*
X105765600Y-96164400D01*
D18*
X105702100Y-93319600D02*
X105702100Y-96100900D01*
X102057200Y-96164400D02*
X105765600Y-96164400D01*
X101600000Y-95707200D02*
X102057200Y-96164400D01*
X101600000Y-93980000D02*
X101600000Y-95707200D01*
%TO.N,VBUS*%
X108000800Y-97899200D02*
X108000800Y-96164400D01*
X108000000Y-97900000D02*
X108000800Y-97899200D01*
D17*
%TO.N,ESP_3V3*%
X106790000Y-64626000D02*
X106790000Y-44407600D01*
X106934000Y-64770000D02*
X108204000Y-64770000D01*
X106249158Y-43866758D02*
X104064758Y-43866758D01*
X108204000Y-64770000D02*
X111607600Y-61366400D01*
X104064758Y-43866758D02*
X103378000Y-43180000D01*
X101600000Y-40640000D02*
X101600000Y-43180000D01*
X106934000Y-64770000D02*
X106790000Y-64626000D01*
X103378000Y-43180000D02*
X101600000Y-43180000D01*
X111607600Y-61366400D02*
X112115600Y-61366400D01*
X106790000Y-44407600D02*
X106249158Y-43866758D01*
%TO.N,Net-(Q1-B)*%
X122428000Y-91694000D02*
X122428000Y-82346800D01*
%TO.N,Net-(Q1-E)*%
X118516400Y-83362800D02*
X118516400Y-84074000D01*
X119380000Y-81838800D02*
X119380000Y-82499200D01*
X119380000Y-82499200D02*
X118516400Y-83362800D01*
%TD*%
%TA.AperFunction,Conductor*%
%TO.N,+3V3*%
G36*
X128423739Y-38608685D02*
G01*
X128469494Y-38661489D01*
X128480700Y-38713000D01*
X128480700Y-98816500D01*
X128461015Y-98883539D01*
X128408211Y-98929294D01*
X128356700Y-98940500D01*
X118218808Y-98940500D01*
X118151769Y-98920815D01*
X118106014Y-98868011D01*
X118096070Y-98798853D01*
X118125095Y-98735297D01*
X118131127Y-98728819D01*
X118165273Y-98694672D01*
X118165276Y-98694669D01*
X118236465Y-98588127D01*
X118285501Y-98469744D01*
X118299275Y-98400499D01*
X118310500Y-98344071D01*
X118310500Y-97515928D01*
X118285502Y-97390261D01*
X118285501Y-97390260D01*
X118285501Y-97390256D01*
X118236465Y-97271873D01*
X118236464Y-97271872D01*
X118236461Y-97271866D01*
X118165276Y-97165331D01*
X118165273Y-97165327D01*
X118074672Y-97074726D01*
X118074668Y-97074723D01*
X117968133Y-97003538D01*
X117968124Y-97003533D01*
X117849744Y-96954499D01*
X117849738Y-96954497D01*
X117724071Y-96929500D01*
X117724069Y-96929500D01*
X117595931Y-96929500D01*
X117595929Y-96929500D01*
X117470261Y-96954497D01*
X117470255Y-96954499D01*
X117351875Y-97003533D01*
X117351866Y-97003538D01*
X117245331Y-97074723D01*
X117245327Y-97074726D01*
X117154726Y-97165327D01*
X117154723Y-97165331D01*
X117083538Y-97271866D01*
X117083533Y-97271875D01*
X117034499Y-97390255D01*
X117034497Y-97390261D01*
X117009500Y-97515928D01*
X117009500Y-97515931D01*
X117009500Y-98344069D01*
X117009500Y-98344071D01*
X117009499Y-98344071D01*
X117034497Y-98469738D01*
X117034499Y-98469744D01*
X117083533Y-98588124D01*
X117083538Y-98588133D01*
X117154723Y-98694668D01*
X117154726Y-98694672D01*
X117188873Y-98728819D01*
X117222358Y-98790142D01*
X117217374Y-98859834D01*
X117175502Y-98915767D01*
X117110038Y-98940184D01*
X117101192Y-98940500D01*
X111618808Y-98940500D01*
X111551769Y-98920815D01*
X111506014Y-98868011D01*
X111496070Y-98798853D01*
X111525095Y-98735297D01*
X111531127Y-98728819D01*
X111565273Y-98694672D01*
X111565276Y-98694669D01*
X111636465Y-98588127D01*
X111685501Y-98469744D01*
X111699275Y-98400499D01*
X111710500Y-98344071D01*
X111710500Y-97515928D01*
X111685502Y-97390261D01*
X111685501Y-97390260D01*
X111685501Y-97390256D01*
X111636465Y-97271873D01*
X111636464Y-97271872D01*
X111636461Y-97271866D01*
X111565276Y-97165331D01*
X111565273Y-97165327D01*
X111474672Y-97074726D01*
X111474668Y-97074723D01*
X111368133Y-97003538D01*
X111368124Y-97003533D01*
X111249744Y-96954499D01*
X111249738Y-96954497D01*
X111124071Y-96929500D01*
X111124069Y-96929500D01*
X110995931Y-96929500D01*
X110995929Y-96929500D01*
X110870261Y-96954497D01*
X110870255Y-96954499D01*
X110751875Y-97003533D01*
X110751866Y-97003538D01*
X110645331Y-97074723D01*
X110645327Y-97074726D01*
X110554726Y-97165327D01*
X110554723Y-97165331D01*
X110483538Y-97271866D01*
X110483533Y-97271875D01*
X110434499Y-97390255D01*
X110434497Y-97390261D01*
X110409500Y-97515928D01*
X110409500Y-97515931D01*
X110409500Y-98344069D01*
X110409500Y-98344071D01*
X110409499Y-98344071D01*
X110434497Y-98469738D01*
X110434499Y-98469744D01*
X110483533Y-98588124D01*
X110483538Y-98588133D01*
X110554723Y-98694668D01*
X110554726Y-98694672D01*
X110588873Y-98728819D01*
X110622358Y-98790142D01*
X110617374Y-98859834D01*
X110575502Y-98915767D01*
X110510038Y-98940184D01*
X110501192Y-98940500D01*
X100243300Y-98940500D01*
X100176261Y-98920815D01*
X100130506Y-98868011D01*
X100119300Y-98816500D01*
X100119300Y-91440000D01*
X100544417Y-91440000D01*
X100564699Y-91645932D01*
X100564700Y-91645934D01*
X100624768Y-91843954D01*
X100722315Y-92026450D01*
X100722317Y-92026452D01*
X100853589Y-92186410D01*
X100950209Y-92265702D01*
X101013550Y-92317685D01*
X101196046Y-92415232D01*
X101394066Y-92475300D01*
X101394065Y-92475300D01*
X101412529Y-92477118D01*
X101600000Y-92495583D01*
X101805934Y-92475300D01*
X102003954Y-92415232D01*
X102186450Y-92317685D01*
X102346410Y-92186410D01*
X102477685Y-92026450D01*
X102485544Y-92011746D01*
X102513179Y-91960047D01*
X102562141Y-91910203D01*
X102622537Y-91894500D01*
X106965100Y-91894500D01*
X107032139Y-91914185D01*
X107077894Y-91966989D01*
X107089100Y-92018500D01*
X107089100Y-92413534D01*
X107069415Y-92480573D01*
X107033992Y-92516635D01*
X106979948Y-92552746D01*
X106935633Y-92619068D01*
X106929821Y-92648290D01*
X106897436Y-92710201D01*
X106836721Y-92744776D01*
X106808203Y-92748100D01*
X106450197Y-92748100D01*
X106383158Y-92728415D01*
X106337403Y-92675611D01*
X106328579Y-92648290D01*
X106322767Y-92619069D01*
X106308062Y-92597062D01*
X106278452Y-92552747D01*
X106212130Y-92508432D01*
X106212129Y-92508431D01*
X106153652Y-92496800D01*
X106153648Y-92496800D01*
X105250552Y-92496800D01*
X105250547Y-92496800D01*
X105192070Y-92508431D01*
X105192069Y-92508432D01*
X105125747Y-92552747D01*
X105081432Y-92619069D01*
X105081431Y-92619070D01*
X105069800Y-92677547D01*
X105069800Y-93961652D01*
X105081431Y-94020129D01*
X105081432Y-94020130D01*
X105081433Y-94020131D01*
X105125748Y-94086452D01*
X105192069Y-94130767D01*
X105192071Y-94130767D01*
X105192490Y-94131047D01*
X105237296Y-94184659D01*
X105247600Y-94234150D01*
X105247600Y-95585900D01*
X105227915Y-95652939D01*
X105175111Y-95698694D01*
X105123600Y-95709900D01*
X102296822Y-95709900D01*
X102229783Y-95690215D01*
X102209141Y-95673581D01*
X102090819Y-95555259D01*
X102057334Y-95493936D01*
X102054500Y-95467578D01*
X102054500Y-95002536D01*
X102074185Y-94935497D01*
X102120046Y-94893178D01*
X102186450Y-94857685D01*
X102346410Y-94726410D01*
X102477685Y-94566450D01*
X102575232Y-94383954D01*
X102635300Y-94185934D01*
X102655583Y-93980000D01*
X102635300Y-93774066D01*
X102575232Y-93576046D01*
X102477685Y-93393550D01*
X102425702Y-93330209D01*
X102346410Y-93233589D01*
X102186452Y-93102317D01*
X102186453Y-93102317D01*
X102186450Y-93102315D01*
X102003954Y-93004768D01*
X101805934Y-92944700D01*
X101805932Y-92944699D01*
X101805934Y-92944699D01*
X101600000Y-92924417D01*
X101394067Y-92944699D01*
X101196043Y-93004769D01*
X101085898Y-93063643D01*
X101013550Y-93102315D01*
X101013548Y-93102316D01*
X101013547Y-93102317D01*
X100853589Y-93233589D01*
X100722317Y-93393547D01*
X100624769Y-93576043D01*
X100564699Y-93774067D01*
X100544417Y-93980000D01*
X100564699Y-94185932D01*
X100564700Y-94185934D01*
X100624768Y-94383954D01*
X100722315Y-94566450D01*
X100722317Y-94566452D01*
X100853589Y-94726410D01*
X100984864Y-94834143D01*
X101013546Y-94857682D01*
X101013549Y-94857684D01*
X101013551Y-94857686D01*
X101039253Y-94871423D01*
X101079953Y-94893178D01*
X101129797Y-94942139D01*
X101145500Y-95002536D01*
X101145500Y-95639751D01*
X101145499Y-95639769D01*
X101145499Y-95647364D01*
X101145499Y-95767036D01*
X101148584Y-95778548D01*
X101154522Y-95800708D01*
X101154522Y-95800709D01*
X101176473Y-95882632D01*
X101176474Y-95882633D01*
X101188436Y-95903352D01*
X101236309Y-95986270D01*
X101236311Y-95986272D01*
X101327995Y-96077956D01*
X101328001Y-96077961D01*
X101689168Y-96439128D01*
X101689178Y-96439139D01*
X101693508Y-96443469D01*
X101693509Y-96443470D01*
X101778130Y-96528091D01*
X101881769Y-96587927D01*
X101997364Y-96618900D01*
X101997366Y-96618900D01*
X105825434Y-96618900D01*
X105825436Y-96618900D01*
X105857066Y-96610424D01*
X105889158Y-96606200D01*
X106369550Y-96606200D01*
X106369551Y-96606199D01*
X106384368Y-96603252D01*
X106428029Y-96594568D01*
X106428029Y-96594567D01*
X106428031Y-96594567D01*
X106494352Y-96550252D01*
X106538667Y-96483931D01*
X106538667Y-96483929D01*
X106538668Y-96483929D01*
X106550299Y-96425452D01*
X106550300Y-96425450D01*
X106550300Y-95903349D01*
X106550299Y-95903347D01*
X107216100Y-95903347D01*
X107216100Y-96425452D01*
X107227731Y-96483929D01*
X107227732Y-96483930D01*
X107272047Y-96550252D01*
X107338369Y-96594567D01*
X107338370Y-96594568D01*
X107396847Y-96606199D01*
X107396850Y-96606200D01*
X107396852Y-96606200D01*
X107422300Y-96606200D01*
X107489339Y-96625885D01*
X107535094Y-96678689D01*
X107546300Y-96730200D01*
X107546300Y-97661670D01*
X107535094Y-97713181D01*
X107514835Y-97757541D01*
X107514834Y-97757542D01*
X107494353Y-97900000D01*
X107514834Y-98042456D01*
X107574622Y-98173371D01*
X107574623Y-98173373D01*
X107668872Y-98282143D01*
X107789947Y-98359953D01*
X107789950Y-98359954D01*
X107789949Y-98359954D01*
X107928036Y-98400499D01*
X107928038Y-98400500D01*
X107928039Y-98400500D01*
X108071962Y-98400500D01*
X108071962Y-98400499D01*
X108210053Y-98359953D01*
X108331128Y-98282143D01*
X108425377Y-98173373D01*
X108485165Y-98042457D01*
X108505647Y-97900000D01*
X108485165Y-97757543D01*
X108466506Y-97716685D01*
X108455300Y-97665173D01*
X108455300Y-96730200D01*
X108474985Y-96663161D01*
X108527789Y-96617406D01*
X108579300Y-96606200D01*
X108604750Y-96606200D01*
X108604751Y-96606199D01*
X108619568Y-96603252D01*
X108663229Y-96594568D01*
X108663229Y-96594567D01*
X108663231Y-96594567D01*
X108729552Y-96550252D01*
X108773867Y-96483931D01*
X108773867Y-96483929D01*
X108773868Y-96483929D01*
X108785499Y-96425452D01*
X108785500Y-96425450D01*
X108785500Y-95903349D01*
X108785499Y-95903347D01*
X108773868Y-95844870D01*
X108773867Y-95844869D01*
X108729552Y-95778547D01*
X108663230Y-95734232D01*
X108663229Y-95734231D01*
X108604752Y-95722600D01*
X108604748Y-95722600D01*
X108124358Y-95722600D01*
X108092266Y-95718375D01*
X108060636Y-95709900D01*
X107940964Y-95709900D01*
X107909333Y-95718375D01*
X107877242Y-95722600D01*
X107396847Y-95722600D01*
X107338370Y-95734231D01*
X107338369Y-95734232D01*
X107272047Y-95778547D01*
X107227732Y-95844869D01*
X107227731Y-95844870D01*
X107216100Y-95903347D01*
X106550299Y-95903347D01*
X106538668Y-95844870D01*
X106538667Y-95844869D01*
X106494352Y-95778547D01*
X106428030Y-95734232D01*
X106428029Y-95734231D01*
X106369552Y-95722600D01*
X106369548Y-95722600D01*
X106280600Y-95722600D01*
X106213561Y-95702915D01*
X106167806Y-95650111D01*
X106156600Y-95598600D01*
X106156600Y-94234150D01*
X106176285Y-94167111D01*
X106211710Y-94131047D01*
X106212128Y-94130767D01*
X106212131Y-94130767D01*
X106278452Y-94086452D01*
X106322767Y-94020131D01*
X106328579Y-93990908D01*
X106360964Y-93928999D01*
X106421679Y-93894424D01*
X106450197Y-93891100D01*
X106808203Y-93891100D01*
X106875242Y-93910785D01*
X106920997Y-93963589D01*
X106929821Y-93990910D01*
X106935633Y-94020131D01*
X106979947Y-94086452D01*
X107046269Y-94130767D01*
X107046270Y-94130768D01*
X107104747Y-94142399D01*
X107104750Y-94142400D01*
X107104752Y-94142400D01*
X108007850Y-94142400D01*
X108007851Y-94142399D01*
X108022668Y-94139452D01*
X108066329Y-94130768D01*
X108066329Y-94130767D01*
X108066331Y-94130767D01*
X108132652Y-94086452D01*
X108176967Y-94020131D01*
X108176967Y-94020129D01*
X108176968Y-94020129D01*
X108184950Y-93980000D01*
X125944417Y-93980000D01*
X125964699Y-94185932D01*
X125964700Y-94185934D01*
X126024768Y-94383954D01*
X126122315Y-94566450D01*
X126122317Y-94566452D01*
X126253589Y-94726410D01*
X126350209Y-94805702D01*
X126413550Y-94857685D01*
X126596046Y-94955232D01*
X126794066Y-95015300D01*
X126794065Y-95015300D01*
X126812529Y-95017118D01*
X127000000Y-95035583D01*
X127205934Y-95015300D01*
X127403954Y-94955232D01*
X127586450Y-94857685D01*
X127746410Y-94726410D01*
X127877685Y-94566450D01*
X127975232Y-94383954D01*
X128035300Y-94185934D01*
X128055583Y-93980000D01*
X128035300Y-93774066D01*
X127975232Y-93576046D01*
X127877685Y-93393550D01*
X127825702Y-93330209D01*
X127746410Y-93233589D01*
X127586452Y-93102317D01*
X127586453Y-93102317D01*
X127586450Y-93102315D01*
X127403954Y-93004768D01*
X127205934Y-92944700D01*
X127205932Y-92944699D01*
X127205934Y-92944699D01*
X127000000Y-92924417D01*
X126794067Y-92944699D01*
X126596043Y-93004769D01*
X126485898Y-93063643D01*
X126413550Y-93102315D01*
X126413548Y-93102316D01*
X126413547Y-93102317D01*
X126253589Y-93233589D01*
X126122317Y-93393547D01*
X126024769Y-93576043D01*
X125964699Y-93774067D01*
X125944417Y-93980000D01*
X108184950Y-93980000D01*
X108188599Y-93961652D01*
X108188600Y-93961650D01*
X108188600Y-92677549D01*
X108188599Y-92677547D01*
X108176968Y-92619070D01*
X108176967Y-92619069D01*
X108132652Y-92552747D01*
X108056177Y-92501648D01*
X108058197Y-92498624D01*
X108020231Y-92468018D01*
X107998178Y-92401720D01*
X107998100Y-92397316D01*
X107998100Y-84800000D01*
X113344353Y-84800000D01*
X113364834Y-84942456D01*
X113424622Y-85073371D01*
X113424623Y-85073373D01*
X113518872Y-85182143D01*
X113639947Y-85259953D01*
X113639950Y-85259954D01*
X113639949Y-85259954D01*
X113778036Y-85300499D01*
X113778038Y-85300500D01*
X113778039Y-85300500D01*
X113921962Y-85300500D01*
X113921962Y-85300499D01*
X114060053Y-85259953D01*
X114181128Y-85182143D01*
X114275377Y-85073373D01*
X114335165Y-84942457D01*
X114355647Y-84800000D01*
X114335165Y-84657543D01*
X114275377Y-84526627D01*
X114181128Y-84417857D01*
X114060053Y-84340047D01*
X114060051Y-84340046D01*
X114060049Y-84340045D01*
X114060050Y-84340045D01*
X113921963Y-84299500D01*
X113921961Y-84299500D01*
X113778039Y-84299500D01*
X113778036Y-84299500D01*
X113639949Y-84340045D01*
X113518873Y-84417856D01*
X113424623Y-84526626D01*
X113424622Y-84526628D01*
X113364834Y-84657543D01*
X113344353Y-84800000D01*
X107998100Y-84800000D01*
X107998100Y-84074000D01*
X118010753Y-84074000D01*
X118031234Y-84216456D01*
X118069160Y-84299500D01*
X118091023Y-84347373D01*
X118185272Y-84456143D01*
X118306347Y-84533953D01*
X118306350Y-84533954D01*
X118306349Y-84533954D01*
X118444436Y-84574499D01*
X118444438Y-84574500D01*
X118444439Y-84574500D01*
X118588362Y-84574500D01*
X118588362Y-84574499D01*
X118726453Y-84533953D01*
X118847528Y-84456143D01*
X118941777Y-84347373D01*
X119001565Y-84216457D01*
X119022047Y-84074000D01*
X119001565Y-83931543D01*
X118941777Y-83800627D01*
X118941774Y-83800623D01*
X118937683Y-83795901D01*
X118908661Y-83732344D01*
X118907400Y-83714703D01*
X118907400Y-83576120D01*
X118927085Y-83509081D01*
X118943719Y-83488439D01*
X119309441Y-83122717D01*
X119692878Y-82739280D01*
X119744354Y-82650121D01*
X119771000Y-82550676D01*
X119771000Y-82447724D01*
X119771000Y-82346800D01*
X121922353Y-82346800D01*
X121942834Y-82489256D01*
X121970884Y-82550675D01*
X122002623Y-82620173D01*
X122006710Y-82624890D01*
X122035737Y-82688444D01*
X122037000Y-82706095D01*
X122037000Y-91334703D01*
X122017315Y-91401742D01*
X122006717Y-91415901D01*
X122002625Y-91420623D01*
X122002622Y-91420628D01*
X121942834Y-91551543D01*
X121922353Y-91694000D01*
X121942834Y-91836456D01*
X121999277Y-91960047D01*
X122002623Y-91967373D01*
X122096872Y-92076143D01*
X122217947Y-92153953D01*
X122217950Y-92153954D01*
X122217949Y-92153954D01*
X122356036Y-92194499D01*
X122356038Y-92194500D01*
X122356039Y-92194500D01*
X122499962Y-92194500D01*
X122499962Y-92194499D01*
X122638053Y-92153953D01*
X122759128Y-92076143D01*
X122853377Y-91967373D01*
X122913165Y-91836457D01*
X122933647Y-91694000D01*
X122913165Y-91551543D01*
X122862224Y-91440000D01*
X125944417Y-91440000D01*
X125964699Y-91645932D01*
X125964700Y-91645934D01*
X126024768Y-91843954D01*
X126122315Y-92026450D01*
X126122317Y-92026452D01*
X126253589Y-92186410D01*
X126350209Y-92265702D01*
X126413550Y-92317685D01*
X126596046Y-92415232D01*
X126794066Y-92475300D01*
X126794065Y-92475300D01*
X126812529Y-92477118D01*
X127000000Y-92495583D01*
X127205934Y-92475300D01*
X127403954Y-92415232D01*
X127586450Y-92317685D01*
X127746410Y-92186410D01*
X127877685Y-92026450D01*
X127975232Y-91843954D01*
X128035300Y-91645934D01*
X128055583Y-91440000D01*
X128035300Y-91234066D01*
X127975232Y-91036046D01*
X127877685Y-90853550D01*
X127825702Y-90790209D01*
X127746410Y-90693589D01*
X127586452Y-90562317D01*
X127586453Y-90562317D01*
X127586450Y-90562315D01*
X127403954Y-90464768D01*
X127205934Y-90404700D01*
X127205932Y-90404699D01*
X127205934Y-90404699D01*
X127000000Y-90384417D01*
X126794067Y-90404699D01*
X126596043Y-90464769D01*
X126485898Y-90523643D01*
X126413550Y-90562315D01*
X126413548Y-90562316D01*
X126413547Y-90562317D01*
X126253589Y-90693589D01*
X126122317Y-90853547D01*
X126122315Y-90853550D01*
X126118066Y-90861500D01*
X126024769Y-91036043D01*
X125964699Y-91234067D01*
X125944417Y-91440000D01*
X122862224Y-91440000D01*
X122853377Y-91420627D01*
X122853374Y-91420623D01*
X122849283Y-91415901D01*
X122820261Y-91352344D01*
X122819000Y-91334703D01*
X122819000Y-88900000D01*
X125944417Y-88900000D01*
X125964699Y-89105932D01*
X125964700Y-89105934D01*
X126024768Y-89303954D01*
X126122315Y-89486450D01*
X126122317Y-89486452D01*
X126253589Y-89646410D01*
X126350209Y-89725702D01*
X126413550Y-89777685D01*
X126596046Y-89875232D01*
X126794066Y-89935300D01*
X126794065Y-89935300D01*
X126812529Y-89937118D01*
X127000000Y-89955583D01*
X127205934Y-89935300D01*
X127403954Y-89875232D01*
X127586450Y-89777685D01*
X127746410Y-89646410D01*
X127877685Y-89486450D01*
X127975232Y-89303954D01*
X128035300Y-89105934D01*
X128055583Y-88900000D01*
X128035300Y-88694066D01*
X127975232Y-88496046D01*
X127877685Y-88313550D01*
X127825702Y-88250209D01*
X127746410Y-88153589D01*
X127586452Y-88022317D01*
X127586453Y-88022317D01*
X127586450Y-88022315D01*
X127403954Y-87924768D01*
X127205934Y-87864700D01*
X127205932Y-87864699D01*
X127205934Y-87864699D01*
X127000000Y-87844417D01*
X126794067Y-87864699D01*
X126596043Y-87924769D01*
X126485898Y-87983643D01*
X126413550Y-88022315D01*
X126413548Y-88022316D01*
X126413547Y-88022317D01*
X126253589Y-88153589D01*
X126122317Y-88313547D01*
X126024769Y-88496043D01*
X125964699Y-88694067D01*
X125944417Y-88900000D01*
X122819000Y-88900000D01*
X122819000Y-86360000D01*
X125944417Y-86360000D01*
X125964699Y-86565932D01*
X125964700Y-86565934D01*
X126024768Y-86763954D01*
X126122315Y-86946450D01*
X126122317Y-86946452D01*
X126253589Y-87106410D01*
X126350209Y-87185702D01*
X126413550Y-87237685D01*
X126596046Y-87335232D01*
X126794066Y-87395300D01*
X126794065Y-87395300D01*
X126812529Y-87397118D01*
X127000000Y-87415583D01*
X127205934Y-87395300D01*
X127403954Y-87335232D01*
X127586450Y-87237685D01*
X127746410Y-87106410D01*
X127877685Y-86946450D01*
X127975232Y-86763954D01*
X128035300Y-86565934D01*
X128055583Y-86360000D01*
X128035300Y-86154066D01*
X127975232Y-85956046D01*
X127877685Y-85773550D01*
X127825702Y-85710209D01*
X127746410Y-85613589D01*
X127586452Y-85482317D01*
X127586453Y-85482317D01*
X127586450Y-85482315D01*
X127403954Y-85384768D01*
X127205934Y-85324700D01*
X127205932Y-85324699D01*
X127205934Y-85324699D01*
X127000000Y-85304417D01*
X126794067Y-85324699D01*
X126596043Y-85384769D01*
X126485898Y-85443643D01*
X126413550Y-85482315D01*
X126413548Y-85482316D01*
X126413547Y-85482317D01*
X126253589Y-85613589D01*
X126122317Y-85773547D01*
X126024769Y-85956043D01*
X125964699Y-86154067D01*
X125944417Y-86360000D01*
X122819000Y-86360000D01*
X122819000Y-83820000D01*
X125944417Y-83820000D01*
X125964699Y-84025932D01*
X125972152Y-84050500D01*
X126024768Y-84223954D01*
X126122315Y-84406450D01*
X126156969Y-84448677D01*
X126253589Y-84566410D01*
X126350209Y-84645702D01*
X126413550Y-84697685D01*
X126596046Y-84795232D01*
X126794066Y-84855300D01*
X126794065Y-84855300D01*
X126812529Y-84857118D01*
X127000000Y-84875583D01*
X127205934Y-84855300D01*
X127403954Y-84795232D01*
X127586450Y-84697685D01*
X127746410Y-84566410D01*
X127877685Y-84406450D01*
X127975232Y-84223954D01*
X128035300Y-84025934D01*
X128055583Y-83820000D01*
X128035300Y-83614066D01*
X127975232Y-83416046D01*
X127877685Y-83233550D01*
X127823772Y-83167856D01*
X127746410Y-83073589D01*
X127586452Y-82942317D01*
X127586453Y-82942317D01*
X127586450Y-82942315D01*
X127403954Y-82844768D01*
X127205934Y-82784700D01*
X127205932Y-82784699D01*
X127205934Y-82784699D01*
X127000000Y-82764417D01*
X126794067Y-82784699D01*
X126596043Y-82844769D01*
X126485898Y-82903643D01*
X126413550Y-82942315D01*
X126413548Y-82942316D01*
X126413547Y-82942317D01*
X126253589Y-83073589D01*
X126122317Y-83233547D01*
X126122315Y-83233550D01*
X126099290Y-83276626D01*
X126024769Y-83416043D01*
X125964699Y-83614067D01*
X125944417Y-83820000D01*
X122819000Y-83820000D01*
X122819000Y-82706095D01*
X122838685Y-82639056D01*
X122849286Y-82624893D01*
X122853377Y-82620173D01*
X122913165Y-82489257D01*
X122933647Y-82346800D01*
X122913165Y-82204343D01*
X122853377Y-82073427D01*
X122759128Y-81964657D01*
X122638053Y-81886847D01*
X122638051Y-81886846D01*
X122638049Y-81886845D01*
X122638050Y-81886845D01*
X122499963Y-81846300D01*
X122499961Y-81846300D01*
X122356039Y-81846300D01*
X122356036Y-81846300D01*
X122217949Y-81886845D01*
X122096873Y-81964656D01*
X122002623Y-82073426D01*
X122002622Y-82073428D01*
X121942834Y-82204343D01*
X121922353Y-82346800D01*
X119771000Y-82346800D01*
X119771000Y-82198095D01*
X119790685Y-82131056D01*
X119801286Y-82116893D01*
X119805377Y-82112173D01*
X119865165Y-81981257D01*
X119885647Y-81838800D01*
X119865165Y-81696343D01*
X119805377Y-81565427D01*
X119711128Y-81456657D01*
X119590053Y-81378847D01*
X119590051Y-81378846D01*
X119590049Y-81378845D01*
X119590050Y-81378845D01*
X119451963Y-81338300D01*
X119451961Y-81338300D01*
X119308039Y-81338300D01*
X119308036Y-81338300D01*
X119169949Y-81378845D01*
X119048873Y-81456656D01*
X118954623Y-81565426D01*
X118954622Y-81565428D01*
X118894834Y-81696343D01*
X118874353Y-81838800D01*
X118894834Y-81981256D01*
X118915456Y-82026410D01*
X118954623Y-82112173D01*
X118958710Y-82116890D01*
X118987737Y-82180444D01*
X118989000Y-82198095D01*
X118989000Y-82285880D01*
X118969315Y-82352919D01*
X118952681Y-82373561D01*
X118203524Y-83122717D01*
X118203520Y-83122723D01*
X118152047Y-83211876D01*
X118152046Y-83211878D01*
X118152046Y-83211879D01*
X118138374Y-83262905D01*
X118125400Y-83311324D01*
X118125400Y-83714703D01*
X118105715Y-83781742D01*
X118095117Y-83795901D01*
X118091025Y-83800623D01*
X118091022Y-83800628D01*
X118031234Y-83931543D01*
X118010753Y-84074000D01*
X107998100Y-84074000D01*
X107998100Y-83550000D01*
X113344353Y-83550000D01*
X113364834Y-83692456D01*
X113424622Y-83823371D01*
X113424623Y-83823373D01*
X113518872Y-83932143D01*
X113639947Y-84009953D01*
X113639950Y-84009954D01*
X113639949Y-84009954D01*
X113778036Y-84050499D01*
X113778038Y-84050500D01*
X113778039Y-84050500D01*
X113921962Y-84050500D01*
X113921962Y-84050499D01*
X114060053Y-84009953D01*
X114181128Y-83932143D01*
X114275377Y-83823373D01*
X114335165Y-83692457D01*
X114355647Y-83550000D01*
X114335165Y-83407543D01*
X114275377Y-83276627D01*
X114181128Y-83167857D01*
X114060053Y-83090047D01*
X114060051Y-83090046D01*
X114060049Y-83090045D01*
X114060050Y-83090045D01*
X113921963Y-83049500D01*
X113921961Y-83049500D01*
X113778039Y-83049500D01*
X113778036Y-83049500D01*
X113639949Y-83090045D01*
X113518873Y-83167856D01*
X113424623Y-83276626D01*
X113424622Y-83276628D01*
X113364834Y-83407543D01*
X113344353Y-83550000D01*
X107998100Y-83550000D01*
X107998100Y-81280000D01*
X125944417Y-81280000D01*
X125964699Y-81485932D01*
X125964700Y-81485934D01*
X126024768Y-81683954D01*
X126122315Y-81866450D01*
X126122317Y-81866452D01*
X126253589Y-82026410D01*
X126310882Y-82073428D01*
X126413550Y-82157685D01*
X126596046Y-82255232D01*
X126794066Y-82315300D01*
X126794065Y-82315300D01*
X126812529Y-82317118D01*
X127000000Y-82335583D01*
X127205934Y-82315300D01*
X127403954Y-82255232D01*
X127586450Y-82157685D01*
X127746410Y-82026410D01*
X127877685Y-81866450D01*
X127975232Y-81683954D01*
X128035300Y-81485934D01*
X128055583Y-81280000D01*
X128035300Y-81074066D01*
X127975232Y-80876046D01*
X127877685Y-80693550D01*
X127812835Y-80614530D01*
X127746410Y-80533589D01*
X127628677Y-80436969D01*
X127586450Y-80402315D01*
X127403954Y-80304768D01*
X127205934Y-80244700D01*
X127205932Y-80244699D01*
X127205934Y-80244699D01*
X127000000Y-80224417D01*
X126794067Y-80244699D01*
X126596043Y-80304769D01*
X126485898Y-80363643D01*
X126413550Y-80402315D01*
X126413548Y-80402316D01*
X126413547Y-80402317D01*
X126253589Y-80533589D01*
X126122317Y-80693547D01*
X126122315Y-80693550D01*
X126109156Y-80718169D01*
X126024769Y-80876043D01*
X125964699Y-81074067D01*
X125944417Y-81280000D01*
X107998100Y-81280000D01*
X107998100Y-80963438D01*
X107998101Y-80963425D01*
X107998101Y-80833765D01*
X107967127Y-80718170D01*
X107967127Y-80718168D01*
X107940744Y-80672472D01*
X107907291Y-80614530D01*
X107822670Y-80529909D01*
X107822669Y-80529908D01*
X107818339Y-80525578D01*
X107818328Y-80525568D01*
X107437161Y-80144401D01*
X107437159Y-80144398D01*
X107345472Y-80052711D01*
X107345466Y-80052706D01*
X107241834Y-79992874D01*
X107241829Y-79992872D01*
X107217403Y-79986326D01*
X107217403Y-79986327D01*
X107171819Y-79974113D01*
X107126236Y-79961899D01*
X107006564Y-79961899D01*
X106998968Y-79961899D01*
X106998952Y-79961900D01*
X106418454Y-79961900D01*
X106383520Y-79956877D01*
X106243963Y-79915900D01*
X106243961Y-79915900D01*
X106100039Y-79915900D01*
X106100036Y-79915900D01*
X105961949Y-79956445D01*
X105840873Y-80034256D01*
X105746623Y-80143026D01*
X105746622Y-80143028D01*
X105686834Y-80273943D01*
X105666353Y-80416400D01*
X105686834Y-80558856D01*
X105746622Y-80689771D01*
X105746623Y-80689773D01*
X105840872Y-80798543D01*
X105961947Y-80876353D01*
X105961950Y-80876354D01*
X105961949Y-80876354D01*
X106100036Y-80916899D01*
X106100038Y-80916900D01*
X106100039Y-80916900D01*
X106243962Y-80916900D01*
X106243962Y-80916899D01*
X106293713Y-80902291D01*
X106383520Y-80875923D01*
X106418454Y-80870900D01*
X106826778Y-80870900D01*
X106893817Y-80890585D01*
X106914459Y-80907219D01*
X107052781Y-81045541D01*
X107086266Y-81106864D01*
X107089100Y-81133222D01*
X107089100Y-90861500D01*
X107069415Y-90928539D01*
X107016611Y-90974294D01*
X106965100Y-90985500D01*
X102622537Y-90985500D01*
X102555498Y-90965815D01*
X102513179Y-90919953D01*
X102477688Y-90853555D01*
X102477684Y-90853549D01*
X102477682Y-90853547D01*
X102454143Y-90824864D01*
X102346410Y-90693589D01*
X102186452Y-90562317D01*
X102186453Y-90562317D01*
X102186450Y-90562315D01*
X102003954Y-90464768D01*
X101805934Y-90404700D01*
X101805932Y-90404699D01*
X101805934Y-90404699D01*
X101600000Y-90384417D01*
X101394067Y-90404699D01*
X101196043Y-90464769D01*
X101085898Y-90523643D01*
X101013550Y-90562315D01*
X101013548Y-90562316D01*
X101013547Y-90562317D01*
X100853589Y-90693589D01*
X100722317Y-90853547D01*
X100722315Y-90853550D01*
X100718066Y-90861500D01*
X100624769Y-91036043D01*
X100564699Y-91234067D01*
X100544417Y-91440000D01*
X100119300Y-91440000D01*
X100119300Y-88900000D01*
X100544417Y-88900000D01*
X100564699Y-89105932D01*
X100564700Y-89105934D01*
X100624768Y-89303954D01*
X100722315Y-89486450D01*
X100722317Y-89486452D01*
X100853589Y-89646410D01*
X100950209Y-89725702D01*
X101013550Y-89777685D01*
X101196046Y-89875232D01*
X101394066Y-89935300D01*
X101394065Y-89935300D01*
X101412529Y-89937118D01*
X101600000Y-89955583D01*
X101805934Y-89935300D01*
X102003954Y-89875232D01*
X102186450Y-89777685D01*
X102346410Y-89646410D01*
X102477685Y-89486450D01*
X102575232Y-89303954D01*
X102635300Y-89105934D01*
X102655583Y-88900000D01*
X102635300Y-88694066D01*
X102575232Y-88496046D01*
X102477685Y-88313550D01*
X102425702Y-88250209D01*
X102346410Y-88153589D01*
X102186452Y-88022317D01*
X102186453Y-88022317D01*
X102186450Y-88022315D01*
X102003954Y-87924768D01*
X101805934Y-87864700D01*
X101805932Y-87864699D01*
X101805934Y-87864699D01*
X101600000Y-87844417D01*
X101394067Y-87864699D01*
X101196043Y-87924769D01*
X101085898Y-87983643D01*
X101013550Y-88022315D01*
X101013548Y-88022316D01*
X101013547Y-88022317D01*
X100853589Y-88153589D01*
X100722317Y-88313547D01*
X100624769Y-88496043D01*
X100564699Y-88694067D01*
X100544417Y-88900000D01*
X100119300Y-88900000D01*
X100119300Y-86360000D01*
X100544417Y-86360000D01*
X100564699Y-86565932D01*
X100564700Y-86565934D01*
X100624768Y-86763954D01*
X100722315Y-86946450D01*
X100722317Y-86946452D01*
X100853589Y-87106410D01*
X100950209Y-87185702D01*
X101013550Y-87237685D01*
X101196046Y-87335232D01*
X101394066Y-87395300D01*
X101394065Y-87395300D01*
X101412529Y-87397118D01*
X101600000Y-87415583D01*
X101805934Y-87395300D01*
X102003954Y-87335232D01*
X102186450Y-87237685D01*
X102346410Y-87106410D01*
X102477685Y-86946450D01*
X102575232Y-86763954D01*
X102635300Y-86565934D01*
X102655583Y-86360000D01*
X102635300Y-86154066D01*
X102575232Y-85956046D01*
X102477685Y-85773550D01*
X102425702Y-85710209D01*
X102346410Y-85613589D01*
X102186452Y-85482317D01*
X102186453Y-85482317D01*
X102186450Y-85482315D01*
X102003954Y-85384768D01*
X101805934Y-85324700D01*
X101805932Y-85324699D01*
X101805934Y-85324699D01*
X101600000Y-85304417D01*
X101394067Y-85324699D01*
X101196043Y-85384769D01*
X101085898Y-85443643D01*
X101013550Y-85482315D01*
X101013548Y-85482316D01*
X101013547Y-85482317D01*
X100853589Y-85613589D01*
X100722317Y-85773547D01*
X100624769Y-85956043D01*
X100564699Y-86154067D01*
X100544417Y-86360000D01*
X100119300Y-86360000D01*
X100119300Y-83820000D01*
X100544417Y-83820000D01*
X100564699Y-84025932D01*
X100572152Y-84050500D01*
X100624768Y-84223954D01*
X100722315Y-84406450D01*
X100756969Y-84448677D01*
X100853589Y-84566410D01*
X100950209Y-84645702D01*
X101013550Y-84697685D01*
X101196046Y-84795232D01*
X101394066Y-84855300D01*
X101394065Y-84855300D01*
X101412529Y-84857118D01*
X101600000Y-84875583D01*
X101805934Y-84855300D01*
X102003954Y-84795232D01*
X102186450Y-84697685D01*
X102346410Y-84566410D01*
X102477685Y-84406450D01*
X102575232Y-84223954D01*
X102635300Y-84025934D01*
X102655583Y-83820000D01*
X102635300Y-83614066D01*
X102575232Y-83416046D01*
X102477685Y-83233550D01*
X102423772Y-83167856D01*
X102346410Y-83073589D01*
X102186452Y-82942317D01*
X102186453Y-82942317D01*
X102186450Y-82942315D01*
X102003954Y-82844768D01*
X101805934Y-82784700D01*
X101805932Y-82784699D01*
X101805934Y-82784699D01*
X101600000Y-82764417D01*
X101394067Y-82784699D01*
X101196043Y-82844769D01*
X101085898Y-82903643D01*
X101013550Y-82942315D01*
X101013548Y-82942316D01*
X101013547Y-82942317D01*
X100853589Y-83073589D01*
X100722317Y-83233547D01*
X100722315Y-83233550D01*
X100699290Y-83276626D01*
X100624769Y-83416043D01*
X100564699Y-83614067D01*
X100544417Y-83820000D01*
X100119300Y-83820000D01*
X100119300Y-81280000D01*
X100544417Y-81280000D01*
X100564699Y-81485932D01*
X100564700Y-81485934D01*
X100624768Y-81683954D01*
X100722315Y-81866450D01*
X100722317Y-81866452D01*
X100853589Y-82026410D01*
X100910882Y-82073428D01*
X101013550Y-82157685D01*
X101196046Y-82255232D01*
X101394066Y-82315300D01*
X101394065Y-82315300D01*
X101412529Y-82317118D01*
X101600000Y-82335583D01*
X101805934Y-82315300D01*
X102003954Y-82255232D01*
X102186450Y-82157685D01*
X102346410Y-82026410D01*
X102477685Y-81866450D01*
X102575232Y-81683954D01*
X102635300Y-81485934D01*
X102655583Y-81280000D01*
X102635300Y-81074066D01*
X102575232Y-80876046D01*
X102477685Y-80693550D01*
X102412835Y-80614530D01*
X102346410Y-80533589D01*
X102228677Y-80436969D01*
X102186450Y-80402315D01*
X102003954Y-80304768D01*
X101805934Y-80244700D01*
X101805932Y-80244699D01*
X101805934Y-80244699D01*
X101600000Y-80224417D01*
X101394067Y-80244699D01*
X101196043Y-80304769D01*
X101085898Y-80363643D01*
X101013550Y-80402315D01*
X101013548Y-80402316D01*
X101013547Y-80402317D01*
X100853589Y-80533589D01*
X100722317Y-80693547D01*
X100722315Y-80693550D01*
X100709156Y-80718169D01*
X100624769Y-80876043D01*
X100564699Y-81074067D01*
X100544417Y-81280000D01*
X100119300Y-81280000D01*
X100119300Y-78740000D01*
X100544417Y-78740000D01*
X100564699Y-78945932D01*
X100564700Y-78945934D01*
X100624768Y-79143954D01*
X100722315Y-79326450D01*
X100722317Y-79326452D01*
X100853589Y-79486410D01*
X100950209Y-79565702D01*
X101013550Y-79617685D01*
X101196046Y-79715232D01*
X101394066Y-79775300D01*
X101394065Y-79775300D01*
X101412529Y-79777118D01*
X101600000Y-79795583D01*
X101805934Y-79775300D01*
X102003954Y-79715232D01*
X102186450Y-79617685D01*
X102346410Y-79486410D01*
X102477685Y-79326450D01*
X102575232Y-79143954D01*
X102635300Y-78945934D01*
X102655583Y-78740000D01*
X125944417Y-78740000D01*
X125964699Y-78945932D01*
X125964700Y-78945934D01*
X126024768Y-79143954D01*
X126122315Y-79326450D01*
X126122317Y-79326452D01*
X126253589Y-79486410D01*
X126350209Y-79565702D01*
X126413550Y-79617685D01*
X126596046Y-79715232D01*
X126794066Y-79775300D01*
X126794065Y-79775300D01*
X126812529Y-79777118D01*
X127000000Y-79795583D01*
X127205934Y-79775300D01*
X127403954Y-79715232D01*
X127586450Y-79617685D01*
X127746410Y-79486410D01*
X127877685Y-79326450D01*
X127975232Y-79143954D01*
X128035300Y-78945934D01*
X128055583Y-78740000D01*
X128035300Y-78534066D01*
X127975232Y-78336046D01*
X127877685Y-78153550D01*
X127825702Y-78090209D01*
X127746410Y-77993589D01*
X127586452Y-77862317D01*
X127586453Y-77862317D01*
X127586450Y-77862315D01*
X127403954Y-77764768D01*
X127205934Y-77704700D01*
X127205932Y-77704699D01*
X127205934Y-77704699D01*
X127000000Y-77684417D01*
X126794067Y-77704699D01*
X126596043Y-77764769D01*
X126485898Y-77823643D01*
X126413550Y-77862315D01*
X126413548Y-77862316D01*
X126413547Y-77862317D01*
X126253589Y-77993589D01*
X126122317Y-78153547D01*
X126024769Y-78336043D01*
X125964699Y-78534067D01*
X125944417Y-78740000D01*
X102655583Y-78740000D01*
X102635300Y-78534066D01*
X102575232Y-78336046D01*
X102477685Y-78153550D01*
X102425702Y-78090209D01*
X102346410Y-77993589D01*
X102186452Y-77862317D01*
X102186453Y-77862317D01*
X102186450Y-77862315D01*
X102003954Y-77764768D01*
X101805934Y-77704700D01*
X101805932Y-77704699D01*
X101805934Y-77704699D01*
X101600000Y-77684417D01*
X101394067Y-77704699D01*
X101196043Y-77764769D01*
X101085898Y-77823643D01*
X101013550Y-77862315D01*
X101013548Y-77862316D01*
X101013547Y-77862317D01*
X100853589Y-77993589D01*
X100722317Y-78153547D01*
X100624769Y-78336043D01*
X100564699Y-78534067D01*
X100544417Y-78740000D01*
X100119300Y-78740000D01*
X100119300Y-76200000D01*
X100544417Y-76200000D01*
X100564699Y-76405932D01*
X100564700Y-76405934D01*
X100624768Y-76603954D01*
X100722315Y-76786450D01*
X100722317Y-76786452D01*
X100853589Y-76946410D01*
X100950209Y-77025702D01*
X101013550Y-77077685D01*
X101196046Y-77175232D01*
X101394066Y-77235300D01*
X101394065Y-77235300D01*
X101412529Y-77237118D01*
X101600000Y-77255583D01*
X101805934Y-77235300D01*
X102003954Y-77175232D01*
X102186450Y-77077685D01*
X102346410Y-76946410D01*
X102477685Y-76786450D01*
X102575232Y-76603954D01*
X102635300Y-76405934D01*
X102655583Y-76200000D01*
X125944417Y-76200000D01*
X125964699Y-76405932D01*
X125964700Y-76405934D01*
X126024768Y-76603954D01*
X126122315Y-76786450D01*
X126122317Y-76786452D01*
X126253589Y-76946410D01*
X126350209Y-77025702D01*
X126413550Y-77077685D01*
X126596046Y-77175232D01*
X126794066Y-77235300D01*
X126794065Y-77235300D01*
X126812529Y-77237118D01*
X127000000Y-77255583D01*
X127205934Y-77235300D01*
X127403954Y-77175232D01*
X127586450Y-77077685D01*
X127746410Y-76946410D01*
X127877685Y-76786450D01*
X127975232Y-76603954D01*
X128035300Y-76405934D01*
X128055583Y-76200000D01*
X128035300Y-75994066D01*
X127975232Y-75796046D01*
X127877685Y-75613550D01*
X127825702Y-75550209D01*
X127746410Y-75453589D01*
X127586452Y-75322317D01*
X127586453Y-75322317D01*
X127586450Y-75322315D01*
X127403954Y-75224768D01*
X127205934Y-75164700D01*
X127205932Y-75164699D01*
X127205934Y-75164699D01*
X127000000Y-75144417D01*
X126794067Y-75164699D01*
X126596043Y-75224769D01*
X126485898Y-75283643D01*
X126413550Y-75322315D01*
X126413548Y-75322316D01*
X126413547Y-75322317D01*
X126253589Y-75453589D01*
X126122317Y-75613547D01*
X126024769Y-75796043D01*
X125964699Y-75994067D01*
X125944417Y-76200000D01*
X102655583Y-76200000D01*
X102635300Y-75994066D01*
X102575232Y-75796046D01*
X102477685Y-75613550D01*
X102425702Y-75550209D01*
X102346410Y-75453589D01*
X102186452Y-75322317D01*
X102186453Y-75322317D01*
X102186450Y-75322315D01*
X102003954Y-75224768D01*
X101805934Y-75164700D01*
X101805932Y-75164699D01*
X101805934Y-75164699D01*
X101600000Y-75144417D01*
X101394067Y-75164699D01*
X101196043Y-75224769D01*
X101085898Y-75283643D01*
X101013550Y-75322315D01*
X101013548Y-75322316D01*
X101013547Y-75322317D01*
X100853589Y-75453589D01*
X100722317Y-75613547D01*
X100624769Y-75796043D01*
X100564699Y-75994067D01*
X100544417Y-76200000D01*
X100119300Y-76200000D01*
X100119300Y-73660000D01*
X100544417Y-73660000D01*
X100564699Y-73865932D01*
X100564700Y-73865934D01*
X100624768Y-74063954D01*
X100722315Y-74246450D01*
X100722317Y-74246452D01*
X100853589Y-74406410D01*
X100950209Y-74485702D01*
X101013550Y-74537685D01*
X101196046Y-74635232D01*
X101394066Y-74695300D01*
X101394065Y-74695300D01*
X101412529Y-74697118D01*
X101600000Y-74715583D01*
X101805934Y-74695300D01*
X102003954Y-74635232D01*
X102186450Y-74537685D01*
X102346410Y-74406410D01*
X102477685Y-74246450D01*
X102575232Y-74063954D01*
X102635300Y-73865934D01*
X102655583Y-73660000D01*
X125944417Y-73660000D01*
X125964699Y-73865932D01*
X125964700Y-73865934D01*
X126024768Y-74063954D01*
X126122315Y-74246450D01*
X126122317Y-74246452D01*
X126253589Y-74406410D01*
X126350209Y-74485702D01*
X126413550Y-74537685D01*
X126596046Y-74635232D01*
X126794066Y-74695300D01*
X126794065Y-74695300D01*
X126812529Y-74697118D01*
X127000000Y-74715583D01*
X127205934Y-74695300D01*
X127403954Y-74635232D01*
X127586450Y-74537685D01*
X127746410Y-74406410D01*
X127877685Y-74246450D01*
X127975232Y-74063954D01*
X128035300Y-73865934D01*
X128055583Y-73660000D01*
X128035300Y-73454066D01*
X127975232Y-73256046D01*
X127877685Y-73073550D01*
X127825702Y-73010209D01*
X127746410Y-72913589D01*
X127586452Y-72782317D01*
X127586453Y-72782317D01*
X127586450Y-72782315D01*
X127403954Y-72684768D01*
X127205934Y-72624700D01*
X127205932Y-72624699D01*
X127205934Y-72624699D01*
X127000000Y-72604417D01*
X126794067Y-72624699D01*
X126596043Y-72684769D01*
X126485898Y-72743643D01*
X126413550Y-72782315D01*
X126413548Y-72782316D01*
X126413547Y-72782317D01*
X126253589Y-72913589D01*
X126122317Y-73073547D01*
X126024769Y-73256043D01*
X125964699Y-73454067D01*
X125944417Y-73660000D01*
X102655583Y-73660000D01*
X102635300Y-73454066D01*
X102575232Y-73256046D01*
X102477685Y-73073550D01*
X102425702Y-73010209D01*
X102346410Y-72913589D01*
X102186452Y-72782317D01*
X102186453Y-72782317D01*
X102186450Y-72782315D01*
X102003954Y-72684768D01*
X101805934Y-72624700D01*
X101805932Y-72624699D01*
X101805934Y-72624699D01*
X101600000Y-72604417D01*
X101394067Y-72624699D01*
X101196043Y-72684769D01*
X101085898Y-72743643D01*
X101013550Y-72782315D01*
X101013548Y-72782316D01*
X101013547Y-72782317D01*
X100853589Y-72913589D01*
X100722317Y-73073547D01*
X100624769Y-73256043D01*
X100564699Y-73454067D01*
X100544417Y-73660000D01*
X100119300Y-73660000D01*
X100119300Y-71120000D01*
X100544417Y-71120000D01*
X100564699Y-71325932D01*
X100564700Y-71325934D01*
X100624768Y-71523954D01*
X100722315Y-71706450D01*
X100722317Y-71706452D01*
X100853589Y-71866410D01*
X100950209Y-71945702D01*
X101013550Y-71997685D01*
X101196046Y-72095232D01*
X101394066Y-72155300D01*
X101394065Y-72155300D01*
X101412529Y-72157118D01*
X101600000Y-72175583D01*
X101805934Y-72155300D01*
X102003954Y-72095232D01*
X102186450Y-71997685D01*
X102346410Y-71866410D01*
X102477685Y-71706450D01*
X102575232Y-71523954D01*
X102635300Y-71325934D01*
X102655583Y-71120000D01*
X125944417Y-71120000D01*
X125964699Y-71325932D01*
X125964700Y-71325934D01*
X126024768Y-71523954D01*
X126122315Y-71706450D01*
X126122317Y-71706452D01*
X126253589Y-71866410D01*
X126350209Y-71945702D01*
X126413550Y-71997685D01*
X126596046Y-72095232D01*
X126794066Y-72155300D01*
X126794065Y-72155300D01*
X126812529Y-72157118D01*
X127000000Y-72175583D01*
X127205934Y-72155300D01*
X127403954Y-72095232D01*
X127586450Y-71997685D01*
X127746410Y-71866410D01*
X127877685Y-71706450D01*
X127975232Y-71523954D01*
X128035300Y-71325934D01*
X128055583Y-71120000D01*
X128035300Y-70914066D01*
X127975232Y-70716046D01*
X127877685Y-70533550D01*
X127825702Y-70470209D01*
X127746410Y-70373589D01*
X127586452Y-70242317D01*
X127586453Y-70242317D01*
X127586450Y-70242315D01*
X127403954Y-70144768D01*
X127205934Y-70084700D01*
X127205932Y-70084699D01*
X127205934Y-70084699D01*
X127000000Y-70064417D01*
X126794067Y-70084699D01*
X126596043Y-70144769D01*
X126485898Y-70203643D01*
X126413550Y-70242315D01*
X126413548Y-70242316D01*
X126413547Y-70242317D01*
X126253589Y-70373589D01*
X126122317Y-70533547D01*
X126024769Y-70716043D01*
X125964699Y-70914067D01*
X125944417Y-71120000D01*
X102655583Y-71120000D01*
X102635300Y-70914066D01*
X102575232Y-70716046D01*
X102477685Y-70533550D01*
X102425702Y-70470209D01*
X102346410Y-70373589D01*
X102186452Y-70242317D01*
X102186453Y-70242317D01*
X102186450Y-70242315D01*
X102003954Y-70144768D01*
X101805934Y-70084700D01*
X101805932Y-70084699D01*
X101805934Y-70084699D01*
X101600000Y-70064417D01*
X101394067Y-70084699D01*
X101196043Y-70144769D01*
X101085898Y-70203643D01*
X101013550Y-70242315D01*
X101013548Y-70242316D01*
X101013547Y-70242317D01*
X100853589Y-70373589D01*
X100722317Y-70533547D01*
X100624769Y-70716043D01*
X100564699Y-70914067D01*
X100544417Y-71120000D01*
X100119300Y-71120000D01*
X100119300Y-68580000D01*
X100544417Y-68580000D01*
X100564699Y-68785932D01*
X100564700Y-68785934D01*
X100624768Y-68983954D01*
X100722315Y-69166450D01*
X100722317Y-69166452D01*
X100853589Y-69326410D01*
X100950209Y-69405702D01*
X101013550Y-69457685D01*
X101196046Y-69555232D01*
X101394066Y-69615300D01*
X101394065Y-69615300D01*
X101412529Y-69617118D01*
X101600000Y-69635583D01*
X101805934Y-69615300D01*
X102003954Y-69555232D01*
X102186450Y-69457685D01*
X102346410Y-69326410D01*
X102477685Y-69166450D01*
X102575232Y-68983954D01*
X102635300Y-68785934D01*
X102655583Y-68580000D01*
X125944417Y-68580000D01*
X125964699Y-68785932D01*
X125964700Y-68785934D01*
X126024768Y-68983954D01*
X126122315Y-69166450D01*
X126122317Y-69166452D01*
X126253589Y-69326410D01*
X126350209Y-69405702D01*
X126413550Y-69457685D01*
X126596046Y-69555232D01*
X126794066Y-69615300D01*
X126794065Y-69615300D01*
X126812529Y-69617118D01*
X127000000Y-69635583D01*
X127205934Y-69615300D01*
X127403954Y-69555232D01*
X127586450Y-69457685D01*
X127746410Y-69326410D01*
X127877685Y-69166450D01*
X127975232Y-68983954D01*
X128035300Y-68785934D01*
X128055583Y-68580000D01*
X128035300Y-68374066D01*
X127975232Y-68176046D01*
X127877685Y-67993550D01*
X127825702Y-67930209D01*
X127746410Y-67833589D01*
X127586452Y-67702317D01*
X127586453Y-67702317D01*
X127586450Y-67702315D01*
X127403954Y-67604768D01*
X127205934Y-67544700D01*
X127205932Y-67544699D01*
X127205934Y-67544699D01*
X127000000Y-67524417D01*
X126794067Y-67544699D01*
X126596043Y-67604769D01*
X126485898Y-67663643D01*
X126413550Y-67702315D01*
X126413548Y-67702316D01*
X126413547Y-67702317D01*
X126253589Y-67833589D01*
X126122317Y-67993547D01*
X126024769Y-68176043D01*
X125964699Y-68374067D01*
X125944417Y-68580000D01*
X102655583Y-68580000D01*
X102635300Y-68374066D01*
X102575232Y-68176046D01*
X102477685Y-67993550D01*
X102425702Y-67930209D01*
X102346410Y-67833589D01*
X102186452Y-67702317D01*
X102186453Y-67702317D01*
X102186450Y-67702315D01*
X102003954Y-67604768D01*
X101805934Y-67544700D01*
X101805932Y-67544699D01*
X101805934Y-67544699D01*
X101600000Y-67524417D01*
X101394067Y-67544699D01*
X101196043Y-67604769D01*
X101085898Y-67663643D01*
X101013550Y-67702315D01*
X101013548Y-67702316D01*
X101013547Y-67702317D01*
X100853589Y-67833589D01*
X100722317Y-67993547D01*
X100624769Y-68176043D01*
X100564699Y-68374067D01*
X100544417Y-68580000D01*
X100119300Y-68580000D01*
X100119300Y-66040000D01*
X100544417Y-66040000D01*
X100564699Y-66245932D01*
X100564700Y-66245934D01*
X100624768Y-66443954D01*
X100722315Y-66626450D01*
X100722317Y-66626452D01*
X100853589Y-66786410D01*
X100950209Y-66865702D01*
X101013550Y-66917685D01*
X101196046Y-67015232D01*
X101394066Y-67075300D01*
X101394065Y-67075300D01*
X101412529Y-67077118D01*
X101600000Y-67095583D01*
X101805934Y-67075300D01*
X102003954Y-67015232D01*
X102186450Y-66917685D01*
X102346410Y-66786410D01*
X102477685Y-66626450D01*
X102575232Y-66443954D01*
X102635300Y-66245934D01*
X102655583Y-66040000D01*
X125944417Y-66040000D01*
X125964699Y-66245932D01*
X125964700Y-66245934D01*
X126024768Y-66443954D01*
X126122315Y-66626450D01*
X126122317Y-66626452D01*
X126253589Y-66786410D01*
X126350209Y-66865702D01*
X126413550Y-66917685D01*
X126596046Y-67015232D01*
X126794066Y-67075300D01*
X126794065Y-67075300D01*
X126812529Y-67077118D01*
X127000000Y-67095583D01*
X127205934Y-67075300D01*
X127403954Y-67015232D01*
X127586450Y-66917685D01*
X127746410Y-66786410D01*
X127877685Y-66626450D01*
X127975232Y-66443954D01*
X128035300Y-66245934D01*
X128055583Y-66040000D01*
X128035300Y-65834066D01*
X127975232Y-65636046D01*
X127877685Y-65453550D01*
X127825702Y-65390209D01*
X127746410Y-65293589D01*
X127586452Y-65162317D01*
X127586453Y-65162317D01*
X127586450Y-65162315D01*
X127403954Y-65064768D01*
X127205934Y-65004700D01*
X127205932Y-65004699D01*
X127205934Y-65004699D01*
X127000000Y-64984417D01*
X126794067Y-65004699D01*
X126596043Y-65064769D01*
X126485898Y-65123643D01*
X126413550Y-65162315D01*
X126413548Y-65162316D01*
X126413547Y-65162317D01*
X126253589Y-65293589D01*
X126122317Y-65453547D01*
X126024769Y-65636043D01*
X125964699Y-65834067D01*
X125944417Y-66040000D01*
X102655583Y-66040000D01*
X102635300Y-65834066D01*
X102575232Y-65636046D01*
X102477685Y-65453550D01*
X102425702Y-65390209D01*
X102346410Y-65293589D01*
X102186452Y-65162317D01*
X102186453Y-65162317D01*
X102186450Y-65162315D01*
X102003954Y-65064768D01*
X101805934Y-65004700D01*
X101805932Y-65004699D01*
X101805934Y-65004699D01*
X101600000Y-64984417D01*
X101394067Y-65004699D01*
X101196043Y-65064769D01*
X101085898Y-65123643D01*
X101013550Y-65162315D01*
X101013548Y-65162316D01*
X101013547Y-65162317D01*
X100853589Y-65293589D01*
X100722317Y-65453547D01*
X100624769Y-65636043D01*
X100564699Y-65834067D01*
X100544417Y-66040000D01*
X100119300Y-66040000D01*
X100119300Y-63500000D01*
X100544417Y-63500000D01*
X100564699Y-63705932D01*
X100564700Y-63705934D01*
X100624768Y-63903954D01*
X100722315Y-64086450D01*
X100722317Y-64086452D01*
X100853589Y-64246410D01*
X100950209Y-64325702D01*
X101013550Y-64377685D01*
X101196046Y-64475232D01*
X101394066Y-64535300D01*
X101394065Y-64535300D01*
X101412529Y-64537118D01*
X101600000Y-64555583D01*
X101805934Y-64535300D01*
X102003954Y-64475232D01*
X102186450Y-64377685D01*
X102346410Y-64246410D01*
X102477685Y-64086450D01*
X102575232Y-63903954D01*
X102635300Y-63705934D01*
X102655583Y-63500000D01*
X102635300Y-63294066D01*
X102575232Y-63096046D01*
X102477685Y-62913550D01*
X102425702Y-62850209D01*
X102346410Y-62753589D01*
X102186452Y-62622317D01*
X102186453Y-62622317D01*
X102186450Y-62622315D01*
X102003954Y-62524768D01*
X101805934Y-62464700D01*
X101805932Y-62464699D01*
X101805934Y-62464699D01*
X101600000Y-62444417D01*
X101394067Y-62464699D01*
X101196043Y-62524769D01*
X101085898Y-62583643D01*
X101013550Y-62622315D01*
X101013548Y-62622316D01*
X101013547Y-62622317D01*
X100853589Y-62753589D01*
X100722317Y-62913547D01*
X100624769Y-63096043D01*
X100564699Y-63294067D01*
X100544417Y-63500000D01*
X100119300Y-63500000D01*
X100119300Y-60960000D01*
X100544417Y-60960000D01*
X100564699Y-61165932D01*
X100594734Y-61264944D01*
X100624768Y-61363954D01*
X100722315Y-61546450D01*
X100722317Y-61546452D01*
X100853589Y-61706410D01*
X100915722Y-61757400D01*
X101013550Y-61837685D01*
X101196046Y-61935232D01*
X101394066Y-61995300D01*
X101394065Y-61995300D01*
X101412529Y-61997118D01*
X101600000Y-62015583D01*
X101805934Y-61995300D01*
X102003954Y-61935232D01*
X102186450Y-61837685D01*
X102346410Y-61706410D01*
X102477685Y-61546450D01*
X102575232Y-61363954D01*
X102635300Y-61165934D01*
X102655583Y-60960000D01*
X102635300Y-60754066D01*
X102575232Y-60556046D01*
X102477685Y-60373550D01*
X102425702Y-60310209D01*
X102346410Y-60213589D01*
X102186452Y-60082317D01*
X102186453Y-60082317D01*
X102186450Y-60082315D01*
X102003954Y-59984768D01*
X101805934Y-59924700D01*
X101805932Y-59924699D01*
X101805934Y-59924699D01*
X101600000Y-59904417D01*
X101394067Y-59924699D01*
X101196043Y-59984769D01*
X101085898Y-60043643D01*
X101013550Y-60082315D01*
X101013548Y-60082316D01*
X101013547Y-60082317D01*
X100853589Y-60213589D01*
X100722317Y-60373547D01*
X100624769Y-60556043D01*
X100564699Y-60754067D01*
X100544417Y-60960000D01*
X100119300Y-60960000D01*
X100119300Y-58420000D01*
X100544417Y-58420000D01*
X100564699Y-58625932D01*
X100564700Y-58625934D01*
X100624768Y-58823954D01*
X100722315Y-59006450D01*
X100722317Y-59006452D01*
X100853589Y-59166410D01*
X100950209Y-59245702D01*
X101013550Y-59297685D01*
X101196046Y-59395232D01*
X101394066Y-59455300D01*
X101394065Y-59455300D01*
X101412529Y-59457118D01*
X101600000Y-59475583D01*
X101805934Y-59455300D01*
X101862939Y-59438008D01*
X105086853Y-59438008D01*
X105107334Y-59580464D01*
X105167122Y-59711379D01*
X105167123Y-59711381D01*
X105261372Y-59820151D01*
X105382447Y-59897961D01*
X105382450Y-59897962D01*
X105382449Y-59897962D01*
X105520536Y-59938507D01*
X105520538Y-59938508D01*
X105520539Y-59938508D01*
X105664462Y-59938508D01*
X105664462Y-59938507D01*
X105802553Y-59897961D01*
X105923628Y-59820151D01*
X106017877Y-59711381D01*
X106077665Y-59580465D01*
X106098147Y-59438008D01*
X106077665Y-59295551D01*
X106017877Y-59164635D01*
X105923628Y-59055865D01*
X105802553Y-58978055D01*
X105802551Y-58978054D01*
X105802549Y-58978053D01*
X105802550Y-58978053D01*
X105664463Y-58937508D01*
X105664461Y-58937508D01*
X105520539Y-58937508D01*
X105520536Y-58937508D01*
X105382449Y-58978053D01*
X105261373Y-59055864D01*
X105167123Y-59164634D01*
X105167122Y-59164636D01*
X105107334Y-59295551D01*
X105086853Y-59438008D01*
X101862939Y-59438008D01*
X102003954Y-59395232D01*
X102186450Y-59297685D01*
X102346410Y-59166410D01*
X102477685Y-59006450D01*
X102575232Y-58823954D01*
X102635300Y-58625934D01*
X102655583Y-58420000D01*
X102635300Y-58214066D01*
X102575232Y-58016046D01*
X102477685Y-57833550D01*
X102425702Y-57770209D01*
X102346410Y-57673589D01*
X102186452Y-57542317D01*
X102186453Y-57542317D01*
X102186450Y-57542315D01*
X102003954Y-57444768D01*
X101805934Y-57384700D01*
X101805932Y-57384699D01*
X101805934Y-57384699D01*
X101600000Y-57364417D01*
X101394067Y-57384699D01*
X101196043Y-57444769D01*
X101085898Y-57503643D01*
X101013550Y-57542315D01*
X101013548Y-57542316D01*
X101013547Y-57542317D01*
X100853589Y-57673589D01*
X100722317Y-57833547D01*
X100624769Y-58016043D01*
X100564699Y-58214067D01*
X100544417Y-58420000D01*
X100119300Y-58420000D01*
X100119300Y-55880000D01*
X100544417Y-55880000D01*
X100564699Y-56085932D01*
X100569747Y-56102573D01*
X100624768Y-56283954D01*
X100722315Y-56466450D01*
X100722317Y-56466452D01*
X100853589Y-56626410D01*
X100950209Y-56705702D01*
X101013550Y-56757685D01*
X101196046Y-56855232D01*
X101394066Y-56915300D01*
X101394065Y-56915300D01*
X101412529Y-56917118D01*
X101600000Y-56935583D01*
X101805934Y-56915300D01*
X102003954Y-56855232D01*
X102186450Y-56757685D01*
X102346410Y-56626410D01*
X102477685Y-56466450D01*
X102575232Y-56283954D01*
X102635300Y-56085934D01*
X102655583Y-55880000D01*
X102635300Y-55674066D01*
X102575232Y-55476046D01*
X102477685Y-55293550D01*
X102362621Y-55153343D01*
X102346410Y-55133589D01*
X102186452Y-55002317D01*
X102186453Y-55002317D01*
X102186450Y-55002315D01*
X102003954Y-54904768D01*
X101805934Y-54844700D01*
X101805932Y-54844699D01*
X101805934Y-54844699D01*
X101600000Y-54824417D01*
X101394067Y-54844699D01*
X101196043Y-54904769D01*
X101118484Y-54946226D01*
X101013550Y-55002315D01*
X101013548Y-55002316D01*
X101013547Y-55002317D01*
X100853589Y-55133589D01*
X100722317Y-55293547D01*
X100722315Y-55293550D01*
X100703527Y-55328700D01*
X100624769Y-55476043D01*
X100564699Y-55674067D01*
X100544417Y-55880000D01*
X100119300Y-55880000D01*
X100119300Y-53340000D01*
X100544417Y-53340000D01*
X100564699Y-53545932D01*
X100571229Y-53567457D01*
X100624768Y-53743954D01*
X100722315Y-53926450D01*
X100722317Y-53926452D01*
X100853589Y-54086410D01*
X100921884Y-54142457D01*
X101013550Y-54217685D01*
X101196046Y-54315232D01*
X101394066Y-54375300D01*
X101394065Y-54375300D01*
X101412529Y-54377118D01*
X101600000Y-54395583D01*
X101805934Y-54375300D01*
X102003954Y-54315232D01*
X102186450Y-54217685D01*
X102346410Y-54086410D01*
X102477685Y-53926450D01*
X102575232Y-53743954D01*
X102635300Y-53545934D01*
X102655583Y-53340000D01*
X102635300Y-53134066D01*
X102575232Y-52936046D01*
X102477685Y-52753550D01*
X102396151Y-52654200D01*
X102346410Y-52593589D01*
X102186452Y-52462317D01*
X102186453Y-52462317D01*
X102186450Y-52462315D01*
X102003954Y-52364768D01*
X101805934Y-52304700D01*
X101805932Y-52304699D01*
X101805934Y-52304699D01*
X101600000Y-52284417D01*
X101394067Y-52304699D01*
X101196043Y-52364769D01*
X101136014Y-52396856D01*
X101013550Y-52462315D01*
X101013548Y-52462316D01*
X101013547Y-52462317D01*
X100853589Y-52593589D01*
X100722317Y-52753547D01*
X100624769Y-52936043D01*
X100564699Y-53134067D01*
X100544417Y-53340000D01*
X100119300Y-53340000D01*
X100119300Y-50800000D01*
X100544417Y-50800000D01*
X100564699Y-51005932D01*
X100577777Y-51049045D01*
X100624768Y-51203954D01*
X100722315Y-51386450D01*
X100722316Y-51386451D01*
X100722317Y-51386452D01*
X100853589Y-51546410D01*
X100950209Y-51625702D01*
X101013550Y-51677685D01*
X101196046Y-51775232D01*
X101394066Y-51835300D01*
X101394065Y-51835300D01*
X101412529Y-51837118D01*
X101600000Y-51855583D01*
X101805934Y-51835300D01*
X102003954Y-51775232D01*
X102186450Y-51677685D01*
X102346410Y-51546410D01*
X102477685Y-51386450D01*
X102575232Y-51203954D01*
X102635300Y-51005934D01*
X102655583Y-50800000D01*
X102635300Y-50594066D01*
X102575232Y-50396046D01*
X102477685Y-50213550D01*
X102425594Y-50150076D01*
X102346410Y-50053589D01*
X102228677Y-49956969D01*
X102186450Y-49922315D01*
X102003954Y-49824768D01*
X101805934Y-49764700D01*
X101805932Y-49764699D01*
X101805934Y-49764699D01*
X101600000Y-49744417D01*
X101394067Y-49764699D01*
X101196043Y-49824769D01*
X101131088Y-49859489D01*
X101013550Y-49922315D01*
X101013548Y-49922316D01*
X101013547Y-49922317D01*
X100853589Y-50053589D01*
X100722317Y-50213547D01*
X100624769Y-50396043D01*
X100624768Y-50396045D01*
X100624768Y-50396046D01*
X100617898Y-50418692D01*
X100564699Y-50594067D01*
X100544417Y-50800000D01*
X100119300Y-50800000D01*
X100119300Y-48260000D01*
X100544417Y-48260000D01*
X100564699Y-48465932D01*
X100564700Y-48465934D01*
X100624768Y-48663954D01*
X100722315Y-48846450D01*
X100722317Y-48846452D01*
X100853589Y-49006410D01*
X100933497Y-49071988D01*
X101013550Y-49137685D01*
X101196046Y-49235232D01*
X101394066Y-49295300D01*
X101394065Y-49295300D01*
X101412529Y-49297118D01*
X101600000Y-49315583D01*
X101805934Y-49295300D01*
X102003954Y-49235232D01*
X102186450Y-49137685D01*
X102346410Y-49006410D01*
X102477685Y-48846450D01*
X102575232Y-48663954D01*
X102635300Y-48465934D01*
X102655583Y-48260000D01*
X102635300Y-48054066D01*
X102575232Y-47856046D01*
X102477685Y-47673550D01*
X102383639Y-47558954D01*
X102346410Y-47513589D01*
X102186452Y-47382317D01*
X102186453Y-47382317D01*
X102186450Y-47382315D01*
X102003954Y-47284768D01*
X101805934Y-47224700D01*
X101805932Y-47224699D01*
X101805934Y-47224699D01*
X101600000Y-47204417D01*
X101394067Y-47224699D01*
X101196043Y-47284769D01*
X101170355Y-47298500D01*
X101013550Y-47382315D01*
X101013548Y-47382316D01*
X101013547Y-47382317D01*
X100853589Y-47513589D01*
X100722317Y-47673547D01*
X100624769Y-47856043D01*
X100564699Y-48054067D01*
X100544417Y-48260000D01*
X100119300Y-48260000D01*
X100119300Y-45720000D01*
X100544417Y-45720000D01*
X100564699Y-45925932D01*
X100592281Y-46016856D01*
X100624768Y-46123954D01*
X100722315Y-46306450D01*
X100722317Y-46306452D01*
X100853589Y-46466410D01*
X100945036Y-46541457D01*
X101013550Y-46597685D01*
X101196046Y-46695232D01*
X101394066Y-46755300D01*
X101394065Y-46755300D01*
X101412529Y-46757118D01*
X101600000Y-46775583D01*
X101805934Y-46755300D01*
X102003954Y-46695232D01*
X102186450Y-46597685D01*
X102346410Y-46466410D01*
X102477685Y-46306450D01*
X102575232Y-46123954D01*
X102635300Y-45925934D01*
X102655583Y-45720000D01*
X102635300Y-45514066D01*
X102575232Y-45316046D01*
X102477685Y-45133550D01*
X102425702Y-45070209D01*
X102346410Y-44973589D01*
X102186452Y-44842317D01*
X102186453Y-44842317D01*
X102186450Y-44842315D01*
X102003954Y-44744768D01*
X101805934Y-44684700D01*
X101805932Y-44684699D01*
X101805934Y-44684699D01*
X101600000Y-44664417D01*
X101394067Y-44684699D01*
X101196043Y-44744769D01*
X101131898Y-44779056D01*
X101013550Y-44842315D01*
X101013548Y-44842316D01*
X101013547Y-44842317D01*
X100853589Y-44973589D01*
X100722317Y-45133547D01*
X100624769Y-45316043D01*
X100564699Y-45514067D01*
X100544417Y-45720000D01*
X100119300Y-45720000D01*
X100119300Y-43180000D01*
X100544417Y-43180000D01*
X100564699Y-43385932D01*
X100578445Y-43431245D01*
X100624768Y-43583954D01*
X100722315Y-43766450D01*
X100722316Y-43766451D01*
X100722317Y-43766452D01*
X100853589Y-43926410D01*
X100950209Y-44005702D01*
X101013550Y-44057685D01*
X101196046Y-44155232D01*
X101394066Y-44215300D01*
X101394065Y-44215300D01*
X101412529Y-44217118D01*
X101600000Y-44235583D01*
X101805934Y-44215300D01*
X102003954Y-44155232D01*
X102186450Y-44057685D01*
X102346410Y-43926410D01*
X102477685Y-43766450D01*
X102547120Y-43636546D01*
X102596082Y-43586702D01*
X102656478Y-43571000D01*
X103164680Y-43571000D01*
X103231719Y-43590685D01*
X103252361Y-43607319D01*
X103550153Y-43905111D01*
X103583638Y-43966434D01*
X103578654Y-44036126D01*
X103536782Y-44092059D01*
X103529512Y-44097107D01*
X103408132Y-44175113D01*
X103313881Y-44283884D01*
X103313880Y-44283886D01*
X103254092Y-44414801D01*
X103233611Y-44557258D01*
X103254092Y-44699714D01*
X103313880Y-44830629D01*
X103313881Y-44830631D01*
X103408130Y-44939401D01*
X103529205Y-45017211D01*
X103529208Y-45017212D01*
X103529207Y-45017212D01*
X103667294Y-45057757D01*
X103667296Y-45057758D01*
X103667297Y-45057758D01*
X103811220Y-45057758D01*
X103811220Y-45057757D01*
X103918379Y-45026293D01*
X103949308Y-45017212D01*
X103949308Y-45017211D01*
X103949311Y-45017211D01*
X104070386Y-44939401D01*
X104164635Y-44830631D01*
X104224423Y-44699715D01*
X104244905Y-44557258D01*
X104224423Y-44414801D01*
X104223161Y-44406023D01*
X104224978Y-44405761D01*
X104224980Y-44346820D01*
X104262756Y-44288043D01*
X104326313Y-44259020D01*
X104343956Y-44257758D01*
X106035838Y-44257758D01*
X106102877Y-44277443D01*
X106123519Y-44294077D01*
X106362681Y-44533239D01*
X106396166Y-44594562D01*
X106399000Y-44620920D01*
X106399000Y-64677475D01*
X106427749Y-64784771D01*
X106427704Y-64784782D01*
X106433531Y-64806023D01*
X106448834Y-64912453D01*
X106448835Y-64912457D01*
X106508623Y-65043373D01*
X106602872Y-65152143D01*
X106723947Y-65229953D01*
X106723950Y-65229954D01*
X106723949Y-65229954D01*
X106862036Y-65270499D01*
X106862038Y-65270500D01*
X106862039Y-65270500D01*
X107005962Y-65270500D01*
X107005962Y-65270499D01*
X107144050Y-65229954D01*
X107144051Y-65229954D01*
X107144053Y-65229953D01*
X107220715Y-65180684D01*
X107287755Y-65161000D01*
X108255474Y-65161000D01*
X108255476Y-65161000D01*
X108354921Y-65134354D01*
X108444080Y-65082878D01*
X110026958Y-63500000D01*
X125944417Y-63500000D01*
X125964699Y-63705932D01*
X125964700Y-63705934D01*
X126024768Y-63903954D01*
X126122315Y-64086450D01*
X126122317Y-64086452D01*
X126253589Y-64246410D01*
X126350209Y-64325702D01*
X126413550Y-64377685D01*
X126596046Y-64475232D01*
X126794066Y-64535300D01*
X126794065Y-64535300D01*
X126812529Y-64537118D01*
X127000000Y-64555583D01*
X127205934Y-64535300D01*
X127403954Y-64475232D01*
X127586450Y-64377685D01*
X127746410Y-64246410D01*
X127877685Y-64086450D01*
X127975232Y-63903954D01*
X128035300Y-63705934D01*
X128055583Y-63500000D01*
X128035300Y-63294066D01*
X127975232Y-63096046D01*
X127877685Y-62913550D01*
X127825702Y-62850209D01*
X127746410Y-62753589D01*
X127586452Y-62622317D01*
X127586453Y-62622317D01*
X127586450Y-62622315D01*
X127403954Y-62524768D01*
X127205934Y-62464700D01*
X127205932Y-62464699D01*
X127205934Y-62464699D01*
X127000000Y-62444417D01*
X126794067Y-62464699D01*
X126596043Y-62524769D01*
X126485898Y-62583643D01*
X126413550Y-62622315D01*
X126413548Y-62622316D01*
X126413547Y-62622317D01*
X126253589Y-62753589D01*
X126122317Y-62913547D01*
X126024769Y-63096043D01*
X125964699Y-63294067D01*
X125944417Y-63500000D01*
X110026958Y-63500000D01*
X111710128Y-61816829D01*
X111771449Y-61783346D01*
X111841141Y-61788330D01*
X111864845Y-61800195D01*
X111905547Y-61826353D01*
X111905550Y-61826354D01*
X111905549Y-61826354D01*
X112043636Y-61866899D01*
X112043638Y-61866900D01*
X112043639Y-61866900D01*
X112187562Y-61866900D01*
X112187562Y-61866899D01*
X112325653Y-61826353D01*
X112446728Y-61748543D01*
X112540977Y-61639773D01*
X112600765Y-61508857D01*
X112621247Y-61366400D01*
X112600765Y-61223943D01*
X112540977Y-61093027D01*
X112446728Y-60984257D01*
X112408983Y-60960000D01*
X125944417Y-60960000D01*
X125964699Y-61165932D01*
X125994734Y-61264944D01*
X126024768Y-61363954D01*
X126122315Y-61546450D01*
X126122317Y-61546452D01*
X126253589Y-61706410D01*
X126315722Y-61757400D01*
X126413550Y-61837685D01*
X126596046Y-61935232D01*
X126794066Y-61995300D01*
X126794065Y-61995300D01*
X126812529Y-61997118D01*
X127000000Y-62015583D01*
X127205934Y-61995300D01*
X127403954Y-61935232D01*
X127586450Y-61837685D01*
X127746410Y-61706410D01*
X127877685Y-61546450D01*
X127975232Y-61363954D01*
X128035300Y-61165934D01*
X128055583Y-60960000D01*
X128035300Y-60754066D01*
X127975232Y-60556046D01*
X127877685Y-60373550D01*
X127825702Y-60310209D01*
X127746410Y-60213589D01*
X127586452Y-60082317D01*
X127586453Y-60082317D01*
X127586450Y-60082315D01*
X127403954Y-59984768D01*
X127205934Y-59924700D01*
X127205932Y-59924699D01*
X127205934Y-59924699D01*
X127000000Y-59904417D01*
X126794067Y-59924699D01*
X126596043Y-59984769D01*
X126485898Y-60043643D01*
X126413550Y-60082315D01*
X126413548Y-60082316D01*
X126413547Y-60082317D01*
X126253589Y-60213589D01*
X126122317Y-60373547D01*
X126024769Y-60556043D01*
X125964699Y-60754067D01*
X125944417Y-60960000D01*
X112408983Y-60960000D01*
X112325653Y-60906447D01*
X112325651Y-60906446D01*
X112325649Y-60906445D01*
X112325650Y-60906445D01*
X112187563Y-60865900D01*
X112187561Y-60865900D01*
X112043639Y-60865900D01*
X112043636Y-60865900D01*
X111905549Y-60906445D01*
X111905548Y-60906445D01*
X111844294Y-60945811D01*
X111828884Y-60955715D01*
X111761845Y-60975400D01*
X111556124Y-60975400D01*
X111456679Y-61002046D01*
X111456676Y-61002047D01*
X111367523Y-61053520D01*
X111367517Y-61053524D01*
X108078361Y-64342681D01*
X108017038Y-64376166D01*
X107990680Y-64379000D01*
X107305000Y-64379000D01*
X107237961Y-64359315D01*
X107192206Y-64306511D01*
X107181000Y-64255000D01*
X107181000Y-58420000D01*
X125944417Y-58420000D01*
X125964699Y-58625932D01*
X125964700Y-58625934D01*
X126024768Y-58823954D01*
X126122315Y-59006450D01*
X126122317Y-59006452D01*
X126253589Y-59166410D01*
X126350209Y-59245702D01*
X126413550Y-59297685D01*
X126596046Y-59395232D01*
X126794066Y-59455300D01*
X126794065Y-59455300D01*
X126812529Y-59457118D01*
X127000000Y-59475583D01*
X127205934Y-59455300D01*
X127403954Y-59395232D01*
X127586450Y-59297685D01*
X127746410Y-59166410D01*
X127877685Y-59006450D01*
X127975232Y-58823954D01*
X128035300Y-58625934D01*
X128055583Y-58420000D01*
X128035300Y-58214066D01*
X127975232Y-58016046D01*
X127877685Y-57833550D01*
X127825702Y-57770209D01*
X127746410Y-57673589D01*
X127586452Y-57542317D01*
X127586453Y-57542317D01*
X127586450Y-57542315D01*
X127403954Y-57444768D01*
X127205934Y-57384700D01*
X127205932Y-57384699D01*
X127205934Y-57384699D01*
X127000000Y-57364417D01*
X126794067Y-57384699D01*
X126596043Y-57444769D01*
X126485898Y-57503643D01*
X126413550Y-57542315D01*
X126413548Y-57542316D01*
X126413547Y-57542317D01*
X126253589Y-57673589D01*
X126122317Y-57833547D01*
X126024769Y-58016043D01*
X125964699Y-58214067D01*
X125944417Y-58420000D01*
X107181000Y-58420000D01*
X107181000Y-55829200D01*
X107952353Y-55829200D01*
X107972834Y-55971656D01*
X108025023Y-56085932D01*
X108032623Y-56102573D01*
X108126872Y-56211343D01*
X108247947Y-56289153D01*
X108247950Y-56289154D01*
X108247949Y-56289154D01*
X108386036Y-56329699D01*
X108386038Y-56329700D01*
X108386039Y-56329700D01*
X108529962Y-56329700D01*
X108529962Y-56329699D01*
X108668053Y-56289153D01*
X108789128Y-56211343D01*
X108883377Y-56102573D01*
X108943165Y-55971657D01*
X108956343Y-55880000D01*
X125944417Y-55880000D01*
X125964699Y-56085932D01*
X125969747Y-56102573D01*
X126024768Y-56283954D01*
X126122315Y-56466450D01*
X126122317Y-56466452D01*
X126253589Y-56626410D01*
X126350209Y-56705702D01*
X126413550Y-56757685D01*
X126596046Y-56855232D01*
X126794066Y-56915300D01*
X126794065Y-56915300D01*
X126812529Y-56917118D01*
X127000000Y-56935583D01*
X127205934Y-56915300D01*
X127403954Y-56855232D01*
X127586450Y-56757685D01*
X127746410Y-56626410D01*
X127877685Y-56466450D01*
X127975232Y-56283954D01*
X128035300Y-56085934D01*
X128055583Y-55880000D01*
X128035300Y-55674066D01*
X127975232Y-55476046D01*
X127877685Y-55293550D01*
X127762621Y-55153343D01*
X127746410Y-55133589D01*
X127586452Y-55002317D01*
X127586453Y-55002317D01*
X127586450Y-55002315D01*
X127403954Y-54904768D01*
X127205934Y-54844700D01*
X127205932Y-54844699D01*
X127205934Y-54844699D01*
X127000000Y-54824417D01*
X126794067Y-54844699D01*
X126596043Y-54904769D01*
X126518484Y-54946226D01*
X126413550Y-55002315D01*
X126413548Y-55002316D01*
X126413547Y-55002317D01*
X126253589Y-55133589D01*
X126122317Y-55293547D01*
X126122315Y-55293550D01*
X126103527Y-55328700D01*
X126024769Y-55476043D01*
X125964699Y-55674067D01*
X125944417Y-55880000D01*
X108956343Y-55880000D01*
X108963647Y-55829200D01*
X108943165Y-55686743D01*
X108883377Y-55555827D01*
X108789128Y-55447057D01*
X108668053Y-55369247D01*
X108668051Y-55369246D01*
X108668049Y-55369245D01*
X108668050Y-55369245D01*
X108529963Y-55328700D01*
X108529961Y-55328700D01*
X108386039Y-55328700D01*
X108386036Y-55328700D01*
X108247949Y-55369245D01*
X108126873Y-55447056D01*
X108032623Y-55555826D01*
X108032622Y-55555828D01*
X107972834Y-55686743D01*
X107952353Y-55829200D01*
X107181000Y-55829200D01*
X107181000Y-55270400D01*
X109222353Y-55270400D01*
X109242834Y-55412856D01*
X109279422Y-55492971D01*
X109302623Y-55543773D01*
X109396872Y-55652543D01*
X109517947Y-55730353D01*
X109517950Y-55730354D01*
X109517949Y-55730354D01*
X109656036Y-55770899D01*
X109656038Y-55770900D01*
X109656039Y-55770900D01*
X109799962Y-55770900D01*
X109799962Y-55770899D01*
X109938053Y-55730353D01*
X110059128Y-55652543D01*
X110153377Y-55543773D01*
X110213165Y-55412857D01*
X110233647Y-55270400D01*
X110492353Y-55270400D01*
X110512834Y-55412856D01*
X110549422Y-55492971D01*
X110572623Y-55543773D01*
X110666872Y-55652543D01*
X110787947Y-55730353D01*
X110787950Y-55730354D01*
X110787949Y-55730354D01*
X110926036Y-55770899D01*
X110926038Y-55770900D01*
X110926039Y-55770900D01*
X111069962Y-55770900D01*
X111069962Y-55770899D01*
X111208053Y-55730353D01*
X111329128Y-55652543D01*
X111423377Y-55543773D01*
X111483165Y-55412857D01*
X111503647Y-55270400D01*
X111762353Y-55270400D01*
X111782834Y-55412856D01*
X111819422Y-55492971D01*
X111842623Y-55543773D01*
X111936872Y-55652543D01*
X112057947Y-55730353D01*
X112057950Y-55730354D01*
X112057949Y-55730354D01*
X112196036Y-55770899D01*
X112196038Y-55770900D01*
X112196039Y-55770900D01*
X112339962Y-55770900D01*
X112339962Y-55770899D01*
X112478053Y-55730353D01*
X112599128Y-55652543D01*
X112693377Y-55543773D01*
X112753165Y-55412857D01*
X112773647Y-55270400D01*
X112753165Y-55127943D01*
X112693377Y-54997027D01*
X112599128Y-54888257D01*
X112478053Y-54810447D01*
X112478051Y-54810446D01*
X112478049Y-54810445D01*
X112478050Y-54810445D01*
X112339963Y-54769900D01*
X112339961Y-54769900D01*
X112196039Y-54769900D01*
X112196036Y-54769900D01*
X112057949Y-54810445D01*
X111936873Y-54888256D01*
X111842623Y-54997026D01*
X111842622Y-54997028D01*
X111782834Y-55127943D01*
X111762353Y-55270400D01*
X111503647Y-55270400D01*
X111483165Y-55127943D01*
X111423377Y-54997027D01*
X111329128Y-54888257D01*
X111208053Y-54810447D01*
X111208051Y-54810446D01*
X111208049Y-54810445D01*
X111208050Y-54810445D01*
X111069963Y-54769900D01*
X111069961Y-54769900D01*
X110926039Y-54769900D01*
X110926036Y-54769900D01*
X110787949Y-54810445D01*
X110666873Y-54888256D01*
X110572623Y-54997026D01*
X110572622Y-54997028D01*
X110512834Y-55127943D01*
X110492353Y-55270400D01*
X110233647Y-55270400D01*
X110213165Y-55127943D01*
X110153377Y-54997027D01*
X110059128Y-54888257D01*
X109938053Y-54810447D01*
X109938051Y-54810446D01*
X109938049Y-54810445D01*
X109938050Y-54810445D01*
X109799963Y-54769900D01*
X109799961Y-54769900D01*
X109656039Y-54769900D01*
X109656036Y-54769900D01*
X109517949Y-54810445D01*
X109396873Y-54888256D01*
X109302623Y-54997026D01*
X109302622Y-54997028D01*
X109242834Y-55127943D01*
X109222353Y-55270400D01*
X107181000Y-55270400D01*
X107181000Y-54049000D01*
X107545953Y-54049000D01*
X107566434Y-54191456D01*
X107578413Y-54217685D01*
X107626223Y-54322373D01*
X107720472Y-54431143D01*
X107841547Y-54508953D01*
X107841550Y-54508954D01*
X107841549Y-54508954D01*
X107979636Y-54549499D01*
X107979638Y-54549500D01*
X107979639Y-54549500D01*
X108123562Y-54549500D01*
X108123562Y-54549499D01*
X108261653Y-54508953D01*
X108382728Y-54431143D01*
X108476977Y-54322373D01*
X108536765Y-54191457D01*
X108557247Y-54049000D01*
X108550202Y-54000000D01*
X114294353Y-54000000D01*
X114314834Y-54142456D01*
X114349189Y-54217682D01*
X114374623Y-54273373D01*
X114468872Y-54382143D01*
X114589947Y-54459953D01*
X114589950Y-54459954D01*
X114589949Y-54459954D01*
X114699079Y-54491997D01*
X114757857Y-54529771D01*
X114786883Y-54593326D01*
X114776940Y-54662485D01*
X114731185Y-54715289D01*
X114699080Y-54729951D01*
X114597949Y-54759645D01*
X114476873Y-54837456D01*
X114382623Y-54946226D01*
X114382622Y-54946228D01*
X114322834Y-55077143D01*
X114302353Y-55219600D01*
X114322834Y-55362056D01*
X114382622Y-55492971D01*
X114382623Y-55492973D01*
X114476872Y-55601743D01*
X114597947Y-55679553D01*
X114597950Y-55679554D01*
X114597949Y-55679554D01*
X114736036Y-55720099D01*
X114736038Y-55720100D01*
X114736039Y-55720100D01*
X114879962Y-55720100D01*
X114879962Y-55720099D01*
X115018053Y-55679553D01*
X115139128Y-55601743D01*
X115233377Y-55492973D01*
X115293165Y-55362057D01*
X115302691Y-55295800D01*
X116842353Y-55295800D01*
X116862834Y-55438256D01*
X116916528Y-55555827D01*
X116922623Y-55569173D01*
X117016872Y-55677943D01*
X117137947Y-55755753D01*
X117137950Y-55755754D01*
X117137949Y-55755754D01*
X117276036Y-55796299D01*
X117276038Y-55796300D01*
X117276039Y-55796300D01*
X117419962Y-55796300D01*
X117419962Y-55796299D01*
X117558053Y-55755753D01*
X117679128Y-55677943D01*
X117773377Y-55569173D01*
X117833165Y-55438257D01*
X117853647Y-55295800D01*
X118112353Y-55295800D01*
X118132834Y-55438256D01*
X118186528Y-55555827D01*
X118192623Y-55569173D01*
X118286872Y-55677943D01*
X118407947Y-55755753D01*
X118407950Y-55755754D01*
X118407949Y-55755754D01*
X118546036Y-55796299D01*
X118546038Y-55796300D01*
X118546039Y-55796300D01*
X118689962Y-55796300D01*
X118689962Y-55796299D01*
X118828053Y-55755753D01*
X118949128Y-55677943D01*
X119043377Y-55569173D01*
X119103165Y-55438257D01*
X119123647Y-55295800D01*
X119382353Y-55295800D01*
X119402834Y-55438256D01*
X119456528Y-55555827D01*
X119462623Y-55569173D01*
X119556872Y-55677943D01*
X119677947Y-55755753D01*
X119677950Y-55755754D01*
X119677949Y-55755754D01*
X119816036Y-55796299D01*
X119816038Y-55796300D01*
X119816039Y-55796300D01*
X119959962Y-55796300D01*
X119959962Y-55796299D01*
X120098053Y-55755753D01*
X120219128Y-55677943D01*
X120313377Y-55569173D01*
X120373165Y-55438257D01*
X120393647Y-55295800D01*
X120373165Y-55153343D01*
X120313377Y-55022427D01*
X120219128Y-54913657D01*
X120098053Y-54835847D01*
X120098051Y-54835846D01*
X120098049Y-54835845D01*
X120098050Y-54835845D01*
X119959963Y-54795300D01*
X119959961Y-54795300D01*
X119816039Y-54795300D01*
X119816036Y-54795300D01*
X119677949Y-54835845D01*
X119556873Y-54913656D01*
X119462623Y-55022426D01*
X119462622Y-55022428D01*
X119402834Y-55153343D01*
X119382353Y-55295800D01*
X119123647Y-55295800D01*
X119103165Y-55153343D01*
X119043377Y-55022427D01*
X118949128Y-54913657D01*
X118828053Y-54835847D01*
X118828051Y-54835846D01*
X118828049Y-54835845D01*
X118828050Y-54835845D01*
X118689963Y-54795300D01*
X118689961Y-54795300D01*
X118546039Y-54795300D01*
X118546036Y-54795300D01*
X118407949Y-54835845D01*
X118286873Y-54913656D01*
X118192623Y-55022426D01*
X118192622Y-55022428D01*
X118132834Y-55153343D01*
X118112353Y-55295800D01*
X117853647Y-55295800D01*
X117833165Y-55153343D01*
X117773377Y-55022427D01*
X117679128Y-54913657D01*
X117558053Y-54835847D01*
X117558051Y-54835846D01*
X117558049Y-54835845D01*
X117558050Y-54835845D01*
X117419963Y-54795300D01*
X117419961Y-54795300D01*
X117276039Y-54795300D01*
X117276036Y-54795300D01*
X117137949Y-54835845D01*
X117016873Y-54913656D01*
X116922623Y-55022426D01*
X116922622Y-55022428D01*
X116862834Y-55153343D01*
X116842353Y-55295800D01*
X115302691Y-55295800D01*
X115313647Y-55219600D01*
X115293165Y-55077143D01*
X115233377Y-54946227D01*
X115139128Y-54837457D01*
X115097100Y-54810447D01*
X115018051Y-54759645D01*
X114908919Y-54727602D01*
X114850141Y-54689828D01*
X114821116Y-54626272D01*
X114831060Y-54557114D01*
X114876814Y-54504310D01*
X114908920Y-54489648D01*
X115010050Y-54459954D01*
X115010050Y-54459953D01*
X115010053Y-54459953D01*
X115131128Y-54382143D01*
X115225377Y-54273373D01*
X115285165Y-54142457D01*
X115305647Y-54000000D01*
X115298401Y-53949600D01*
X116842353Y-53949600D01*
X116862834Y-54092056D01*
X116908230Y-54191457D01*
X116922623Y-54222973D01*
X117016872Y-54331743D01*
X117137947Y-54409553D01*
X117137950Y-54409554D01*
X117137949Y-54409554D01*
X117276036Y-54450099D01*
X117276038Y-54450100D01*
X117276039Y-54450100D01*
X117419962Y-54450100D01*
X117419962Y-54450099D01*
X117558053Y-54409553D01*
X117679128Y-54331743D01*
X117773377Y-54222973D01*
X117833165Y-54092057D01*
X117853647Y-53949600D01*
X117846343Y-53898800D01*
X119407753Y-53898800D01*
X119428234Y-54041256D01*
X119474452Y-54142457D01*
X119488023Y-54172173D01*
X119582272Y-54280943D01*
X119703347Y-54358753D01*
X119703350Y-54358754D01*
X119703349Y-54358754D01*
X119841436Y-54399299D01*
X119841438Y-54399300D01*
X119841439Y-54399300D01*
X119985362Y-54399300D01*
X119985362Y-54399299D01*
X120123453Y-54358753D01*
X120244528Y-54280943D01*
X120338777Y-54172173D01*
X120398565Y-54041257D01*
X120419047Y-53898800D01*
X120398565Y-53756343D01*
X120338777Y-53625427D01*
X120244528Y-53516657D01*
X120123453Y-53438847D01*
X120123451Y-53438846D01*
X120123449Y-53438845D01*
X120123450Y-53438845D01*
X119976852Y-53395801D01*
X119977739Y-53392777D01*
X119928332Y-53370216D01*
X119913399Y-53346981D01*
X119898467Y-53370215D01*
X119849060Y-53392778D01*
X119849948Y-53395801D01*
X119703349Y-53438845D01*
X119582273Y-53516656D01*
X119488023Y-53625426D01*
X119488022Y-53625428D01*
X119428234Y-53756343D01*
X119407753Y-53898800D01*
X117846343Y-53898800D01*
X117833165Y-53807143D01*
X117773377Y-53676227D01*
X117679128Y-53567457D01*
X117558053Y-53489647D01*
X117558051Y-53489646D01*
X117558049Y-53489645D01*
X117558050Y-53489645D01*
X117419963Y-53449100D01*
X117419961Y-53449100D01*
X117276039Y-53449100D01*
X117276036Y-53449100D01*
X117137949Y-53489645D01*
X117016873Y-53567456D01*
X116922623Y-53676226D01*
X116922622Y-53676228D01*
X116862834Y-53807143D01*
X116842353Y-53949600D01*
X115298401Y-53949600D01*
X115285165Y-53857543D01*
X115225377Y-53726627D01*
X115131128Y-53617857D01*
X115010053Y-53540047D01*
X115010051Y-53540046D01*
X115010049Y-53540045D01*
X115010050Y-53540045D01*
X114871963Y-53499500D01*
X114871961Y-53499500D01*
X114728039Y-53499500D01*
X114728036Y-53499500D01*
X114589949Y-53540045D01*
X114468873Y-53617856D01*
X114468872Y-53617856D01*
X114468872Y-53617857D01*
X114462313Y-53625427D01*
X114374623Y-53726626D01*
X114374622Y-53726628D01*
X114314834Y-53857543D01*
X114294353Y-54000000D01*
X108550202Y-54000000D01*
X108536765Y-53906543D01*
X108476977Y-53775627D01*
X108382728Y-53666857D01*
X108261653Y-53589047D01*
X108261651Y-53589046D01*
X108261649Y-53589045D01*
X108261650Y-53589045D01*
X108123563Y-53548500D01*
X108123561Y-53548500D01*
X107979639Y-53548500D01*
X107979636Y-53548500D01*
X107841549Y-53589045D01*
X107720473Y-53666856D01*
X107626223Y-53775626D01*
X107626222Y-53775628D01*
X107566434Y-53906543D01*
X107545953Y-54049000D01*
X107181000Y-54049000D01*
X107181000Y-53340000D01*
X125944417Y-53340000D01*
X125964699Y-53545932D01*
X125971229Y-53567457D01*
X126024768Y-53743954D01*
X126122315Y-53926450D01*
X126122317Y-53926452D01*
X126253589Y-54086410D01*
X126321884Y-54142457D01*
X126413550Y-54217685D01*
X126596046Y-54315232D01*
X126794066Y-54375300D01*
X126794065Y-54375300D01*
X126812529Y-54377118D01*
X127000000Y-54395583D01*
X127205934Y-54375300D01*
X127403954Y-54315232D01*
X127586450Y-54217685D01*
X127746410Y-54086410D01*
X127877685Y-53926450D01*
X127975232Y-53743954D01*
X128035300Y-53545934D01*
X128055583Y-53340000D01*
X128035300Y-53134066D01*
X127975232Y-52936046D01*
X127877685Y-52753550D01*
X127796151Y-52654200D01*
X127746410Y-52593589D01*
X127586452Y-52462317D01*
X127586453Y-52462317D01*
X127586450Y-52462315D01*
X127403954Y-52364768D01*
X127205934Y-52304700D01*
X127205932Y-52304699D01*
X127205934Y-52304699D01*
X127000000Y-52284417D01*
X126794067Y-52304699D01*
X126596043Y-52364769D01*
X126536014Y-52396856D01*
X126413550Y-52462315D01*
X126413548Y-52462316D01*
X126413547Y-52462317D01*
X126253589Y-52593589D01*
X126122317Y-52753547D01*
X126024769Y-52936043D01*
X125964699Y-53134067D01*
X125944417Y-53340000D01*
X107181000Y-53340000D01*
X107181000Y-52779000D01*
X107545953Y-52779000D01*
X107566434Y-52921456D01*
X107618902Y-53036343D01*
X107626223Y-53052373D01*
X107720472Y-53161143D01*
X107841547Y-53238953D01*
X107841550Y-53238954D01*
X107841549Y-53238954D01*
X107979636Y-53279499D01*
X107979638Y-53279500D01*
X107979639Y-53279500D01*
X108123562Y-53279500D01*
X108123562Y-53279499D01*
X108261653Y-53238953D01*
X108382728Y-53161143D01*
X108476977Y-53052373D01*
X108536765Y-52921457D01*
X108557247Y-52779000D01*
X108536765Y-52636543D01*
X108476977Y-52505627D01*
X108382728Y-52396857D01*
X108261653Y-52319047D01*
X108261651Y-52319046D01*
X108261649Y-52319045D01*
X108261650Y-52319045D01*
X108123563Y-52278500D01*
X108123561Y-52278500D01*
X107979639Y-52278500D01*
X107979636Y-52278500D01*
X107841549Y-52319045D01*
X107720473Y-52396856D01*
X107626223Y-52505626D01*
X107626222Y-52505628D01*
X107566434Y-52636543D01*
X107545953Y-52779000D01*
X107181000Y-52779000D01*
X107181000Y-51509000D01*
X107545953Y-51509000D01*
X107566434Y-51651456D01*
X107578413Y-51677685D01*
X107626223Y-51782373D01*
X107720472Y-51891143D01*
X107841547Y-51968953D01*
X107841550Y-51968954D01*
X107841549Y-51968954D01*
X107979636Y-52009499D01*
X107979638Y-52009500D01*
X107979639Y-52009500D01*
X108123562Y-52009500D01*
X108123562Y-52009499D01*
X108259637Y-51969545D01*
X108261650Y-51968954D01*
X108261650Y-51968953D01*
X108261653Y-51968953D01*
X108382728Y-51891143D01*
X108476977Y-51782373D01*
X108536765Y-51651457D01*
X108557247Y-51509000D01*
X108536765Y-51366543D01*
X108476977Y-51235627D01*
X108382728Y-51126857D01*
X108261653Y-51049047D01*
X108261651Y-51049046D01*
X108261649Y-51049045D01*
X108261650Y-51049045D01*
X108123563Y-51008500D01*
X108123561Y-51008500D01*
X107979639Y-51008500D01*
X107979636Y-51008500D01*
X107841549Y-51049045D01*
X107720473Y-51126856D01*
X107626223Y-51235626D01*
X107626222Y-51235628D01*
X107566434Y-51366543D01*
X107545953Y-51509000D01*
X107181000Y-51509000D01*
X107181000Y-50239000D01*
X107545953Y-50239000D01*
X107566434Y-50381456D01*
X107606780Y-50469800D01*
X107626223Y-50512373D01*
X107720472Y-50621143D01*
X107841547Y-50698953D01*
X107841550Y-50698954D01*
X107841549Y-50698954D01*
X107979636Y-50739499D01*
X107979638Y-50739500D01*
X107979639Y-50739500D01*
X108123562Y-50739500D01*
X108123562Y-50739499D01*
X108261653Y-50698953D01*
X108382728Y-50621143D01*
X108476977Y-50512373D01*
X108536765Y-50381457D01*
X108557247Y-50239000D01*
X108536765Y-50096543D01*
X108476977Y-49965627D01*
X108382728Y-49856857D01*
X108261653Y-49779047D01*
X108261651Y-49779046D01*
X108261649Y-49779045D01*
X108261650Y-49779045D01*
X108123563Y-49738500D01*
X108123561Y-49738500D01*
X107979639Y-49738500D01*
X107979636Y-49738500D01*
X107841549Y-49779045D01*
X107720473Y-49856856D01*
X107626223Y-49965626D01*
X107626222Y-49965628D01*
X107566434Y-50096543D01*
X107545953Y-50239000D01*
X107181000Y-50239000D01*
X107181000Y-48969000D01*
X107545953Y-48969000D01*
X107566434Y-49111456D01*
X107578413Y-49137685D01*
X107626223Y-49242373D01*
X107720472Y-49351143D01*
X107841547Y-49428953D01*
X107841550Y-49428954D01*
X107841549Y-49428954D01*
X107979636Y-49469499D01*
X107979638Y-49469500D01*
X107979639Y-49469500D01*
X108123562Y-49469500D01*
X108123562Y-49469499D01*
X108261653Y-49428953D01*
X108382728Y-49351143D01*
X108476977Y-49242373D01*
X108536765Y-49111457D01*
X108557247Y-48969000D01*
X108536765Y-48826543D01*
X108476977Y-48695627D01*
X108382728Y-48586857D01*
X108261653Y-48509047D01*
X108261651Y-48509046D01*
X108261649Y-48509045D01*
X108261650Y-48509045D01*
X108123563Y-48468500D01*
X108123561Y-48468500D01*
X107979639Y-48468500D01*
X107979636Y-48468500D01*
X107841549Y-48509045D01*
X107720473Y-48586856D01*
X107626223Y-48695626D01*
X107626222Y-48695628D01*
X107566434Y-48826543D01*
X107545953Y-48969000D01*
X107181000Y-48969000D01*
X107181000Y-47099000D01*
X110767353Y-47099000D01*
X110787834Y-47241456D01*
X110807615Y-47284769D01*
X110847623Y-47372373D01*
X110941872Y-47481143D01*
X111062947Y-47558953D01*
X111062950Y-47558954D01*
X111062949Y-47558954D01*
X111201036Y-47599499D01*
X111201038Y-47599500D01*
X111352933Y-47599500D01*
X111419972Y-47619185D01*
X111465727Y-47671989D01*
X111475670Y-47741146D01*
X111467353Y-47799000D01*
X111475554Y-47856043D01*
X111475671Y-47856853D01*
X111465727Y-47926012D01*
X111419972Y-47978816D01*
X111352933Y-47998500D01*
X111201036Y-47998500D01*
X111062949Y-48039045D01*
X110941873Y-48116856D01*
X110847623Y-48225626D01*
X110847622Y-48225628D01*
X110787834Y-48356543D01*
X110767353Y-48499000D01*
X110787834Y-48641456D01*
X110798109Y-48663954D01*
X110847623Y-48772373D01*
X110941872Y-48881143D01*
X111062947Y-48958953D01*
X111062950Y-48958954D01*
X111062949Y-48958954D01*
X111201036Y-48999499D01*
X111201038Y-48999500D01*
X111352933Y-48999500D01*
X111419972Y-49019185D01*
X111465727Y-49071989D01*
X111475671Y-49141147D01*
X111467353Y-49199000D01*
X111487834Y-49341456D01*
X111527794Y-49428954D01*
X111547623Y-49472373D01*
X111641872Y-49581143D01*
X111762947Y-49658953D01*
X111762950Y-49658954D01*
X111762949Y-49658954D01*
X111901036Y-49699499D01*
X111901038Y-49699500D01*
X111901039Y-49699500D01*
X112044962Y-49699500D01*
X112044962Y-49699499D01*
X112183053Y-49658953D01*
X112304128Y-49581143D01*
X112398377Y-49472373D01*
X112458165Y-49341457D01*
X112478647Y-49199000D01*
X112470329Y-49141146D01*
X112480273Y-49071988D01*
X112526028Y-49019184D01*
X112593067Y-48999500D01*
X112752933Y-48999500D01*
X112819972Y-49019185D01*
X112865727Y-49071989D01*
X112875671Y-49141147D01*
X112867353Y-49199000D01*
X112887834Y-49341456D01*
X112927794Y-49428954D01*
X112947623Y-49472373D01*
X113041872Y-49581143D01*
X113162947Y-49658953D01*
X113162950Y-49658954D01*
X113162949Y-49658954D01*
X113301036Y-49699499D01*
X113301038Y-49699500D01*
X113301039Y-49699500D01*
X113444962Y-49699500D01*
X113444962Y-49699499D01*
X113583053Y-49658953D01*
X113704128Y-49581143D01*
X113798377Y-49472373D01*
X113853259Y-49352200D01*
X119382353Y-49352200D01*
X119402834Y-49494656D01*
X119442332Y-49581143D01*
X119462623Y-49625573D01*
X119556872Y-49734343D01*
X119556874Y-49734344D01*
X119556876Y-49734346D01*
X119669437Y-49806685D01*
X119715192Y-49859489D01*
X119725136Y-49928647D01*
X119696111Y-49992203D01*
X119669437Y-50015315D01*
X119556876Y-50087653D01*
X119556874Y-50087655D01*
X119462623Y-50196426D01*
X119462622Y-50196428D01*
X119402834Y-50327343D01*
X119382353Y-50469800D01*
X119402834Y-50612256D01*
X119462622Y-50743171D01*
X119462623Y-50743173D01*
X119556872Y-50851943D01*
X119556874Y-50851944D01*
X119556876Y-50851946D01*
X119669437Y-50924285D01*
X119715192Y-50977089D01*
X119725136Y-51046247D01*
X119696111Y-51109803D01*
X119669437Y-51132915D01*
X119556876Y-51205253D01*
X119556874Y-51205255D01*
X119462623Y-51314026D01*
X119462622Y-51314028D01*
X119402834Y-51444943D01*
X119382353Y-51587400D01*
X119402834Y-51729856D01*
X119450990Y-51835300D01*
X119462623Y-51860773D01*
X119556872Y-51969543D01*
X119642615Y-52024647D01*
X119688369Y-52077449D01*
X119698313Y-52146607D01*
X119669289Y-52210163D01*
X119642615Y-52233276D01*
X119582274Y-52272055D01*
X119488023Y-52380826D01*
X119488022Y-52380828D01*
X119428234Y-52511743D01*
X119407753Y-52654200D01*
X119428234Y-52796656D01*
X119485229Y-52921456D01*
X119488023Y-52927573D01*
X119582272Y-53036343D01*
X119703347Y-53114153D01*
X119703350Y-53114154D01*
X119703349Y-53114154D01*
X119849948Y-53157199D01*
X119849060Y-53160222D01*
X119898472Y-53182789D01*
X119913399Y-53206018D01*
X119928326Y-53182790D01*
X119977739Y-53160221D01*
X119976852Y-53157199D01*
X120123450Y-53114154D01*
X120123450Y-53114153D01*
X120123453Y-53114153D01*
X120244528Y-53036343D01*
X120338777Y-52927573D01*
X120398565Y-52796657D01*
X120419047Y-52654200D01*
X120398565Y-52511743D01*
X120338777Y-52380827D01*
X120244528Y-52272057D01*
X120158783Y-52216952D01*
X120113030Y-52164150D01*
X120103086Y-52094991D01*
X120132111Y-52031436D01*
X120158784Y-52008323D01*
X120219128Y-51969543D01*
X120313377Y-51860773D01*
X120373165Y-51729857D01*
X120393647Y-51587400D01*
X120373165Y-51444943D01*
X120313377Y-51314027D01*
X120219128Y-51205257D01*
X120106560Y-51132914D01*
X120060807Y-51080112D01*
X120050863Y-51010953D01*
X120079888Y-50947398D01*
X120106561Y-50924285D01*
X120219128Y-50851943D01*
X120313377Y-50743173D01*
X120373165Y-50612257D01*
X120393647Y-50469800D01*
X120373165Y-50327343D01*
X120313377Y-50196427D01*
X120219128Y-50087657D01*
X120106560Y-50015314D01*
X120060807Y-49962512D01*
X120050863Y-49893353D01*
X120079888Y-49829798D01*
X120106561Y-49806685D01*
X120219128Y-49734343D01*
X120313377Y-49625573D01*
X120373165Y-49494657D01*
X120393647Y-49352200D01*
X120373165Y-49209743D01*
X120313377Y-49078827D01*
X120219128Y-48970057D01*
X120098053Y-48892247D01*
X120098051Y-48892246D01*
X120098049Y-48892245D01*
X120098050Y-48892245D01*
X119959963Y-48851700D01*
X119959961Y-48851700D01*
X119816039Y-48851700D01*
X119816036Y-48851700D01*
X119677949Y-48892245D01*
X119556873Y-48970056D01*
X119462623Y-49078826D01*
X119462622Y-49078828D01*
X119402834Y-49209743D01*
X119382353Y-49352200D01*
X113853259Y-49352200D01*
X113858165Y-49341457D01*
X113878647Y-49199000D01*
X113870329Y-49141146D01*
X113880273Y-49071988D01*
X113926028Y-49019184D01*
X113993067Y-48999500D01*
X114144962Y-48999500D01*
X114144962Y-48999499D01*
X114283053Y-48958953D01*
X114404128Y-48881143D01*
X114498377Y-48772373D01*
X114558165Y-48641457D01*
X114578647Y-48499000D01*
X114558165Y-48356543D01*
X114498377Y-48225627D01*
X114404128Y-48116857D01*
X114283053Y-48039047D01*
X114283051Y-48039046D01*
X114283049Y-48039045D01*
X114283050Y-48039045D01*
X114144963Y-47998500D01*
X114144961Y-47998500D01*
X114001039Y-47998500D01*
X113993067Y-47998500D01*
X113926028Y-47978815D01*
X113880273Y-47926011D01*
X113870329Y-47856853D01*
X113870445Y-47856046D01*
X113878647Y-47799000D01*
X113870329Y-47741146D01*
X113880273Y-47671988D01*
X113926028Y-47619184D01*
X113993067Y-47599500D01*
X114144962Y-47599500D01*
X114144962Y-47599499D01*
X114283053Y-47558953D01*
X114404128Y-47481143D01*
X114498377Y-47372373D01*
X114558165Y-47241457D01*
X114578647Y-47099000D01*
X114558165Y-46956543D01*
X114498377Y-46825627D01*
X114404128Y-46716857D01*
X114283053Y-46639047D01*
X114283051Y-46639046D01*
X114283049Y-46639045D01*
X114283050Y-46639045D01*
X114144963Y-46598500D01*
X114144961Y-46598500D01*
X114001039Y-46598500D01*
X113993067Y-46598500D01*
X113926028Y-46578815D01*
X113880273Y-46526011D01*
X113870329Y-46456853D01*
X113878647Y-46399000D01*
X113858165Y-46256543D01*
X113798377Y-46125627D01*
X113704128Y-46016857D01*
X113583053Y-45939047D01*
X113583051Y-45939046D01*
X113583049Y-45939045D01*
X113583050Y-45939045D01*
X113444963Y-45898500D01*
X113444961Y-45898500D01*
X113301039Y-45898500D01*
X113301036Y-45898500D01*
X113162949Y-45939045D01*
X113041873Y-46016856D01*
X112947623Y-46125626D01*
X112947622Y-46125628D01*
X112887834Y-46256543D01*
X112867353Y-46398999D01*
X112875671Y-46456853D01*
X112865727Y-46526012D01*
X112819972Y-46578816D01*
X112752933Y-46598500D01*
X112593067Y-46598500D01*
X112526028Y-46578815D01*
X112480273Y-46526011D01*
X112470329Y-46456853D01*
X112478647Y-46399000D01*
X112458165Y-46256543D01*
X112398377Y-46125627D01*
X112304128Y-46016857D01*
X112183053Y-45939047D01*
X112183051Y-45939046D01*
X112183049Y-45939045D01*
X112183050Y-45939045D01*
X112044963Y-45898500D01*
X112044961Y-45898500D01*
X111901039Y-45898500D01*
X111901036Y-45898500D01*
X111762949Y-45939045D01*
X111641873Y-46016856D01*
X111547623Y-46125626D01*
X111547622Y-46125628D01*
X111487834Y-46256543D01*
X111467353Y-46398999D01*
X111475671Y-46456853D01*
X111465727Y-46526012D01*
X111419972Y-46578816D01*
X111352933Y-46598500D01*
X111201036Y-46598500D01*
X111062949Y-46639045D01*
X110941873Y-46716856D01*
X110847623Y-46825626D01*
X110847622Y-46825628D01*
X110787834Y-46956543D01*
X110767353Y-47099000D01*
X107181000Y-47099000D01*
X107181000Y-45161200D01*
X119585553Y-45161200D01*
X119606034Y-45303656D01*
X119665822Y-45434571D01*
X119665823Y-45434573D01*
X119760072Y-45543343D01*
X119881147Y-45621153D01*
X119881150Y-45621154D01*
X119881149Y-45621154D01*
X120019236Y-45661699D01*
X120019238Y-45661700D01*
X120019239Y-45661700D01*
X120163162Y-45661700D01*
X120163162Y-45661699D01*
X120301253Y-45621153D01*
X120422328Y-45543343D01*
X120516577Y-45434573D01*
X120576365Y-45303657D01*
X120596847Y-45161200D01*
X120576365Y-45018743D01*
X120516577Y-44887827D01*
X120422328Y-44779057D01*
X120301253Y-44701247D01*
X120301251Y-44701246D01*
X120301249Y-44701245D01*
X120301250Y-44701245D01*
X120163163Y-44660700D01*
X120163161Y-44660700D01*
X120019239Y-44660700D01*
X120019236Y-44660700D01*
X119881149Y-44701245D01*
X119760073Y-44779056D01*
X119665823Y-44887826D01*
X119665822Y-44887828D01*
X119606034Y-45018743D01*
X119585553Y-45161200D01*
X107181000Y-45161200D01*
X107181000Y-44356126D01*
X107181000Y-44356124D01*
X107154354Y-44256680D01*
X107154354Y-44256679D01*
X107154354Y-44256678D01*
X107130464Y-44215300D01*
X107102878Y-44167520D01*
X106826558Y-43891200D01*
X119585553Y-43891200D01*
X119606034Y-44033656D01*
X119635012Y-44097107D01*
X119665823Y-44164573D01*
X119760072Y-44273343D01*
X119881147Y-44351153D01*
X119881150Y-44351154D01*
X119881149Y-44351154D01*
X120019236Y-44391699D01*
X120019238Y-44391700D01*
X120019239Y-44391700D01*
X120163162Y-44391700D01*
X120163162Y-44391699D01*
X120270321Y-44360235D01*
X120301250Y-44351154D01*
X120301250Y-44351153D01*
X120301253Y-44351153D01*
X120422328Y-44273343D01*
X120516577Y-44164573D01*
X120576365Y-44033657D01*
X120596847Y-43891200D01*
X120576365Y-43748743D01*
X120516577Y-43617827D01*
X120422328Y-43509057D01*
X120301253Y-43431247D01*
X120301251Y-43431246D01*
X120301249Y-43431245D01*
X120301250Y-43431245D01*
X120163163Y-43390700D01*
X120163161Y-43390700D01*
X120019239Y-43390700D01*
X120019236Y-43390700D01*
X119881149Y-43431245D01*
X119760073Y-43509056D01*
X119665823Y-43617826D01*
X119665822Y-43617828D01*
X119606034Y-43748743D01*
X119585553Y-43891200D01*
X106826558Y-43891200D01*
X106489238Y-43553880D01*
X106400079Y-43502404D01*
X106300634Y-43475758D01*
X106300633Y-43475758D01*
X104278077Y-43475758D01*
X104211038Y-43456073D01*
X104190400Y-43439443D01*
X104024302Y-43273344D01*
X103990819Y-43212023D01*
X103995803Y-43142331D01*
X104037675Y-43086398D01*
X104044946Y-43081349D01*
X104045249Y-43081154D01*
X104045253Y-43081153D01*
X104166328Y-43003343D01*
X104260577Y-42894573D01*
X104320365Y-42763657D01*
X104340847Y-42621200D01*
X104340531Y-42619000D01*
X119684953Y-42619000D01*
X119705434Y-42761456D01*
X119718434Y-42789921D01*
X119765223Y-42892373D01*
X119859472Y-43001143D01*
X119980547Y-43078953D01*
X119980550Y-43078954D01*
X119980549Y-43078954D01*
X120118636Y-43119499D01*
X120118638Y-43119500D01*
X120118639Y-43119500D01*
X120262562Y-43119500D01*
X120262562Y-43119499D01*
X120392050Y-43081479D01*
X120400650Y-43078954D01*
X120400651Y-43078954D01*
X120400653Y-43078953D01*
X120477315Y-43029684D01*
X120544355Y-43010000D01*
X121195680Y-43010000D01*
X121262719Y-43029685D01*
X121283361Y-43046319D01*
X121392681Y-43155639D01*
X121426166Y-43216962D01*
X121429000Y-43243320D01*
X121429000Y-49858524D01*
X121429000Y-49961476D01*
X121455646Y-50060921D01*
X121507122Y-50150080D01*
X122469920Y-51112878D01*
X122559079Y-51164354D01*
X122658524Y-51191000D01*
X125943522Y-51191000D01*
X126010561Y-51210685D01*
X126052880Y-51256547D01*
X126122315Y-51386451D01*
X126253589Y-51546410D01*
X126350209Y-51625702D01*
X126413550Y-51677685D01*
X126596046Y-51775232D01*
X126794066Y-51835300D01*
X126794065Y-51835300D01*
X126812529Y-51837118D01*
X127000000Y-51855583D01*
X127205934Y-51835300D01*
X127403954Y-51775232D01*
X127586450Y-51677685D01*
X127746410Y-51546410D01*
X127877685Y-51386450D01*
X127975232Y-51203954D01*
X128035300Y-51005934D01*
X128055583Y-50800000D01*
X128035300Y-50594066D01*
X127975232Y-50396046D01*
X127877685Y-50213550D01*
X127825594Y-50150076D01*
X127746410Y-50053589D01*
X127628677Y-49956969D01*
X127586450Y-49922315D01*
X127403954Y-49824768D01*
X127205934Y-49764700D01*
X127205932Y-49764699D01*
X127205934Y-49764699D01*
X127000000Y-49744417D01*
X126794067Y-49764699D01*
X126596043Y-49824769D01*
X126531088Y-49859489D01*
X126413550Y-49922315D01*
X126413548Y-49922316D01*
X126413547Y-49922317D01*
X126253589Y-50053589D01*
X126122315Y-50213548D01*
X126052880Y-50343453D01*
X126003918Y-50393298D01*
X125943522Y-50409000D01*
X122923320Y-50409000D01*
X122856281Y-50389315D01*
X122835639Y-50372681D01*
X122247319Y-49784361D01*
X122213834Y-49723038D01*
X122211000Y-49696680D01*
X122211000Y-48260000D01*
X125944417Y-48260000D01*
X125964699Y-48465932D01*
X125964700Y-48465934D01*
X126024768Y-48663954D01*
X126122315Y-48846450D01*
X126122317Y-48846452D01*
X126253589Y-49006410D01*
X126333497Y-49071988D01*
X126413550Y-49137685D01*
X126596046Y-49235232D01*
X126794066Y-49295300D01*
X126794065Y-49295300D01*
X126812529Y-49297118D01*
X127000000Y-49315583D01*
X127205934Y-49295300D01*
X127403954Y-49235232D01*
X127586450Y-49137685D01*
X127746410Y-49006410D01*
X127877685Y-48846450D01*
X127975232Y-48663954D01*
X128035300Y-48465934D01*
X128055583Y-48260000D01*
X128035300Y-48054066D01*
X127975232Y-47856046D01*
X127877685Y-47673550D01*
X127783639Y-47558954D01*
X127746410Y-47513589D01*
X127586452Y-47382317D01*
X127586453Y-47382317D01*
X127586450Y-47382315D01*
X127403954Y-47284768D01*
X127205934Y-47224700D01*
X127205932Y-47224699D01*
X127205934Y-47224699D01*
X127000000Y-47204417D01*
X126794067Y-47224699D01*
X126596043Y-47284769D01*
X126570355Y-47298500D01*
X126413550Y-47382315D01*
X126413548Y-47382316D01*
X126413547Y-47382317D01*
X126253589Y-47513589D01*
X126122317Y-47673547D01*
X126024769Y-47856043D01*
X125964699Y-48054067D01*
X125944417Y-48260000D01*
X122211000Y-48260000D01*
X122211000Y-45720000D01*
X125944417Y-45720000D01*
X125964699Y-45925932D01*
X125992281Y-46016856D01*
X126024768Y-46123954D01*
X126122315Y-46306450D01*
X126122317Y-46306452D01*
X126253589Y-46466410D01*
X126345036Y-46541457D01*
X126413550Y-46597685D01*
X126596046Y-46695232D01*
X126794066Y-46755300D01*
X126794065Y-46755300D01*
X126812529Y-46757118D01*
X127000000Y-46775583D01*
X127205934Y-46755300D01*
X127403954Y-46695232D01*
X127586450Y-46597685D01*
X127746410Y-46466410D01*
X127877685Y-46306450D01*
X127975232Y-46123954D01*
X128035300Y-45925934D01*
X128055583Y-45720000D01*
X128035300Y-45514066D01*
X127975232Y-45316046D01*
X127877685Y-45133550D01*
X127825702Y-45070209D01*
X127746410Y-44973589D01*
X127586452Y-44842317D01*
X127586453Y-44842317D01*
X127586450Y-44842315D01*
X127403954Y-44744768D01*
X127205934Y-44684700D01*
X127205932Y-44684699D01*
X127205934Y-44684699D01*
X127000000Y-44664417D01*
X126794067Y-44684699D01*
X126596043Y-44744769D01*
X126531898Y-44779056D01*
X126413550Y-44842315D01*
X126413548Y-44842316D01*
X126413547Y-44842317D01*
X126253589Y-44973589D01*
X126122317Y-45133547D01*
X126024769Y-45316043D01*
X125964699Y-45514067D01*
X125944417Y-45720000D01*
X122211000Y-45720000D01*
X122211000Y-43180000D01*
X125944417Y-43180000D01*
X125964699Y-43385932D01*
X125978445Y-43431245D01*
X126024768Y-43583954D01*
X126122315Y-43766450D01*
X126122316Y-43766451D01*
X126122317Y-43766452D01*
X126253589Y-43926410D01*
X126350209Y-44005702D01*
X126413550Y-44057685D01*
X126596046Y-44155232D01*
X126794066Y-44215300D01*
X126794065Y-44215300D01*
X126812529Y-44217118D01*
X127000000Y-44235583D01*
X127205934Y-44215300D01*
X127403954Y-44155232D01*
X127586450Y-44057685D01*
X127746410Y-43926410D01*
X127877685Y-43766450D01*
X127975232Y-43583954D01*
X128035300Y-43385934D01*
X128055583Y-43180000D01*
X128035300Y-42974066D01*
X127975232Y-42776046D01*
X127877685Y-42593550D01*
X127783466Y-42478743D01*
X127746410Y-42433589D01*
X127591091Y-42306124D01*
X127586450Y-42302315D01*
X127403954Y-42204768D01*
X127205934Y-42144700D01*
X127205932Y-42144699D01*
X127205934Y-42144699D01*
X127000000Y-42124417D01*
X126794067Y-42144699D01*
X126596043Y-42204769D01*
X126502730Y-42254647D01*
X126413550Y-42302315D01*
X126413548Y-42302316D01*
X126413547Y-42302317D01*
X126253589Y-42433589D01*
X126122317Y-42593547D01*
X126024769Y-42776043D01*
X126024768Y-42776045D01*
X126024768Y-42776046D01*
X126020560Y-42789918D01*
X125964699Y-42974067D01*
X125944417Y-43180000D01*
X122211000Y-43180000D01*
X122211000Y-43091478D01*
X122211001Y-43091465D01*
X122211001Y-42978526D01*
X122211001Y-42978524D01*
X122184354Y-42879080D01*
X122132878Y-42789920D01*
X121649080Y-42306122D01*
X121559921Y-42254646D01*
X121460476Y-42228000D01*
X121460475Y-42228000D01*
X120544355Y-42228000D01*
X120477316Y-42208315D01*
X120439350Y-42183916D01*
X120400651Y-42159045D01*
X120262563Y-42118500D01*
X120262561Y-42118500D01*
X120118639Y-42118500D01*
X120118636Y-42118500D01*
X119980549Y-42159045D01*
X119859473Y-42236856D01*
X119765223Y-42345626D01*
X119765222Y-42345628D01*
X119705434Y-42476543D01*
X119684953Y-42619000D01*
X104340531Y-42619000D01*
X104320365Y-42478743D01*
X104260577Y-42347827D01*
X104166328Y-42239057D01*
X104045253Y-42161247D01*
X104045251Y-42161246D01*
X104045249Y-42161245D01*
X104045250Y-42161245D01*
X103907163Y-42120700D01*
X103907161Y-42120700D01*
X103763239Y-42120700D01*
X103763236Y-42120700D01*
X103625149Y-42161245D01*
X103504073Y-42239056D01*
X103409823Y-42347826D01*
X103409822Y-42347828D01*
X103350034Y-42478743D01*
X103329553Y-42621200D01*
X103333313Y-42647354D01*
X103323369Y-42716512D01*
X103277614Y-42769316D01*
X103210575Y-42789000D01*
X102656478Y-42789000D01*
X102589439Y-42769315D01*
X102547120Y-42723453D01*
X102477684Y-42593548D01*
X102346410Y-42433589D01*
X102191091Y-42306124D01*
X102186450Y-42302315D01*
X102056546Y-42232879D01*
X102006702Y-42183916D01*
X101991000Y-42123521D01*
X101991000Y-41814500D01*
X102010685Y-41747461D01*
X102063489Y-41701706D01*
X102115000Y-41690500D01*
X102469750Y-41690500D01*
X102469751Y-41690499D01*
X102484568Y-41687552D01*
X102528229Y-41678868D01*
X102528229Y-41678867D01*
X102528231Y-41678867D01*
X102594552Y-41634552D01*
X102638867Y-41568231D01*
X102638867Y-41568229D01*
X102638868Y-41568229D01*
X102650499Y-41509752D01*
X102650500Y-41509750D01*
X102650500Y-39770249D01*
X102650499Y-39770247D01*
X125949500Y-39770247D01*
X125949500Y-41509752D01*
X125961131Y-41568229D01*
X125961132Y-41568230D01*
X126005447Y-41634552D01*
X126071769Y-41678867D01*
X126071770Y-41678868D01*
X126130247Y-41690499D01*
X126130250Y-41690500D01*
X126130252Y-41690500D01*
X127869750Y-41690500D01*
X127869751Y-41690499D01*
X127884568Y-41687552D01*
X127928229Y-41678868D01*
X127928229Y-41678867D01*
X127928231Y-41678867D01*
X127994552Y-41634552D01*
X128038867Y-41568231D01*
X128038867Y-41568229D01*
X128038868Y-41568229D01*
X128050499Y-41509752D01*
X128050500Y-41509750D01*
X128050500Y-39770249D01*
X128050499Y-39770247D01*
X128038868Y-39711770D01*
X128038867Y-39711769D01*
X127994552Y-39645447D01*
X127928230Y-39601132D01*
X127928229Y-39601131D01*
X127869752Y-39589500D01*
X127869748Y-39589500D01*
X126130252Y-39589500D01*
X126130247Y-39589500D01*
X126071770Y-39601131D01*
X126071769Y-39601132D01*
X126005447Y-39645447D01*
X125961132Y-39711769D01*
X125961131Y-39711770D01*
X125949500Y-39770247D01*
X102650499Y-39770247D01*
X102638868Y-39711770D01*
X102638867Y-39711769D01*
X102594552Y-39645447D01*
X102528230Y-39601132D01*
X102528229Y-39601131D01*
X102469752Y-39589500D01*
X102469748Y-39589500D01*
X100730252Y-39589500D01*
X100730247Y-39589500D01*
X100671770Y-39601131D01*
X100671769Y-39601132D01*
X100605447Y-39645447D01*
X100561132Y-39711769D01*
X100561131Y-39711770D01*
X100549500Y-39770247D01*
X100549500Y-41509752D01*
X100561131Y-41568229D01*
X100561132Y-41568230D01*
X100605447Y-41634552D01*
X100671769Y-41678867D01*
X100671770Y-41678868D01*
X100730247Y-41690499D01*
X100730250Y-41690500D01*
X100730252Y-41690500D01*
X101085000Y-41690500D01*
X101152039Y-41710185D01*
X101197794Y-41762989D01*
X101209000Y-41814500D01*
X101209000Y-42123521D01*
X101189315Y-42190560D01*
X101143453Y-42232879D01*
X101013550Y-42302315D01*
X101013548Y-42302316D01*
X101013547Y-42302317D01*
X100853589Y-42433589D01*
X100722317Y-42593547D01*
X100624769Y-42776043D01*
X100624768Y-42776045D01*
X100624768Y-42776046D01*
X100620560Y-42789918D01*
X100564699Y-42974067D01*
X100544417Y-43180000D01*
X100119300Y-43180000D01*
X100119300Y-38713000D01*
X100138985Y-38645961D01*
X100191789Y-38600206D01*
X100243300Y-38589000D01*
X128356700Y-38589000D01*
X128423739Y-38608685D01*
G37*
%TD.AperFunction*%
%TD*%
M02*
